<?xml version="1.0" encoding="utf-8"?>
<!-- Generator: Adobe Illustrator 23.1.0, SVG Export Plug-In . SVG Version: 6.00 Build 0)  -->
<svg version="1.1" id="图层_1" xmlns="http://www.w3.org/2000/svg" xmlns:xlink="http://www.w3.org/1999/xlink" x="0px" y="0px"
	 viewBox="0 0 1600 1600" style="enable-background:new 0 0 1600 1600;" xml:space="preserve">
<style type="text/css">
	.st0{fill:#4E773F;}
	.st1{fill:#46693B;}
	.st2{fill:#CE7231;}
	.st3{fill:#649A42;}
	.st4{opacity:0.5;fill:#B33041;enable-background:new    ;}
	.st5{fill:#D79234;}
	.st6{fill:#E7BE46;}
	.st7{fill:#C1464C;}
	.st8{fill:#AF2533;}
</style>
<g>
	<g>
		<path class="st0" d="M1427.2,448.7c-7.5-24.5-558.3-170.4-627.2-170.4S180.3,424.1,172.8,448.7c-7.5,24.5,32.1,718,44.1,729.9
			c12,12,530.8,374.4,583.2,374.4s571.2-362.4,583.1-374.4S1434.7,473.2,1427.2,448.7z"/>
		<path class="st1" d="M800,278.3c-68.9,0-619.7,145.8-627.2,170.4c-2.3,7.5-0.2,77.2,4.2,170.7c157.1,76,580,269.1,623,269.1
			c42.9,0,465.9-193.1,623-269.1c4.4-93.5,6.4-163.3,4.1-170.7C1419.6,424.2,868.9,278.3,800,278.3z"/>
		<path class="st2" d="M748.7,285.6c-51.1,9.8-130,28.4-213.3,49.8c237,69.1,574.3,165.1,581,174.9c9.6,14.1-49.8,766.4-59.9,893.4
			c51.7-34.1,104.9-70,152.9-102.8c14.1-125.5,91.8-842.3,80.7-860.9C1282.3,427.3,977.7,345.3,748.7,285.6z"/>
		<path class="st0" d="M172.8,448.7c-7.5,24.5,32.1,718,44.1,729.9c12,12,530.8,374.4,583.2,374.4V278.3
			C731.1,278.3,180.4,424.2,172.8,448.7z"/>
		<path class="st2" d="M800,412.2V299c-220.7,57.9-482.9,129.2-490,141c-11.1,18.6,66.6,735.4,80.7,860.9
			c48,32.8,101.2,68.7,152.9,102.8c-10.2-127.1-69.5-879.4-59.9-893.4C488,503.9,633.5,460.7,800,412.2z"/>
		<path class="st3" d="M1502.7,350.5C1495.2,326,868.9,180.2,800,180.2S104.8,326,97.3,350.5c-7.6,24.6,9.5,189.4,21.4,201.4
			c12,12,628.9,298.9,681.3,298.9c52.4,0,669.3-286.9,681.3-298.9C1493.2,539.9,1510.3,375.1,1502.7,350.5z"/>
		<path class="st4" d="M172.8,448.7c-2.3,7.5-0.2,77.2,4.2,170.7c157.1,76,580,269.1,623,269.1V278.3
			C731.1,278.3,180.4,424.2,172.8,448.7z"/>
		<path class="st3" d="M97.3,350.5c-7.6,24.6,9.5,189.4,21.4,201.4c12,12,628.9,298.9,681.3,298.9V180.2
			C731.1,180.2,104.8,326,97.3,350.5z"/>
		<path class="st5" d="M535.1,230.8C470.9,245.3,402.8,261.3,340,277c151,48.4,767.3,220,776.4,233.3c3.3,4.8-1.5,95.3-9.5,217.5
			c57.5-25.7,116.3-52.4,169.7-77.1c10.8-117.2,17.3-204.4,13.4-210.7C1279.3,422.2,689.4,269.3,535.1,230.8z"/>
		<path class="st5" d="M519.6,496.4l-179.2-69.3c-18.1,6.2-29,10.6-30.4,12.9c-3.8,6.3,2.7,93.5,13.5,210.7
			c53.4,24.7,112.1,51.5,169.7,77.1c-8.1-122.3-12.8-212.7-9.5-217.5C484.9,508.4,497.9,503.5,519.6,496.4z"/>
		<path class="st0" d="M800,180.2c-68.9,0-695.2,145.8-702.7,170.3c0,0,0,0,0,0.1C263.3,423,756.1,624.3,800,624.3
			c43.8,0,536.7-201.3,702.7-273.7c0,0,0,0,0-0.1C1495.2,326,868.9,180.2,800,180.2z"/>
		<path class="st6" d="M1290,440c-10.7-17.8-600.5-170.7-754.9-209.2C470.9,245.3,402.8,261.3,340,277
			c151,48.4,767.2,220,776.4,233.3C1174.2,487.2,1233.9,463.1,1290,440L1290,440z"/>
		<path class="st6" d="M1064.9,230.8C910.6,269.3,320.7,422.2,310,440l0,0c56.1,23.1,115.8,47.2,173.6,70.3
			C492.8,497,1109,325.4,1260,277C1197.2,261.3,1129.1,245.3,1064.9,230.8z"/>
	</g>
	<g>
		<g>
			<path class="st4" d="M626.2,339.2c-30.8,6.9-242,46.2-363.7,129.3C140.7,551.6,114,745.1,141,791.6
				c10,16.4,35.1-136.7,137.9-208.4c0,0-4.2,194.9,66.6,278c19.3,24.5-44-165.8,83.7-301.7c73-79.3,333.5-247.6,333.5-247.6
				L626.2,339.2z"/>
			<path class="st7" d="M596,316.6c-30.8,6.9-242,46.3-363.7,129.3C110.5,528.9,83.8,722.4,110.8,769
				c10.1,16.4,35.1-136.7,138-208.4c0,0-4.2,194.9,66.5,278c19.3,24.5-44.1-165.8,83.7-301.7c73-79.3,351.7-214.6,351.7-214.6
				L596,316.6z"/>
			<path class="st4" d="M757,251.3c-21.2-4.4-59-7.7-136.9-65.7C542.3,127.6,435.5,34.2,345.4,85c-46.9,26.9-57.3,60.7-71.9,136
				s-3.5,160.6,64.6,173.9c68.1,13.2,389.4-54.1,426.5-64.2C801.7,320.5,785.4,257,757,251.3z"/>
			<path class="st7" d="M754.5,252.4c-20.8-5.8-58.4-11.8-132-75C548.9,114.1,448.9,13.6,355.4,58c-48.6,23.6-61.3,56.6-81.2,130.7
				c-19.8,74.1-14.6,160,52.4,177.9c67,17.9,392.2-26.9,429.9-34.5C794.3,324.6,782.4,260.2,754.5,252.4z"/>
			<path class="st8" d="M371.6,352.8c-25.5-0.6-68.6-3.8-80.5-70.5c-12-66.7,59.1-81.3,166.4-46.3c82.9,27.1,290.4,91.3,221.5,93.8
				C623.3,331.8,440.7,354.5,371.6,352.8z"/>
			<path class="st7" d="M371.2,51.9c-51.4,56.3-75.3,157-75.3,157c38.1-36.9,148.8,0,148.8,0c-10.1-55.4,5.2-117.3,15.5-149.9
				C430.7,47.1,400.7,42.9,371.2,51.9z"/>
			<path class="st7" d="M527,237.6c0,0-9.1-79.6,7.8-134.1C521,93,506.8,83.3,492.3,75c-10.3,27.6-27,84.2-18.4,142.7
				C473.9,217.6,511.2,230,527,237.6z"/>
			<path class="st7" d="M669.2,213.4c-7.7-5.2-15.9-11.3-24.8-18.2l-9.7,85.5c0,0,20.4,8.2,28,12L669.2,213.4z"/>
		</g>
		<g>
			<path class="st4" d="M964.9,339.2c30.8,6.9,242,46.2,363.7,129.3c121.8,83,148.5,276.6,121.5,323.1
				c-10.1,16.4-35.1-136.7-138-208.4c0,0,4.2,194.9-66.5,278c-19.3,24.5,44-165.8-83.7-301.7c-73-79.3-333.5-247.6-333.5-247.6
				L964.9,339.2z"/>
			<path class="st7" d="M995.1,316.6c30.8,6.9,242,46.3,363.7,129.3c121.8,83,148.5,276.6,121.5,323.1
				c-10.1,16.4-35.1-136.7-137.9-208.4c0,0,4.2,194.9-66.6,278c-19.3,24.5,44-165.8-83.7-301.7c-73-79.3-351.7-214.6-351.7-214.6
				L995.1,316.6z"/>
			<path class="st4" d="M834.1,251.3c21.2-4.4,59.1-7.7,136.9-65.7c77.9-58,184.6-151.3,274.7-100.5c46.9,26.9,57.3,60.7,71.9,136
				s3.5,160.6-64.6,173.9c-68.1,13.2-389.3-54.1-426.5-64.2C789.4,320.5,805.7,257,834.1,251.3z"/>
			<path class="st7" d="M836.6,252.4c20.8-5.8,58.4-11.8,132-75c73.7-63.2,173.7-163.7,267.1-119.4c48.6,23.6,61.3,56.6,81.2,130.7
				c19.9,74.1,14.6,160-52.4,177.9s-392.2-26.9-429.9-34.5C796.8,324.6,808.7,260.2,836.6,252.4z"/>
			<path class="st8" d="M1219.5,352.8c25.5-0.6,68.6-3.8,80.5-70.5c12-66.7-59.1-81.3-166.4-46.3c-82.9,27.1-290.4,91.3-221.5,93.8
				C967.8,331.8,1150.4,354.5,1219.5,352.8z"/>
			<path class="st7" d="M1219.9,51.9c51.4,56.3,75.3,157,75.3,157c-38.1-36.9-148.8,0-148.8,0c10.1-55.4-5.2-117.3-15.5-149.9
				C1160.4,47.1,1190.4,42.9,1219.9,51.9z"/>
			<path class="st7" d="M1064.1,237.6c0,0,9.1-79.6-7.8-134.1c13.8-10.5,28-20.2,42.5-28.5c10.3,27.6,27,84.2,18.4,142.7
				C1117.2,217.6,1080,230,1064.1,237.6z"/>
			<path class="st7" d="M921.9,213.4c7.7-5.2,16-11.3,24.8-18.2l9.7,85.5c0,0-20.4,8.2-28,12L921.9,213.4z"/>
		</g>
	</g>
	<g>
		<path class="st6" d="M857.9,239.9c-5.7-5-33.8-8.1-62.4-8.1c-28.6,0-56.7,3.1-62.4,8.1c-17.1,15-19,96.4,0,107.2
			c9.9,5.6,36,9.8,62.4,9.2c26.4,0.6,52.5-3.5,62.4-9.2C876.9,336.3,875.1,254.9,857.9,239.9z"/>
		<path class="st5" d="M857.9,239.9c-0.1-0.1-0.3-0.2-0.4-0.3c9.7,24.2,8.8,78.8-5.8,87.1c-9,5.1-32.4,8.8-56.2,8.2
			c-23.8,0.6-47.2-3.2-56.2-8.2c-14.5-8.3-15.5-62.9-5.8-87.1c-0.1,0.1-0.3,0.2-0.4,0.3c-17.1,15-19,96.4,0,107.2
			c9.9,5.6,36,9.8,62.4,9.2c26.4,0.6,52.5-3.5,62.4-9.2C876.9,336.3,875.1,254.9,857.9,239.9z"/>
	</g>
</g>
</svg>
