<?xml version="1.0" encoding="utf-8"?>
<!-- Generator: Adobe Illustrator 19.2.1, SVG Export Plug-In . SVG Version: 6.00 Build 0)  -->
<svg version="1.1" id="Слой_1" xmlns="http://www.w3.org/2000/svg" xmlns:xlink="http://www.w3.org/1999/xlink" x="0px" y="0px"
	 viewBox="0 0 50 50" style="enable-background:new 0 0 50 50;" xml:space="preserve">
<style type="text/css">
	.st0{fill:#5B2D0F;}
	.st1{fill:#8E450E;}
	.st2{fill:#B76720;}
	.st3{fill:#9B4E0E;}
	.st4{fill:#E8A752;}
	.st5{fill:#C4782C;}
	.st6{opacity:0.63;fill:#EDD8CC;}
	.st7{fill:#EDD8CC;}
	.st8{opacity:0.64;fill:#CEAF9B;}
	.st9{fill:#DBCAC1;}
	.st10{fill:#DBC6BA;}
</style>
<g>
	<g>
		<polygon class="st0" points="3.4,24 1.3,25.1 1.2,26.6 1.7,29.1 2.7,34 3.8,37.8 5,41 5.9,42.9 6.7,44.8 7.3,45.9 9.3,46.4 
			16.6,47.3 20.5,47.5 27.4,47.7 33.1,47.8 38.9,47.2 42.7,46.4 42.8,46.2 43,45.6 44.7,42.5 45.6,40.6 46.2,38.5 47.4,33.8 
			48.4,29.6 49,26.3 47.6,24.4 9,24.4 		"/>
		<polygon class="st1" points="35.9,26.1 44,26 46.9,25.8 48.1,25.5 48.5,25 48.4,24.2 46.7,23.6 44.1,23.2 42.5,23.1 36.8,23 
			30.7,22.8 22.1,22.9 13.5,23 7.3,23.1 3.4,23.4 1.6,24 1.6,24.5 2.2,25.1 5.6,25.9 12.4,26.1 19.7,26.1 28.6,26.1 		"/>
		<polygon class="st0" points="48.1,25.3 47,24.6 44.3,24.3 39.8,23.9 32.5,23.9 24.1,23.9 16.7,23.9 8.5,24 4.6,24.2 2.5,24.7 
			2.2,25.1 5.6,25.9 12.4,26.1 19.7,26.1 28.6,26.1 35.9,26.1 44,26 46.9,25.8 48.1,25.5 48.1,25.4 		"/>
		<polygon class="st2" points="46.7,23.6 44.1,23.2 42.5,23.1 36.8,23 30.7,22.8 22.1,22.9 13.5,23 7.3,23.1 3.4,23.4 1.6,24 
			1.6,24.5 1.7,24.6 2.1,24.3 3.9,23.8 8.1,23.5 14.3,23.4 22.2,23.4 26.8,23.3 32.1,23.3 37.3,23.4 42.6,23.7 45,23.8 47.3,24.3 
			48,24.7 48.5,25 48.5,25 48.4,24.2 		"/>
	</g>
	<g>
		<polygon class="st3" points="2.2,24.1 2.8,20 4.3,15.3 5.7,12.1 7.2,10.3 9.1,8.1 10.1,7.4 12.2,5.9 10.7,6.5 8.9,7.5 6.7,9.7 
			5.2,11.6 4.6,12.7 3.2,15.6 2.4,18 1.5,21.8 1.1,24.1 1.2,24.6 		"/>
		<polygon class="st3" points="35.8,5 38.8,6.7 41.2,8.9 43.3,12 45.3,15.5 46.7,19.1 47.3,22.2 47.7,24.5 48.6,24.9 48.5,23.8 
			47.2,18.6 46,15.4 44.9,13.2 43.3,10.2 42,8.5 40.5,6.9 39.5,6.2 		"/>
		<polygon class="st4" points="6.4,9.9 7.9,7.8 10.6,5.3 13.3,3.7 16.8,2.4 20.8,1.6 25.6,1.6 30.2,2 35.3,3.1 38.5,4.5 40.1,5.7 
			41.6,7.6 42.7,9.3 40.6,7.1 38.9,6.1 37,5.3 32.5,4 29.1,3.3 25.5,3 21.7,2.8 17.3,3.6 14.3,4.7 11.2,6.1 8.9,7.5 7.7,8.7 		"/>
		<polygon class="st5" points="1.4,24.5 1.8,21.2 3,16.9 5.2,12 9.3,7.5 16.9,4 21.7,3.1 28.5,3.5 34.1,4.7 39.2,6.5 42.1,8.9 
			44.9,13.6 46.8,18.2 47.9,22.5 48.4,24.6 48.8,24.6 48.3,21.2 46.6,15.9 43.5,10.1 40.4,6.4 35.2,4.1 30.2,3.1 21.5,2.5 16.3,3.5 
			11.4,5.4 9,7.1 6.5,9.4 4.6,12.2 2.6,16.2 1.1,22.2 0.7,25 		"/>
	</g>
	<g>
		<g>
			<polygon class="st2" points="10.5,27.7 10.5,30 10.8,32.5 11,35.5 11.2,40.8 11.8,44.7 12.1,46.2 12.8,46.4 15.6,46.7 15.9,46.4 
				15.6,44.6 15.3,42.1 15.1,39.2 14.8,35.2 14.6,31.9 14.7,29 14.7,27.8 			"/>
			<polygon class="st3" points="15.9,46.4 15.6,44.6 15.3,42.1 15.1,39.2 14.8,35.2 14.6,31.9 14.7,29 14.7,27.8 14.4,27.8 
				14.3,29.6 14.3,32.9 14.6,38.2 15.1,43.3 15.4,45.5 15.6,46.7 			"/>
			<polygon class="st2" points="3.1,27.4 3.3,29.5 3.7,32.9 4.7,37 6.3,42 7.4,44.8 7.8,45.5 8.5,45.7 9.7,45.9 9.9,45.8 9.3,43 
				8.8,40.5 8.2,36.9 7.8,34.1 7.4,30.9 7,27.7 5,27.7 			"/>
			<polygon class="st3" points="9.3,43 8.8,40.5 8.2,36.9 7.8,34.1 7.4,30.9 7,27.7 6.8,27.7 6.9,29.5 7.4,33.3 7.7,36.1 8.4,40.2 
				9.2,43.8 9.7,45.6 9.7,45.9 9.9,45.8 			"/>
			<polygon class="st2" points="0.9,26.8 1.1,28.4 1.7,30.8 2.5,34.2 3.7,38.3 5,41.5 6.7,45.2 7,45.6 7.3,45.6 5.9,42.7 4.8,39.9 
				3.9,36.8 3,33.6 2.3,30.9 1.7,27.1 			"/>
			<polygon class="st3" points="5.9,42.9 7.2,45.6 7.3,45.6 5.9,42.7 4.8,39.9 3.9,36.8 3,33.6 2.3,30.9 1.7,27.1 1.5,27 1.7,28.2 
				2.1,31.2 2.7,33.7 3.6,36.9 4.8,40.2 			"/>
			<polygon class="st2" points="17.7,27.6 17.8,30 17.9,34.4 17.9,39.1 18.1,42.5 18.3,46.2 18.4,46.9 18.6,47 21.6,47.2 21.8,47 
				21.6,42 21.4,35.1 21.3,28.9 21.4,27.6 			"/>
			<polygon class="st2" points="24.8,27.6 24.8,30.3 24.8,34.8 24.7,39.7 24.8,43.8 24.8,46.5 24.9,47.1 25,47.3 27.4,47.4 
				27.6,47.1 27.7,44.1 27.8,40.2 28,37.9 28.1,34.4 28.4,30.2 28.4,27.8 			"/>
			<polygon class="st2" points="31.3,27.9 31.3,29.3 31.1,32.2 31,37.9 30.7,42.6 30.4,46.5 30.3,47.3 30.5,47.5 33.1,47.4 
				33.2,47.2 33.6,42.2 34.2,36.9 34.5,33.5 34.6,28 			"/>
			<polygon class="st3" points="31.3,27.9 31.3,29.3 31.1,32.2 31,37.9 30.7,42.6 30.4,46.5 30.3,47.3 30.5,47.5 30.5,47.5 
				30.7,46.2 30.9,41.3 31.2,37.1 31.3,33 31.4,29.8 31.5,27.9 			"/>
			<polygon class="st2" points="39,27.9 38.5,31.6 37.8,36.5 37.2,40.8 36.7,44.1 36.3,46.7 36.3,47 37.4,47 38.8,46.8 39,46.5 
				39.9,41.7 40.5,37.2 41.3,32.6 41.6,29.3 41.8,28 			"/>
			<polygon class="st3" points="39.2,27.9 39,27.9 38.5,31.6 37.8,36.5 37.2,40.8 36.7,44.1 36.3,46.7 36.3,47 36.5,47 36.8,44.9 
				37.3,42.1 37.7,39.2 38.2,35.5 38.7,32.9 39,29.7 			"/>
			<polygon class="st2" points="45.1,27.8 44.9,29.7 44.5,32 43.8,35.7 42.8,39.9 42.1,42.5 41.6,44.6 40.9,46.4 41.2,46.5 
				42.3,46.2 44,42.6 45.2,38.5 46.5,33.5 47.2,29.4 47.4,27.7 			"/>
			<polygon class="st3" points="45.1,27.8 44.9,29.7 44.5,32 43.8,35.7 42.8,39.9 42.1,42.5 41.6,44.6 40.9,46.4 41,46.4 41.8,44.5 
				42.4,42.4 43.5,38.2 44.5,34.1 45.1,29.9 45.3,27.8 			"/>
			<polygon class="st2" points="48.3,27.6 47.9,30.3 46.6,35.5 45.8,39 44.8,41.7 44,43.5 42.6,45.9 42.8,46.1 44.2,44 45.7,41 
				47,36.4 48.5,30.7 49,27.5 			"/>
			<polygon class="st3" points="48.3,27.6 47.9,30.3 46.6,35.5 45.8,39 44.8,41.7 44,43.5 42.6,45.9 42.7,46 43.6,44.6 44.3,43.4 
				45,41.9 45.8,39.7 46.8,36.1 47.8,31.9 48.4,29.3 48.7,27.6 			"/>
			<polygon class="st5" points="25.4,34.8 25.4,36.2 25.3,38.7 25.2,40.2 25.3,40.2 25.4,38.4 25.4,36.6 25.5,34.8 			"/>
			<polygon class="st5" points="25.5,43 25.5,44.1 25.5,45.2 25.5,45.8 25.6,45.8 25.6,44.9 25.6,42.9 			"/>
			<polygon class="st5" points="25.2,27.6 25.2,28.9 25.2,31 25.2,32.4 25.2,32.5 25.3,31.4 25.3,29.9 25.3,27.6 			"/>
			<polygon class="st5" points="26.4,27.7 26.4,29.2 26.4,32.5 26.4,34.4 26.3,37.7 26.1,41.2 26.2,41.2 26.4,38.9 26.5,36.4 
				26.5,33.5 26.5,30.8 26.5,27.7 			"/>
			<polygon class="st5" points="27,27.7 27,29 27,31.5 26.8,34 26.8,36.6 26.7,38.9 26.6,40.3 26.5,41.4 26.6,41.4 26.8,39.2 
				26.9,36.7 27,33.7 27.1,31.1 27.1,29.4 27.1,27.7 			"/>
			<polygon class="st5" points="27.3,27.7 27.4,28.6 27.3,29.6 27.3,30.8 27.2,31.7 27.2,32.6 27.3,32.6 27.4,31.4 27.4,30 
				27.4,28.9 27.5,27.7 			"/>
			<polygon class="st5" points="26,46.9 26,45.2 26,42.9 25.9,42.9 25.9,44 25.8,45.5 25.9,46.6 25.9,47.3 26,47.3 			"/>
			<polygon class="st5" points="32.1,31 32,31.8 32,32.9 32,34.6 31.9,35.4 31.8,36.1 31.9,36.1 32,35.1 32.1,33.7 32.1,31.9 
				32.1,31 			"/>
			<polygon class="st5" points="32.5,31.2 32.5,32.7 32.5,34.4 32.4,36 32.3,36.4 32.5,36.4 32.5,34.1 32.6,31.8 32.6,31.2 			"/>
			<polygon class="st5" points="33.9,31.2 33.9,32.3 33.8,34.1 33.6,36.2 33.7,36.2 33.9,34.6 33.9,33.2 34,31.1 			"/>
			<polygon class="st5" points="31.6,39.2 31.6,40.8 31.5,42.3 31.3,44 31.3,44.4 31.4,44.4 31.5,43.3 31.6,41.8 31.7,40.4 
				31.7,39.2 			"/>
			<polygon class="st5" points="32.3,39.1 32.1,40.6 32,42.5 31.8,44.4 31.9,44.4 32.1,43 32.2,41.6 32.3,40.1 32.4,39.1 			"/>
			<polygon class="st5" points="40.2,34.6 40.1,35.4 39.8,37.7 39.5,39.6 39.6,39.6 39.8,38 40.1,36.2 40.4,34.6 			"/>
			<polygon class="st5" points="38.6,34.6 38.5,35.6 38.1,37.8 37.9,39.9 37.9,39.9 38.2,38.5 38.4,36.8 38.7,34.6 			"/>
			<polygon class="st5" points="45.7,30.4 45.6,31.5 45.3,33.3 44.7,35.2 44.8,35.2 45.1,34.1 45.4,33.1 45.7,31.6 45.9,30.3 			"/>
			<polygon class="st5" points="46.2,30.3 46,31.6 45.7,33.3 45.3,34.9 45.2,35.2 45.3,35.2 45.6,33.9 45.9,32.6 46.3,30.6 
				46.3,30.3 			"/>
			<polygon class="st5" points="11.7,34.5 11.7,35.9 11.8,37.8 11.9,39.1 11.9,39.4 12,39.4 11.9,38.4 11.9,37 11.8,35.1 11.8,34.4 
							"/>
			<polygon class="st5" points="12.2,34.4 12.2,36.3 12.3,38 12.4,39.4 12.5,39.4 12.4,38.2 12.3,36.8 12.3,34.4 			"/>
			<polygon class="st5" points="12.7,34.5 12.7,36.3 12.8,38.3 12.9,39.5 13,39.5 12.9,38 12.8,36.7 12.8,35.4 12.8,34.4 			"/>
			<polygon class="st5" points="18.7,38.9 18.7,40.3 18.8,42.3 18.9,43.6 19,43.6 18.9,42.5 18.8,41 18.7,39.5 18.7,38.9 			"/>
			<polygon class="st5" points="19.1,39 19.2,41 19.3,42.5 19.4,43.7 19.5,43.7 19.4,42.7 19.3,41.8 19.2,40.1 19.2,39 			"/>
			<polygon class="st5" points="19.8,39.1 19.8,41.2 20,43.5 20.1,43.8 20.2,43.8 20.1,42.9 19.9,41.3 19.9,39.1 			"/>
			<polygon class="st5" points="4,31 4.2,32.6 4.6,34.6 4.7,35.4 4.8,35.4 4.6,33.9 4.2,32.6 4.1,31 			"/>
			<polygon class="st5" points="4.6,31 4.9,33.4 5.3,35.5 5.4,35.5 5,33.5 4.7,31 			"/>
			<polygon class="st5" points="6.2,31.1 6.4,33.6 6.7,35.3 6.8,35.7 6.9,35.7 6.5,33.4 6.3,31.1 			"/>
			<polygon class="st5" points="7.2,38.3 7.5,39.9 8,42.4 8.3,43.4 8.4,43.4 8.1,42.1 7.7,40.6 7.4,39.1 7.3,38.2 			"/>
			<polygon class="st5" points="11.9,27.7 11.9,28.8 11.9,30.3 12.1,32.2 12.2,32.2 12.1,31.1 12,29.5 12,28.4 12,27.7 			"/>
			<polygon class="st5" points="12.3,28.7 12.4,30.2 12.5,31.6 12.6,32.2 12.7,32.2 12.5,31 12.4,29.6 12.4,28.3 12.4,27.7 
				12.3,27.7 			"/>
			<polygon class="st5" points="12.9,28.8 13,30.7 13,32.2 13.2,32.2 13.1,31.3 13.1,30.1 13,28.7 13,27.7 12.9,27.7 			"/>
			<polygon class="st5" points="13.8,45.6 13.7,44.6 13.5,43.3 13.4,42.4 13.3,42.4 13.5,43.8 13.6,45 13.8,46 13.9,46.5 14,46.6 
							"/>
			<polygon class="st5" points="13.1,45.6 12.9,44.4 12.7,43.3 12.6,42.4 12.5,42.4 12.7,43.8 13,45.4 13.1,46.5 13.3,46.5 			"/>
			<polygon class="st5" points="12.9,46.4 12.8,45.9 12.6,44.5 12.3,42.4 12.2,42.4 12.4,43.6 12.6,45.1 12.7,46 12.8,46.4 
				12.8,46.4 			"/>
			<polygon class="st5" points="38.1,42.4 38,42.4 37.8,43.5 37.5,45.5 37.2,46.8 37.2,47 37.3,47 37.4,46.3 37.7,44.8 			"/>
			<polygon class="st5" points="37.8,46.9 38.1,44.5 38.3,43 38.4,42.3 38.3,42.3 38.2,43.7 37.9,45.4 37.7,47 			"/>
			<polygon class="st5" points="39.8,27.9 39.7,29 39.5,30.5 39.3,32.2 39.4,32.2 39.5,31.2 39.7,30 39.8,28.8 39.9,27.9 			"/>
			<polygon class="st5" points="40.2,27.9 40,29.1 39.9,31.2 39.7,32.7 39.3,35.4 39.2,37 39,38.9 38.9,39.6 38.9,39.6 39.1,38.6 
				39.3,36.9 39.5,34.6 39.8,32.4 39.9,31.3 40,30 40.2,28.5 40.3,27.9 			"/>
			<polygon class="st5" points="41,28 40.9,28.4 40.8,29.6 40.6,31.2 40.4,32.1 40.5,32.1 40.8,30.7 41,29 41.1,28 			"/>
			<polygon class="st5" points="24.8,30.3 24.8,27.9 24.6,27.9 20.1,27.8 15.5,27.9 14.9,28 14.7,28 14.7,29 14.6,31.4 15.5,31.4 
				22.3,31.5 24.8,31.5 			"/>
			<polygon class="st5" points="38.6,31.1 39,28.1 38.7,28.1 34,28.1 29.2,28.1 28.4,28 28.4,30.2 28.3,31.5 30.5,31.5 36.5,31.3 
							"/>
			<polygon class="st5" points="47.4,30.5 47.9,30.3 47.9,30.3 48.3,27.7 47.6,27.8 44.5,28 41.8,28 41.6,29.3 41.5,31 42.5,30.9 
				45.1,30.7 			"/>
			<polygon class="st5" points="1.1,28.4 1,26.9 0.7,26.8 0.7,27.6 1.2,29.7 1.4,30.5 1.7,30.6 			"/>
			<polygon class="st5" points="10.5,30 10.5,28 10.3,28 6.5,27.9 3.4,27.7 1.9,27.4 1.7,27.3 2.3,30.8 3,31 4.8,31.2 9.9,31.4 
				10.6,31.4 			"/>
			<polygon class="st5" points="31.1,32.2 31.1,32.1 29,32.1 26.2,32.1 22.8,32.1 21.4,32.1 21.4,35 23.5,35 26.4,35.1 29.8,35.1 
				31,35.1 			"/>
			<polygon class="st4" points="31.1,32.2 31.1,32.1 29,32.1 26.2,32.1 22.8,32.1 21.4,32.1 21.4,32.4 22.5,32.4 23.7,32.5 26,32.4 
				28.2,32.4 29.6,32.4 31.1,32.3 			"/>
			<polygon class="st5" points="43.8,34.4 44.1,34.4 44.5,32 44.6,31.3 44.2,31.4 42.7,31.4 40.6,31.7 37,31.9 34.5,32 34.5,33.5 
				34.4,34.9 34.7,34.9 37.7,34.8 41.7,34.6 			"/>
			<polygon class="st5" points="48.5,30.8 48.2,30.9 47.3,31.1 46.9,31.2 46.5,33.5 46.3,34.2 46.5,34.2 47.7,34 47.9,33.8 
				48.2,32.6 48.6,30.9 			"/>
			<polygon class="st4" points="44.3,31.6 44.6,31.6 44.6,31.3 44.2,31.4 42.7,31.4 40.6,31.7 37,31.9 34.5,32 34.5,32.2 35.9,32.2 
				38.2,32.1 42.1,31.8 			"/>
			<polygon class="st4" points="48.5,30.8 48.2,30.9 47.3,31.1 46.9,31.2 46.9,31.4 47.4,31.3 48.3,31.1 48.6,31 48.6,30.9 			"/>
			<polygon class="st5" points="3.7,32.9 3.6,31.7 3,31.6 1.6,31.3 1.6,31.5 2.2,33.7 2.3,33.8 2.9,34 4,34.1 4,34.1 			"/>
			<polygon class="st5" points="17.9,34.4 17.8,32.1 13.9,32.1 8.5,32.1 7.6,32 7.8,34.1 7.9,34.5 10.5,34.6 13.1,34.7 17.3,34.8 
				17.9,34.8 			"/>
			<g>
				<polygon class="st4" points="3.6,31.7 3,31.6 1.6,31.3 1.6,31.5 2.1,31.6 3.6,31.9 				"/>
				<polygon class="st4" points="17.8,32.1 13.9,32.1 8.5,32.1 7.6,32 7.6,32.2 8.3,32.2 11.6,32.3 14.9,32.3 17.2,32.3 17.8,32.4 
									"/>
			</g>
			<polygon class="st5" points="11,35.5 11,35.4 9.7,35.3 6.3,35.1 3.7,35 3.4,35 3.9,36.8 4.4,38.4 5.2,38.5 7.9,38.6 11.1,38.8 
							"/>
			<polygon class="st5" points="3.7,38.3 2.7,34.9 2.5,35 2.5,35.5 3,37.2 3.5,38.3 3.7,38.3 			"/>
			<g>
				<polygon class="st4" points="2.7,34.9 2.6,35 2.7,35.1 				"/>
				<polygon class="st4" points="11,35.5 11,35.4 9.7,35.3 6.3,35.1 3.7,35 3.4,35 3.4,35.3 4.3,35.4 7.3,35.5 10.4,35.7 11,35.7 
									"/>
			</g>
			<polygon class="st5" points="24.8,35.9 21,35.8 15.3,35.6 14.8,35.6 15,39.1 15.8,39.1 18.5,39.3 23.1,39.4 24.7,39.4 			"/>
			<polygon class="st4" points="24.8,35.9 21,35.8 15.3,35.6 14.8,35.6 14.8,35.8 15.3,35.8 20,36 24.2,36.1 24.8,36.1 			"/>
			<polygon class="st5" points="37.4,39.2 37.8,36.5 37.9,35.6 36.7,35.7 29.8,35.8 28,35.9 28,37.9 27.9,39.4 28.3,39.4 33,39.5 
				36.8,39.3 			"/>
			<polygon class="st4" points="37.9,35.8 37.9,35.6 36.7,35.7 29.8,35.8 28,35.9 28,36.1 31.2,36.1 37,35.9 			"/>
			<polygon class="st5" points="46,38.2 46.6,35.5 46.8,34.9 45.7,35 42.8,35.4 40.8,35.5 40.5,37.2 40.3,38.9 42.1,38.7 45.2,38.3 
							"/>
			<polygon class="st5" points="47,36.4 46.6,38 46.6,38 46.9,37.8 47.2,36.4 47.5,35 47.4,34.9 			"/>
			<polygon class="st4" points="46,35.2 46.7,35.1 46.8,34.9 45.7,35 42.8,35.4 40.8,35.5 40.8,35.7 43.5,35.6 			"/>
			<polygon class="st4" points="47.4,35 47.5,35 47.5,35 47.4,34.9 			"/>
			<polygon class="st5" points="30.7,42.6 30.8,39.8 29,39.8 25.1,40 21.5,39.9 21.6,42 21.6,43.1 25.5,43.3 30.6,43.1 			"/>
			<polygon class="st5" points="42.8,39.9 43,39.2 40.5,39.4 35.7,39.7 33.9,39.7 33.6,42.2 33.5,43 34.3,43 40,42.7 42.2,42.4 			
				"/>
			<polygon class="st5" points="45,39 44.1,42.2 44.3,42.1 45.3,42.1 45.7,41.3 46.4,39.1 46.3,38.8 			"/>
			<g>
				<polygon class="st4" points="42.9,39.5 43,39.2 40.5,39.4 35.7,39.7 33.9,39.7 33.8,40.2 37,40.1 42.1,39.6 				"/>
				<polygon class="st4" points="45,39 44.9,39.3 45,39.3 46.4,39 46.3,38.8 				"/>
			</g>
			<polygon class="st5" points="5.3,38.9 5.1,38.9 4,38.8 3.8,38.9 3.9,39.4 4.7,41.6 5.3,41.8 6.3,42 			"/>
			<polygon class="st5" points="18.1,42.5 18,39.6 15.3,39.4 11.4,39.2 8.5,39.1 8.8,40.5 9.2,42.3 11.7,42.6 18.1,42.9 			"/>
			<g>
				<polygon class="st4" points="5.3,38.9 5.1,38.9 4,38.8 3.8,38.9 3.8,38.9 4.9,39.1 5.4,39.2 				"/>
				<polygon class="st4" points="18,39.6 15.3,39.4 11.4,39.2 8.5,39.1 8.6,39.4 10.7,39.6 14.8,39.7 18,40 				"/>
			</g>
			<polygon class="st5" points="36.3,46.7 36.7,44.1 36.8,43.4 34.9,43.6 28.6,43.6 27.7,43.6 27.7,44.1 27.6,47 27.9,47 32.6,47 
				36.3,46.8 			"/>
			<polygon class="st4" points="36.8,43.4 34.9,43.6 28.6,43.6 27.7,43.6 27.7,43.9 29.1,43.9 32.4,43.8 34.9,43.8 36.7,43.7 			"/>
			<polygon class="st5" points="44.2,44 43,45.7 43.2,45.7 43.9,44.8 44.3,44.2 44.9,43 44.8,42.9 			"/>
			<polygon class="st5" points="42.6,45.9 44,43.5 44.3,42.9 43.3,43 39.7,43.2 39.6,43.2 39,46.5 39,46.5 40.7,46.3 42.6,45.9 			
				"/>
			<g>
				<polygon class="st4" points="44.1,43.2 44.3,42.9 43.3,43 39.7,43.2 39.6,43.2 39.5,43.6 40.5,43.5 43.9,43.2 				"/>
				<polygon class="st4" points="44.7,43.1 44.8,43.1 44.9,43 44.8,42.9 				"/>
			</g>
			<polygon class="st5" points="24.8,46.5 24.8,43.8 24.8,43.6 23.5,43.6 17.2,43.4 15.5,43.4 15.6,44.6 15.9,46.3 18.7,46.5 
				24.2,46.9 24.9,46.9 			"/>
			<polygon class="st4" points="24.8,43.8 24.8,43.6 23.5,43.6 17.2,43.4 15.5,43.4 15.5,43.7 16.5,43.7 20,43.8 22.7,43.9 
				24.8,43.9 			"/>
			<polygon class="st5" points="6.7,45.2 5.5,42.6 5.4,42.6 5.3,42.8 6.6,45.2 6.8,45.2 			"/>
			<polygon class="st5" points="11.8,44.7 11.6,43.3 9.4,43 6.1,42.7 5.9,42.6 5.9,42.7 7.2,45.3 8.2,45.4 10.3,45.7 12,46 			"/>
			<g>
				<polygon class="st4" points="5.5,42.6 5.4,42.6 5.3,42.8 5.3,42.8 5.7,42.9 				"/>
				<polygon class="st4" points="11.6,43.3 9.4,43 6.1,42.7 5.9,42.6 5.9,42.7 6.1,43 8,43.2 10.7,43.5 11.6,43.5 				"/>
			</g>
			<polygon class="st2" points="6.7,45.3 7.9,45.5 9.5,45.8 10.9,46 12.7,46.3 15.5,46.5 17.7,46.7 19.9,46.9 22.8,47 25.8,47.1 
				28.3,47.2 31.5,47.2 34.6,47.1 37.4,46.9 39.7,46.5 41.4,46.3 43.1,45.8 43.3,46.4 43,47 42.8,47.2 41.4,47.4 37,48.2 31.1,48.4 
				26.5,48.4 21,48.3 17,48.1 13.6,47.9 10.1,47.4 7.4,46.8 6.7,46.4 6.6,45.7 			"/>
			<polygon class="st1" points="40.8,47.3 36,48 30.6,48.2 25.3,47.9 18.1,47.8 12.3,47.4 7.9,46.6 6.6,46 6.7,46.4 7.4,46.8 
				10.1,47.4 13.6,47.9 17,48.1 21,48.3 26.5,48.4 31.1,48.4 37,48.2 41.4,47.4 42.8,47.2 43,47 43.1,46.8 			"/>
			<polygon class="st3" points="43.2,46.2 43.1,45.8 41.4,46.3 39.7,46.5 37.4,46.9 34.6,47.1 31.5,47.2 28.3,47.2 25.8,47.1 
				22.8,47 19.9,46.9 17.7,46.7 15.5,46.5 12.7,46.3 10.9,46 9.5,45.8 7.9,45.5 6.7,45.3 6.6,45.5 9.2,46.2 12.9,46.7 17.1,47.1 
				22.8,47.5 26.8,47.6 30.9,47.7 33.9,47.6 37.8,47.2 40.3,46.9 42,46.4 			"/>
			<polygon class="st4" points="30.8,39.8 29,39.8 25.1,40 21.5,39.9 21.5,40.3 22.5,40.3 24.9,40.4 27.3,40.3 28.3,40.3 29.9,40.2 
				30.8,40.2 			"/>
			<polygon class="st6" points="16.5,35.6 15.3,35.6 14.8,35.6 15,39.1 15.8,39.1 16.3,39.2 16.2,38.9 16,38.2 15.9,37.3 16.1,36.3 
							"/>
			<polygon class="st6" points="23.8,36.6 23.8,37.6 23.7,38.7 23.3,39.4 24.7,39.4 24.8,35.9 23.3,35.8 			"/>
			<polygon class="st7" points="15.3,35.6 15.3,35.6 14.8,35.6 15,39.1 15.4,39.1 15.2,38.4 15.1,37.1 15.1,36.1 			"/>
			<polygon class="st7" points="24.5,36.5 24.5,37.6 24.5,38.5 24.4,39.2 24.4,39.4 24.7,39.4 24.8,35.9 24.4,35.9 			"/>
			<polygon class="st8" points="17.7,35.7 17.2,36 16.9,37.4 17.2,38.6 17.4,39.2 18.5,39.3 22.3,39.4 22.8,38.6 23.1,37.4 
				23.1,36.3 22.8,35.8 21,35.8 17.9,35.7 			"/>
			<polygon class="st8" points="17.8,35.7 17.7,36.4 17.8,37.9 17.9,39 17.9,39.2 18.5,39.3 21.7,39.4 21.9,38.3 21.9,37 21.7,35.8 
				21,35.8 			"/>
			<polygon class="st6" points="22.5,34.1 22.5,33.1 22.8,32.1 21.4,32.1 21.4,35 22.6,35 			"/>
			<polygon class="st6" points="30,32.5 30.1,33.5 30,34.5 29.8,35.1 31,35.1 31.1,32.2 31.1,32.1 29.9,32.1 			"/>
			<polygon class="st7" points="30.9,32.6 30.9,34 30.8,35.1 31,35.1 31.1,32.2 31.1,32.1 30.8,32.1 			"/>
			<polygon class="st7" points="21.7,34.1 21.7,32.8 21.8,32.1 21.4,32.1 21.4,35 21.8,35 			"/>
			<polygon class="st8" points="26.2,32.1 23.8,32.1 23.5,32.6 23.5,34.1 23.7,35 26.4,35.1 29.1,35.1 29.3,34.8 29.5,33.7 
				29.5,32.7 29.3,32.1 29,32.1 			"/>
			<polygon class="st8" points="28.4,35.1 28.4,34.8 28.5,33.3 28.4,32.1 26.2,32.1 24.7,32.1 24.6,32.6 24.6,33.6 24.6,35.1 
				26.4,35.1 			"/>
			<polygon class="st6" points="37.9,35.6 36.7,35.7 36.6,35.7 36.6,36.7 36.5,38.4 36.3,39.4 36.8,39.3 37.4,39.2 37.8,36.5 			"/>
			<polygon class="st6" points="29.4,39.2 29.3,38 29.3,36.9 29.6,35.8 28,35.9 28,37.9 27.9,39.4 28.3,39.4 29.4,39.4 			"/>
			<polygon class="st7" points="37.5,36.6 37.4,38 37.2,39.2 37.2,39.3 37.4,39.2 37.8,36.5 37.9,35.6 37.5,35.6 			"/>
			<polygon class="st9" points="28.4,35.9 28,35.9 28,37.9 27.9,39.4 28.2,39.4 28.2,38.2 28.3,36.9 			"/>
			<polygon class="st8" points="35.2,39.4 35.5,38.4 35.6,37.1 35.5,35.7 30.5,35.8 30.3,36.6 30.2,38.2 30.2,39.4 33,39.5 			"/>
			<polygon class="st8" points="34.1,39.4 34.5,38.3 34.7,36.9 34.6,35.7 31.1,35.8 31,36.3 30.9,37.8 30.9,39.4 33,39.5 			"/>
			<polygon class="st6" points="9.1,32.1 8.5,32.1 7.6,32 7.8,34.1 7.9,34.5 9.2,34.5 9.1,34.2 9,33.3 9,32.6 			"/>
			<polygon class="st6" points="16.5,34.8 17.3,34.8 17.9,34.8 17.9,34.4 17.8,32.1 16.5,32.1 16.6,33.1 16.5,34.1 			"/>
			<polygon class="st7" points="17.6,34.8 17.9,34.8 17.9,34.4 17.8,32.1 17.6,32.1 17.6,32.9 17.6,34.2 			"/>
			<polygon class="st7" points="8,33.6 7.9,32.6 7.9,32 7.6,32 7.8,34.1 7.9,34.5 8.3,34.5 			"/>
			<polygon class="st8" points="10.1,32.1 9.9,33 10,34.1 10.1,34.6 10.5,34.6 13.1,34.7 15.4,34.8 15.6,33.9 15.7,32.8 15.4,32.1 
				13.9,32.1 			"/>
			<polygon class="st8" points="10.7,32.1 10.7,32.4 10.7,33.4 10.8,34.6 13.1,34.7 14.8,34.8 14.9,34.1 14.9,33.1 14.9,32.3 
				14.8,32.1 13.9,32.1 			"/>
			<polygon class="st10" points="18.5,39.3 18,39.2 18,39.5 18.7,39.5 20.7,39.6 21.5,39.6 21.5,39.4 			"/>
			<polygon class="st6" points="22.9,42.5 22.8,41.6 22.8,40.8 23,39.9 21.5,39.9 21.6,42 21.6,43.1 23.1,43.1 			"/>
			<polygon class="st7" points="21.9,42 21.9,41 21.9,39.9 21.5,39.9 21.6,42 21.6,43.1 22,43.1 			"/>
			<polygon class="st6" points="29.4,43.2 30.6,43.1 30.7,42.6 30.8,39.8 29.5,39.8 29.7,41.1 29.6,42.1 			"/>
			<polygon class="st7" points="30.5,40.8 30.4,42.1 30.2,43.1 30.6,43.1 30.7,42.6 30.8,39.8 30.3,39.8 			"/>
			<polygon class="st8" points="28.8,43.2 29,42.3 29,41.1 28.8,39.9 25.1,40 23.9,39.9 23.8,41.5 24,43.2 25.5,43.3 			"/>
			<polygon class="st8" points="27.8,43.2 28,42.5 28.1,41.2 28,40.1 28,39.9 25.1,40 24.7,40 24.7,40.4 24.7,41.9 24.7,43.2 
				25.5,43.3 			"/>
			<polygon class="st6" points="35.8,33.6 35.9,32.5 36.1,31.9 34.5,32 34.5,33.5 34.4,34.9 34.7,34.9 35.8,34.9 			"/>
			<polygon class="st7" points="34.7,34.1 34.7,32.8 34.9,32 34.5,32 34.5,33.5 34.4,34.9 34.7,34.9 34.8,34.9 			"/>
			<polygon class="st6" points="43.3,31.4 43.5,32.5 43.4,33.6 43.2,34.5 43.8,34.4 44.1,34.4 44.5,32 44.6,31.3 44.2,31.4 			"/>
			<polygon class="st7" points="44.2,31.4 44.2,32.1 44.1,33.3 43.8,34.4 44.1,34.4 44.5,32 44.6,31.3 44.2,31.4 			"/>
			<polygon class="st8" points="41.7,34.6 42.2,34.6 42.4,34 42.5,32.7 42.3,31.5 40.6,31.7 37.4,31.8 37.2,33.3 37.1,34.6 
				37.1,34.9 37.7,34.8 			"/>
			<polygon class="st8" points="40.6,31.7 38.4,31.8 38.3,32.4 38.1,34.2 38,34.8 40.9,34.7 41.3,34 41.5,32.7 41.5,31.6 			"/>
			<polygon class="st6" points="42.5,35.4 40.8,35.5 40.5,37.2 40.3,38.9 41.9,38.7 41.9,37.9 42.1,36.4 			"/>
			<polygon class="st7" points="40.8,35.5 40.5,37.2 40.3,38.9 40.6,38.8 40.7,37.8 41,36.7 41.2,35.5 			"/>
			<polygon class="st6" points="46,38.2 46.6,35.5 46.8,34.9 46.3,34.9 46.2,36 45.9,37.4 45.6,38.2 			"/>
			<polygon class="st7" points="46,38.2 46.6,35.5 46.8,34.9 46.5,34.9 46.4,35.7 46.1,36.9 45.7,38.2 			"/>
			<polygon class="st8" points="43.8,35.3 43.2,37 43,38.6 45.2,38.3 45.4,38.3 45.9,36.6 46.1,35.5 46,34.9 45.7,35 			"/>
			<polygon class="st6" points="16.8,45.3 16.7,44.1 16.8,43.4 15.5,43.4 15.6,44.6 15.9,46.3 16.9,46.4 			"/>
			<polygon class="st7" points="16.1,45.2 15.9,44 16,43.4 15.5,43.4 15.6,44.6 15.9,46.3 16.3,46.4 			"/>
			<polygon class="st6" points="23.7,46.8 24.2,46.9 24.9,46.9 24.8,46.5 24.8,43.8 24.8,43.6 23.6,43.6 23.8,44.6 23.8,45.8 			"/>
			<polygon class="st7" points="24.5,46.9 24.9,46.9 24.8,46.5 24.8,43.8 24.8,43.6 24.3,43.6 24.5,44.5 24.5,45.7 24.5,46.6 			"/>
			<polygon class="st8" points="22.6,46.8 22.9,45.6 22.6,43.6 17.6,43.4 17.6,44.7 17.7,45.9 17.9,46.5 18.7,46.5 			"/>
			<polygon class="st6" points="29.7,43.6 28.6,43.6 27.7,43.6 27.7,44.1 27.6,47 27.9,47 29.5,47 29.4,46.5 29.3,45.7 29.4,44.4 
							"/>
			<polygon class="st9" points="28,45.8 28.1,44.6 28.2,43.6 27.7,43.6 27.7,44.1 27.6,47 27.9,47 28,47 			"/>
			<polygon class="st6" points="35.3,44.2 35.2,45.3 34.9,46.4 34.8,46.8 36.3,46.8 36.3,46.7 36.7,44.1 36.8,43.4 35.2,43.5 			"/>
			<polygon class="st7" points="36.2,44.4 36.1,45.6 35.9,46.5 35.9,46.8 36.3,46.8 36.3,46.7 36.7,44.1 36.8,43.4 36.2,43.5 			"/>
			<polygon class="st8" points="33.5,46.9 33.6,46.5 33.8,44.7 33.7,43.6 30.6,43.6 30.5,44.2 30.4,45.6 30.3,46.7 30.4,47 32.6,47 
							"/>
			<polygon class="st6" points="35.1,42.2 35.2,41.4 35.3,40.6 35.5,39.7 33.9,39.7 33.6,42.2 33.5,43 34.3,43 35.3,43 			"/>
			<polygon class="st7" points="34.3,39.7 33.9,39.7 33.6,42.2 33.5,43 34,43 34,42.8 34,41.9 34.1,40.6 			"/>
			<polygon class="st6" points="42.2,42.4 42.8,39.9 43,39.2 41.7,39.3 41.8,40 41.6,41.1 41.6,41.9 41.4,42.5 			"/>
			<polygon class="st7" points="42.2,42.4 42.8,39.9 43,39.2 42.4,39.2 42.4,40 42.2,41.1 42,42 41.9,42.5 			"/>
			<polygon class="st8" points="36.3,39.6 36.1,40.8 36.1,42.2 36.2,42.9 40,42.7 40.6,42.6 40.9,42 41,40.6 41,39.6 41,39.3 
				40.5,39.4 			"/>
			<polygon class="st8" points="40.3,41.6 40.5,40.4 40.3,39.4 37.3,39.6 37,40.4 37,41.5 36.9,42.7 37,42.9 39.9,42.7 			"/>
			<polygon class="st6" points="41.1,43.1 39.7,43.2 39.6,43.2 39,46.5 39,46.5 40.4,46.3 40.5,46 40.6,44.9 40.8,43.9 			"/>
			<polygon class="st7" points="39.7,43.2 39.6,43.2 39,46.5 39,46.5 39.4,46.4 39.4,45.4 39.7,44.1 40,43.2 			"/>
			<polygon class="st7" points="44.3,42.9 43.7,43 43.7,43.5 43.4,44.3 42.8,45.4 42.4,45.9 42.6,45.9 42.6,45.9 44,43.5 			"/>
			<polygon class="st8" points="42.2,46 42.7,45.1 43.2,43.6 43.2,43 41.9,43.1 41.5,43.8 41.2,45 40.9,46.3 			"/>
			<polygon class="st6" points="9.8,38.7 11.1,38.8 11,35.5 11,35.4 9.7,35.3 9.7,35.3 9.8,36.2 9.9,37.3 9.8,38.3 			"/>
			<polygon class="st7" points="11,35.4 10.6,35.4 10.7,36.1 10.7,37.3 10.7,38.2 10.6,38.8 11.1,38.8 11,35.5 			"/>
			<polygon class="st7" points="3.4,35 3.9,36.8 4.4,38.4 4.8,38.5 4.5,37.4 4.1,36 4.1,35 3.7,35 			"/>
			<polygon class="st8" points="7.9,38.6 8.2,38.6 8.4,38.4 8.1,36.1 7.7,35.2 6.3,35.1 4.4,35 4.4,35.8 4.6,36.8 5.1,38 5.3,38.5 
							"/>
			<polygon class="st6" points="16.5,42.8 18.1,42.9 18.1,42.5 18,39.6 16.5,39.5 16.6,40.4 16.7,41.7 16.6,42.5 			"/>
			<polygon class="st7" points="18.1,42.9 18.1,42.5 18,39.6 17.5,39.6 17.6,40.6 17.7,41.8 17.6,42.9 			"/>
			<polygon class="st6" points="10.1,41.4 10,40.1 10.1,39.2 8.5,39.1 8.8,40.5 9.2,42.3 10.3,42.4 			"/>
			<polygon class="st7" points="9.4,41.5 9.1,40 9.1,39.1 8.5,39.1 8.8,40.5 9.2,42.3 9.5,42.4 			"/>
			<polygon class="st8" points="15.8,42.8 16,42.1 16,40.5 15.7,39.4 15.3,39.4 11.4,39.2 10.9,39.2 10.9,40.3 10.9,41.6 11,42.5 
				11.7,42.6 			"/>
			<polygon class="st8" points="15.1,42.2 15.3,40.8 15.1,39.7 15,39.4 11.4,39.2 11.4,39.2 11.4,40.3 11.5,41.8 11.7,42.6 
				11.7,42.6 15,42.8 			"/>
			<polygon class="st6" points="12,46 11.8,44.7 11.6,43.3 10.2,43.1 10.3,44 10.4,45.3 10.4,45.7 			"/>
			<polygon class="st7" points="11.8,44.7 11.6,43.3 11.3,43.2 11.4,43.8 11.5,44.8 11.5,45.5 11.5,45.9 12,46 			"/>
			<polygon class="st7" points="5.9,42.6 5.9,42.7 7.2,45.3 7.5,45.3 7.4,45 6.7,43.7 6.4,42.7 6.1,42.7 			"/>
			<polygon class="st8" points="6.7,42.7 6.9,43.5 7.4,44.8 7.8,45.4 8.2,45.4 9.9,45.7 9.9,45.3 9.7,43.8 9.4,43 9.4,43 			"/>
			<polygon class="st6" points="45.6,38.9 45,39 44.1,42.2 44.3,42.1 44.3,42.1 44.7,41.4 45.4,40 			"/>
			<polygon class="st6" points="47.3,31.1 46.9,31.2 46.5,33.5 46.3,34.2 46.5,34.2 46.7,34.2 47,33.3 47.3,32.1 47.4,31.1 			"/>
			<polygon class="st6" points="4,34.1 3.7,32.9 3.6,31.7 3,31.6 3,31.6 3.1,32.4 3.3,33.5 3.5,34.1 4,34.1 			"/>
			<polygon class="st6" points="5.3,38.9 5.1,38.9 4.9,38.8 5.2,40 5.6,41.2 5.9,41.9 6.3,42 			"/>
			<polygon class="st8" points="7.2,28 3.5,27.7 3.4,28.9 3.5,30.2 3.5,31.1 4.8,31.2 7.4,31.3 7.5,30.2 7.3,28.2 			"/>
			<polygon class="st6" points="9.9,31.4 10.6,31.4 10.5,30 10.5,28.1 9.2,28.2 9.2,29.6 9.1,30.4 9,31.3 			"/>
			<polygon class="st7" points="10.6,31.4 10.5,30 10.5,28 10.3,28 10.1,28 10.3,29.2 10.3,30.4 10.2,31.4 			"/>
			<polygon class="st6" points="3,30.3 3,29.5 3,27.7 2.6,27.5 1.9,27.4 1.7,27.3 2.3,30.8 3,31 3.1,31.1 			"/>
			<polygon class="st7" points="1.9,27.4 1.7,27.3 2.3,30.8 2.7,31 2.5,30.4 2.2,29 2.3,27.5 			"/>
			<polygon class="st8" points="21.5,28.2 17.7,28.2 17.6,29.4 17.6,30.5 17.6,31.4 21.6,31.5 21.7,30.8 21.7,29.4 			"/>
			<polygon class="st6" points="23.5,31.5 24.8,31.5 24.8,30.3 24.8,28.2 23.5,28.1 23.6,29.3 23.6,30.4 23.6,31 			"/>
			<polygon class="st7" points="24.5,31 24.4,31.5 24.8,31.5 24.8,30.3 24.8,27.9 24.6,27.9 24.3,27.9 24.5,29.2 24.5,30.3 			"/>
			<polygon class="st6" points="16.2,30.6 16.1,29.7 16.2,28.2 14.7,28.1 14.7,29 14.6,31.4 15.5,31.4 16.2,31.4 			"/>
			<polygon class="st7" points="15.3,27.9 14.9,28 14.7,28 14.7,29 14.6,31.4 15,31.4 15,30.4 15.1,29.1 			"/>
			<polygon class="st6" points="37.2,31.2 38.6,31.1 38.9,28.2 37.2,28.3 37.3,29.2 37.3,30.5 			"/>
			<polygon class="st7" points="38.2,31.2 38.6,31.1 39,28.1 38.4,28.2 38.4,29.4 38.3,30.5 			"/>
			<polygon class="st6" points="28.4,30.2 28.3,31.5 30.2,31.5 30.2,30.6 30.2,29.5 30.4,28.5 28.4,28.3 			"/>
			<polygon class="st7" points="28.6,30.9 28.7,29.8 28.8,28.3 28.4,28.2 28.4,30.2 28.3,31.5 28.7,31.5 			"/>
			<polygon class="st8" points="31.2,28.4 31,29.7 31,30.8 31.1,31.4 34.9,31.3 35.1,30.6 35,28.3 			"/>
			<polygon class="st6" points="43.2,29.9 43.2,29.1 43.4,28.3 41.8,28.2 41.6,29.3 41.5,31 42.5,30.9 43.2,30.8 			"/>
			<polygon class="st6" points="48.1,27.7 47.4,28 47.4,28.9 47.3,30 47.2,30.5 47.4,30.5 47.9,30.3 47.9,30.3 48.3,27.7 			"/>
			<polygon class="st7" points="41.6,29.3 41.5,31 41.9,30.9 41.9,30 42,29.2 42.2,28.1 41.9,28 41.8,28 			"/>
			<polygon class="st7" points="48,28.5 47.9,29.6 47.7,30.4 47.9,30.3 47.9,30.3 48.3,27.7 48,27.7 			"/>
			<polygon class="st8" points="44.7,29.6 44.6,30.7 45.1,30.7 47,30.5 47.2,29.7 47.2,28.1 44.9,28.1 			"/>
			<polygon class="st10" points="21,35.8 21.5,35.8 21.4,35.6 20.3,35.6 18.8,35.6 17.9,35.5 17.9,35.7 			"/>
			<path class="st10" d="M17.8,31.4l0,0.2l1.2,0.1c0,0,1.3,0,1.3,0c0,0,0.7,0,1.1,0l0-0.2L17.8,31.4z"/>
			<polygon class="st10" points="21.7,43.6 21.6,43.3 20.7,43.3 19.3,43.2 18.1,43.1 18.1,43.4 			"/>
			<polygon class="st10" points="11.7,42.6 11.5,42.6 11.5,42.8 12.1,42.9 13.5,43 14.8,43 15.4,43 15.4,42.8 			"/>
			<polygon class="st10" points="11.4,39.2 15.1,39.4 15.1,39.2 15,39.1 14.7,39.1 13.6,39.2 12,39.1 11.1,39 11.1,39.2 			"/>
			<polygon class="st10" points="13.1,34.7 10.9,34.6 10.9,34.8 12.3,35 14,35 14.8,34.9 14.8,34.8 			"/>
			<polygon class="st10" points="13.9,32.1 14.6,32.1 14.6,32 14.3,32 12.1,31.9 10.7,31.9 10.7,32.1 			"/>
			<polygon class="st10" points="4.8,31.2 3.5,31.1 3.5,31.4 4.5,31.5 6.1,31.5 7.5,31.5 7.5,31.3 			"/>
			<polygon class="st10" points="6.3,35.1 8,35.2 7.9,34.9 6.8,34.9 5.5,34.8 4.2,34.8 4.2,35 			"/>
			<polygon class="st10" points="7.9,38.6 5.2,38.5 5.3,38.8 5.8,38.8 7.1,38.8 8.5,39 8.5,38.7 			"/>
			<polygon class="st10" points="9.3,43 9.3,42.8 8.4,42.7 7.1,42.5 6.5,42.5 6.6,42.7 			"/>
			<polygon class="st10" points="25.5,43.3 24.8,43.2 24.8,43.5 26.1,43.6 27.4,43.5 27.7,43.5 27.7,43.2 			"/>
			<polygon class="st10" points="25.1,40 27.8,39.9 27.8,39.6 27.2,39.7 25.9,39.7 24.7,39.7 24.7,40 			"/>
			<polygon class="st10" points="26.4,35.1 24.8,35.1 24.8,35.3 25.9,35.4 27.1,35.4 28.1,35.4 28.1,35.1 			"/>
			<polygon class="st10" points="26.2,32.1 28.2,32.1 28.3,31.8 27.5,31.9 25.8,31.9 24.8,31.9 24.8,32.1 			"/>
			<polygon class="st10" points="31.2,31.4 31.1,31.7 32.7,31.8 34.5,31.7 34.5,31.3 			"/>
			<polygon class="st10" points="34.3,35.7 34.3,35.5 33.8,35.5 32.2,35.6 31,35.6 31,35.8 			"/>
			<polygon class="st10" points="33,39.5 30.9,39.4 30.8,39.8 32.2,39.9 33.2,39.8 33.9,39.7 33.9,39.4 			"/>
			<polygon class="st10" points="33.5,43.6 33.5,43.3 32.4,43.3 31.3,43.4 30.6,43.4 30.6,43.6 			"/>
			<polygon class="st10" points="36.9,42.9 36.8,43.2 37.8,43.2 39.1,43.1 39.6,43.1 39.7,42.7 			"/>
			<polygon class="st10" points="40.2,39.4 40.2,39.1 39.8,39.2 38.3,39.3 37.4,39.4 37.4,39.6 			"/>
			<polygon class="st10" points="38,34.8 38,35.1 39.3,35.1 40.5,35.1 40.9,35 40.9,34.7 			"/>
			<polygon class="st10" points="40.6,31.7 41.4,31.6 41.4,31.3 41,31.4 39.6,31.5 38.5,31.5 38.5,31.6 38.5,31.8 			"/>
			<polygon class="st10" points="45.1,30.7 44.7,30.7 44.7,31 45.9,30.9 46.7,30.8 47,30.8 47,30.5 			"/>
			<polygon class="st10" points="45.7,35 46.1,34.9 46.2,34.7 45.9,34.8 44.9,34.9 44,35 43.9,35.2 			"/>
			<polygon class="st10" points="45.2,38.3 43.1,38.5 43.1,38.8 43.8,38.7 44.9,38.5 45.2,38.5 45.2,38.3 			"/>
			<polygon class="st10" points="43.3,43 43.8,42.9 43.9,42.7 43.5,42.8 42.6,42.8 42,42.8 42,43.1 			"/>
			<polygon class="st10" points="48,28.6 48.9,28.2 49,27.5 49,27.5 46.4,27.9 36.8,28.2 19.1,28.1 5.8,27.8 0.7,26.9 0.7,26.9 
				0.7,27.6 1.8,28.2 3.4,28.5 7.5,28.9 11.2,29 16.7,28.9 19.4,29 22.5,29 26.1,29.2 31.5,29.1 36.8,29 41.2,29.1 44.9,28.9 			"/>
			<polygon class="st2" points="48.6,24.2 48.4,24.2 48.5,25 48.1,25.5 46.9,25.8 44,26 35.9,26.1 28.6,26.1 19.7,26.1 12.4,26.1 
				5.6,25.9 2.2,25.1 1.6,24.5 1.6,24 1.6,24 0.9,24.6 0.5,25.5 0.5,27.1 2.2,27.8 5.8,28.3 12,28.4 21.6,28.6 28.4,28.6 34.6,28.5 
				41.2,28.5 44.8,28.4 47.2,28.2 48.4,28 49.2,27.7 49.5,26.7 49.5,25 			"/>
			<polygon class="st4" points="48.4,24.2 48.5,25 48.1,25.5 46.9,25.8 44,26 35.9,26.1 28.6,26.1 19.7,26.1 12.4,26.1 5.6,25.9 
				2.2,25.1 1.6,24.5 1.6,24 1.6,24 1.3,24.2 1.2,24.6 1.9,25.4 4,26 7.4,26.5 10.7,26.6 17.3,26.6 23.9,26.6 29.8,26.7 36.7,26.6 
				41.6,26.7 45.7,26.5 47.9,26.1 48.6,25.6 48.8,25.1 48.6,24.3 48.6,24.2 			"/>
			<polygon class="st3" points="49,26.7 47.9,27.2 45.6,27.6 41.2,27.7 34.6,27.7 28.8,27.7 24.2,27.7 12.5,27.8 4.1,27.1 1.3,26.3 
				0.7,25.2 0.5,25.5 0.5,27.1 2.2,27.8 5.8,28.3 12,28.4 21.6,28.6 28.4,28.6 34.6,28.5 41.2,28.5 44.8,28.4 47.2,28.2 48.4,28 
				49.2,27.7 49.5,26.7 49.5,26.3 			"/>
			<polygon class="st1" points="48.1,27.6 45.2,28 38.8,28.2 30.5,28.2 22.1,28.3 14.8,28.2 7.7,28 2.7,27.5 0.5,26.4 0.5,27.1 
				2.2,27.8 5.8,28.3 12,28.4 21.6,28.6 28.4,28.6 34.6,28.5 41.2,28.5 44.8,28.4 47.2,28.2 48.4,28 49.2,27.7 49.3,27.3 			"/>
		</g>
	</g>
</g>
</svg>
