<?xml version="1.0" encoding="utf-8"?>
<!-- Generator: Adobe Illustrator 19.2.1, SVG Export Plug-In . SVG Version: 6.00 Build 0)  -->
<svg version="1.1" id="Слой_1" xmlns="http://www.w3.org/2000/svg" xmlns:xlink="http://www.w3.org/1999/xlink" x="0px" y="0px"
	 viewBox="0 0 200 83.3" style="enable-background:new 0 0 200 83.3;" xml:space="preserve">
<style type="text/css">
	.st0{fill:#0F692F;stroke:#010202;stroke-width:0.1;stroke-miterlimit:10;}
	.st1{fill:#64A230;}
	.st2{fill:#C4DCA3;}
	.st3{fill:#0F692F;stroke:#010202;stroke-width:0.25;stroke-miterlimit:10;}
</style>
<g id="Слой_3">
	<g>
		<path class="st0" d="M98.5,8.2c-0.1-0.1-0.1-0.2-0.2-0.4c-0.1-0.2-0.4-0.4-0.6-0.6c-0.4-0.2-0.9-0.4-1.5-0.4c-1.5,0-3,0.5-4.5,1.5
			s-2.8,2.5-4.2,4.3c-1.4,1.9-2.7,4.1-3.8,6.7c-1.2,2.6-2.3,5.4-3.5,8.7c-0.2,0-0.5,0-0.7,0.1c-0.2,0-0.5,0-0.7,0.1
			c-0.2,0-0.5,0.1-0.7,0.2s-0.5,0.2-0.7,0.4C77.2,28.9,77,29,77,29.2c-0.1,0.1,0,0.2,0.1,0.2c0.5-0.1,1-0.2,1.5-0.2
			c0.5-0.1,1-0.1,1.5-0.2c0,0.1-0.1,0.2-0.1,0.4c0,0.2-0.1,0.4-0.1,0.4c-1.2,4.1-2,5.6-2,5.6c-1.1,2.5-2.2,4-1.9,4.3
			c0.1,0,0.2,0.1,0.4,0.1c0.5,0,1-0.1,1.2-0.2c0,0,0,0,0-0.1c1.2-2.6,2.5-5.8,3.7-9.8c0.1-0.2,0.2-0.6,0.4-0.9
			c0.7,0,1.5-0.1,2.2-0.1s1.5,0,2.2-0.1c0.2,0,0.4-0.1,0.4-0.2s0-0.1-0.2-0.2H84c-0.7,0-1.5,0-2.1,0c1.2-3.8,2.3-7,3.5-9.5
			s2.1-4.6,3.2-6.1s2.1-2.5,3.1-3.1c1-0.6,2.1-0.9,3.2-0.9c1,0,1.9,0.2,2.2,0.7c0.5,0.5,0.7,1,0.9,1.6c0,0.1,0.1,0.1,0.2,0.1
			s0.1,0,0.2-0.1c0.1-0.2,0.4-0.7,0.4-1.4C98.8,9.2,98.8,8.7,98.5,8.2z"/>
		<path class="st0" d="M88.9,29.1c0,0.5,0,1-0.1,1.6s-0.2,1.2-0.4,1.7c0.6-1.4,1.2-2.6,2-3.3c0.7-0.9,1.5-1.2,2.3-1.2
			c0.4,0,0.6,0.1,0.9,0.2c0.2,0.1,0.4,0.4,0.4,0.7c0,0.2-0.1,0.5-0.2,0.9s-0.4,0.6-0.5,0.9c-0.1,0.1-0.2,0.1-0.2-0.1
			c0-0.5-0.4-0.7-1-0.7c-1,0-2,0.7-2.8,2.3c-0.9,1.6-1.6,3.7-2.3,6.4c0,0.2-0.2,0.5-0.6,0.6s-0.6,0.1-0.9,0.1
			c-0.4,0-0.4-0.1-0.2-0.5c0.2-0.6,0.5-1.2,0.7-2c0.2-0.7,0.5-1.5,0.7-2.2s0.4-1.5,0.6-2.2c0.1-0.7,0.2-1.4,0.4-2
			c0.1-0.9,0-1.4-0.5-1.4c-0.2,0-0.5,0.1-0.9,0.4c-0.4,0.2-0.6,0.6-0.9,1c-0.1,0-0.2,0-0.4,0c-0.1-0.1-0.1-0.1,0-0.2
			c0.5-0.6,1-1.1,1.5-1.5c0.5-0.5,1.1-0.7,1.5-0.7C88.6,27.9,88.9,28.4,88.9,29.1z"/>
		<path class="st0" d="M101.4,29.9c0,0.4-0.1,0.7-0.5,1.1s-0.7,0.6-1.4,1c-0.6,0.2-1.2,0.5-2,0.7c-0.7,0.2-1.5,0.5-2.3,0.6
			c0,0.4,0,0.6-0.1,1c0,0.4,0,0.7,0,1.1c0,0.7,0.1,1.4,0.5,1.9S96.3,38,97,38c0.6,0,1.1-0.1,1.6-0.5c0.5-0.2,1-0.7,1.4-1.2
			c0.1,0,0.2,0,0.2,0c0,0.1,0,0.2,0,0.4c-0.5,0.6-1.1,1.2-1.9,1.7s-1.6,0.7-2.3,0.7s-1.4-0.2-1.9-0.7s-0.7-1.2-0.7-2.2
			c0-0.9,0.1-1.9,0.5-2.8c0.4-1,0.7-1.9,1.2-2.7c0.5-0.9,1.1-1.5,1.9-2.1c0.7-0.5,1.5-0.7,2.2-0.7c0.6,0,1,0.2,1.4,0.6
			C101.1,28.9,101.4,29.4,101.4,29.9z M98.4,29.1c-0.7,0-1.2,0.2-1.9,0.9c-0.5,0.6-0.9,1.5-1.1,2.8c1.4-0.2,2.5-0.5,3.1-0.9
			s1-0.9,1-1.4c0-0.4-0.1-0.7-0.4-1C99,29.2,98.8,29.1,98.4,29.1z"/>
		<path class="st0" d="M107.6,27.9c0.6,0,1.1,0.1,1.5,0.2c0.4,0.2,0.6,0.4,0.6,0.6c0,0.4-0.1,0.7-0.2,1.1s-0.2,0.7-0.4,1
			c0,0-0.1,0.1-0.2,0c-0.1,0-0.1-0.1-0.1-0.2c0.1-0.2,0.1-0.5,0.1-0.7s0-0.5,0-0.7c-0.1-0.6-0.6-0.9-1.2-0.9c-0.5,0-0.9,0.1-1.2,0.5
			c-0.4,0.4-0.5,0.7-0.5,1.4c0,0.5,0.1,0.9,0.4,1.4c0.2,0.4,0.5,0.9,0.9,1.2c0.4,0.4,0.6,0.9,0.9,1.4c0.2,0.5,0.4,1,0.4,1.6
			c0,1-0.4,1.7-1,2.3s-1.6,1-3,1c-0.9,0-1.7-0.1-2.2-0.5c-0.6-0.4-0.9-0.6-0.9-1c0-0.2,0.1-0.6,0.5-1.2c0.4-0.5,0.7-1,1.1-1.2
			c0.1,0,0.1,0,0.2,0c0.1,0.1,0.1,0.1,0,0.2c-0.2,0.2-0.4,0.5-0.5,0.9s-0.1,0.6-0.1,0.9c0.1,0.5,0.4,0.9,0.7,1.1
			c0.4,0.2,0.9,0.4,1.4,0.4c0.7,0,1.4-0.2,1.9-0.6c0.4-0.4,0.6-1,0.6-1.6s-0.1-1.1-0.4-1.6c-0.2-0.5-0.6-1-0.9-1.4
			c-0.4-0.5-0.6-0.9-0.9-1.4c-0.2-0.5-0.4-1-0.4-1.5c0-0.7,0.2-1.4,0.9-2C105.8,28.1,106.6,27.9,107.6,27.9z"/>
		<path class="st0" d="M110.9,38.9c1.4-5.1,2.8-9.6,4.5-13.7c1.6-4.1,3.3-7.5,5.2-10.4c1.9-2.8,3.7-5.1,5.6-6.7
			c1.9-1.6,3.7-2.3,5.6-2.3c0.6,0,1.2,0.1,1.6,0.4c0.4,0.2,0.7,0.6,0.9,1c0.1,0.4,0.2,0.9,0.1,1.2c-0.1,0.5-0.2,1-0.6,1.4
			c0,0.1-0.1,0.1-0.2,0.1c-0.1,0-0.1-0.1-0.1-0.2c0.1-0.6,0-1.1-0.5-1.7c-0.5-0.5-1.2-0.7-2.2-0.7c-1.4,0-2.8,0.5-4.3,1.6
			s-2.8,2.7-4.3,5.1c-1.5,2.2-2.8,5.1-4.3,8.5c-1.5,3.5-2.7,7.5-4.1,12.2c0.5-0.9,1-1.7,1.6-2.6c0.6-0.9,1.2-1.5,1.9-2.1
			c0.6-0.6,1.4-1.1,2-1.4c0.6-0.4,1.4-0.5,2-0.5c0.4,0,0.6,0.1,0.7,0.2s0.2,0.4,0.2,0.6c0,0.4-0.1,0.9-0.4,1.2
			c-0.6,1.1-1.1,2.2-1.5,3.3s-0.6,2.2-0.6,3.2c0,0.4,0,0.7,0.1,1s0.2,0.4,0.5,0.4c0.2,0,0.6-0.1,1-0.5s0.6-0.6,0.9-1
			c0.1,0,0.1,0,0.2,0c0.1,0.1,0.1,0.1,0.1,0.2c-0.1,0.2-0.4,0.5-0.6,0.9c-0.2,0.2-0.5,0.5-0.9,0.7s-0.6,0.5-1,0.6s-0.6,0.2-0.9,0.2
			c-0.7,0-1.1-0.6-1.1-1.9c0-1.1,0.1-2.2,0.5-3.5c0.4-1.2,0.7-2.3,1.2-3.3c0.1-0.2,0.2-0.5,0.2-0.7s-0.1-0.4-0.5-0.4
			c-0.5,0-1.1,0.2-1.7,0.6s-1.2,1-1.9,1.9c-0.6,0.7-1.2,1.7-1.9,3c-0.6,1.1-1.1,2.5-1.6,3.8c0,0.2-0.2,0.4-0.5,0.5
			c-0.2,0.1-0.5,0.1-0.7,0.1C110.9,39.3,110.8,39.1,110.9,38.9z"/>
	</g>
</g>
<g id="Слой_2">
				<path class="st1" d="M153.5,75.7c-0.1-0.2-0.2-0.5-0.3-0.8c1.7,0.7,3.3,1.4,5,2.2l0.4,0.2l-0.3-0.4c-0.2-0.2-0.4-0.5-0.5-0.8
					c-0.3-0.6-0.3-1.3-0.3-1.9c0.1-1,0.4-1.9,0.8-2.9l0,0l0,0c-1-1.3-1.8-2.6-2.4-4.1c0.9,0.6,2.1,0.8,3.1,0.5l0.2-0.1l-0.2-0.1
					c-0.8-0.4-1.4-1.1-1.8-1.9c0.7,0.5,1.4,0.8,2.2,1.1c0.9,0.3,1.8,0.3,2.7,0l0,0l0,0c0.5-1.2,0.5-2.5,0-3.7c-0.2-0.5-0.6-1-1-1.4
					c-0.7-0.7-1.6-1.1-2.3-1.7c-0.3-0.3-0.6-0.7-0.8-1.1s-0.2-0.9-0.1-1.3v-0.1l0,0c-0.5-0.6-1.2-1-2-1.2s-1.6-0.3-2.4-0.3
					c-1.4,0-2.9,0-4-0.6c1.3,0.2,2.5,0.2,3.8,0h0.1l-0.1-0.1c-0.3-0.5-0.6-1-0.9-1.5c1,0.4,2.1,0.5,3.2,0.4h0.1V54
					c0-0.3-0.1-0.6-0.2-0.8c-0.2-0.6-0.6-1.1-1.1-1.5c0.5-0.6,1-1.2,1.6-1.9l0,0v-0.1c0-0.1-0.1-0.2-0.1-0.3
					c-0.7-1.7-2.5-2.9-4.3-2.9c-0.9,0-1.9,0.3-2.8,0.5c-0.9,0.3-1.8,0.5-2.7,0.4c-0.4,0-0.9-0.1-1.4-0.2c-0.5-0.1-0.9-0.1-1.4,0
					c-0.2,0-0.4,0.1-0.5,0.2c-0.6,0.3-1.2,0.7-1.7,1.1c-0.5,0.3-0.9,0.6-1.5,0.8s-1.1,0.4-1.7,0.5c-1.5-0.3-2.9-0.4-4.4-0.3
					c1.9-1.2,3.8-2.4,5.8-3.3c0.3-0.2,0.7-0.3,1-0.5c4.9-2.1,10.2-3,15.6-3.4c0.8,0.1,1.6,0.3,2.3,0.6c1.2,0.6,2.2,1.5,2.7,2.7
					c0.1,0.1,0.1,0.3,0.2,0.4c0.4,1.4,0.1,2.9-0.2,4.4s-0.6,3-0.2,4.5c0.1,0.2,0.1,0.4,0.2,0.6c0.5,1.2,1.4,2.1,2.4,3
					c1.2,1.1,2.5,2.2,3.8,3.2c1.1,0.8,2.4,1.7,3.8,1.8c0.5,0,1.1-0.1,1.6-0.3c0.7-0.3,1.3-0.8,1.6-1.6c0.1,0.2,0.1,0.4,0.2,0.6
					c0.7,1.5,2.1,2.7,3.8,2.8h0.1v-0.1c0.2-0.7,0.2-1.5-0.1-2.2c-0.1-0.2-0.2-0.5-0.4-0.7c0.7,0,1.3-0.1,1.9-0.4
					c0.1,0,0.2-0.1,0.3-0.2h0.1v-0.1c-0.5-1-1.3-1.8-2.2-2.5c0.1-0.1,0.1-0.1,0.2-0.1c0.3-0.1,0.7-0.2,1-0.2c0.4,0,0.9,0,1.3-0.2
					c0.1,0,0.1,0,0.2-0.1c0.2-0.1,0.4-0.3,0.5-0.5s0.1-0.5,0-0.7c0-0.1-0.1-0.1-0.1-0.2c-0.2-0.2-0.5-0.3-0.7-0.4
					c-2.6-0.7-4.9-2.4-6.4-4.6c2-0.5,4.2,0,5.8,1.2c0.6,0.4,1.1,0.9,1.8,1.3c0.3,0.2,0.7,0.3,1,0.4c0.4,0.1,0.7,0,1.1-0.1h0.1
					c0.3-0.2,0.5-0.4,0.7-0.7c0.1-0.3,0.2-0.7,0-1c0,0,0-0.1-0.1-0.1c1-0.1,2,0.1,3,0.3c0.8,0.1,1.7,0.2,2.5-0.2
					c0.2-0.1,0.4-0.2,0.6-0.4c0.7-0.6,0.9-1.5,1.1-2.4c0.1-0.4,0.2-0.9,0.2-1.3c0-0.1,0-0.3,0-0.4c0.1,0,0.2,0.1,0.2,0.1
					c0.8,0.3,1.6,0.5,2.4,0.3c0,0,0.1,0,0.1-0.1c0.1,0,0.2-0.1,0.3-0.2c0.1-0.1,0.2-0.2,0.2-0.3c0-0.2,0-0.3,0-0.4
					c-0.1-0.2-0.3-0.4-0.5-0.6c-0.8-0.7-1.5-1.4-2.3-2.1c1,0,2.1,0,3-0.4c0.2-0.1,0.4-0.2,0.6-0.4c0.5-0.4,0.9-0.9,1.3-1.4l0.1-0.1
					h-0.1c-1.2-0.4-2.5-0.6-3.8-0.7c0.7-0.5,1.4-1.1,1.9-1.8l0.1-0.1H195c-1.3-0.4-2.6-0.5-3.9-0.4c0.3-0.2,0.5-0.4,0.8-0.6
					c0.2-0.2,0.5-0.4,0.7-0.6c0.2-0.2,0.4-0.5,0.4-0.8s0-0.6-0.1-0.8c-0.2-0.5-0.6-0.8-1.1-1c-0.7-0.3-1.5-0.3-2.2-0.2
					c-0.1-0.4-0.3-0.7-0.4-1.1c-0.6-1.3-1.4-2.6-2.4-3.6c0.1-1.4,0-2.9-0.5-4.2v-0.1l-0.1,0.1c-1.6,1.6-3.7,2.7-5.6,4
					c-0.1-2.8-0.5-5.6-1.1-8.3v-0.1h-0.1c-0.6,0.2-1.2,0.5-1.8,0.7c-0.9,0.4-1.8,0.8-2.7,1.3c-0.2-1.1-0.3-2.2-0.2-3.3V21l-0.1,0.1
					c-1.9,1-3.6,2.6-4.6,4.5c-0.5-1.8-0.8-3.7-0.7-5.6v-0.5l-0.2,0.4c-0.6,1.3-1.7,2.2-2.9,3.1c-1.1,0.8-2.3,1.6-3.2,2.7
					c-0.3-0.8-0.6-1.5-1-2.3l-0.1-0.1l-0.1,0.1c-2.3,2.8-3.5,6.5-3.3,10.1c-0.4,0.1-0.8,0.3-1.2,0.4c-0.3-0.7-1-1.1-1.7-1.3h-0.2
					l0.1,0.2c0.3,0.6,0.6,1.2,0.8,1.8c0.5,1.2,0.9,2.5,1,3.8c0,0.6,0,1.2-0.2,1.7c-0.3,0.7-0.9,1.3-1.7,1.7
					c-6.3,0.3-12.6,1.1-18.3,3.6c-0.9,0.4-1.8,0.8-2.7,1.3c0.9-1.4,1.6-2.9,2-4.5c0.1-0.2,0.1-0.5,0.1-0.7v-0.1c0-0.1,0-0.2,0-0.2
					c0.4-0.3,0.8-0.6,1.3-0.8c0.9-0.4,2.1-0.6,3.1-0.6c1.7,0,3.5,0.1,5.1-0.6c0.3-0.1,0.5-0.2,0.8-0.4l0,0l0,0
					c0.5-1.3,1.6-2.4,2.9-3.1c0.4-0.2,0.8-0.4,1.3-0.6c0.9-0.4,1.9-0.7,2.8-1h0.1V34c-0.5-2.2-0.1-4.6,1.1-6.5l0.1-0.1H155
					c-3.2-0.5-6.6-0.1-9.7,1.2c-0.2,0.1-0.4,0.2-0.6,0.3c-0.1-1.6,0.8-3.2,2.1-4c0.9-0.6,2-0.8,2.9-1.5c1-0.8,1.6-2,1.9-3.2
					s0.2-2.5,0.2-3.7v-0.2l-0.2,0.2c-0.2,0.2-0.4,0.3-0.6,0.4c-0.5,0.2-1,0.2-1.6,0.2s-1.2-0.1-1.7,0c-0.7,0-1.4,0.2-2.1,0.5
					c-1,0.4-1.8,1.1-2.4,1.9c0.3-2.3,1.4-4.4,3.1-6l0.1-0.1l-0.1-0.1c-2.2-1.1-4.1-2.5-5.8-4.3l0,0l0,0c-2.3,0.3-4.7-1.1-5.6-3.2
					c0,0,0-0.1-0.1-0.1V5.6l-0.1,0.1c-3.1,2.6-6.6,4.8-10.4,6.4l-0.2,0.1l0.1,0.1c1.5,1,2.9,2,4,3.4c0.3,0.4,0.6,0.9,0.8,1.3
					c0.5,1.1,0.6,2.4,0.2,3.6v0.1h0.1c0.8,0.4,1.6,0.9,2,1.6v0.1c0.2,0.3,0.2,0.8,0.1,1.1c-0.1,0.4-0.3,0.7-0.6,0.8h-0.1
					c-0.3,0.1-0.5,0.1-0.7,0c-0.3-0.1-0.7-0.4-1-0.7s-0.7-0.7-1.1-0.9c-0.7-0.5-1.7-0.5-2.5-0.2c-0.3,0.1-0.5,0.3-0.7,0.5l-0.3-0.7
					l0.1,0.1c0.2,0.3,0.5,0.6,0.6,0.9c0.1,0.2,0.2,0.5,0.1,0.7c0,0.2-0.1,0.4-0.3,0.5c-0.1,0-0.1,0.1-0.2,0.1
					c-0.2,0.1-0.4,0.1-0.7,0.1c-0.3,0-0.5-0.1-0.8-0.2c-1.2-0.3-2.4,0-3.6,0.5c-1.3,0.5-2.5,1.4-3.6,2.2v0.1l0.2,0.1
					c1.3,0.4,2.4,1.5,2.9,2.7c0.1,0.2,0.1,0.3,0.2,0.5c0.2,0.8,0.3,1.6,0.3,2.5c0.1,0.8,0.1,1.7,0.5,2.4c0.1,0.2,0.2,0.3,0.3,0.5
					c0.4,0.7,1.1,1.2,1.8,1.5c0.7,0.3,1.6,0.4,2.4,0.4c1.2-0.1,2.3-0.4,3.3-0.9c0.2-0.1,0.5-0.2,0.7-0.3c-0.5,0.5-1.2,0.8-1.8,1.2
					c-0.4,0.3-0.7,0.6-0.9,1.1c-0.2,0.4-0.3,0.9-0.1,1.3l0,0c0.1,0.3,0.4,0.6,0.7,0.7c0.3,0.2,0.6,0.3,1,0.3c1.3,0.3,2.8,0.1,4-0.4
					c0.1-0.1,0.3-0.1,0.4-0.2c0.6-0.3,1.2-0.7,1.8-1c0.1,0,0.2-0.1,0.3-0.1c0.4-0.1,0.8-0.2,1.1-0.1c0.2,0,0.5,0.1,0.7,0.2
					c0,0.2,0,0.3-0.1,0.5c-0.3,1.5-1.1,2.8-1.9,4.1c-1,1.5-1.9,3-3,4.4c-2.6,1.8-4.9,3.8-7.4,5.7c-6.5,5.1-13.7,9.3-21.3,12.6
					c-0.1,0-0.2,0.1-0.3,0.1c-0.4,0.1-0.7,0.2-1.1,0.3h-0.1v0.1c0.2,0.9,0.3,1.7,0.5,2.6v0.1l0.1-0.1c9-4.9,17.6-10.4,25.9-16.4
					c1.1-0.8,2.2-1.7,3.4-2.5c2-0.6,4.2-0.8,6.3-0.6c-0.1,0.6-0.5,1.3-0.8,1.9c-0.4,1-0.3,2.1,0.1,3.1s1.2,1.8,2.2,2.2
					c-1.3,1.8-1.5,4.3-0.7,6.3c0.2,0.5,0.5,1,0.9,1.5l0.1,0.1h0.1c2.2-1.6,4.2-3.4,5.8-5.5c0.1,0.2,0.2,0.3,0.3,0.5
					c0.2,0.6,0.2,1.3,0.1,1.9c-0.2,0.7-0.5,1.3-1,1.9c-1,1.3-2.5,2.3-3.3,3.7c-0.9,1.7-0.8,3.7,0,5.4c0.3,0.6,0.6,1.1,1,1.6l0.1,0.1
					l0.1-0.1c0.8-1.4,2-2.5,3.5-3.2c0.1-0.1,0.3-0.1,0.4-0.2c-0.6,1.1-1.2,2.2-1.3,3.4c-0.1,0.7,0,1.3,0.3,1.9s0.7,1.1,1.3,1.4
					c0.8,0.4,1.7,0.3,2.5,0.3c2.3-0.2,4.5-0.3,6.8-0.5h0.2l-0.2-0.1C154.6,77.7,153.9,76.7,153.5,75.7z"/>
				<path class="st2" d="M162.5,27.8c-0.1,0.3-0.1,0.8-0.1,1.3c0.1,0.6,0.3,1.2,0.4,1.8c0,0.3,0,0.7,0,1c0,0.4,0,0.7,0,1.1
					c0,0.1,0,0.2,0.1,0.3c0,0.1,0,0.1,0,0.1v0.1v0.1c0.1,0.2,0.2,0.4,0.3,0.5c0.2,0.3,0.4,0.6,0.6,0.9c0.2,0.3,0.4,0.5,0.4,0.8
					c0,0.1,0,0.1,0,0.2v0.1l0,0l0,0l0,0v0.1c0,0.1,0,0.3-0.1,0.4c-0.1,0.2-0.2,0.4-0.3,0.6c-0.1,0.1-0.1,0.1-0.2,0.2
					c-0.2,0.3-0.5,0.6-0.8,0.9c-0.5,0.6-1.1,1.1-1.7,1.6c-0.3,0.2-0.6,0.5-0.9,0.7s-0.6,0.4-1,0.6l0.1,0.1c-0.2,0-0.5,0.1-0.7,0.1
					c-0.6,0.1-1.1,0.2-1.6,0.2s-1,0-1.3-0.1c-0.4-0.1-0.7-0.2-1-0.4c-0.3-0.1-0.4-0.3-0.5-0.4c-0.1-0.1-0.1-0.1-0.1-0.1l0,0l0,0
					l0.1,0.1c0.1,0.1,0.3,0.3,0.5,0.5s0.6,0.3,1,0.4c0.2,0.1,0.4,0.1,0.7,0.1c0.2,0,0.5,0,0.7,0c0.5,0,1.1-0.1,1.6-0.1
					c0.6-0.1,1.2-0.1,1.8-0.1c0.2,0,0.5,0,0.7,0h0.1c0.4,0.2,0.9,0.4,1.3,0.7c0.4,0.3,0.8,0.6,1.1,0.9c0.3,0.3,0.6,0.7,1,1.1
					c0.2,0.2,0.3,0.4,0.5,0.5l0.1,0.1c0,0.1,0.1,0.2,0.1,0.4s0,0.4,0,0.7c0,0.2,0,0.5-0.1,0.8v0.1v0.1c0,0.1,0,0.2,0,0.2
					c0,0.2,0,0.3,0,0.5c0,0.1,0,0.2,0,0.2c0,0.1,0,0.2,0,0.2c0,0.1,0,0.2,0.1,0.2c0,0.1,0,0.2,0.1,0.2l0.1,0.2l0.1,0.2
					c0.1,0.2,0.1,0.3,0.2,0.5c0.1,0.3,0.3,0.6,0.4,0.9c0.1,0.3,0.3,0.6,0.4,0.9c0.1,0.3,0.3,0.6,0.4,0.8c0.1,0.3,0.2,0.5,0.3,0.8
					c0,0.1,0.1,0.2,0.1,0.3s0.1,0.2,0.1,0.3c0,0.2,0.1,0.4,0.1,0.5c0.1,0.3,0.1,0.5,0.1,0.5s0-0.2,0-0.5c0-0.1,0-0.3-0.1-0.5
					c0-0.2-0.1-0.4-0.2-0.7c0-0.1-0.1-0.3-0.1-0.4c0-0.1-0.1-0.3-0.1-0.4c-0.1-0.3-0.2-0.6-0.3-0.9c-0.1-0.3-0.3-0.6-0.4-0.9
					c-0.1-0.3-0.3-0.6-0.4-0.9c-0.1-0.2-0.1-0.3-0.2-0.5l-0.1-0.2l-0.1-0.2c0-0.1,0-0.2-0.1-0.2c0-0.1,0-0.2-0.1-0.2
					c0-0.1,0-0.2-0.1-0.2c0-0.1,0-0.2,0-0.2c0-0.2-0.1-0.3-0.1-0.5c0-0.1,0-0.2,0-0.2v-0.1v-0.1c0-0.3,0-0.6,0-0.8
					c0-0.3,0-0.5-0.1-0.7c0-0.1,0-0.1-0.1-0.2c0.1,0.1,0.2,0.2,0.3,0.2c0.1,0.1,0.2,0.1,0.3,0.2l0,0c0.2,0.2,0.3,0.5,0.5,0.8
					s0.4,0.6,0.5,1c0.2,0.4,0.3,0.7,0.5,1.1c0.2,0.4,0.4,0.8,0.5,1.2c0.2,0.4,0.4,0.8,0.6,1.3c0.3,0.7,0.7,1.3,1,2l0,0
					c0.1,0.4,0.3,0.9,0.3,1.5c0,0.1,0,0.3,0,0.4s0,0.3,0,0.4c0,0.3,0,0.6-0.1,0.9c0,0.3-0.1,0.6-0.1,0.9s0,0.6,0,0.9
					c0.1,0.6,0.2,1.1,0.5,1.6c0.1,0.2,0.2,0.4,0.4,0.5c0.1,0.1,0.3,0.2,0.4,0.3c0.1,0.1,0.2,0.1,0.3,0.2c0.1,0,0.1,0,0.1,0
					s0,0-0.1-0.1c-0.1,0-0.1-0.1-0.2-0.2c-0.2-0.2-0.4-0.5-0.6-0.9c-0.1-0.2-0.2-0.4-0.2-0.7c-0.1-0.3-0.1-0.5-0.1-0.8s0-0.6,0-0.9
					s0-0.6,0.1-0.9c0-0.3,0-0.6,0.1-0.9c0-0.2,0-0.3,0-0.5c0-0.1,0-0.3,0-0.4c0-0.2-0.1-0.4-0.1-0.6c0.1,0.2,0.3,0.4,0.4,0.7
					c0.2,0.3,0.4,0.7,0.6,0.9c0.4,0.6,0.7,1,1,1.4c0.1,0.2,0.2,0.3,0.3,0.4s0.1,0.1,0.1,0.1s-0.1-0.2-0.3-0.5s-0.5-0.8-0.9-1.4
					c-0.4-0.6-0.8-1.3-1.2-2.1c0.2,0.3,0.6,0.5,0.9,0.8c0.2,0.1,0.4,0.3,0.6,0.4c0.2,0.1,0.4,0.3,0.6,0.4s0.4,0.2,0.7,0.3
					c0.2,0.1,0.4,0.2,0.6,0.3c0.4,0.2,0.8,0.4,1.1,0.6c0.2,0.1,0.3,0.2,0.4,0.3c0.1,0.1,0.2,0.2,0.3,0.2c0.2,0.1,0.3,0.2,0.3,0.2
					s0,0-0.1-0.1c0,0-0.1-0.1-0.2-0.2c-0.1-0.1-0.2-0.2-0.3-0.3s-0.2-0.2-0.4-0.3c-0.3-0.2-0.7-0.5-1.1-0.7
					c-0.2-0.1-0.4-0.2-0.6-0.4c-0.2-0.1-0.4-0.2-0.6-0.4c-0.2-0.1-0.4-0.2-0.6-0.4c-0.2-0.1-0.4-0.2-0.6-0.4
					c-0.2-0.1-0.4-0.2-0.5-0.4c-0.2-0.1-0.3-0.2-0.5-0.4c-0.1-0.1-0.3-0.2-0.4-0.3c0,0,0,0-0.1-0.1c-0.1-0.2-0.2-0.4-0.3-0.6
					c-0.2-0.4-0.4-0.8-0.6-1.2s-0.4-0.7-0.5-1.1c0.2,0.2,0.4,0.3,0.6,0.5c0.1,0.1,0.2,0.2,0.4,0.3c0.1,0.1,0.3,0.2,0.4,0.3
					c0.1,0.1,0.3,0.2,0.4,0.2c0.1,0.1,0.3,0.2,0.4,0.2c0.3,0.1,0.5,0.3,0.7,0.3c0.4,0.2,0.8,0.3,0.8,0.3s-0.1,0-0.2-0.1
					c-0.1-0.1-0.3-0.2-0.5-0.3s-0.4-0.3-0.7-0.4c-0.2-0.2-0.5-0.3-0.8-0.5s-0.5-0.3-0.8-0.5c-0.2-0.2-0.5-0.3-0.7-0.4
					c-0.1-0.1-0.2-0.1-0.3-0.2c-0.2-0.3-0.3-0.7-0.5-1c-0.4-0.8-0.8-1.5-1.2-2.1c-0.1-0.2-0.3-0.4-0.4-0.5l0,0
					c0.2,0.1,0.4,0.2,0.7,0.3c0.5,0.2,0.9,0.4,1.4,0.6c0.2,0.1,0.5,0.2,0.7,0.3c0.1,0,0.2,0.1,0.3,0.1s0.2,0.1,0.3,0.2
					c0.2,0.1,0.4,0.2,0.6,0.3l0.3,0.2l0.3,0.2l-0.3-0.2c-0.1-0.1-0.2-0.2-0.3-0.2c-0.2-0.1-0.4-0.3-0.6-0.4
					c-0.2-0.1-0.4-0.2-0.7-0.4c-0.2-0.1-0.4-0.2-0.7-0.3c-0.5-0.2-0.9-0.4-1.3-0.6c-0.2-0.1-0.4-0.2-0.6-0.3
					c0.6,0.4,0.5,0.4,0.4,0.3c-0.1-0.1-0.2-0.1-0.3-0.2c-0.1-0.1-0.2-0.1-0.3-0.2c-0.1-0.1-0.2-0.2-0.3-0.2
					c-0.2-0.2-0.3-0.3-0.5-0.5c-0.3-0.4-0.6-0.7-1-1.1c-0.4-0.4-0.8-0.7-1.2-0.9c-0.3-0.2-0.5-0.3-0.8-0.4c0.1,0,0.1,0,0.2,0
					c0.1,0,0.2,0,0.3,0c0.7,0,1.3,0.1,2,0.2c0.7,0.1,1.3,0.2,2,0.2c0.7,0.1,1.3,0.1,1.9,0.2c0.6,0,1.2,0,1.8,0l0,0
					c0.1,0,0.2,0,0.3,0.1c0.3,0.1,0.7,0.2,1.1,0.3c0.8,0.3,1.8,0.6,2.7,1.2c0.9,0.5,1.8,1.3,2.7,2c0.3,0.2,0.5,0.4,0.8,0.6
					c0,0,0,0.1,0,0.2c0,0.1,0,0.2,0.1,0.3c0,0.1,0.1,0.3,0.1,0.4c0.1,0.1,0.1,0.3,0.2,0.5c0.1,0.2,0.2,0.3,0.2,0.5
					c0.1,0.2,0.2,0.3,0.3,0.5s0.2,0.3,0.3,0.5s0.2,0.3,0.4,0.5c0.1,0.2,0.3,0.3,0.4,0.4c0.1,0.1,0.3,0.3,0.4,0.4
					c0.1,0.1,0.3,0.2,0.4,0.3c0.1,0.1,0.2,0.2,0.3,0.3s0.2,0.1,0.3,0.2c0.2,0.1,0.2,0.1,0.2,0.1s0-0.3-0.1-0.4
					c-0.1-0.1-0.3-0.3-0.5-0.5c-0.1-0.1-0.2-0.2-0.3-0.4c-0.1-0.1-0.2-0.3-0.3-0.4c-0.1-0.1-0.2-0.3-0.4-0.4
					c-0.1-0.2-0.2-0.3-0.4-0.5c-0.1-0.2-0.2-0.3-0.3-0.5s-0.2-0.3-0.3-0.5s-0.2-0.3-0.3-0.5c-0.1-0.1-0.2-0.3-0.2-0.4
					c-0.1-0.3-0.3-0.5-0.3-0.6c0,0,0-0.1-0.1-0.1c0.2,0.1,0.4,0.3,0.6,0.4c0.2,0.2,0.5,0.3,0.7,0.5c0.2,0.1,0.5,0.3,0.7,0.4
					c1,0.5,1.9,0.9,2.8,1.1c0.4,0.1,0.8,0.2,1.2,0.2c0.4,0.1,0.7,0.1,0.9,0.1c0.3,0,0.5,0,0.6,0s0.2,0,0.2,0s-0.1,0-0.2,0
					c-0.1,0-0.3,0-0.6-0.1c-0.2,0-0.6-0.1-0.9-0.2c-0.3-0.1-0.7-0.2-1.1-0.3c-0.4-0.1-0.8-0.3-1.3-0.5s-0.9-0.4-1.4-0.7
					c-0.2-0.1-0.5-0.3-0.7-0.4c-0.2-0.1-0.5-0.3-0.7-0.5c-0.5-0.3-0.9-0.7-1.3-1.1c-0.4-0.4-0.9-0.7-1.4-1.1
					c-0.1-0.1-0.2-0.2-0.3-0.2c0.1,0,0.2,0.1,0.4,0.1c0.3,0.1,0.7,0.2,1.1,0.3c0.4,0.1,0.8,0.2,1.2,0.3s0.8,0.2,1.2,0.3
					s0.7,0.2,1,0.3s0.6,0.2,0.7,0.2c0.2,0.1,0.3,0.1,0.3,0.1s-0.1-0.1-0.3-0.2c-0.2-0.1-0.4-0.2-0.7-0.4c-0.3-0.1-0.6-0.3-1-0.4
					c-0.2-0.1-0.4-0.1-0.6-0.2c-0.2-0.1-0.4-0.1-0.6-0.2c-0.2-0.1-0.4-0.1-0.6-0.2c-0.2-0.1-0.4-0.1-0.6-0.1
					c-0.4-0.1-0.8-0.1-1.1-0.1s-0.5,0-0.7,0c-0.3-0.2-0.6-0.4-0.9-0.5c-1-0.5-1.9-0.9-2.8-1.1c-0.3-0.1-0.6-0.1-0.9-0.2
					c0.3,0,0.7,0,1-0.1c0.7,0,1.3-0.1,1.8-0.2c0.7,0,1.5,0,2.2,0c0.8,0,1.6,0.1,2.4,0.3c0.8,0.1,1.7,0.3,2.5,0.5s1.7,0.4,2.5,0.5
					c0.3,0,0.5,0.1,0.8,0.1l0,0c0.1,0.1,0.3,0.2,0.4,0.3c0.3,0.2,0.6,0.5,0.9,0.8c0.2,0.2,0.3,0.3,0.5,0.5s0.4,0.3,0.6,0.5
					c0.2,0.1,0.4,0.3,0.6,0.4c0.2,0.1,0.4,0.3,0.6,0.4c0.4,0.2,0.8,0.3,1.2,0.4c0.1,0,0.2,0,0.3,0s0.2,0,0.2,0c0.2,0,0.3,0,0.4,0
					c0.1,0,0.2,0,0.2,0c0.1,0,0.1,0,0.1,0s0,0-0.1,0s-0.1,0-0.2,0c-0.1,0-0.2,0-0.4,0c-0.1,0-0.1,0-0.2,0c-0.1,0-0.2,0-0.2-0.1
					c-0.1,0-0.3,0-0.5-0.1s-0.4-0.2-0.6-0.3s-0.4-0.2-0.6-0.4c-0.2-0.1-0.4-0.3-0.6-0.4c-0.2-0.1-0.4-0.3-0.6-0.5s-0.4-0.3-0.6-0.4
					c-0.4-0.3-0.7-0.5-1-0.7c-0.1,0-0.1-0.1-0.2-0.1c0.4,0.1,0.9,0.1,1.3,0.1c0.8,0.1,1.6,0.1,2.3,0.1s1.4,0,2.1-0.1
					c1.3-0.1,2.3-0.2,3.1-0.3c0.7-0.1,1.2-0.2,1.2-0.2s-0.4,0-1.2,0.1c-0.7,0.1-1.8,0.1-3.1,0.2c-0.9,0-1.9,0-3,0
					c0.2-0.1,0.5-0.1,0.7-0.2c0.2-0.1,0.4-0.2,0.6-0.2c0.2-0.1,0.4-0.2,0.6-0.3s0.4-0.2,0.5-0.3c0.2-0.1,0.4-0.2,0.5-0.3
					c0.3-0.2,0.7-0.4,0.9-0.5c0.1-0.1,0.3-0.1,0.4-0.2c0.1-0.1,0.2-0.1,0.3-0.1c0.2-0.1,0.3-0.1,0.3-0.1s0,0-0.1,0c0,0-0.1,0-0.2,0
					c-0.1,0-0.2,0-0.3,0.1c-0.1,0-0.3,0.1-0.4,0.1c-0.3,0.1-0.7,0.3-1,0.4c-0.2,0.1-0.4,0.2-0.5,0.3c-0.2,0.1-0.4,0.2-0.6,0.3
					s-0.4,0.2-0.5,0.3c-0.2,0.1-0.4,0.2-0.5,0.3c-0.2,0.1-0.3,0.2-0.5,0.2c-0.2,0.1-0.3,0.1-0.5,0.2c-0.1,0-0.3,0.1-0.4,0.1
					c-0.2,0-0.4,0-0.5,0c-0.8-0.1-1.6-0.2-2.4-0.4s-1.7-0.3-2.5-0.5s-1.7-0.3-2.5-0.5c-0.8-0.1-1.7-0.2-2.5-0.2s-1.6,0-2.3,0
					s-1.4,0.1-2.1,0.1c-0.1,0-0.2,0-0.3,0c0.1,0,0.3-0.1,0.5-0.1c0.4-0.1,0.8-0.3,1.2-0.5c0.9-0.4,1.9-1,2.9-1.6
					c0.5-0.3,1.1-0.6,1.6-1c0.2-0.1,0.4-0.3,0.7-0.4c0.1-0.1,0.3-0.1,0.5-0.2c0.2-0.1,0.5-0.2,0.8-0.3s0.6-0.2,0.9-0.3
					c0.6-0.2,1.3-0.4,2-0.5c0.3-0.1,0.7-0.1,1-0.2c0.2,0,0.4,0,0.5-0.1l0,0c0.2,0.1,0.5,0.2,0.9,0.4s0.8,0.4,1.2,0.6
					c0.2,0.1,0.5,0.2,0.7,0.3c0.1,0,0.3,0.1,0.4,0.1c0,0.1,0.1,0.3,0.2,0.5c0.1,0.2,0.2,0.4,0.4,0.7c0.1,0.1,0.2,0.2,0.3,0.3
					s0.2,0.2,0.3,0.3s0.3,0.2,0.4,0.2c0.1,0.1,0.3,0.1,0.4,0.2c0.3,0.1,0.5,0.2,0.8,0.2c0.2,0,0.4,0,0.5,0s0.1,0,0.1,0h0.1
					c0,0-0.1,0-0.2,0c-0.1,0-0.3-0.1-0.5-0.1c-0.2-0.1-0.4-0.2-0.7-0.3c-0.1-0.1-0.2-0.1-0.4-0.2c-0.1-0.1-0.2-0.1-0.3-0.2
					c-0.1-0.1-0.2-0.2-0.3-0.3s-0.2-0.2-0.3-0.3s-0.2-0.2-0.2-0.3c-0.1-0.1-0.1-0.2-0.2-0.3c-0.1-0.1-0.2-0.3-0.2-0.4
					c0.1,0,0.2,0.1,0.3,0.1c0.3,0.1,0.5,0.1,0.8,0.1s0.5,0,0.8,0s0.5,0,0.7-0.1c0.2,0,0.4-0.1,0.6-0.2c0.2-0.1,0.4-0.1,0.5-0.2
					c0.2-0.1,0.3-0.1,0.4-0.2c0.1-0.1,0.2-0.1,0.2-0.1c0.1,0,0.1,0,0.1,0s-0.1,0-0.3,0.1c-0.1,0-0.2,0.1-0.4,0.1s-0.3,0.1-0.5,0.1
					s-0.4,0.1-0.6,0.1s-0.5,0-0.7,0s-0.5,0-0.7,0c-0.3,0-0.5-0.1-0.8-0.1c-0.1,0-0.2-0.1-0.4-0.1c-0.1,0-0.3-0.1-0.4-0.1
					c-0.2-0.1-0.5-0.2-0.7-0.3c-0.5-0.2-0.9-0.4-1.3-0.5c-0.2-0.1-0.4-0.1-0.5-0.2c-0.1,0-0.2,0-0.3-0.1c0.1,0,0.2,0,0.3,0
					c0.7-0.1,1.3-0.2,1.8-0.3c0.3-0.1,0.5-0.2,0.7-0.2c0.2-0.1,0.4-0.2,0.5-0.3s0.2-0.2,0.3-0.2c0.1-0.1,0.1-0.1,0.1-0.1
					s0,0-0.1,0.1c0,0-0.1,0-0.1,0.1c-0.1,0-0.1,0.1-0.2,0.1c-0.3,0.1-0.7,0.3-1.2,0.4c-0.5,0.1-1.1,0.2-1.8,0.2c-0.3,0-0.7,0-1,0.1
					c-0.4,0-0.7,0.1-1.1,0.2c-0.4,0.1-0.7,0.2-1.1,0.2c-0.3,0.1-0.7,0.2-1,0.3s-0.6,0.2-0.9,0.4l0,0c0.5-0.3,1-0.7,1.4-1
					c0.5-0.4,1-0.7,1.5-1.1c0.5-0.4,0.9-0.8,1.3-1.2c0.4-0.4,0.7-0.8,1-1.2c0.6-0.8,0.9-1.5,1.1-2.1c0.1-0.3,0.1-0.5,0.2-0.6
					c0-0.1,0-0.2,0-0.2s0,0.1-0.1,0.2c0,0.1-0.1,0.4-0.2,0.6c-0.1,0.3-0.3,0.6-0.5,0.9c-0.2,0.3-0.5,0.7-0.8,1.1
					c-0.3,0.4-0.7,0.7-1.1,1.1c-0.4,0.4-0.9,0.7-1.3,1.1c-0.5,0.4-1,0.7-1.5,1.1c-0.2,0.1-0.3,0.2-0.5,0.3c0.1-0.1,0.2-0.2,0.3-0.4
					c0.2-0.2,0.3-0.4,0.5-0.7c0.2-0.2,0.3-0.5,0.5-0.7c0.3-0.5,0.6-1,0.8-1.4c0.1-0.2,0.3-0.4,0.4-0.6c0.1-0.2,0.3-0.4,0.4-0.6
					c0.1-0.2,0.2-0.3,0.4-0.5c0.1-0.1,0.2-0.2,0.3-0.3s0.2-0.2,0.2-0.2l0.1-0.1c0,0,0,0-0.1,0.1c-0.1,0-0.1,0.1-0.2,0.2
					c-0.1,0.1-0.2,0.2-0.4,0.3c-0.1,0.1-0.3,0.3-0.4,0.4c-0.3,0.3-0.6,0.7-0.9,1.2c-0.1,0.2-0.3,0.5-0.4,0.7
					c-0.1,0.2-0.3,0.5-0.4,0.7c-0.1,0.2-0.3,0.5-0.4,0.7c-0.2,0.2-0.3,0.5-0.5,0.7s-0.3,0.4-0.5,0.6c-0.2,0.2-0.3,0.3-0.5,0.5
					c-0.1,0.1-0.1,0.1-0.2,0.2l0,0c-0.5,0.4-1.1,0.7-1.6,1s-1.1,0.7-1.6,1s-1,0.6-1.5,0.9c-0.5,0.3-0.9,0.6-1.3,0.8
					c-0.4,0.2-0.8,0.4-1.2,0.6c-0.3,0.1-0.6,0.2-0.8,0.3c-0.4,0-0.7,0-1.1,0.1l0,0c-0.4,0-0.9,0-1.3-0.1c-0.6,0-1.3-0.1-1.9-0.2
					c-0.7-0.1-1.3-0.2-2-0.2c-0.7-0.1-1.3-0.1-2-0.2c-0.7,0-1.3-0.1-2,0h-0.1c-0.2,0-0.3,0-0.5,0c1.3-0.7,2.5-1.6,3.5-2.6
					c0.1-0.1,0.3-0.3,0.4-0.5c0.2-0.1,0.5-0.3,0.8-0.4c0.3-0.1,0.7-0.2,1.1-0.3c0.4-0.1,0.8-0.2,1.3-0.2c0.4-0.1,0.9-0.1,1.4-0.1
					s1-0.1,1.4-0.1c0.5,0,1-0.1,1.4-0.1c0.2,0,0.5-0.1,0.7-0.1c0.1,0,0.2,0,0.3-0.1c0.1,0,0.2-0.1,0.3-0.1c0.9-0.2,1.7-0.6,2.3-0.9
					c0.7-0.3,1.2-0.6,1.6-0.8c0.4-0.2,0.6-0.3,0.6-0.3s-0.2,0.1-0.6,0.3c-0.4,0.2-0.9,0.4-1.6,0.7s-1.5,0.5-2.3,0.7
					c-0.1,0-0.2,0-0.3,0.1c-0.1,0-0.2,0-0.3,0.1c-0.2,0-0.5,0.1-0.7,0.1c-0.5,0.1-0.9,0.1-1.4,0.1s-1,0.1-1.4,0.1
					c-0.5,0-0.9,0.1-1.4,0.2c-0.9,0.1-1.7,0.4-2.4,0.7c-0.1,0.1-0.2,0.1-0.4,0.2l0,0c0.3-0.3,0.5-0.6,0.7-0.9
					c0.1-0.1,0.3-0.3,0.4-0.4c0.1-0.1,0.3-0.3,0.4-0.4c0.3-0.3,0.6-0.5,0.9-0.8c0.4-0.4,0.9-0.7,1.3-1.1c0.2-0.1,0.5-0.3,0.8-0.4
					c0.6-0.3,1.2-0.6,2-0.8c0.2-0.1,0.4-0.1,0.6-0.2c0.2-0.1,0.4-0.1,0.6-0.2c0.4-0.1,0.8-0.2,1.2-0.3s0.8-0.2,1.2-0.3
					s0.8-0.2,1.2-0.4c0.8-0.3,1.4-0.6,2-1c0.5-0.4,0.9-0.7,1.2-1c0.1-0.1,0.2-0.3,0.3-0.3c0.1-0.1,0.1-0.1,0.1-0.1s0,0-0.1,0.1
					s-0.2,0.2-0.3,0.3c-0.1,0.1-0.3,0.3-0.5,0.4c-0.2,0.2-0.4,0.3-0.7,0.5c-0.5,0.3-1.2,0.6-1.9,0.8c-0.4,0.1-0.8,0.2-1.2,0.3
					c-0.4,0.1-0.8,0.2-1.2,0.3c-0.4,0.1-0.8,0.2-1.2,0.3c-0.2,0.1-0.4,0.1-0.6,0.2c-0.2,0.1-0.4,0.1-0.6,0.2c-0.7,0.3-1.4,0.6-2,0.9
					c-0.1,0-0.1,0.1-0.2,0.1c0.3-0.3,0.5-0.5,0.7-0.8s0.5-0.6,0.7-1c0.4-0.7,0.7-1.4,1-2.1s0.5-1.5,0.7-2.2
					c-0.3,0.7-0.6,1.4-0.9,2.1c-0.2,0.3-0.3,0.7-0.5,1s-0.4,0.7-0.6,1c-0.2,0.3-0.4,0.6-0.7,0.9s-0.5,0.6-0.8,0.8
					c-0.4,0.4-0.8,0.7-1.2,1c0.1-0.2,0.3-0.4,0.5-0.7c0.2-0.4,0.3-0.8,0.3-1.3c0-0.1,0-0.1,0-0.2c0-0.1,0-0.1,0-0.2
					c0-0.1,0-0.3,0-0.4c0-0.3,0-0.5-0.1-0.8c0-0.3-0.1-0.5-0.1-0.8s-0.1-0.5-0.1-0.7c-0.1-0.5-0.2-0.9-0.2-1.3s0-0.7,0-0.9
					s0-0.4,0-0.4s0,0,0,0.1s0,0.1-0.1,0.3c-0.1,0.2-0.1,0.5-0.1,0.9s0,0.9,0.1,1.3c0,0.2,0.1,0.5,0.1,0.7c0,0.3,0.1,0.5,0.1,0.8
					s0.1,0.5,0.1,0.8c0,0.1,0,0.2,0,0.4c0,0.1,0,0.1,0,0.2c0,0.1,0,0.1,0,0.2c0,0.5-0.1,0.9-0.2,1.3c-0.1,0.4-0.3,0.6-0.4,0.8
					c-0.1,0.1-0.1,0.1-0.1,0.2c-0.1,0.1-0.2,0.2-0.3,0.3c-0.3,0.3-0.6,0.5-0.9,0.8c-0.1,0.1-0.3,0.3-0.4,0.4
					c-0.1,0.1-0.3,0.3-0.4,0.4c0,0,0,0.1-0.1,0.1c0-0.1,0.1-0.3,0.1-0.4v-0.1l0,0l0,0l0,0v-0.1c0-0.1,0-0.2,0-0.3
					c-0.1-0.3-0.2-0.6-0.4-0.9c-0.2-0.3-0.4-0.6-0.6-0.9c-0.1-0.1-0.2-0.3-0.2-0.5v-0.1v-0.1v-0.1c0-0.1,0-0.2,0-0.2
					c0-0.3,0-0.7,0-1.1s0-0.7-0.1-1.1c-0.1-0.3-0.2-0.7-0.2-1c-0.1-0.3-0.2-0.6-0.2-0.8c-0.1-0.3-0.1-0.5-0.1-0.7
					C162.5,28.2,162.5,28,162.5,27.8c0.1-0.1,0.1-0.3,0.2-0.3c0-0.1,0-0.1,0-0.1s0,0-0.1,0.1C162.6,27.6,162.5,27.7,162.5,27.8z
					 M134.6,16.3c0.2,0.2,0.4,0.4,0.6,0.6l0,0c0.1,0.2,0.2,0.4,0.2,0.7c0.2,0.5,0.4,0.9,0.5,1.4c0.4,0.9,0.7,1.7,1,2.4
					c0.1,0.4,0.2,0.7,0.3,1s0.2,0.5,0.2,0.8c0.1,0.4,0.2,0.7,0.2,0.7s0-0.1,0-0.2s0-0.3-0.1-0.5c0-0.2-0.1-0.5-0.2-0.8
					c0-0.1-0.1-0.3-0.1-0.5s-0.1-0.3-0.2-0.5c-0.1-0.2-0.2-0.5-0.2-0.7c0-0.1,0.1-0.1,0.1-0.2s0.1-0.2,0.1-0.4
					c0.1-0.1,0.1-0.3,0.2-0.5s0.2-0.4,0.3-0.5c0.1-0.2,0.2-0.4,0.3-0.6s0.2-0.4,0.4-0.6c0.1-0.2,0.3-0.4,0.4-0.6
					c0.1-0.2,0.3-0.4,0.4-0.6s0.3-0.4,0.4-0.6c0.2-0.2,0.3-0.4,0.4-0.5c0.1-0.2,0.3-0.3,0.4-0.4c0.1-0.1,0.2-0.3,0.4-0.4
					c0.1-0.1,0.2-0.2,0.3-0.3c0.2-0.2,0.2-0.2,0.2-0.2s-0.1,0.1-0.3,0.2c-0.1,0.1-0.2,0.1-0.3,0.2c-0.1,0.1-0.3,0.2-0.4,0.3
					c-0.1,0.1-0.3,0.3-0.5,0.4s-0.3,0.3-0.5,0.5s-0.3,0.4-0.5,0.6s-0.3,0.4-0.4,0.6c-0.1,0.2-0.3,0.4-0.4,0.6
					c-0.1,0.2-0.2,0.4-0.3,0.7c-0.1,0.2-0.2,0.4-0.3,0.6s-0.1,0.4-0.2,0.6c-0.1,0.2-0.1,0.3-0.1,0.5c0,0.1-0.1,0.3-0.1,0.4
					s0,0.2,0,0.2c0-0.1-0.1-0.3-0.1-0.4c-0.1-0.4-0.3-0.8-0.5-1.3c-0.1-0.3-0.2-0.6-0.4-0.9c0-0.1,0-0.1,0-0.2c0-0.3,0.1-0.6,0.2-1
					c0.1-0.2,0.2-0.4,0.3-0.6s0.3-0.4,0.4-0.7c0.1-0.2,0.3-0.5,0.5-0.7s0.4-0.5,0.5-0.7c0.2-0.2,0.4-0.5,0.5-0.7
					c0.2-0.2,0.4-0.4,0.5-0.7c0.2-0.2,0.4-0.4,0.5-0.6c0.1-0.1,0.2-0.2,0.3-0.3s0.2-0.2,0.3-0.2c0.1-0.1,0.2-0.1,0.2-0.2
					c0.1-0.1,0.2-0.1,0.2-0.2c0.1-0.1,0.3-0.2,0.4-0.3c0.2-0.1,0.3-0.2,0.3-0.2s0,0-0.1,0s-0.2,0.1-0.3,0.1
					c-0.1,0.1-0.3,0.1-0.4,0.2c-0.2,0.1-0.3,0.2-0.5,0.3s-0.4,0.3-0.6,0.5s-0.4,0.4-0.6,0.6s-0.4,0.4-0.6,0.6s-0.4,0.5-0.6,0.7
					s-0.4,0.5-0.5,0.7c-0.2,0.2-0.3,0.5-0.5,0.7c-0.3,0.5-0.5,1-0.6,1.4s-0.1,0.8-0.1,1.1l0,0c0-0.1-0.1-0.2-0.1-0.2
					c-0.2-0.5-0.3-0.9-0.5-1.4l-0.1-0.4l0.3-0.4c-0.1-0.2-0.1-0.5-0.2-0.7c0-0.1,0-0.2-0.1-0.4c0-0.1,0-0.2-0.1-0.4
					c0-0.2,0-0.5-0.1-0.7c0-0.9,0-1.8,0.1-2.5s0.2-1.4,0.2-1.8c0.1-0.4,0.1-0.7,0.1-0.7s-0.1,0.2-0.2,0.7c-0.1,0.4-0.2,1-0.4,1.8
					c-0.1,0.7-0.2,1.6-0.2,2.6c0,0.5,0.1,1,0.1,1.5c0,0.2,0.1,0.5,0.2,0.7l0.1,0.4L134.6,16.3c0.1,0.1,0.2,0.2,0.3,0.4
					c0,0,0,0,0-0.1C134.8,16.5,134.7,16.4,134.6,16.3c-0.1-0.2-0.2-0.4-0.3-0.5c-0.1-0.1-0.3-0.3-0.4-0.5c-0.1-0.1-0.3-0.3-0.5-0.5
					s-0.3-0.3-0.5-0.4s-0.4-0.3-0.5-0.4c-0.2-0.1-0.4-0.2-0.5-0.4c-0.2-0.1-0.4-0.2-0.5-0.3c-0.2-0.1-0.3-0.2-0.5-0.2
					c-0.2-0.1-0.3-0.1-0.4-0.2c-0.1,0-0.2-0.1-0.3-0.1c-0.2-0.1-0.3-0.1-0.3-0.1s0.1,0.1,0.3,0.2s0.4,0.2,0.7,0.4
					c0.1,0.1,0.3,0.2,0.5,0.3s0.3,0.2,0.5,0.3s0.3,0.2,0.5,0.4c0.2,0.1,0.3,0.3,0.5,0.4s0.3,0.3,0.5,0.4s0.3,0.3,0.5,0.4
					c0.1,0.1,0.3,0.3,0.4,0.4C134.3,16.1,134.5,16.2,134.6,16.3z M150.3,72.1c0.4,0.8,0.8,1.4,1.1,1.8c0.2,0.2,0.3,0.3,0.4,0.4
					c0.1,0.1,0.2,0.1,0.2,0.1s0-0.1-0.1-0.2s-0.2-0.3-0.4-0.4c-0.2-0.2-0.3-0.4-0.5-0.7c-0.2-0.3-0.3-0.7-0.5-1
					c-0.2-0.4-0.3-0.8-0.4-1.3c-0.1-0.5-0.2-1-0.3-1.5s-0.1-1.1-0.2-1.6c0-0.6-0.1-1.1-0.1-1.7c0-0.1,0-0.2,0-0.3c0,0,0,0.1,0.1,0.1
					c0,0.1,0.1,0.2,0.1,0.3c0,0.1,0.1,0.2,0.1,0.3c0.1,0.2,0.2,0.5,0.4,0.7c0.1,0.2,0.3,0.5,0.4,0.7c0.2,0.2,0.3,0.5,0.5,0.7
					s0.4,0.5,0.6,0.7s0.4,0.4,0.6,0.6s0.4,0.4,0.6,0.5c0.1,0.1,0.2,0.2,0.3,0.2c0.1,0.1,0.2,0.1,0.3,0.2s0.2,0.1,0.3,0.2
					S154,71,154,71c0.1,0.1,0.3,0.2,0.4,0.2c0.2,0.1,0.4,0.2,0.4,0.2s-0.1-0.1-0.3-0.2c-0.1-0.1-0.2-0.2-0.4-0.3
					c-0.1-0.1-0.3-0.2-0.4-0.4c-0.2-0.1-0.3-0.3-0.5-0.5s-0.4-0.4-0.5-0.5c-0.2-0.2-0.4-0.4-0.6-0.6s-0.4-0.4-0.5-0.7
					c-0.2-0.2-0.3-0.4-0.5-0.7c-0.2-0.2-0.3-0.5-0.5-0.7c-0.1-0.2-0.3-0.4-0.4-0.7c-0.1-0.2-0.2-0.4-0.3-0.6s-0.2-0.4-0.3-0.5
					c0,0,0-0.1-0.1-0.1c0-0.3-0.1-0.6-0.1-0.9c-0.1-0.6-0.2-1.1-0.4-1.6c-0.1-0.5-0.3-1-0.5-1.5s-0.4-0.9-0.6-1.3s-0.4-0.7-0.6-1
					c-0.1-0.1-0.1-0.2-0.2-0.3c0.1,0.1,0.2,0.3,0.4,0.4c0.3,0.4,0.7,0.7,1.2,1c0.4,0.3,0.9,0.6,1.5,0.8c0.5,0.2,0.9,0.4,1.4,0.6
					c0.1,0.1,0.1,0.1,0.2,0.2s0.2,0.2,0.3,0.4c0.1,0.1,0.2,0.3,0.2,0.5c0.1,0.2,0.1,0.3,0.2,0.5c0.1,0.2,0.2,0.4,0.2,0.6
					c0,0.1,0.1,0.2,0.1,0.3s0.1,0.2,0.2,0.3c0.1,0.2,0.2,0.3,0.4,0.5c0.3,0.3,0.5,0.5,0.8,0.7c0.3,0.2,0.5,0.3,0.7,0.3
					c0.1,0,0.1,0,0.2,0.1h0.1c0,0-0.1-0.1-0.2-0.1c-0.1-0.1-0.3-0.2-0.6-0.4c-0.1-0.1-0.2-0.2-0.3-0.3s-0.2-0.2-0.3-0.4
					c-0.1-0.1-0.2-0.3-0.3-0.4c0-0.1-0.1-0.2-0.1-0.2c0-0.1-0.1-0.2-0.1-0.3c-0.1-0.2-0.2-0.4-0.2-0.5c-0.1-0.2-0.2-0.4-0.2-0.5
					c-0.1-0.2-0.2-0.3-0.3-0.5c-0.1-0.1-0.1-0.2-0.2-0.2c0.4,0.2,0.8,0.4,1.1,0.6c0.5,0.3,1,0.5,1.4,0.8c0.5,0.3,0.9,0.5,1.4,0.7
					c0.4,0.2,0.9,0.4,1.3,0.5c0.8,0.2,1.5,0.2,2,0.2c0.2,0,0.4-0.1,0.6-0.1c0.1,0,0.2,0,0.2,0s-0.1,0-0.2,0c-0.1,0-0.3,0-0.6,0
					c-0.2,0-0.5,0-0.9-0.1c-0.3-0.1-0.7-0.1-1.1-0.3c-0.4-0.1-0.8-0.3-1.2-0.5s-0.9-0.5-1.3-0.7c-0.5-0.3-0.9-0.6-1.4-0.8
					c-0.5-0.3-1-0.6-1.5-0.8c-1-0.5-2.1-0.8-3-1.4c-0.4-0.3-0.8-0.6-1.1-0.9s-0.6-0.7-0.9-1c-0.5-0.6-1-1.2-1.3-1.5
					c-0.3-0.4-0.5-0.6-0.5-0.6s0.2,0.2,0.5,0.6c0.2,0.3,0.4,0.6,0.7,1c0.1,0.1,0.1,0.2,0.2,0.4c0.1,0.2,0.2,0.4,0.3,0.6
					c0.1,0.3,0.2,0.5,0.3,0.9c0.1,0.3,0.2,0.7,0.2,1c0.1,0.4,0.1,0.8,0.1,1.2s0,0.8-0.1,1.3c-0.1,0.4-0.1,0.9-0.3,1.3
					c-0.1,0.4-0.3,0.8-0.4,1.2c-0.2,0.4-0.3,0.8-0.5,1.2s-0.4,0.7-0.6,1.1c-0.2,0.3-0.4,0.6-0.6,0.9c-0.4,0.6-0.7,1-0.9,1.4
					c-0.2,0.3-0.3,0.5-0.3,0.5s0.1-0.2,0.4-0.5c0.2-0.3,0.6-0.7,1-1.3c0.2-0.3,0.4-0.6,0.6-0.9c0.2-0.3,0.4-0.7,0.6-1
					c0,0.1,0,0.1,0,0.2c0,0.2,0,0.3-0.1,0.5c0,0.2,0,0.4,0,0.5c0,0.2,0,0.4,0.1,0.6c0,0.2,0.1,0.4,0.1,0.5c0,0.2,0.1,0.4,0.2,0.5
					c0.1,0.2,0.1,0.3,0.2,0.5c0.1,0.1,0.1,0.3,0.2,0.4c0,0.1,0.1,0.1,0.1,0.2s0.1,0.1,0.1,0.1c0.1,0.1,0.1,0.2,0.2,0.2
					c0.1,0.1,0.2,0.2,0.2,0.2s0-0.1-0.1-0.2c0-0.1-0.1-0.2-0.1-0.3c0-0.1-0.1-0.2-0.2-0.3c-0.1-0.1-0.1-0.3-0.2-0.4
					c-0.1-0.1-0.1-0.3-0.2-0.5c0-0.2-0.1-0.3-0.1-0.5s-0.1-0.3-0.1-0.5s-0.1-0.4-0.1-0.5c0-0.2,0-0.3,0-0.5s0-0.3,0-0.5s0-0.3,0-0.4
					s0-0.3,0-0.4l0,0c0.1-0.2,0.2-0.4,0.3-0.6c0.2-0.4,0.3-0.8,0.4-1.3c0.1-0.4,0.2-0.9,0.3-1.3c0.1-0.4,0.1-0.9,0-1.3
					c0-0.9-0.2-1.6-0.5-2.3c-0.1-0.3-0.3-0.6-0.4-0.8c-0.1-0.2-0.2-0.3-0.3-0.5c0.1,0.1,0.1,0.1,0.2,0.2l0,0c0,0,0.1,0.1,0.1,0.2
					c0.3,0.4,0.6,1.1,0.9,1.9s0.7,1.7,0.9,2.8c0.1,0.5,0.2,1.1,0.3,1.6s0.1,1.1,0.2,1.7c0.1,0.6,0.1,1.1,0.2,1.7
					c0,0.1,0,0.3,0.1,0.4c0,0,0,0,0,0.1s0,0.1-0.1,0.2c0,0.1,0,0.2-0.1,0.2c0,0.2-0.1,0.4-0.1,0.6c-0.1,0.4-0.1,1-0.1,1.5
					c0,0.3,0,0.6,0,0.8c0,0.3,0,0.6,0,0.9s-0.1,0.6-0.1,0.8c-0.1,0.3-0.1,0.5-0.2,0.8c-0.1,0.2-0.2,0.5-0.3,0.7s-0.2,0.4-0.4,0.6
					c-0.1,0.2-0.2,0.3-0.4,0.5c-0.1,0.1-0.2,0.2-0.3,0.3c-0.1,0.1-0.2,0.2-0.2,0.2c-0.1,0-0.1,0.1-0.1,0.1s0,0,0.1-0.1
					c0.1,0,0.1-0.1,0.2-0.2c0.1-0.1,0.2-0.2,0.4-0.3c0.1-0.1,0.3-0.3,0.4-0.4c0.3-0.3,0.6-0.8,0.8-1.3c0.1-0.3,0.2-0.5,0.3-0.8
					s0.1-0.6,0.2-0.9c0-0.3,0-0.6,0-0.9s0-0.6,0-0.9s0-0.5,0-0.8c0-0.2,0-0.5,0-0.7s0-0.4,0-0.6c0-0.1,0-0.2,0-0.3
					c0,0.3,0.1,0.7,0.1,1C149.7,70.3,150,71.3,150.3,72.1z M141.3,60.7c0-0.3,0.2-0.8,0.4-1.3c0.1-0.3,0.2-0.5,0.3-0.8
					s0.2-0.6,0.3-1c0.1-0.3,0.1-0.7,0.2-1.1c0-0.4,0-0.8,0-1.1c0-0.4-0.1-0.7-0.2-1.1c0-0.1-0.1-0.2-0.1-0.3s-0.1-0.2-0.1-0.2
					c-0.1-0.2-0.1-0.3-0.2-0.5c-0.3-0.6-0.8-1.1-1.2-1.5c-0.1-0.1-0.2-0.2-0.3-0.3c0.2,0.1,0.4,0.3,0.6,0.4c0.3,0.2,0.6,0.4,0.9,0.7
					c0.3,0.2,0.6,0.5,0.8,0.7c0.3,0.2,0.6,0.5,0.9,0.7s0.6,0.4,1,0.5c0.3,0.2,0.7,0.3,1.1,0.3c-0.7-0.2-1.4-0.6-1.9-1
					c-0.3-0.2-0.6-0.5-0.8-0.7l-0.8-0.7c-0.3-0.2-0.6-0.5-0.8-0.7c-0.3-0.2-0.6-0.4-0.9-0.6c0,0-0.1-0.1-0.2-0.1c0,0,0.1,0,0.2,0
					c0.4,0.1,0.9,0.2,1.6,0.2c0.6,0,1.4,0,2.2-0.1c0.1,0,0.1,0,0.2,0s0.2,0,0.4,0.1c0.3,0.1,0.7,0.2,1.1,0.4
					c0.2,0.1,0.4,0.2,0.6,0.4c0.2,0.1,0.4,0.3,0.6,0.4c0.2,0.1,0.4,0.3,0.6,0.4c0.2,0.1,0.4,0.3,0.6,0.4c0.4,0.2,0.8,0.4,1.2,0.5
					s0.7,0.2,0.9,0.2c0.1,0,0.2,0,0.3,0s0.1,0,0.1,0s-0.1,0-0.3-0.1s-0.5-0.1-0.8-0.3c-0.3-0.1-0.7-0.4-1.1-0.6
					c-0.2-0.1-0.4-0.3-0.6-0.4c-0.2-0.1-0.4-0.3-0.6-0.4c-0.2-0.1-0.4-0.3-0.6-0.4c-0.2-0.1-0.4-0.2-0.6-0.3s-0.5-0.2-0.7-0.3
					c0,0,0,0,0.1,0c0.4,0,0.8,0,1.3,0c0.4,0,0.8,0,1.3,0c0.4,0,0.8,0,1.2,0.1c0.8,0.1,1.5,0.1,2.2,0.1c0.6,0,1.2,0.1,1.5,0.1
					c0.4,0,0.6,0,0.6,0s-0.2,0-0.6-0.1c-0.4-0.1-0.9-0.2-1.5-0.2c-0.6-0.1-1.4-0.2-2.2-0.3c-0.4,0-0.8-0.1-1.2-0.1s-0.8,0-1.3-0.1
					c-0.4,0-0.9,0-1.3,0c-0.1,0-0.2,0-0.3,0c0.3-0.1,0.6-0.3,0.9-0.5c0.2-0.1,0.4-0.3,0.6-0.4c0.2-0.2,0.4-0.3,0.5-0.5
					c0.2-0.2,0.3-0.3,0.5-0.5s0.3-0.3,0.5-0.5c0.2-0.1,0.3-0.3,0.5-0.4c0.2-0.1,0.3-0.2,0.5-0.3c0.1-0.1,0.3-0.2,0.4-0.2
					c0.1-0.1,0.2-0.1,0.3-0.1s0.2-0.1,0.2-0.1c0.1,0,0.1,0,0.1,0s0,0-0.1,0s-0.1,0-0.2,0s-0.2,0-0.4,0.1c-0.1,0-0.1,0-0.2,0.1
					c-0.1,0-0.2,0.1-0.2,0.1c-0.3,0.2-0.7,0.4-1.1,0.7c-0.2,0.1-0.4,0.3-0.5,0.4c-0.2,0.2-0.4,0.3-0.5,0.5c-0.2,0.2-0.3,0.3-0.5,0.5
					s-0.3,0.3-0.5,0.4c-0.2,0.1-0.3,0.3-0.5,0.4c-0.2,0.1-0.3,0.2-0.5,0.3c-0.1,0-0.2,0.1-0.2,0.1h-0.1c-0.1,0-0.3,0-0.4,0
					c-0.4,0-0.8,0.1-1.2,0.1s-0.7,0.1-1,0.1s-0.6,0-0.9,0c-0.3,0-0.5,0-0.7,0c-0.1,0-0.2,0-0.3,0c-0.2-0.1-0.5-0.3-0.7-0.4
					c-0.3-0.2-0.7-0.3-1.1-0.4c-0.7-0.2-1.5-0.3-2.2-0.3c-0.4,0-0.8,0-1.1,0c-0.4,0-0.7,0.1-1.1,0.1c-0.7,0.1-1.5,0.3-2.2,0.5
					c-0.5,0.2-1.1,0.3-1.6,0.5c0.1-0.1,0.2-0.2,0.4-0.3c0,0,0.1,0,0.1-0.1c0.3-0.2,0.7-0.4,1.1-0.7c0.8-0.5,1.6-1.1,2.6-1.8
					c0.5-0.3,1-0.7,1.4-1c0.5-0.3,1-0.6,1.6-0.9c0.5-0.3,1.1-0.5,1.6-0.8c0.5-0.2,1.1-0.5,1.6-0.6c0.5-0.2,1.1-0.4,1.5-0.5
					c0.5-0.2,1-0.3,1.4-0.4c1.7-0.5,2.9-0.9,2.9-0.9s-0.3,0.1-0.8,0.2c-0.5,0.1-1.3,0.3-2.1,0.5c-0.4,0.1-0.9,0.2-1.4,0.4
					c-0.5,0.1-1,0.3-1.6,0.5c-0.5,0.2-1.1,0.4-1.7,0.6c-0.6,0.2-1.1,0.5-1.7,0.8c-0.5,0.3-1.1,0.6-1.6,0.9c-0.5,0.3-1,0.7-1.4,1
					c-0.9,0.7-1.8,1.3-2.5,1.9c-0.5,0.4-1,0.7-1.4,1c-0.2,0.1-0.5,0.3-0.8,0.5s-0.6,0.4-1,0.6l0,0c0.2-0.1,0.5-0.3,0.8-0.6
					c0.1-0.1,0.2-0.1,0.3-0.2c0.1-0.1,0.2-0.2,0.3-0.2c0.2-0.2,0.4-0.4,0.6-0.6c0.1-0.1,0.2-0.2,0.3-0.3s0.2-0.2,0.3-0.3
					c0.2-0.2,0.5-0.5,0.7-0.8c0.5-0.5,1-1.1,1.5-1.8s1-1.4,1.5-2.2s0.9-1.6,1.3-2.5c0.2-0.5,0.5-1.1,0.7-1.7
					c0.1-0.1,0.2-0.3,0.3-0.4c0.2-0.2,0.4-0.5,0.7-0.8c0.1-0.1,0.3-0.3,0.4-0.4c0.1-0.2,0.3-0.3,0.5-0.5s0.3-0.3,0.5-0.5
					s0.3-0.3,0.5-0.5c0.4-0.3,0.7-0.7,1.1-1c0.2-0.2,0.5-0.4,0.8-0.6c0,0,0.1,0,0.1-0.1c0.1,0,0.3-0.1,0.5-0.2
					c0.2,0,0.4-0.1,0.6-0.1s0.4-0.1,0.6-0.1c0.2,0,0.5,0,0.7-0.1c0.2,0,0.5,0,0.7,0s0.5,0,0.7,0s0.5,0,0.7,0c0.5,0,0.9-0.1,1.3-0.1
					c0.4,0,0.7-0.1,0.9-0.2c0.1,0,0.2-0.1,0.2-0.1c0.1,0,0.1,0,0.1,0s-0.1,0-0.3,0s-0.5,0-0.9,0s-0.8,0-1.2,0c-0.2,0-0.5,0-0.7,0
					s-0.5,0-0.7,0s-0.5,0-0.7,0s-0.5,0.1-0.7,0.1c-0.5,0.1-0.9,0.2-1.2,0.4h-0.1c0.4-0.3,0.8-0.6,1.2-0.9c0.4-0.3,0.8-0.6,1.2-0.9
					s0.8-0.6,1.1-0.8c0.4-0.3,0.7-0.5,1-0.7s0.6-0.4,0.9-0.5c0.3-0.1,0.5-0.3,0.7-0.3c0.2-0.1,0.4-0.1,0.5-0.2
					c0.1,0,0.2-0.1,0.2-0.1s-0.1,0-0.2,0s-0.3,0.1-0.5,0.1c-0.2,0.1-0.5,0.2-0.8,0.3s-0.6,0.3-1,0.5c-0.7,0.4-1.5,0.9-2.3,1.5
					c-0.8,0.6-1.6,1.2-2.4,1.9l0,0l0.1-0.1c0.4-0.4,0.7-1,1.1-1.5c0.2-0.3,0.4-0.6,0.6-0.9c0.2-0.3,0.4-0.6,0.7-0.9
					c0.2-0.3,0.5-0.5,0.7-0.8c0.3-0.2,0.5-0.5,0.8-0.7s0.5-0.4,0.8-0.6s0.5-0.3,0.8-0.5c0.5-0.3,0.9-0.5,1.2-0.7s0.4-0.3,0.4-0.3
					s-0.2,0.1-0.5,0.2s-0.7,0.3-1.2,0.5s-1.1,0.5-1.7,0.9c-0.3,0.2-0.6,0.4-0.9,0.7c-0.3,0.2-0.5,0.5-0.8,0.8
					c-0.2,0.3-0.5,0.6-0.7,0.9s-0.4,0.6-0.6,0.9c-0.2,0.3-0.4,0.6-0.5,0.8c-0.2,0.3-0.3,0.5-0.5,0.7c-0.1,0.1-0.2,0.2-0.2,0.3
					c-0.1,0.1-0.1,0.2-0.2,0.3s-0.1,0.1-0.2,0.2c-0.2,0.1-0.3,0.3-0.5,0.4c-0.4,0.3-0.8,0.7-1.1,1c-0.2,0.2-0.3,0.3-0.5,0.5
					s-0.3,0.3-0.5,0.5c-0.1,0.2-0.3,0.3-0.4,0.5c-0.1,0.2-0.3,0.3-0.4,0.5c-0.1,0.2-0.2,0.3-0.3,0.4c-0.1,0.1-0.2,0.3-0.3,0.4
					l-0.1,0.1c0.1-0.2,0.1-0.4,0.2-0.7c0.3-0.9,0.5-1.9,0.7-2.8c0.2-0.9,0.3-1.9,0.4-2.8c0-0.3,0-0.7,0.1-1c0-0.1,0.1-0.2,0.1-0.3
					c0.2-0.4,0.4-1,0.6-1.7s0.5-1.6,0.8-2.5c0-0.1,0.1-0.2,0.1-0.3s0.1-0.2,0.1-0.3c0.1-0.2,0.2-0.4,0.3-0.7
					c0.2-0.4,0.5-0.9,0.8-1.3s0.6-0.8,0.9-1.2s0.6-0.7,1-1.1c0.6-0.7,1.3-1.3,1.9-1.8c0.6-0.5,1.1-0.9,1.4-1.2
					c0.3-0.3,0.5-0.4,0.5-0.4s-0.2,0.1-0.6,0.4c-0.4,0.3-0.9,0.6-1.5,1.1s-1.3,1-2,1.7c-0.3,0.3-0.7,0.7-1,1.1s-0.6,0.8-0.9,1.2
					c-0.3,0.4-0.5,0.9-0.8,1.3c-0.1,0.2-0.2,0.5-0.3,0.7c-0.1,0.1-0.1,0.2-0.1,0.3s-0.1,0.2-0.1,0.3c-0.2,0.5-0.3,0.9-0.4,1.3
					c-0.1,0.4-0.2,0.8-0.3,1.2c-0.1,0.4-0.2,0.7-0.3,1s-0.2,0.6-0.2,0.8v0.1c0-0.1,0-0.1,0-0.2c0-0.4,0-0.9,0-1.3s0-0.8-0.1-1.2
					c0-0.4-0.1-0.8-0.1-1.1c-0.1-0.7-0.2-1.4-0.3-2s-0.1-1.1,0-1.5c0-0.4,0.1-0.7,0.2-1c0-0.1,0.1-0.2,0.1-0.2c0-0.1,0-0.1,0-0.1
					s0,0,0,0.1s-0.1,0.1-0.1,0.2c-0.1,0.2-0.2,0.5-0.3,1c-0.1,0.4-0.1,0.9,0,1.5c0,0.6,0.1,1.3,0.2,2c0,0.4,0.1,0.7,0.1,1.1
					s0,0.8,0,1.2c0,0.6,0,1.1,0,1.7c-0.1-0.4-0.2-0.8-0.3-1.2c-0.1-0.4-0.3-0.9-0.6-1.3c-0.2-0.5-0.5-0.9-0.7-1.4
					c-0.3-0.5-0.5-1-0.8-1.5c-0.2-0.5-0.5-1.1-0.6-1.6c-0.2-0.6-0.3-1.1-0.3-1.7s0-1.2-0.1-1.7c-0.1-0.6-0.3-1.1-0.5-1.6
					s-0.5-0.9-0.8-1.2c-0.5-0.7-0.9-1.3-1.3-1.8c-0.3-0.4-0.5-0.6-0.5-0.6s0.2,0.2,0.4,0.7c0.3,0.4,0.7,1.1,1.1,1.8
					c0.2,0.4,0.5,0.8,0.7,1.3s0.4,1,0.4,1.5c0.1,0.5,0,1.1,0.1,1.7c0,0.6,0.1,1.2,0.3,1.8c0.2,0.6,0.4,1.1,0.6,1.7
					c0.1,0.2,0.2,0.5,0.3,0.7l-0.1-0.1c-0.1-0.1-0.1-0.1-0.2-0.2c-0.1-0.1-0.3-0.3-0.4-0.4c-0.3-0.3-0.6-0.5-0.8-0.7
					c-0.3-0.2-0.5-0.5-0.7-0.7s-0.4-0.4-0.5-0.6s-0.3-0.4-0.3-0.5c-0.1-0.2-0.1-0.3-0.2-0.4c0-0.1-0.1-0.1-0.1-0.1v0.1
					c0,0.1,0.1,0.2,0.1,0.4c0.1,0.3,0.4,0.8,0.8,1.3c0.2,0.2,0.4,0.5,0.7,0.7c0.3,0.3,0.5,0.5,0.8,0.8c0.1,0.1,0.3,0.3,0.4,0.4
					c0.1,0.1,0.1,0.1,0.2,0.2c0.1,0.1,0.1,0.2,0.2,0.2c0.1,0.2,0.3,0.3,0.4,0.5c0.1,0.2,0.2,0.3,0.4,0.5c0.2,0.3,0.4,0.7,0.6,1
					c0.2,0.4,0.3,0.7,0.5,1.1c0.1,0.2,0.1,0.4,0.2,0.5c0.1,0.2,0.1,0.3,0.1,0.5s0.1,0.3,0.1,0.5s0.1,0.3,0.1,0.5s0.1,0.4,0.1,0.6
					c-0.1,0.8-0.2,1.5-0.3,2.3c-0.2,0.8-0.4,1.6-0.6,2.4c0-0.1-0.1-0.3-0.1-0.4c-0.1-0.3-0.2-0.6-0.4-0.9c0,0,0,0,0-0.1
					s0-0.3-0.1-0.5c0-0.1,0-0.2,0-0.4c0-0.1,0-0.3,0-0.4c0-0.3,0-0.6-0.1-0.9c0-0.3,0-0.6,0-0.9c0-0.1,0-0.3,0-0.4
					c0-0.1,0-0.3,0-0.4c0-0.2,0-0.4,0-0.6c0-0.1,0-0.2,0-0.2s0,0.1-0.1,0.2c0,0.1-0.1,0.1-0.1,0.2c0,0.1-0.1,0.2-0.1,0.3
					c-0.1,0.2-0.1,0.5-0.2,0.8c0,0.2,0,0.3,0,0.5s0,0.3,0,0.5s0,0.3,0,0.5s0,0.3,0.1,0.5c0,0.3,0.1,0.5,0.2,0.7
					c-0.1-0.1-0.2-0.3-0.3-0.4c-0.2-0.3-0.5-0.7-0.8-1.1c0-0.1-0.1-0.1-0.1-0.2c0,0,0-0.1-0.1-0.1c-0.4,0.2-0.5,0.1-0.5,0.1
					c-0.2-0.2-0.3-0.4-0.5-0.6c-0.3-0.4-0.6-0.8-0.8-1.2c-0.1-0.1-0.1-0.2-0.2-0.3l-0.2-0.3c-0.1-0.2-0.2-0.4-0.3-0.6
					c-0.2-0.4-0.3-0.9-0.4-1.3c-0.3-0.9-0.5-1.7-0.7-2.4c-0.1-0.2-0.1-0.3-0.2-0.5s-0.1-0.3-0.2-0.4c-0.1-0.3-0.2-0.5-0.3-0.7
					s-0.2-0.3-0.2-0.4c0-0.2,0-0.3,0-0.3s0,0.1,0.1,0.2c0,0.1,0.1,0.3,0.2,0.5c0.1,0.2,0.2,0.4,0.3,0.7c0.1,0.3,0.2,0.6,0.3,0.9
					s0.2,0.7,0.3,1.1s0.2,0.8,0.3,1.3c0.1,0.4,0.3,0.9,0.4,1.3c0.1,0.2,0.2,0.5,0.3,0.7l0.2,0.3c0.1,0.1,0.1,0.2,0.2,0.3
					c0.1,0.1,0.1,0.2,0.2,0.3c-0.2-0.1-0.3-0.2-0.5-0.3l0,0c-0.2-0.2-0.6-0.5-1.1-0.8s-1.1-0.6-1.6-1.1c-0.2-0.2-0.5-0.5-0.6-0.8
					c-0.2-0.3-0.3-0.6-0.4-1c-0.1-0.2-0.1-0.4-0.2-0.5l-0.4-0.3c0-0.1-0.1-0.2-0.1-0.3c-0.1-0.4-0.3-0.7-0.5-1s-0.4-0.6-0.6-0.8
					c-0.2-0.3-0.4-0.5-0.6-0.7s-0.4-0.4-0.6-0.5s-0.4-0.2-0.5-0.3s-0.3-0.1-0.3-0.2c-0.1,0-0.1-0.1-0.1-0.1s0,0,0.1,0.1
					s0.2,0.1,0.3,0.2c0.1,0,0.1,0.1,0.2,0.2s0.2,0.1,0.2,0.2c0.2,0.1,0.4,0.3,0.5,0.5c0.4,0.4,0.8,0.9,1.1,1.5
					c0.2,0.3,0.3,0.6,0.5,0.9c0,0.1,0.1,0.2,0.1,0.3l0.1,0.3c0.1,0.2,0.1,0.4,0.2,0.5c0.1,0.4,0.3,0.7,0.5,1.1
					c0.2,0.3,0.5,0.6,0.7,0.9c0.3,0.2,0.6,0.4,0.9,0.6c0.3,0.2,0.6,0.3,0.8,0.4c0.4,0.2,0.7,0.4,0.9,0.5c-0.3-0.1-0.6-0.2-0.9-0.2
					c-0.7-0.1-1.4-0.2-2.1-0.2c-0.7-0.1-1.4-0.2-2-0.5c-0.3-0.1-0.6-0.3-0.9-0.4c-0.3-0.2-0.6-0.3-0.9-0.5c-1.1-0.7-2.1-1.4-3-2
					c-0.4-0.3-0.8-0.6-1.2-0.8s-0.7-0.4-1-0.6c-0.3-0.1-0.5-0.3-0.6-0.3c-0.2-0.1-0.2-0.1-0.2-0.1s0.1,0,0.2,0.1
					c0.1,0,0.2,0.1,0.3,0.1c0.1,0.1,0.2,0.1,0.4,0.2c0.3,0.2,0.6,0.4,0.9,0.6c0.3,0.3,0.7,0.5,1.1,0.9c0.4,0.3,0.9,0.7,1.3,1
					c0.5,0.4,1,0.7,1.6,1.1c0.3,0.2,0.6,0.3,0.9,0.5c0.3,0.2,0.6,0.3,1,0.4c0.6,0.2,1.3,0.4,2,0.5c-0.2,0-0.3,0-0.5,0
					s-0.5,0-0.8,0.1c-0.3,0-0.5,0.1-0.8,0.1s-0.6,0.1-0.8,0.2c-0.3,0.1-0.6,0.1-0.8,0.2c-0.3,0.1-0.5,0.2-0.8,0.3
					c-0.2,0.1-0.5,0.2-0.7,0.4c-0.2,0.1-0.4,0.2-0.6,0.3s-0.4,0.1-0.5,0.1c-0.2,0-0.3,0-0.4,0s-0.2-0.1-0.3-0.1s-0.1,0-0.1,0
					s0,0,0.1,0.1c0.1,0,0.1,0.1,0.3,0.1c0.1,0,0.3,0.1,0.5,0.1s0.4,0,0.6-0.1s0.4-0.2,0.6-0.3s0.4-0.2,0.7-0.3
					c0.1,0,0.2-0.1,0.4-0.1c0.1,0,0.3-0.1,0.4-0.1c0.3-0.1,0.5-0.2,0.8-0.2c0.3-0.1,0.5-0.1,0.8-0.2c0.3,0,0.5-0.1,0.8-0.1
					s0.5-0.1,0.7-0.1s0.5-0.1,0.7-0.1c0.4,0,0.7-0.1,0.9-0.1c0.4,0,0.7,0.1,1.1,0.1c0.3,0.1,0.7,0.1,1,0.3c0.3,0.1,0.6,0.3,0.8,0.5
					s0.4,0.3,0.6,0.5c0.3,0.4,0.6,0.7,0.8,1c0.3,0.3,0.6,0.7,0.8,1s0.5,0.6,0.7,1c0.1,0.1,0.1,0.2,0.2,0.3c0.2,0.4,0.3,0.7,0.4,1
					c0,0.1,0,0.1,0,0.2v0.1c-0.3,0.9-0.6,1.8-1,2.7s-0.8,1.7-1.3,2.5s-0.9,1.5-1.4,2.2s-1,1.3-1.4,1.8c-0.2,0.3-0.5,0.5-0.7,0.8
					c-0.1,0.1-0.2,0.2-0.3,0.4c-0.1,0.1-0.2,0.2-0.3,0.3c-0.2,0.2-0.4,0.4-0.6,0.6c-0.1,0.1-0.2,0.2-0.3,0.3s-0.2,0.2-0.3,0.2
					c-0.2,0.1-0.3,0.3-0.4,0.4c-0.1,0.1-0.2,0.2-0.3,0.3l-0.1,0.1c-0.2,0.1-0.4,0.3-0.6,0.4c-0.3,0.2-0.6,0.4-1,0.6
					c-0.3,0.2-0.7,0.5-1,0.7s-0.7,0.5-1,0.7s-0.6,0.5-1,0.7c-0.2,0.1-0.3,0.2-0.5,0.4c-0.3,0.2-0.5,0.4-0.9,0.6
					c-0.7,0.5-1.6,1.1-2.5,1.8c-0.9,0.6-1.9,1.3-2.9,2s-2,1.3-2.9,2c-0.2,0.2-0.5,0.3-0.7,0.5c-0.2,0.1-0.4,0.3-0.7,0.4
					c-0.3,0.2-0.6,0.3-0.9,0.5s-0.7,0.4-1,0.6c-0.4,0.2-0.7,0.4-1.1,0.6c-0.4,0.2-0.8,0.4-1.2,0.6s-0.8,0.4-1.2,0.6
					c-0.4,0.2-0.8,0.4-1.2,0.5c-0.4,0.2-0.7,0.3-1.1,0.5c-0.3,0.2-0.7,0.3-1,0.4c-0.6,0.3-1.1,0.5-1.5,0.6s-0.6,0.2-0.6,0.2
					s0.2-0.1,0.6-0.2c0.2-0.1,0.4-0.1,0.7-0.2c0.3-0.1,0.5-0.2,0.9-0.3c0.3-0.1,0.7-0.2,1-0.4c0.4-0.1,0.7-0.3,1.1-0.5
					s0.8-0.3,1.2-0.5c0.4-0.2,0.8-0.4,1.2-0.6c0.2-0.1,0.5-0.3,0.7-0.4c-0.2,0.1-0.3,0.2-0.3,0.2s0.3-0.1,0.7-0.4
					c0.2-0.1,0.5-0.3,0.8-0.5s0.7-0.4,1.1-0.6c0.8-0.5,1.7-1,2.6-1.6c0.5-0.3,1-0.6,1.4-0.9c0.5-0.3,1-0.7,1.5-1s1-0.7,1.5-1
					s0.9-0.7,1.4-1c0.7-0.5,1.3-1,1.9-1.4c0.1,0,0.2-0.1,0.2-0.2c0.5-0.3,1.1-0.7,1.7-1.2c0.3-0.2,0.6-0.4,1-0.7
					c0.3-0.2,0.7-0.5,1-0.7s0.7-0.5,1-0.7s0.6-0.5,1-0.7c0.6-0.4,1.2-0.8,1.7-1.2c0.1,0,0.1-0.1,0.2-0.1l0,0
					c0.7-0.2,1.4-0.4,2.1-0.6c0.7-0.2,1.4-0.3,2.2-0.4c0.4-0.1,0.7-0.1,1.1-0.1s0.7,0,1.1,0c0.7,0,1.4,0.1,2.1,0.3
					c0.4,0.1,0.7,0.2,1,0.4c0.2,0.1,0.3,0.1,0.5,0.2c0.1,0.1,0.3,0.2,0.4,0.3c0.2,0.2,0.3,0.3,0.5,0.5c0.4,0.4,0.7,0.9,1,1.5
					c0.1,0.2,0.1,0.3,0.2,0.5c0.1,0.2,0.1,0.3,0.2,0.5c0.1,0.3,0.2,0.7,0.2,1c0,0.2,0,0.3,0,0.5c0,0.1-0.1,0.2-0.2,0.2
					c-0.1,0.1-0.1,0.1-0.2,0.2c-0.1,0.1-0.2,0.1-0.3,0.2c-0.2,0.2-0.4,0.3-0.6,0.5s-0.4,0.4-0.6,0.5c-0.2,0.2-0.3,0.3-0.5,0.5
					c-0.3,0.3-0.4,0.5-0.4,0.5s0.2-0.1,0.6-0.4c0.2-0.1,0.4-0.3,0.6-0.4c0.2-0.2,0.4-0.3,0.6-0.5s0.4-0.4,0.6-0.5
					c0.2-0.2,0.4-0.3,0.5-0.5c0,0,0,0,0-0.1c0,0.1,0,0.2,0,0.3c0,0.4-0.1,0.7-0.1,1c-0.1,0.7-0.4,1.3-0.5,1.8
					C141.3,59.9,141.2,60.3,141.3,60.7c-0.1,0.1-0.1,0.1-0.1,0.2s0,0.1,0,0.2s0,0.1,0,0.1s0,0,0-0.1S141.2,60.8,141.3,60.7z"/>
</g>
<g id="Слой_1_1_">
				<path class="st3" d="M39.2,56.6c0.2-2.6,0.1-5.4-0.1-8.4c-0.2-3-0.5-5.9-0.7-8.7s-0.3-5.3-0.3-7.6s0.4-4.1,1.1-5.4
					c-1.7,2.4-3.2,4.7-4.6,6.7c-1.4,2.1-2.7,4.2-3.9,6.4c-1.2,2.2-2.4,4.4-3.6,6.8c-1.2,2.4-2.4,5-3.6,7.9c-0.7,1.6-1.1,2.8-1.3,3.5
					c-0.2,0.8-0.5,1.1-0.9,1.1s-0.6-0.2-0.7-0.5s0-1,0.3-1.9c2.3-6.1,3.9-11.6,4.6-16.4c0.8-4.9,0.9-9,0.3-12.4
					c-0.5-3.4-1.6-6-3.3-7.8s-3.7-2.7-6.2-2.7c-1.7,0-3.2,0.3-4.5,1c-1.3,0.7-2.5,1.6-3.4,2.9c-0.9,1.2-1.6,2.7-2.1,4.4
					S5.6,29,5.6,31c-0.1,0.3-0.2,0.4-0.4,0.5s-0.3,0-0.3-0.3C4.8,29,5.1,26.9,5.7,25c0.6-2,1.6-3.7,2.8-5.2s2.7-2.7,4.4-3.6
					s3.7-1.3,5.9-1.3c1.9,0,3.4,0.5,4.7,1.4c1.3,0.9,2.3,2.3,3,4s1.2,3.7,1.4,6s0.2,4.8,0,7.5s-0.7,5.5-1.3,8.4
					c-0.7,3-1.5,5.9-2.5,8.9c1.2-2.8,2.7-5.8,4.3-8.9c1.7-3.1,3.4-6.1,5.3-9.1c1.9-3,3.8-5.7,5.8-8.2s3.9-4.7,5.8-6.4
					c0.1,0,0.3,0,0.4,0.1c0.1,0.1,0.2,0.3,0.2,0.5s0.1,0.5,0,0.7c0,0.2-0.1,0.4-0.2,0.6c-0.6,0.4-1.2,0.8-1.6,1.2
					c-0.4,0.4-0.9,0.9-1.4,1.5c-0.8,1-1.3,2.3-1.6,3.8s-0.5,3.2-0.5,5s0.1,3.7,0.3,5.8c0.2,2,0.4,4.1,0.6,6.1c0.2,2,0.3,4,0.4,5.9
					s0,3.7-0.1,5.2c1.7-2.6,3.7-5.1,5.9-7.5s4.3-4.8,6.3-7.3s3.7-5.1,5-7.9c1.4-2.8,2-5.9,2-9.3c0-1.5-0.2-2.7-0.6-3.6
					c-0.4-1-1-1.5-1.8-1.6c-0.5,0-1,0.2-1.4,0.8s-0.8,1.2-1.1,1.9c-0.5,0.2-0.7,0-0.7-0.5c0.5-1.3,1.2-2.4,2-3.4S59,15,59.8,15
					c1.1,0,2,0.5,2.6,1.6c0.7,1.1,1,2.4,1,4c0,2.7-0.4,5.2-1.1,7.5c-0.7,2.2-1.7,4.4-2.9,6.3c-1.2,2-2.6,3.9-4.1,5.7
					s-3.1,3.6-4.7,5.4c-1.6,1.8-3.2,3.6-4.8,5.5s-3,3.9-4.3,6c-0.4,0.5-0.7,1-1,1.3s-0.6,0.5-1,0.5c-0.2,0-0.4-0.1-0.4-0.2
					C39,58.5,39,58.3,39,58.1s0-0.5,0.1-0.8C39.2,57.1,39.2,56.9,39.2,56.6z"/>
				<path class="st3" d="M69,54.7c0.1-0.1,0.2-0.1,0.3,0c0.1,0.1,0.2,0.2,0.1,0.4c-1,1.3-1.9,2.3-2.8,2.9s-1.7,1-2.4,1
					c-0.4,0-0.7-0.2-1-0.6c-0.2-0.4-0.4-1-0.5-1.7s0-1.5,0.1-2.4s0.3-1.8,0.6-2.8c-1.2,1.9-2.5,3.6-3.9,4.9c-1.4,1.4-2.7,2.2-4,2.5
					c-0.8,0-1.5-0.4-2.1-1.2s-0.9-2-0.9-3.7c0-1.5,0.3-3,0.9-4.5c0.6-1.5,1.4-2.8,2.5-4c1-1.2,2.2-2.2,3.6-2.9
					c1.4-0.7,2.8-1.1,4.3-1.1c0.8,0,1.5,0.1,2.1,0.3c0.6,0.2,1.1,0.5,1.6,0.8c0.3-0.2,0.6-0.4,1.1-0.6s0.9-0.3,1.3-0.3
					c0.2,0,0.3,0.1,0.2,0.3c-1,1.3-1.9,2.7-2.7,4.2s-1.3,3-1.7,4.5c-0.4,1.5-0.7,2.7-0.8,3.8c-0.1,1.1,0,1.9,0.2,2.3
					c0.2,0.3,0.6,0.3,1.2,0C67.3,56.7,68,55.9,69,54.7z M57.1,56.6c0.5,0,1.1-0.3,1.9-1.1c0.8-0.7,1.6-1.6,2.5-2.8
					c0.9-1.1,1.7-2.4,2.6-3.8c0.8-1.4,1.6-2.9,2.2-4.3c-0.2-0.6-0.6-1.1-1.3-1.4c-0.7-0.4-1.4-0.5-2.3-0.5c-1,0-1.9,0.3-2.8,0.8
					s-1.7,1.3-2.4,2.2s-1.2,2-1.6,3.3s-0.6,2.7-0.6,4.2c0,1,0.2,1.8,0.5,2.5C56.2,56.3,56.6,56.6,57.1,56.6z"/>
				<path class="st3" d="M89.8,54.6c0.1-0.1,0.3-0.1,0.4,0s0.2,0.2,0.1,0.4c-0.8,1-1.6,2-2.6,2.8c-0.9,0.8-1.8,1.2-2.6,1.2
					c-1.4,0-2.1-0.9-2.1-2.7c0-1.5,0.3-3.3,0.8-5.1c0.5-1.9,1.3-3.8,2.2-5.7c0.2-0.3,0.3-0.6,0.3-1c0-0.5-0.2-0.7-0.7-0.7
					c-1.7,0-3.5,1.2-5.6,3.5c-2,2.3-3.9,6-5.6,10.9c-0.1,0.3-0.3,0.5-0.7,0.6C73.3,59,72.9,59,72.5,59c-0.5,0-0.7-0.2-0.5-0.6
					c0.8-2,1.6-4.2,2.4-6.6s1.6-4.9,2.2-7.3c0.2-0.9,0-1.3-0.5-1.3s-0.9,0.2-1.4,0.7s-0.9,1-1.4,1.8c-0.1,0.1-0.2,0.1-0.3-0.1
					c0.1-0.2,0-0.3,0.1-0.5c0.5-0.8,1.2-1.6,2-2.4c0.9-0.8,1.8-1.2,2.8-1.2c1.1,0,1.5,0.8,1.2,2.3c-0.2,1-0.4,2.1-0.7,3.2
					c-0.3,1.1-0.7,2.2-1,3.3c0.6-1.2,1.4-2.4,2.2-3.5c0.9-1.1,1.8-2,2.7-2.8c0.9-0.8,1.9-1.4,2.8-1.8c0.9-0.5,1.8-0.7,2.6-0.7
					c0.5,0,1,0.1,1.3,0.4s0.4,0.6,0.4,1c0,0.6-0.1,1.2-0.4,1.8c-1,1.7-1.8,3.5-2.4,5.4c-0.7,1.9-1,3.6-1,5.2c0,1.1,0.4,1.7,1.1,1.7
					C87.6,57,88.6,56.2,89.8,54.6z"/>
				<path class="st3" d="M109.7,54.6c0.1-0.1,0.3-0.1,0.4,0s0.2,0.2,0.1,0.4c-0.8,1-1.6,2-2.6,2.8c-0.9,0.8-1.8,1.2-2.6,1.2
					c-1.4,0-2.1-0.9-2.1-2.7c0-1.5,0.3-3.3,0.8-5.1c0.5-1.9,1.3-3.8,2.2-5.7c0.2-0.3,0.3-0.6,0.3-1c0-0.5-0.2-0.7-0.7-0.7
					c-1.7,0-3.5,1.2-5.6,3.5c-2,2.3-3.9,6-5.6,10.9c-0.1,0.3-0.3,0.5-0.7,0.6C93.2,59,92.8,59,92.4,59c-0.5,0-0.7-0.2-0.5-0.6
					c0.8-2,1.6-4.2,2.4-6.6c0.8-2.5,1.6-4.9,2.2-7.3c0.2-0.9,0-1.3-0.5-1.3s-0.9,0.2-1.4,0.7s-0.9,1-1.4,1.8
					c-0.1,0.1-0.2,0.1-0.3-0.1c-0.1-0.1-0.1-0.3-0.1-0.4c0.5-0.8,1.2-1.6,2-2.4c0.9-0.8,1.8-1.2,2.8-1.2c1.1,0,1.5,0.8,1.2,2.3
					c-0.2,1-0.4,2.1-0.7,3.2c-0.3,1.1-0.7,2.2-1,3.3c0.6-1.2,1.4-2.4,2.2-3.5c0.9-1.1,1.8-2,2.7-2.8c0.9-0.8,1.9-1.4,2.8-1.8
					c0.9-0.5,1.8-0.7,2.6-0.7c0.5,0,1,0.1,1.3,0.4s0.4,0.6,0.4,1c0,0.6-0.1,1.2-0.4,1.8c-1,1.7-1.8,3.5-2.4,5.4
					c-0.7,1.9-1,3.6-1,5.2c0,1.1,0.4,1.7,1.1,1.7C107.4,57,108.5,56.2,109.7,54.6z"/>
				<path class="st3" d="M128.7,54.7c0.1-0.1,0.2-0.1,0.3,0s0.2,0.2,0.1,0.4c-1,1.3-1.9,2.3-2.8,2.9c-0.9,0.6-1.7,1-2.4,1
					c-0.4,0-0.7-0.2-1-0.6c-0.2-0.4-0.4-1-0.5-1.7s0-1.5,0.1-2.4s0.3-1.8,0.6-2.8c-1.2,1.9-2.5,3.6-3.9,4.9c-1.4,1.4-2.7,2.2-4,2.5
					c-0.8,0-1.5-0.4-2.1-1.2s-0.9-2-0.9-3.7c0-1.5,0.3-3,0.9-4.5s1.4-2.8,2.5-4c1-1.2,2.2-2.2,3.6-2.9s2.8-1.1,4.3-1.1
					c0.8,0,1.5,0.1,2.1,0.3s1.1,0.5,1.6,0.8c0.3-0.2,0.6-0.4,1.1-0.6c0.5-0.2,0.9-0.3,1.3-0.3c0.2,0,0.3,0.1,0.2,0.3
					c-1,1.3-1.9,2.7-2.7,4.2c-0.7,1.5-1.3,3-1.7,4.5s-0.7,2.7-0.8,3.8c-0.1,1.1,0,1.9,0.2,2.3c0.2,0.3,0.6,0.3,1.2,0
					C126.9,56.7,127.7,55.9,128.7,54.7z M116.8,56.6c0.5,0,1.1-0.3,1.9-1.1c0.8-0.7,1.6-1.6,2.5-2.8c0.9-1.1,1.7-2.4,2.6-3.8
					c0.8-1.4,1.6-2.9,2.2-4.3c-0.2-0.6-0.6-1.1-1.3-1.4c-0.7-0.4-1.4-0.5-2.3-0.5c-1,0-1.9,0.3-2.8,0.8s-1.7,1.3-2.4,2.2
					c-0.7,0.9-1.2,2-1.6,3.3s-0.6,2.7-0.6,4.2c0,1,0.2,1.8,0.5,2.5C115.9,56.3,116.3,56.6,116.8,56.6z"/>
</g>
</svg>
