<svg id="Слой_1" data-name="Слой 1" xmlns="http://www.w3.org/2000/svg" xmlns:xlink="http://www.w3.org/1999/xlink" viewBox="0 0 45.5 47.64"><defs><style>.cls-1{fill:url(#linear-gradient);}.cls-2{opacity:0.42;}.cls-3,.cls-4{fill:#666766;}.cls-4{opacity:0.16;}.cls-5{fill:#8b8c8b;opacity:0.55;}.cls-6{fill:url(#linear-gradient-2);}.cls-7{fill:url(#linear-gradient-3);}.cls-8{fill:#737373;opacity:0.25;}.cls-14,.cls-15,.cls-9{fill:#fff;}.cls-10{fill:url(#linear-gradient-4);}.cls-11{fill:url(#linear-gradient-5);}.cls-12,.cls-14{opacity:0.24;}.cls-13{fill:url(#linear-gradient-6);}.cls-15{opacity:0.13;}</style><linearGradient id="linear-gradient" x1="-1571.13" y1="1163.06" x2="-1559.46" y2="1163.06" gradientTransform="matrix(-0.73, 0.68, 0.68, 0.73, -1899.9, 252.96)" gradientUnits="userSpaceOnUse"><stop offset="0" stop-color="#fff"/><stop offset="0.17" stop-color="#666766"/><stop offset="0.25" stop-color="#03060b"/><stop offset="0.37" stop-color="#fff"/><stop offset="0.44" stop-color="#666766"/><stop offset="0.5" stop-color="#010000"/><stop offset="0.6" stop-color="#e0e0e0"/><stop offset="0.79" stop-color="#666766"/></linearGradient><linearGradient id="linear-gradient-2" x1="-1567.78" y1="1151.64" x2="-1563.82" y2="1151.64" gradientTransform="matrix(-0.73, 0.68, 0.68, 0.73, -1899.9, 252.96)" gradientUnits="userSpaceOnUse"><stop offset="0" stop-color="#fff"/><stop offset="0.17" stop-color="#666766"/><stop offset="0.23" stop-color="#666766"/><stop offset="0.3" stop-color="#fff"/><stop offset="0.38" stop-color="#fff"/><stop offset="0.44" stop-color="#666766"/><stop offset="0.5" stop-color="#010000"/><stop offset="0.6" stop-color="#e0e0e0"/><stop offset="0.79" stop-color="#666766"/></linearGradient><linearGradient id="linear-gradient-3" x1="-1570.05" y1="1149.78" x2="-1561.03" y2="1149.78" gradientTransform="matrix(-0.73, 0.68, 0.68, 0.73, -1899.9, 252.96)" gradientUnits="userSpaceOnUse"><stop offset="0" stop-color="#fff"/><stop offset="0.17" stop-color="#666766"/><stop offset="0.23" stop-color="#666766"/><stop offset="0.3" stop-color="#fff"/><stop offset="0.4" stop-color="#595959"/><stop offset="0.5" stop-color="#010000"/><stop offset="0.6" stop-color="#e0e0e0"/><stop offset="0.79" stop-color="#666766"/></linearGradient><linearGradient id="linear-gradient-4" x1="364.4" y1="-83.96" x2="394.74" y2="-44.23" gradientTransform="matrix(-0.97, 0.26, 0.26, 0.97, 398.79, -12.39)" gradientUnits="userSpaceOnUse"><stop offset="0" stop-color="#e3e3e3"/><stop offset="0.09" stop-color="#03060b"/><stop offset="0.23" stop-color="#3f3f40"/><stop offset="0.3" stop-color="#e0e0e0"/><stop offset="0.38"/><stop offset="0.44" stop-color="#3f3f40"/><stop offset="0.5" stop-color="#010000"/><stop offset="0.67" stop-color="#03060b"/><stop offset="0.79" stop-color="#3f3f40"/></linearGradient><linearGradient id="linear-gradient-5" x1="364.1" y1="-56.37" x2="387.87" y2="-87.25" gradientTransform="matrix(-0.97, 0.26, 0.26, 0.97, 398.79, -12.39)" gradientUnits="userSpaceOnUse"><stop offset="0.04" stop-color="#9e9e9e"/><stop offset="0.12" stop-color="#fff"/><stop offset="0.31" stop-color="#9e9e9e"/><stop offset="0.58" stop-color="#575757"/><stop offset="0.84" stop-color="#fff"/></linearGradient><linearGradient id="linear-gradient-6" x1="-17.87" y1="-29.78" x2="33.22" y2="36.61" gradientTransform="translate(16.95 -7.95) rotate(42.88)" gradientUnits="userSpaceOnUse"><stop offset="0.08" stop-color="#c7dff2"/><stop offset="0.52" stop-color="#e1ebf0"/><stop offset="0.84" stop-color="#f4f6fa"/></linearGradient></defs><title>apple-ico</title><path class="cls-1" d="M43.42,48.14c1,1,2.32.82,3.35-.14h0c1-1,1.35-2.3.39-3.33l-13.67-14c-0.78-.84-1.59-0.34-2.43.44v0c-0.84.78-1.37,1.58-.6,2.42Z" transform="translate(-2.25 -1.18)"/><g class="cls-2"><path class="cls-3" d="M37.83,39.23s3.89,4.19,6.28,6.4c1.85,1.72,2.8,1.86,3.2,1.75a3.52,3.52,0,0,1-.52.61h0a3.32,3.32,0,0,1-.85.58C44.24,46.79,37.83,39.23,37.83,39.23Z" transform="translate(-2.25 -1.18)"/></g><path class="cls-4" d="M40,37.72s7.9,8.21,7.55,9.26a2,2,0,0,0,0-1.66C47.1,44.81,40,37.72,40,37.72Z" transform="translate(-2.25 -1.18)"/><ellipse class="cls-5" cx="31.46" cy="31.47" rx="1.75" ry="0.56" transform="translate(-15.26 28.66) rotate(-42.9)"/><path class="cls-6" d="M31.41,30.07l0.42,0.43a0.69,0.69,0,0,1-.21,1.05h0a0.69,0.69,0,0,1-1.06.13l-0.4-.45A3.62,3.62,0,0,0,31.41,30.07Z" transform="translate(-2.25 -1.18)"/><path class="cls-7" d="M30.34,27.29l1,1a1.74,1.74,0,0,1-.3,2.58h0A1.75,1.75,0,0,1,28.4,31l-0.91-1A8.16,8.16,0,0,0,30.34,27.29Z" transform="translate(-2.25 -1.18)"/><path class="cls-8" d="M28.56,29.25c1.65,2,2.25,1.71,2.25,1.71a1.6,1.6,0,0,1-.81.41c-0.34,0-1-.87-1.82-1.86Z" transform="translate(-2.25 -1.18)"/><path class="cls-9" d="M30.2,32.73s0.42,0.34,1.9-1C32.09,31.73,30.64,33.25,30.2,32.73Z" transform="translate(-2.25 -1.18)"/><path class="cls-10" d="M6.56,28.77A16.42,16.42,0,1,0,7.42,5.57,16.62,16.62,0,0,0,6.56,28.77Zm1.67-1.55a14.14,14.14,0,1,1,20,.74A14.14,14.14,0,0,1,8.23,27.22Z" transform="translate(-2.25 -1.18)"/><path class="cls-11" d="M8.66,6.91A14.59,14.59,0,1,1,7.9,27.53,14.6,14.6,0,0,1,8.66,6.91ZM7.58,27.83A15,15,0,1,0,8.36,6.58,15,15,0,0,0,7.58,27.83Z" transform="translate(-2.25 -1.18)"/><g class="cls-12"><circle class="cls-13" cx="18.59" cy="17.6" r="14.14" transform="translate(-9.26 16.18) rotate(-42.88)"/></g><path class="cls-14" d="M10,7.4s5.4-4.3,11.16-.94c0,0,1.07.5,0.39,0.9-0.49.29-11.09,2.91-15.75,13.31C5.83,20.66,3.77,12.24,10,7.4Z" transform="translate(-2.25 -1.18)"/><path class="cls-15" d="M6.36,21.23a12.56,12.56,0,0,0,4.57,7c3.82,2.93,8.67,3.05,12.91-.47,3.94-3.27,7.58-10.26-.71-19a1.11,1.11,0,0,0-1.38-.3C21.11,8.77,12.25,12.46,6.36,21.23Z" transform="translate(-2.25 -1.18)"/></svg>