<?xml version="1.0" encoding="utf-8"?>
<!-- Generator: Adobe Illustrator 19.2.1, SVG Export Plug-In . SVG Version: 6.00 Build 0)  -->
<svg version="1.1" id="Слой_1" xmlns="http://www.w3.org/2000/svg" xmlns:xlink="http://www.w3.org/1999/xlink" x="0px" y="0px"
	 viewBox="0 0 50 50" style="enable-background:new 0 0 50 50;" xml:space="preserve">
<style type="text/css">
	.st0{fill:#A7CE38;}
	.st1{fill:url(#XMLID_2_);}
	.st2{fill:#96BA32;}
	.st3{fill:#77903B;}
	.st4{fill:#DEE896;}
	.st5{fill:#BDD646;}
	.st6{fill:#789A36;}
	.st7{fill:#618437;}
	.st8{fill:#84A635;}
	.st9{fill:#4E7F3A;}
	.st10{fill:#794520;}
	.st11{fill:#4D2916;}
	.st12{fill:#391E13;}
	.st13{fill:#9D5B30;}
	.st14{fill:#769B3F;}
	.st15{fill:#3F6C30;}
	.st16{fill:#96C03D;}
	.st17{fill:#88AF3F;}
	.st18{fill:#698439;}
	.st19{fill:#83AE40;}
	.st20{fill:#FBF4BB;}
	.st21{fill:#D1C07B;}
	.st22{fill:#E5D8A9;}
	.st23{fill:#C5B873;}
	.st24{fill:#2F1E12;}
	.st25{fill:#734320;}
	.st26{fill:#FAE280;}
	.st27{fill:#563E32;}
	.st28{fill:#553E31;}
	.st29{opacity:0.5;fill:#CEC296;}
</style>
<g>
	<g>
		<g>
			<path id="XMLID_1216_" class="st0" d="M20.9,37c0,0,4.5,1.3,7-2.3c2.5-3.5,6.6-14.2,2.7-20.5c0,0-3-4.3-7.3-3.7
				c-4,0.5-4.2,1.9-7.1,2.2c0,0-2.5,0.3-4.3,0.4c-1.8,0.1-5.4,0.8-7,5.5c-1.7,4.9,2.3,13.9,6.9,17.5C15.7,39.1,20.9,37,20.9,37z"/>
			<linearGradient id="XMLID_2_" gradientUnits="userSpaceOnUse" x1="10.2165" y1="16.0101" x2="23.9412" y2="24.9352">
				<stop  offset="0" style="stop-color:#CED85F"/>
				<stop  offset="1" style="stop-color:#A5CD39"/>
			</linearGradient>
			<path id="XMLID_1215_" class="st1" d="M8.3,14.8c0,0-5.6,4.3-1.5,12.7c4.1,8.4,24.1,4.5,24.5-4.3c0.4-8.7-2.4-10.5-7-12.5
				c0,0-0.4,3.8-7.6,5.6C7.5,18.6,8.3,14.8,8.3,14.8z"/>
			<path id="XMLID_1214_" class="st2" d="M26.7,11c-0.5-0.2-2.6-1.5-2,2.8c0.9,6.6,0.2,15.9-9.4,18.6c0,0-5,2-8.3-2.3l0,0
				c1.3,2.4,3,4.6,4.8,6c3.9,3,9.1,0.9,9.1,0.9s4.5,1.3,7-2.3c2.5-3.5,6.6-14.2,2.7-20.5C30.5,14.2,29.1,12.1,26.7,11z"/>
			<path id="XMLID_1213_" class="st3" d="M27,12.2c-0.8,0-0.8,1.2-0.8,1.6c-0.1,1,0.3,3.3,0.4,3.8c0.3,2,1.1,8.4-2.7,11.2
				c-3.5,2.6-9.9,6.6-9,7.9c0,0,12.7-4.6,14.3-6.9c0.7-0.9,1.1-2,1.4-3.1c1-2.9,1.5-6.2,0.8-9.2c-0.4-1.6-1.1-3.1-2.4-4.3
				C28.6,12.9,27.6,12,27,12.2C27,12.2,27,12.2,27,12.2z"/>
			<path id="XMLID_1212_" class="st4" d="M18.7,12.1c0,0,2.1-1.3,2.8-0.6c0.7,0.7-0.7,1.8-2.1,2.4C18,14.4,18.7,12.1,18.7,12.1z"/>
			<path id="XMLID_1211_" class="st4" d="M11.7,13.4c0,0-2.6,0.4-1.3,1.9c1.3,1.4,6.5-0.3,6.5-0.3L11.7,13.4z"/>
			<g>
				<path id="XMLID_1210_" class="st5" d="M13.7,13.2c0,0-3.5,0.1-3.2,1.2c0,0,1.1,2.2,6.8,0.4c0,0,4.2-1.4,3.7-2.8c0,0,0-1-3.9,0.8
					C17.1,12.8,16.1,13.3,13.7,13.2z"/>
				<path id="XMLID_1209_" class="st2" d="M18,13.1c0,0-1.1,0.8-3.3,0.7c-2.3-0.1-1.7,0.9-0.8,1.2c0,0,1.5,0.3,3.3-0.4
					c0.8-0.3,1.4-0.8,1.5-1.3C18.7,13.3,18.9,12.5,18,13.1z"/>
				<path id="XMLID_1208_" class="st6" d="M16,14.9c-0.4-0.3-0.9-0.8-1.1-1.2c0,0,0,0-0.1,0c-0.7,0-1.2,0.1-1.5,0.2
					c-0.4,0.3,0.1,0.8,0.7,1C13.9,15,14.8,15.1,16,14.9z"/>
			</g>
			<path id="XMLID_1207_" class="st6" d="M17.2,14.6c0.7-0.3,1.2-0.7,1.4-1.1c0,0,0,0,0,0c-0.3,0.1-0.7,0.3-0.8,0.4
				c-1.4,0.7-2.4,0.8-3.2,0.8c-0.6-0.1-0.7,0.2-0.8,0.3c0,0,0.1,0,0.1,0C13.9,15,15.4,15.3,17.2,14.6z"/>
			<path id="XMLID_1206_" class="st7" d="M14,15C14,15,14,15,14,15C14,15,14,15,14,15c0.1,0,0.2,0,0.2,0c0,0,0,0,0,0
				c0.1,0,0.1,0,0.2,0c0,0,0,0,0,0c0.1,0,0.2,0,0.2,0c0,0,0,0,0,0c0.1,0,0.2,0,0.3,0c0,0,0,0,0,0c0.1,0,0.1,0,0.2,0c0,0,0,0,0,0
				c0.1,0,0.1,0,0.2,0c0,0,0,0,0,0c0.1,0,0.1,0,0.2,0c0,0,0,0,0,0c0.1,0,0.1,0,0.2,0c0,0,0,0,0,0c0.1,0,0.1,0,0.2,0c0,0,0,0,0,0
				c-0.1-0.1-0.3-0.2-0.4-0.4c-0.3,0-0.6,0-0.9,0c-0.6-0.1-0.7,0.2-0.8,0.3C13.9,14.9,13.9,14.9,14,15C13.9,15,13.9,15,14,15
				C13.9,15,14,15,14,15z"/>
			<path id="XMLID_1205_" class="st4" d="M13.2,17.6c0,0-3.7,1-4.7-0.8c-0.5-0.9-0.9-1.1-2,1.3c-1.1,2.4-1,6.4,0.6,6.9
				c0,0,0.9,0.5,1.8-2.9C9.8,18.7,17.5,17.3,13.2,17.6z"/>
			<path id="XMLID_1204_" class="st8" d="M19.6,35.5c0,0,0.2,2-1.8,2.2c0,0,0,0,0,0c1.8-0.2,3.1-0.7,3.1-0.7S19.8,36.7,19.6,35.5z"
				/>
			<path id="XMLID_1203_" class="st9" d="M17.7,9.6c0,0-3.5-2.3-0.3-6.4c2.7-3.5,10-2.6,10-2.6S24.7,12.3,17.7,9.6z"/>
			<path id="XMLID_1202_" class="st10" d="M18.3,7.8c0,0-1-1.7-0.9-3.5c0,0,0.3,2.1,0.9,3.1L18.3,7.8z"/>
			<path id="XMLID_1201_" class="st10" d="M19.9,5.7c0,0-0.9-1.5-0.6-3.5c0,0,0.1,2.3,0.7,3L19.9,5.7z"/>
			<path id="XMLID_1200_" class="st10" d="M21.8,3.6c0,0-0.3-0.8-0.1-1.8c0,0,0.2,1.4,0.4,1.6L21.8,3.6z"/>
			<path id="XMLID_1199_" class="st10" d="M18.5,7.3c0,0,1,0.4,3.3,0.3c0,0-1.9,0.3-3.6,0L18.5,7.3z"/>
			<path id="XMLID_1198_" class="st10" d="M20,5.5c0,0,1.5,0.3,3.8,0.2c0,0-3.1-0.4-3.7-0.5L20,5.5z"/>
			<path id="XMLID_1197_" class="st10" d="M22.1,3.6c0,0,1.7,0.1,2.9,0.2c0,0-2.8-0.2-2.8-0.5L22.1,3.6z"/>
			<path id="XMLID_1196_" class="st11" d="M16,13.1c0,0,0.6-8.1,9.9-11.8c0,0-7.6,3.1-9.3,10.6c0,0-0.4,1.8-0.1,2.7
				C16.6,14.6,15.6,13.9,16,13.1z"/>
			<path id="XMLID_1195_" class="st10" d="M16.4,14.4c-0.2-0.3-0.5-0.8-0.3-1.2l0,0v0c0,0,0.2-2,1.5-4.5c0.9-1.8,2.6-4,5.6-5.8
				c-2.4,1.6-5.6,4.5-6.6,9.1C16.6,11.9,16.3,13.4,16.4,14.4z"/>
			<path id="XMLID_1194_" class="st10" d="M13.2,9.1c0.4,0.4,2.1,3,2.6,5.9c0.3,0,0.6-0.1,0.8-0.2c-0.2-0.5-1.6-4.8-1.7-6.6
				c0,0,0.1-0.9-0.4-1c0,0-0.4,0-0.5,0.4c-0.1,0.4-0.7,0.4-0.9,0.4c-0.2,0-0.3,0-0.4,0.2C12.5,8.3,12.7,8.7,13.2,9.1z"/>
			<path id="XMLID_1193_" class="st11" d="M15.5,13.9c0.1,0.4,0.2,0.7,0.3,1.1c0.3,0,0.6-0.1,0.8-0.2c-0.2-0.5-1.6-4.8-1.7-6.6
				c0,0,0.1-0.9-0.4-1c0,0-0.4,0-0.5,0.4c0,0.2-0.2,0.2-0.3,0.3l0.2,0.4C13.9,8.2,16.4,13.7,15.5,13.9z"/>
			<path id="XMLID_1192_" class="st12" d="M13.4,8.1c0.5,0.2,0.6-0.3,0.7-0.4c0.1-0.1,0.3-0.2,0.4,0.3c0.1,0.5,1,4,1.5,5.6
				c0,0,0.5,0.8-0.3,1c0,0.1,0,0.2,0.1,0.3c0.3,0,0.6-0.1,0.8-0.2c-0.2-0.5-1.6-4.8-1.7-6.6c0,0,0.1-0.9-0.4-1c0,0-0.4,0-0.5,0.4
				c-0.1,0.4-0.7,0.4-0.9,0.4c-0.2,0-0.3,0-0.4,0.2c0,0.1,0,0.2,0,0.2C12.7,8.3,12.9,7.9,13.4,8.1z"/>
			<path id="XMLID_1191_" class="st13" d="M13.6,8.5c0,0-0.3-0.3-0.6-0.1c-0.3,0.1,0.2,0.2,0.8,1.2c0.6,1,1.1,1.8,0.5,0.2
				C14.2,9.7,13.8,8.6,13.6,8.5z"/>
			<path id="XMLID_1190_" class="st14" d="M17.7,7c-0.2-0.8-0.6-2.1-0.4-3c0,0-1.7,2-0.3,4.4C17.2,7.9,17.4,7.4,17.7,7z"/>
			<path id="XMLID_1189_" class="st14" d="M19.4,5c-0.4-1-0.3-2.5-0.3-2.7c-0.2,0.1-0.4,0.3-0.7,0.5c-0.4,0.4-0.7,0.9-0.7,0.9
				c-0.2,1.1,0.2,2.2,0.4,2.8C18.5,5.9,18.9,5.4,19.4,5z"/>
			<path id="XMLID_1188_" class="st14" d="M21.5,3.3c-0.2-0.5-0.2-1.4-0.2-2c-0.6,0.2-1.1,0.4-1.7,0.6c-0.1,1,0.2,2,0.3,2.5
				C20.5,4,21,3.7,21.5,3.3z"/>
			<path id="XMLID_1187_" class="st14" d="M25.5,1.3c0.6-0.2,1.1-0.4,1.6-0.6c0,0-2.6-0.3-5.2,0.4C21.9,1.7,22,2.5,22,3
				C23.3,2.2,24.6,1.7,25.5,1.3z"/>
			<path id="XMLID_1186_" class="st14" d="M21.1,8c-0.9,0.1-1.8,0.1-2.2,0c0,0-0.2,0-0.4-0.1c-0.5,0.7-0.6,1.2-0.6,1.2
				c0.1,0.1,0.3,0.1,0.4,0.2c0,0,0.6,0.4,2.3,0.3C20.6,9.3,20.8,8.7,21.1,8z"/>
			<path id="XMLID_1185_" class="st14" d="M20.2,5.7c-0.5,0.5-0.9,1-1.2,1.5c0.5,0.1,1.3,0.3,2.5,0.3c0.3-0.5,0.6-1,1-1.6
				C21.6,5.8,20.8,5.8,20.2,5.7z"/>
			<path id="XMLID_1184_" class="st14" d="M22.3,3.8c-0.6,0.4-1.1,0.8-1.5,1.3c0.5,0.1,1.2,0.2,2,0.3c0.4-0.5,0.8-0.9,1.2-1.5
				C23.4,3.9,22.8,3.8,22.3,3.8z"/>
			<path id="XMLID_1183_" class="st14" d="M23,3.3c0.3,0.1,0.8,0.2,1.4,0.3C25.1,2.8,25.9,2,27,1.2l0,0c-0.1,0-0.1,0.1-0.2,0.1
				C25.3,1.9,24,2.6,23,3.3z"/>
			<path id="XMLID_1182_" class="st15" d="M26.7,1.9c0,0-2.4,5-4.9,7.3C21.9,9.2,25.1,7.2,26.7,1.9z"/>
		</g>
		<g>
			<g>
				<path id="XMLID_1181_" class="st0" d="M14.4,38.6c0,0.1,5,11.9,16.5,10.9c11.5-1,16-12.3,14.3-16.5L14.4,38.6z"/>
				<path id="XMLID_1180_" class="st16" d="M16.3,40.8c0,0,3.8,5.4,5.8,4.2c2-1.2,0.1-4,0-4.4C22.1,40.6,19.6,41.5,16.3,40.8z"/>
				<path id="XMLID_1179_" class="st17" d="M22.6,40.1c0,0-3.8,7.1,4.2,8.7c1.2,0.2,2.4,0.2,3.8,0.1c11.5-1,16.3-11.8,14.6-16
					l-10,1.8L34,35.3L22.6,40.1z"/>
				<g>
					<path id="XMLID_1178_" class="st3" d="M20,41.6c-0.1,0.1-0.1,0.1-0.1,0.1C19.9,41.7,20,41.6,20,41.6z"/>
					<path id="XMLID_1177_" class="st3" d="M19.1,40.4c0,0,2.9,0,0.9,1.2c0.4-0.2,1.6-0.9,1.3-0.1c-0.4,1-0.6,1.6-0.6,1.6
						s0.3-0.6,0.5-1c-0.2,1.5,0.8,2.9,0.8,2.9c-0.4-0.9-0.4-2.1-0.2-3c0,0,0,0.1,0,0.1c0,0,0,0.5,0.2,0.8c0,0,0-1.7,0.7-1.7
						C23.4,41.1,23.8,39,19.1,40.4z"/>
				</g>
				<path id="XMLID_1176_" class="st18" d="M32.5,47.8c9.9-2,13.8-11,12.2-14.9l-1,0.2c-0.5,0.5-0.8,0.9-0.8,0.9s1.6,9.4-10.2,13.8
					C32.6,47.8,32.5,47.8,32.5,47.8z"/>
				<path id="XMLID_1175_" class="st19" d="M34.7,29.5c0,0,1.2,1.1,0.9,3.1c-0.4,2-3.1-0.2-3.1-0.2L34.7,29.5z"/>
				<path id="XMLID_1174_" class="st5" d="M34.6,31.5c0,0,1.1-1.4-0.5-2.5c-1.6-1-6.1-0.4-10.7,1.5c-4.5,1.9-11.6,6.3-8.2,9.4
					c0,0,1.1,1.2,7,0.4c0,0-0.6,3,2.1,3.5c2.7,0.5,12.2-1.7,18-6.2c5.8-4.6,1.5-6.9-0.5-6.8c-1.9,0.2-3.9,0.1-6.5,0.7l2-2L34.6,31.5
					z"/>
				<path id="XMLID_1173_" class="st20" d="M25.4,43.7c-0.4,0-0.7,0-0.9-0.1c-2.5-0.5-1.9-3.1-1.9-3.3l0.1-0.3l-0.4,0
					c-1.3,0.2-2.4,0.3-3.4,0.3c-2.6,0-3.3-0.6-3.3-0.6l0,0l0,0c-0.7-0.6-1-1.3-0.8-2c0.5-2.7,5.8-5.6,8.9-6.9c2.9-1.3,6-2,8.2-2
					c1,0,1.8,0.2,2.2,0.5c1.3,0.9,0.5,2,0.4,2.1L34,32l-0.4,0.5L35,32l0.5-0.1c1.9-0.5,3.5-0.5,5-0.6c0.5,0,1,0,1.5-0.1
					c0.1,0,0.1,0,0.2,0c0.8,0,2.3,0.5,2.8,1.6c0.4,0.9,0.2,2.4-2.7,4.7C37.1,41.5,29,43.7,25.4,43.7z"/>
				<path id="XMLID_1172_" class="st21" d="M26,37.8c0,0,5.9-0.5,8.7-2.4c0,0,0.9-0.7,0.3-1.6C34.5,32.9,26,37.8,26,37.8z"/>
				<path id="XMLID_1171_" class="st22" d="M35.2,34.2c0,0-0.2-1.5-2.6-1c0.7-0.5,1.4-1,2.1-1.5c0,0-1.1,0.6-2.6,1.5
					c0.1-0.3,0.3-0.8-0.9-1.2c-1.8-0.6-6.1,2.3-5.6,5.5c-1,0.7-1.8,1.5-2.3,2.1c0,0,1.1-0.8,2.8-1.9C27.9,37.6,35,36.5,35.2,34.2z"
					/>
				<path id="XMLID_1170_" class="st21" d="M26.1,37.5c0,0,3.6-3,6.8-4.5C32.9,33,28,36.4,26.1,37.5z"/>
				<path id="XMLID_1169_" class="st23" d="M31.4,34c0.8-0.6,1.4-1,1.4-1c-0.6,0.3-1.3,0.6-1.9,1C31.1,34,31.3,34,31.4,34z"/>
				<path id="XMLID_1168_" class="st21" d="M27.1,34.1c0.5-0.5,2-2,3.6-1.9c1.6,0,1.4,1.1,1.4,1.1c0.1-0.3,0.3-0.8-0.9-1.2
					c-1.8-0.6-6.1,2.3-5.6,5.5c-1,0.7-1.8,1.5-2.3,2.1c0,0,1-0.7,2.5-1.7C25.5,35.7,26.7,34.6,27.1,34.1z"/>
				<path id="XMLID_1167_" class="st23" d="M31.2,32C31.1,32,31.1,32,31.2,32c-0.1,0-0.1,0-0.1,0c0,0-0.1,0-0.1,0c0,0,0,0,0,0
					c0,0-0.1,0-0.1,0c0,0,0,0,0,0c0,0-0.1,0-0.1,0c0,0,0,0,0,0c0,0-0.1,0-0.1,0c0,0,0,0,0,0c0,0-0.1,0-0.1,0c0,0,0,0,0,0
					c0,0-0.1,0-0.1,0c0,0,0,0,0,0c0,0-0.1,0-0.1,0c0,0,0,0,0,0c0,0-0.1,0-0.1,0c0,0,0,0,0,0c0,0-0.1,0-0.1,0c0,0,0,0,0,0
					c0,0-0.1,0-0.1,0c0,0,0,0,0,0c-0.1,0-0.2,0.1-0.3,0.1c0,0,0,0,0,0c0,0-0.1,0-0.1,0.1c0,0,0,0,0,0c0,0-0.1,0-0.2,0.1c0,0,0,0,0,0
					c-0.1,0-0.1,0.1-0.2,0.1c0,0,0,0,0,0c0,0-0.1,0.1-0.1,0.1c0,0,0,0,0,0c0,0-0.1,0.1-0.1,0.1c0,0,0,0,0,0
					c-0.1,0.1-0.2,0.1-0.3,0.2c0,0,0,0,0,0c0,0-0.1,0.1-0.1,0.1c0,0,0,0,0,0c-0.1,0.1-0.2,0.2-0.3,0.2c0,0,0,0,0,0
					c0,0-0.1,0.1-0.1,0.1c0,0,0,0,0,0c-0.1,0.1-0.2,0.2-0.3,0.3c0,0,0,0,0,0c0,0-0.1,0.1-0.1,0.1c0,0,0,0,0,0
					c-0.1,0.1-0.3,0.3-0.4,0.4c0,0,0,0,0,0c0,0-0.1,0.1-0.1,0.1c0,0,0,0,0,0c0.1,0,0.1,0,0.2,0c0.1-0.2,0.2-0.3,0.3-0.4
					c0.5-0.5,2-2,3.6-1.9c1.6,0,1.4,1.1,1.4,1.1c0.1-0.3,0.3-0.8-0.9-1.2C31.3,32,31.2,32,31.2,32C31.2,32,31.2,32,31.2,32z"/>
				<path id="XMLID_1166_" class="st24" d="M32.8,34c0,0-2.3,1.4-0.9,1.8C33.3,36.2,32.8,34,32.8,34z"/>
				<path id="XMLID_1165_" class="st25" d="M36.5,30.1L34,32c0,0-0.4,0.4-0.4,0.5c0,0,0,0.1,1.5-0.5l2.3-1.9L37,29.8L36.5,30.1z"/>
				<path id="XMLID_1164_" class="st11" d="M33.8,32.1c0,0,3.3-2.4,4.5-3.8c0,0,0.1-0.7,0.7-0.6c0.6,0.1,1.4,0.8,0.6,1.1
					c-0.8,0.3-4.1,2.9-5,3.5c0,0,1.8-1.6,2.2-2.3C36.9,30,34.7,31.5,33.8,32.1z"/>
				<path class="st26" d="M44.9,32.8c-0.5-1.1-1.9-1.6-2.8-1.6c-0.1,0-0.1,0-0.2,0c-0.5,0-1,0.1-1.5,0.1c-1.5,0.1-3,0.1-5,0.6L35,32
					l-1.4,0.5L34,32l0.4-0.6c0.1-0.1,0.9-1.2-0.4-2.1c-0.5-0.3-1.2-0.5-2.2-0.5c-2.2,0-5.3,0.7-8.2,2c-3.1,1.3-8.4,4.3-8.9,6.9
					c-0.1,0.8,0.1,1.4,0.8,2l0,0l0,0c0,0,0.7,0.6,3.3,0.6c1,0,2.1-0.1,3.4-0.3l0.4,0l-0.1,0.3c0,0.1-0.5,2.8,1.9,3.3
					c0.2,0,0.6,0.1,0.9,0.1c3.6,0,11.7-2.2,16.8-6.2C45.1,35.2,45.2,33.7,44.9,32.8z M44,33.8c-1.8,5.4-15.4,8.9-18.2,9
					c-2.8,0.1-2.5-3-2.4-3.1c0.1-0.1-3,0.5-5.9-0.2c-2.9-0.7-1.4-3.3,2.4-6.1c3.9-2.7,10.5-4.9,13-3.9c1.8,0.7,0.9,2.1,0.9,2.1
					c-0.5,0.8-1.1,1.4-1.1,1.4s0,0.1-0.1,0.1c0.1-0.1,1.3-0.9,6.5-1.5C44.4,31.1,44,33.8,44,33.8z"/>
			</g>
			<path id="XMLID_1161_" class="st24" d="M31.5,33.3c0,0-3.3-0.3-3,0.7C28.8,35,31.5,33.3,31.5,33.3z"/>
			<path id="XMLID_1160_" class="st27" d="M30.7,33.4c0,0-1.9,0-2.1,0.5C28.6,33.9,28.5,34,30.7,33.4z"/>
			<path id="XMLID_1159_" class="st12" d="M39,27.7c-0.6-0.1-0.7,0.6-0.7,0.6c0,0,0,0.1-0.1,0.1c0.1,0.4,0,1-1.1,1.9
				c-0.2,0.2-0.3,0.3-0.3,0.3c1.1-0.8,2.3-1.7,2.7-1.8C40.4,28.5,39.6,27.8,39,27.7z"/>
			<path id="XMLID_1158_" class="st28" d="M32.5,34.3c0,0-1.5,1-0.5,1.3C32,35.6,31.6,35.2,32.5,34.3z"/>
		</g>
		<path id="XMLID_1157_" class="st29" d="M41.9,30.9c-1.9,0.1-3.8,0.1-6.3,0.7c0.4-0.3,0.9-0.7,1.3-1c0,0,0,0,0,0
			c0.1,0,0.1-0.1,0.2-0.1c0,0,0,0,0,0c0.1,0,0.1-0.1,0.2-0.1c0,0,0,0,0,0c0.6-0.5,1.3-0.9,1.7-1.2c0,0,0,0,0,0c0,0,0.1-0.1,0.1-0.1
			c0,0,0,0,0,0c0,0,0.1,0,0.1-0.1c0,0,0,0,0,0c0,0,0.1,0,0.1,0c0,0,0,0,0,0c0,0,0,0,0.1,0c0,0,0.1,0,0.1,0c0.8-0.3,0-1-0.6-1.1
			c-0.6-0.1-0.7,0.6-0.7,0.6c0,0,0,0.1-0.1,0.1l0,0c-0.6,0.7-1.8,1.7-2.8,2.4c-0.3-0.9-0.8-1.3-0.8-1.3l0,0
			c-0.1-0.2-0.3-0.3-0.5-0.5c-1.6-1-6.1-0.4-10.7,1.5c-3.9,1.7-9.7,5.1-9,8c0.1,0,13.4-10.6,30.6-3.2c0.2,0.1,0.4,0.2,0.5,0.2
			c0.1-1.1,0-2-0.3-2.7C44.8,31.5,43,30.8,41.9,30.9z"/>
	</g>
</g>
</svg>
