<?xml version="1.0" encoding="utf-8"?>
<!-- Generator: Adobe Illustrator 19.2.1, SVG Export Plug-In . SVG Version: 6.00 Build 0)  -->
<svg version="1.1" id="Слой_1" xmlns="http://www.w3.org/2000/svg" xmlns:xlink="http://www.w3.org/1999/xlink" x="0px" y="0px"
	 viewBox="0 0 50 50" style="enable-background:new 0 0 50 50;" xml:space="preserve">
<style type="text/css">
	.st0{fill:url(#SVGID_1_);}
	.st1{fill:url(#SVGID_2_);}
	.st2{fill:url(#SVGID_3_);}
	.st3{fill:url(#SVGID_4_);}
	.st4{fill:url(#SVGID_5_);}
	.st5{fill:url(#SVGID_6_);}
	.st6{fill:url(#SVGID_7_);}
	.st7{fill:url(#SVGID_8_);}
	.st8{fill:url(#SVGID_9_);}
	.st9{fill:url(#SVGID_10_);}
	.st10{fill:url(#SVGID_11_);}
	.st11{fill:url(#SVGID_12_);}
	.st12{fill:url(#SVGID_13_);}
	.st13{fill:url(#SVGID_14_);}
	.st14{fill:url(#SVGID_15_);}
	.st15{fill:url(#SVGID_16_);}
	.st16{fill:url(#SVGID_17_);}
	.st17{fill:url(#SVGID_18_);}
	.st18{fill:url(#SVGID_19_);}
	.st19{fill:url(#SVGID_20_);}
	.st20{fill:url(#SVGID_21_);}
	.st21{fill:url(#SVGID_22_);}
	.st22{fill:url(#SVGID_23_);}
	.st23{fill:url(#SVGID_24_);}
	.st24{fill:url(#SVGID_25_);}
	.st25{fill:url(#SVGID_26_);}
	.st26{fill:url(#SVGID_27_);}
	.st27{fill:url(#SVGID_28_);}
	.st28{fill:url(#SVGID_29_);}
	.st29{fill:url(#SVGID_30_);}
	.st30{fill:url(#SVGID_31_);}
	.st31{fill:url(#SVGID_32_);}
	.st32{fill:url(#SVGID_33_);}
	.st33{fill:url(#SVGID_34_);}
	.st34{fill:url(#SVGID_35_);}
	.st35{fill:url(#SVGID_36_);}
	.st36{fill:url(#SVGID_37_);}
	.st37{fill:url(#SVGID_38_);}
	.st38{fill:url(#SVGID_39_);}
	.st39{fill:url(#SVGID_40_);}
	.st40{fill:url(#SVGID_41_);}
	.st41{fill:url(#SVGID_42_);}
	.st42{fill:url(#SVGID_43_);}
	.st43{fill:url(#SVGID_44_);}
	.st44{fill:url(#SVGID_45_);}
	.st45{fill:url(#SVGID_46_);}
	.st46{fill:url(#SVGID_47_);}
	.st47{fill:url(#SVGID_48_);}
	.st48{fill:url(#SVGID_49_);}
	.st49{fill:url(#SVGID_50_);}
	.st50{fill:url(#SVGID_51_);}
	.st51{opacity:0.55;fill:#222E1A;}
	.st52{fill:url(#SVGID_52_);}
	.st53{fill:url(#SVGID_53_);}
	.st54{fill:url(#SVGID_54_);}
	.st55{fill:url(#SVGID_55_);}
	.st56{fill:url(#SVGID_56_);}
	.st57{fill:url(#SVGID_57_);}
	.st58{fill:url(#SVGID_58_);}
	.st59{fill:url(#SVGID_59_);}
	.st60{fill:url(#SVGID_60_);}
	.st61{fill:url(#SVGID_61_);}
	.st62{fill:url(#SVGID_62_);}
	.st63{fill:url(#SVGID_63_);}
	.st64{fill:url(#SVGID_64_);}
</style>
<g>
	<g>
		
			<linearGradient id="SVGID_1_" gradientUnits="userSpaceOnUse" x1="-1592.9587" y1="2630.3604" x2="-1604.3759" y2="2627.0059" gradientTransform="matrix(0.1539 1.0339 0.9191 -9.800000e-002 -2158.4263 1941.8751)">
			<stop  offset="0" style="stop-color:#3D6F2D"/>
			<stop  offset="0.1902" style="stop-color:#41742E"/>
			<stop  offset="0.4445" style="stop-color:#4C8230"/>
			<stop  offset="0.7337" style="stop-color:#629B32"/>
			<stop  offset="1" style="stop-color:#7EBA33"/>
		</linearGradient>
		<path class="st0" d="M24.8,32.4c1,0.2,1.2,0.7-0.1,2c-1.6,1.7-2.1,4.1-2.1,8.1c0.1,1-1.2-1.3-3.4-0.5c-2.3,0.8-2.5,2.1-2.5,2.1
			s-0.9-2.2-3.1-2.1c-2.2,0.1-2.6,1.3-2.6,1.3s-2.7-3-8.2-1.7c-1,0.5,0.2-1.2,1.5-2.5c1.2-1.3,1.8-4.8,1.3-6.5
			c1.1,0.5,4.8,0.8,4.3-4c1.1,0.9,5.1,3.8,6.1-1.9C17.4,28.2,22,31.8,24.8,32.4z"/>
		
			<linearGradient id="SVGID_2_" gradientUnits="userSpaceOnUse" x1="-1582.1208" y1="2633.5664" x2="-1596.618" y2="2629.2415" gradientTransform="matrix(0.1539 1.0339 0.9191 -9.800000e-002 -2158.4263 1941.8751)">
			<stop  offset="0" style="stop-color:#4F7A2D"/>
			<stop  offset="0.1978" style="stop-color:#537F2F"/>
			<stop  offset="0.4622" style="stop-color:#608D33"/>
			<stop  offset="0.7631" style="stop-color:#78A63B"/>
			<stop  offset="1" style="stop-color:#91C144"/>
		</linearGradient>
		<path class="st1" d="M13.9,42.9c-2.2,0.1-2.5,2-2.5,2s-3-4.6-8.6-3.3c-0.2,0.1-0.4,0-0.4-0.1c0,0,0.1-0.1,0.1-0.1
			c0.8-0.7,7.9-5.3,23-8.6c0,0,0.1,0,0.1,0c0.2,0.4-0.2,0.8-0.7,1.9c-1.3,2.7-1.3,5.2-1.3,9.1c0.1,1-1.7-1.8-4-1
			c-2.3,0.8-2.5,2.9-2.5,2.9S16.1,42.8,13.9,42.9z"/>
		
			<linearGradient id="SVGID_3_" gradientUnits="userSpaceOnUse" x1="-1592.6774" y1="2630.8079" x2="-1594.4773" y2="2630.2371" gradientTransform="matrix(0.1539 1.0339 0.9191 -9.800000e-002 -2158.4263 1941.8751)">
			<stop  offset="0" style="stop-color:#4F7A2D"/>
			<stop  offset="0.236" style="stop-color:#537F2E"/>
			<stop  offset="0.5514" style="stop-color:#5F8E2F"/>
			<stop  offset="0.9104" style="stop-color:#76A830"/>
			<stop  offset="1" style="stop-color:#7DB030"/>
		</linearGradient>
		<path class="st2" d="M25.4,33c0,0-15,3.9-22.2,8.1c1.6-0.7,4.6-2,7.8-3.2c4-1.5,8.4-2.9,12.7-4.3C24.3,33.5,25,33.4,25.4,33z"/>
		
			<linearGradient id="SVGID_4_" gradientUnits="userSpaceOnUse" x1="-1582.9978" y1="2628.1201" x2="-1591.1733" y2="2622.9424" gradientTransform="matrix(0.1539 1.0339 0.9191 -9.800000e-002 -2158.4263 1941.8751)">
			<stop  offset="0" style="stop-color:#4F7A2D"/>
			<stop  offset="0.1978" style="stop-color:#537F2F"/>
			<stop  offset="0.4622" style="stop-color:#608D33"/>
			<stop  offset="0.7631" style="stop-color:#78A63B"/>
			<stop  offset="1" style="stop-color:#91C144"/>
		</linearGradient>
		<path class="st3" d="M11.7,38.1c0,0-0.9,2.4-0.4,6.4c-0.8-1.2-3.8-4.1-8-3C2.7,41.6,8.1,39.4,11.7,38.1z"/>
		
			<linearGradient id="SVGID_5_" gradientUnits="userSpaceOnUse" x1="-1583.1301" y1="2635.7073" x2="-1592.7848" y2="2628.4663" gradientTransform="matrix(0.1539 1.0339 0.9191 -9.800000e-002 -2158.4263 1941.8751)">
			<stop  offset="0" style="stop-color:#4F7A2D"/>
			<stop  offset="0.1978" style="stop-color:#537F2F"/>
			<stop  offset="0.4622" style="stop-color:#608D33"/>
			<stop  offset="0.7631" style="stop-color:#78A63B"/>
			<stop  offset="1" style="stop-color:#91C144"/>
		</linearGradient>
		<path class="st4" d="M11.5,44.1c0,0-0.2-4.1,0.8-6.2c0.9-0.3,5.4-1.9,5.4-1.9s-1.9,4.5-0.7,8.9C16.1,43.3,13.7,41.4,11.5,44.1z"/>
		
			<linearGradient id="SVGID_6_" gradientUnits="userSpaceOnUse" x1="-1583.2118" y1="2641.2261" x2="-1593.3406" y2="2633.6187" gradientTransform="matrix(0.1539 1.0339 0.9191 -9.800000e-002 -2158.4263 1941.8751)">
			<stop  offset="0" style="stop-color:#4F7A2D"/>
			<stop  offset="0.1978" style="stop-color:#537F2F"/>
			<stop  offset="0.4622" style="stop-color:#608D33"/>
			<stop  offset="0.7631" style="stop-color:#78A63B"/>
			<stop  offset="1" style="stop-color:#91C144"/>
		</linearGradient>
		<path class="st5" d="M17.1,44.7c0,0,2.4-4.4,6.2-0.9c-1.1-3.7-1.3-8-0.9-9.4c-1.2,0.4-4.3,1.5-4.3,1.5S16.2,40.8,17.1,44.7z"/>
		
			<linearGradient id="SVGID_7_" gradientUnits="userSpaceOnUse" x1="-1586.5024" y1="2644.3157" x2="-1594.0823" y2="2638.6226" gradientTransform="matrix(0.1539 1.0339 0.9191 -9.800000e-002 -2158.4263 1941.8751)">
			<stop  offset="0" style="stop-color:#4F7A2D"/>
			<stop  offset="0.1978" style="stop-color:#537F2F"/>
			<stop  offset="0.4622" style="stop-color:#608D33"/>
			<stop  offset="0.7631" style="stop-color:#78A63B"/>
			<stop  offset="1" style="stop-color:#91C144"/>
		</linearGradient>
		<path class="st6" d="M23.4,43.7c0,0-1.4-5.3-0.8-9.3c0.5-0.3,2.6-1,2.6-1S22.8,36,23.4,43.7z"/>
		
			<linearGradient id="SVGID_8_" gradientUnits="userSpaceOnUse" x1="-1589.1399" y1="2627.3499" x2="-1589.4595" y2="2626.5125" gradientTransform="matrix(0.1539 1.0339 0.9191 -9.800000e-002 -2158.4263 1941.8751)">
			<stop  offset="0" style="stop-color:#6A9B2F"/>
			<stop  offset="0.2724" style="stop-color:#6F9F32"/>
			<stop  offset="0.6362" style="stop-color:#7EAD39"/>
			<stop  offset="1" style="stop-color:#93C246"/>
		</linearGradient>
		<path class="st7" d="M11.9,38.1c0,0-0.7,1.7-0.6,6.4C11.1,43.8,11,37.9,11.9,38.1z"/>
		
			<linearGradient id="SVGID_9_" gradientUnits="userSpaceOnUse" x1="-1589.3101" y1="2633.6494" x2="-1589.7646" y2="2632.4583" gradientTransform="matrix(0.1539 1.0339 0.9191 -9.800000e-002 -2158.4263 1941.8751)">
			<stop  offset="0" style="stop-color:#6A9B2F"/>
			<stop  offset="0.2724" style="stop-color:#6F9F32"/>
			<stop  offset="0.6362" style="stop-color:#7EAD39"/>
			<stop  offset="1" style="stop-color:#93C246"/>
		</linearGradient>
		<path class="st8" d="M17.6,36.1c0,0-1.5,4.4-0.7,8.8c-0.6-2.2-0.4-5.6,0-7.4C17.2,36.5,17.3,36,17.6,36.1z"/>
		
			<linearGradient id="SVGID_10_" gradientUnits="userSpaceOnUse" x1="-1589.77" y1="2640.4734" x2="-1590.7145" y2="2637.9983" gradientTransform="matrix(0.1539 1.0339 0.9191 -9.800000e-002 -2158.4263 1941.8751)">
			<stop  offset="0" style="stop-color:#6A9B2F"/>
			<stop  offset="0.2724" style="stop-color:#6F9F32"/>
			<stop  offset="0.6362" style="stop-color:#7EAD39"/>
			<stop  offset="1" style="stop-color:#93C246"/>
		</linearGradient>
		<path class="st9" d="M22.3,34.5c0,0-0.6,3.8,0.9,9.3c-0.6-1-1.4-4.9-1.2-7.7C22.1,35,22.1,34.4,22.3,34.5z"/>
		
			<linearGradient id="SVGID_11_" gradientUnits="userSpaceOnUse" x1="-1591.722" y1="2626.1213" x2="-1594.287" y2="2619.3992" gradientTransform="matrix(0.1539 1.0339 0.9191 -9.800000e-002 -2158.4263 1941.8751)">
			<stop  offset="0" style="stop-color:#3D6F2D"/>
			<stop  offset="0.1902" style="stop-color:#41742E"/>
			<stop  offset="0.4445" style="stop-color:#4C8230"/>
			<stop  offset="0.7337" style="stop-color:#629B32"/>
			<stop  offset="1" style="stop-color:#7EBA33"/>
		</linearGradient>
		<path class="st10" d="M3,41.1c0,0,3.3-2.3,8.4-4.2c-0.8-0.1-3.7-1.6-5.5-3.8c0.3,1.2,0.1,4.4-1.1,5.8C3.6,40.2,3.1,40.7,3,41.1z"
			/>
		
			<linearGradient id="SVGID_12_" gradientUnits="userSpaceOnUse" x1="-1595.2852" y1="2633.2117" x2="-1599.2307" y2="2622.8713" gradientTransform="matrix(0.1539 1.0339 0.9191 -9.800000e-002 -2158.4263 1941.8751)">
			<stop  offset="0" style="stop-color:#3D6F2D"/>
			<stop  offset="0.1902" style="stop-color:#41742E"/>
			<stop  offset="0.4445" style="stop-color:#4C8230"/>
			<stop  offset="0.7337" style="stop-color:#629B32"/>
			<stop  offset="1" style="stop-color:#7EBA33"/>
		</linearGradient>
		<path class="st11" d="M6,32.9c0,0,3.2,3.2,6,3.7c1.4-0.6,5.3-1.8,5.3-1.8s-4.5-2-7.1-5.7C10.2,30.3,10.1,33.7,6,32.9z"/>
		
			<linearGradient id="SVGID_13_" gradientUnits="userSpaceOnUse" x1="-1596.9425" y1="2638.739" x2="-1601.1017" y2="2627.8391" gradientTransform="matrix(0.1539 1.0339 0.9191 -9.800000e-002 -2158.4263 1941.8751)">
			<stop  offset="0" style="stop-color:#3D6F2D"/>
			<stop  offset="0.1902" style="stop-color:#41742E"/>
			<stop  offset="0.4445" style="stop-color:#4C8230"/>
			<stop  offset="0.7337" style="stop-color:#629B32"/>
			<stop  offset="1" style="stop-color:#7EBA33"/>
		</linearGradient>
		<path class="st12" d="M10.5,29.2c0,0,3,3.5,7.2,5.5c1.1-0.2,4.3-1.1,4.3-1.1s-3.5-2.3-5.8-6.4C15.8,28.6,14.8,32.1,10.5,29.2z"/>
		
			<linearGradient id="SVGID_14_" gradientUnits="userSpaceOnUse" x1="-1596.8743" y1="2642.4165" x2="-1600.176" y2="2633.7639" gradientTransform="matrix(0.1539 1.0339 0.9191 -9.800000e-002 -2158.4263 1941.8751)">
			<stop  offset="0" style="stop-color:#3D6F2D"/>
			<stop  offset="0.1902" style="stop-color:#41742E"/>
			<stop  offset="0.4445" style="stop-color:#4C8230"/>
			<stop  offset="0.7337" style="stop-color:#629B32"/>
			<stop  offset="1" style="stop-color:#7EBA33"/>
		</linearGradient>
		<path class="st13" d="M16.5,27.3c0,0,2.4,3.9,5.9,6.1c0.5-0.1,2.8-0.7,2.8-0.7S22,32.3,16.5,27.3z"/>
		
			<linearGradient id="SVGID_15_" gradientUnits="userSpaceOnUse" x1="-1595.6871" y1="2625.0613" x2="-1595.0853" y2="2624.543" gradientTransform="matrix(0.1539 1.0339 0.9191 -9.800000e-002 -2158.4263 1941.8751)">
			<stop  offset="0" style="stop-color:#3D6F2D"/>
			<stop  offset="0.1902" style="stop-color:#41742E"/>
			<stop  offset="0.4445" style="stop-color:#4C8230"/>
			<stop  offset="0.7337" style="stop-color:#629B32"/>
			<stop  offset="1" style="stop-color:#7EBA33"/>
		</linearGradient>
		<path class="st14" d="M5.8,33c0,0,2.9,3,5.6,3.7c-0.2,0.1-0.7,0.2-2.9-1.2C6.5,34.2,5.8,33,5.8,33z"/>
		
			<linearGradient id="SVGID_16_" gradientUnits="userSpaceOnUse" x1="-1599.1481" y1="2637.2573" x2="-1598.2275" y2="2636.229" gradientTransform="matrix(0.1539 1.0339 0.9191 -9.800000e-002 -2158.4263 1941.8751)">
			<stop  offset="0" style="stop-color:#3D6F2D"/>
			<stop  offset="0.1902" style="stop-color:#41742E"/>
			<stop  offset="0.4445" style="stop-color:#4C8230"/>
			<stop  offset="0.7337" style="stop-color:#629B32"/>
			<stop  offset="1" style="stop-color:#7EBA33"/>
		</linearGradient>
		<path class="st15" d="M16.2,27.2c0,0,2.3,3.8,5.9,6.3c-0.2,0.1-0.6-0.1-2.3-1.7C17.5,29.7,16.2,27.2,16.2,27.2z"/>
		
			<linearGradient id="SVGID_17_" gradientUnits="userSpaceOnUse" x1="-1597.9377" y1="2630.9229" x2="-1597.3011" y2="2630.3748" gradientTransform="matrix(0.1539 1.0339 0.9191 -9.800000e-002 -2158.4263 1941.8751)">
			<stop  offset="0" style="stop-color:#3D6F2D"/>
			<stop  offset="0.1902" style="stop-color:#41742E"/>
			<stop  offset="0.4445" style="stop-color:#4C8230"/>
			<stop  offset="0.7337" style="stop-color:#629B32"/>
			<stop  offset="1" style="stop-color:#7EBA33"/>
		</linearGradient>
		<path class="st16" d="M10.2,29.1c0,0,3.5,4.1,7.1,5.7c-0.2,0.1-2.4-1-3.8-2.2C10.8,30.3,10.2,29.1,10.2,29.1z"/>
	</g>
	<g>
		
			<linearGradient id="SVGID_18_" gradientUnits="userSpaceOnUse" x1="1340.1064" y1="1123.605" x2="1327.1953" y2="1119.8114" gradientTransform="matrix(0.6641 -0.7436 0.7068 0.5943 -1667.2697 346.0027)">
			<stop  offset="0" style="stop-color:#3D6F2D"/>
			<stop  offset="0.1902" style="stop-color:#41742E"/>
			<stop  offset="0.4445" style="stop-color:#4C8230"/>
			<stop  offset="0.7337" style="stop-color:#629B32"/>
			<stop  offset="1" style="stop-color:#7EBA33"/>
		</linearGradient>
		<path class="st17" d="M24,30.2c1.2,0.7,1.7,0.4,1.2-2.2c-0.5-3.1,0.5-6,3-9.9c0.8-0.8-2,0.3-3.9-2.3c-1.8-2.6-1.2-4-1.2-4
			s-2.3,1.4-4.3-0.4c-2-1.8-1.6-3.1-1.6-3.1S13.1,9.2,9,4.2C8.5,3.1,8.5,5.4,8.8,7.5c0.3,2.1-1.3,5.6-2.7,6.8c1.2,0.3,4.6,2.9,1.3,7
			c1.5,0.1,7,0.5,4.3,6.9C13.9,27.9,20.7,28.3,24,30.2z"/>
		
			<linearGradient id="SVGID_19_" gradientUnits="userSpaceOnUse" x1="1352.4794" y1="1127.2615" x2="1336.285" y2="1122.4303" gradientTransform="matrix(0.6641 -0.7436 0.7068 0.5943 -1667.2697 346.0027)">
			<stop  offset="0" style="stop-color:#4F7A2D"/>
			<stop  offset="0.1978" style="stop-color:#537F2F"/>
			<stop  offset="0.4622" style="stop-color:#608D33"/>
			<stop  offset="0.7631" style="stop-color:#78A63B"/>
			<stop  offset="1" style="stop-color:#91C144"/>
		</linearGradient>
		<path class="st18" d="M19.7,10.8c-2-1.8-1.1-3.7-1.1-3.7s-5.5,2-9.6-3C8.9,3.9,8.8,3.9,8.7,3.9c0,0,0,0.1,0,0.1
			C9,5.2,12.5,14.5,25,30.3c0,0,0.1,0.1,0.1,0.1c0.5-0.3,0.3-1,0.5-2.7c0.3-3.9,2-6.4,4.5-10.4c0.8-0.9-3,0.4-4.8-2.2
			c-1.8-2.6-0.7-4.8-0.7-4.8S21.8,12.6,19.7,10.8z"/>
		
			<linearGradient id="SVGID_20_" gradientUnits="userSpaceOnUse" x1="1340.0305" y1="1123.9254" x2="1339.0927" y2="1123.6281" gradientTransform="matrix(0.6641 -0.7436 0.7068 0.5943 -1667.2697 346.0027)">
			<stop  offset="0" style="stop-color:#4F7A2D"/>
			<stop  offset="0.236" style="stop-color:#537F2E"/>
			<stop  offset="0.5514" style="stop-color:#5F8E2F"/>
			<stop  offset="0.9104" style="stop-color:#76A830"/>
			<stop  offset="1" style="stop-color:#7DB030"/>
		</linearGradient>
		<path class="st19" d="M25,30.1c0,0-12.2-16.3-15.9-25.2c1,1.7,2.8,5,5,8.4c2.8,4.5,6.2,9.5,9.7,14.6C24.2,28.6,24.8,29.4,25,30.1z
			"/>
		
			<linearGradient id="SVGID_21_" gradientUnits="userSpaceOnUse" x1="1352.0049" y1="1119.4622" x2="1343.2827" y2="1113.9381" gradientTransform="matrix(0.6641 -0.7436 0.7068 0.5943 -1667.2697 346.0027)">
			<stop  offset="0" style="stop-color:#4F7A2D"/>
			<stop  offset="0.1978" style="stop-color:#537F2F"/>
			<stop  offset="0.4622" style="stop-color:#608D33"/>
			<stop  offset="0.7631" style="stop-color:#78A63B"/>
			<stop  offset="1" style="stop-color:#91C144"/>
		</linearGradient>
		<path class="st20" d="M14.8,13.7c0,0,0.7-2.9,3.5-6.2C16.7,8,12.3,8.6,9.3,4.7C8.9,4.2,12.2,9.9,14.8,13.7z"/>
		
			<linearGradient id="SVGID_22_" gradientUnits="userSpaceOnUse" x1="1351.7705" y1="1128.8499" x2="1340.5717" y2="1120.4507" gradientTransform="matrix(0.6641 -0.7436 0.7068 0.5943 -1667.2697 346.0027)">
			<stop  offset="0" style="stop-color:#4F7A2D"/>
			<stop  offset="0.1978" style="stop-color:#537F2F"/>
			<stop  offset="0.4622" style="stop-color:#608D33"/>
			<stop  offset="0.7631" style="stop-color:#78A63B"/>
			<stop  offset="1" style="stop-color:#91C144"/>
		</linearGradient>
		<path class="st21" d="M18.2,7.9c0,0-2.7,3.7-3,6.4c0.6,1,3.9,6,3.9,6s1-5.9,4.8-9.1C22.1,12.2,18.6,12.1,18.2,7.9z"/>
		
			<linearGradient id="SVGID_23_" gradientUnits="userSpaceOnUse" x1="1351.5284" y1="1136.1584" x2="1339.2329" y2="1126.9235" gradientTransform="matrix(0.6641 -0.7436 0.7068 0.5943 -1667.2697 346.0027)">
			<stop  offset="0" style="stop-color:#4F7A2D"/>
			<stop  offset="0.1978" style="stop-color:#537F2F"/>
			<stop  offset="0.4622" style="stop-color:#608D33"/>
			<stop  offset="0.7631" style="stop-color:#78A63B"/>
			<stop  offset="1" style="stop-color:#91C144"/>
		</linearGradient>
		<path class="st22" d="M23.9,11.5c0,0-0.3,6.1,5.8,5.7c-3.6,2.8-6.5,6.9-7,8.6c-1-1.4-3.3-5.1-3.3-5.1S20.6,14.6,23.9,11.5z"/>
		
			<linearGradient id="SVGID_24_" gradientUnits="userSpaceOnUse" x1="1347.1169" y1="1140.5585" x2="1337.7485" y2="1133.522" gradientTransform="matrix(0.6641 -0.7436 0.7068 0.5943 -1667.2697 346.0027)">
			<stop  offset="0" style="stop-color:#4F7A2D"/>
			<stop  offset="0.1978" style="stop-color:#537F2F"/>
			<stop  offset="0.4622" style="stop-color:#608D33"/>
			<stop  offset="0.7631" style="stop-color:#78A63B"/>
			<stop  offset="1" style="stop-color:#91C144"/>
		</linearGradient>
		<path class="st23" d="M29.8,17.6c0,0-4.8,4.1-6.8,8.7c0.4,0.7,2.1,3.4,2.1,3.4S24.3,24.7,29.8,17.6z"/>
		
			<linearGradient id="SVGID_25_" gradientUnits="userSpaceOnUse" x1="1345.0913" y1="1118.8401" x2="1344.7194" y2="1117.8654" gradientTransform="matrix(0.6641 -0.7436 0.7068 0.5943 -1667.2697 346.0027)">
			<stop  offset="0" style="stop-color:#6A9B2F"/>
			<stop  offset="0.2724" style="stop-color:#6F9F32"/>
			<stop  offset="0.6362" style="stop-color:#7EAD39"/>
			<stop  offset="1" style="stop-color:#93C246"/>
		</linearGradient>
		<path class="st24" d="M14.9,13.8c0,0,0.4-2.1,3.4-6.4C17.6,7.9,14,13.4,14.9,13.8z"/>
		
			<linearGradient id="SVGID_26_" gradientUnits="userSpaceOnUse" x1="1344.3606" y1="1126.5779" x2="1343.8229" y2="1125.1687" gradientTransform="matrix(0.6641 -0.7436 0.7068 0.5943 -1667.2697 346.0027)">
			<stop  offset="0" style="stop-color:#6A9B2F"/>
			<stop  offset="0.2724" style="stop-color:#6F9F32"/>
			<stop  offset="0.6362" style="stop-color:#7EAD39"/>
			<stop  offset="1" style="stop-color:#93C246"/>
		</linearGradient>
		<path class="st25" d="M19.1,20.3c0,0,1.3-5.4,4.7-9.1c-2,1.6-3.9,5-4.5,7.1C19,19.5,18.8,20.1,19.1,20.3z"/>
		
			<linearGradient id="SVGID_27_" gradientUnits="userSpaceOnUse" x1="1343.2911" y1="1135.5299" x2="1342.1147" y2="1132.4469" gradientTransform="matrix(0.6641 -0.7436 0.7068 0.5943 -1667.2697 346.0027)">
			<stop  offset="0" style="stop-color:#6A9B2F"/>
			<stop  offset="0.2724" style="stop-color:#6F9F32"/>
			<stop  offset="0.6362" style="stop-color:#7EAD39"/>
			<stop  offset="1" style="stop-color:#93C246"/>
		</linearGradient>
		<path class="st26" d="M22.8,25.9c0,0,1.8-4.2,6.9-8.6c-1.3,0.6-4.6,3.8-6.2,6.7C22.8,25.1,22.4,25.7,22.8,25.9z"/>
		
			<linearGradient id="SVGID_28_" gradientUnits="userSpaceOnUse" x1="1342.7484" y1="1117.2053" x2="1339.9246" y2="1109.8049" gradientTransform="matrix(0.6641 -0.7436 0.7068 0.5943 -1667.2697 346.0027)">
			<stop  offset="0" style="stop-color:#3D6F2D"/>
			<stop  offset="0.1902" style="stop-color:#41742E"/>
			<stop  offset="0.4445" style="stop-color:#4C8230"/>
			<stop  offset="0.7337" style="stop-color:#629B32"/>
			<stop  offset="1" style="stop-color:#7EBA33"/>
		</linearGradient>
		<path class="st27" d="M8.8,4.8c0,0,1.4,4.4,4.8,9.8c-0.8-0.5-4.3-1.3-7.1-0.6c1-0.8,2.7-4,2.5-6C8.8,6,8.7,5.2,8.8,4.8z"/>
		
			<linearGradient id="SVGID_29_" gradientUnits="userSpaceOnUse" x1="1338.1227" y1="1125.7979" x2="1333.5446" y2="1113.8002" gradientTransform="matrix(0.6641 -0.7436 0.7068 0.5943 -1667.2697 346.0027)">
			<stop  offset="0" style="stop-color:#3D6F2D"/>
			<stop  offset="0.1902" style="stop-color:#41742E"/>
			<stop  offset="0.4445" style="stop-color:#4C8230"/>
			<stop  offset="0.7337" style="stop-color:#629B32"/>
			<stop  offset="1" style="stop-color:#7EBA33"/>
		</linearGradient>
		<path class="st28" d="M6.6,14.2c0,0,4.7-0.6,7.5,1.1c1,1.6,3.9,5.9,3.9,5.9S12.5,19.6,7.8,21C8.6,19.8,10.6,16.6,6.6,14.2z"/>
		
			<linearGradient id="SVGID_30_" gradientUnits="userSpaceOnUse" x1="1335.3368" y1="1133.0327" x2="1330.2653" y2="1119.7417" gradientTransform="matrix(0.6641 -0.7436 0.7068 0.5943 -1667.2697 346.0027)">
			<stop  offset="0" style="stop-color:#3D6F2D"/>
			<stop  offset="0.1902" style="stop-color:#41742E"/>
			<stop  offset="0.4445" style="stop-color:#4C8230"/>
			<stop  offset="0.7337" style="stop-color:#629B32"/>
			<stop  offset="1" style="stop-color:#7EBA33"/>
		</linearGradient>
		<path class="st29" d="M8.2,21.1c0,0,4.9-0.9,10,0.6c1,1.2,3.6,4.8,3.6,4.8s-4.9-0.7-9.7,1.3C12.7,26.1,14,21.9,8.2,21.1z"/>
		
			<linearGradient id="SVGID_31_" gradientUnits="userSpaceOnUse" x1="1335.1215" y1="1137.9777" x2="1330.897" y2="1126.9067" gradientTransform="matrix(0.6641 -0.7436 0.7068 0.5943 -1667.2697 346.0027)">
			<stop  offset="0" style="stop-color:#3D6F2D"/>
			<stop  offset="0.1902" style="stop-color:#41742E"/>
			<stop  offset="0.4445" style="stop-color:#4C8230"/>
			<stop  offset="0.7337" style="stop-color:#629B32"/>
			<stop  offset="1" style="stop-color:#7EBA33"/>
		</linearGradient>
		<path class="st30" d="M12.5,27.9c0,0,4.8-1.8,9.7-0.9c0.5,0.5,2.5,3.2,2.5,3.2S21.1,27.8,12.5,27.9z"/>
		
			<linearGradient id="SVGID_32_" gradientUnits="userSpaceOnUse" x1="1337.6917" y1="1116.3047" x2="1338.6846" y2="1115.4496" gradientTransform="matrix(0.6641 -0.7436 0.7068 0.5943 -1667.2697 346.0027)">
			<stop  offset="0" style="stop-color:#3D6F2D"/>
			<stop  offset="0.1902" style="stop-color:#41742E"/>
			<stop  offset="0.4445" style="stop-color:#4C8230"/>
			<stop  offset="0.7337" style="stop-color:#629B32"/>
			<stop  offset="1" style="stop-color:#7EBA33"/>
		</linearGradient>
		<path class="st31" d="M6.5,14c0,0,4.3-0.6,7.2,0.8c-0.1-0.3-0.5-0.7-3.3-1C7.8,13.4,6.5,14,6.5,14z"/>
		
			<linearGradient id="SVGID_33_" gradientUnits="userSpaceOnUse" x1="1332.2831" y1="1131.2252" x2="1333.3895" y2="1129.9891" gradientTransform="matrix(0.6641 -0.7436 0.7068 0.5943 -1667.2697 346.0027)">
			<stop  offset="0" style="stop-color:#3D6F2D"/>
			<stop  offset="0.1902" style="stop-color:#41742E"/>
			<stop  offset="0.4445" style="stop-color:#4C8230"/>
			<stop  offset="0.7337" style="stop-color:#629B32"/>
			<stop  offset="1" style="stop-color:#7EBA33"/>
		</linearGradient>
		<path class="st32" d="M12.1,27.7c0,0,4.5-1.7,9.8-1.1c-0.1-0.3-0.6-0.4-3.4-0.3C14.9,26.4,12.1,27.7,12.1,27.7z"/>
		
			<linearGradient id="SVGID_34_" gradientUnits="userSpaceOnUse" x1="1334.4777" y1="1123.2871" x2="1335.3433" y2="1122.5416" gradientTransform="matrix(0.6641 -0.7436 0.7068 0.5943 -1667.2697 346.0027)">
			<stop  offset="0" style="stop-color:#3D6F2D"/>
			<stop  offset="0.1902" style="stop-color:#41742E"/>
			<stop  offset="0.4445" style="stop-color:#4C8230"/>
			<stop  offset="0.7337" style="stop-color:#629B32"/>
			<stop  offset="1" style="stop-color:#7EBA33"/>
		</linearGradient>
		<path class="st33" d="M7.9,21c0,0,5.7-1.1,10.1,0.3c-0.1-0.3-2.9-1-4.9-1C9.2,20.4,7.9,21,7.9,21z"/>
	</g>
	<g>
		
			<linearGradient id="SVGID_35_" gradientUnits="userSpaceOnUse" x1="1052.214" y1="-2840.7571" x2="1040.7032" y2="-2844.1392" gradientTransform="matrix(0.888 0.4598 -0.4048 0.7818 -2047.2015 1759.1437)">
			<stop  offset="0" style="stop-color:#3D6F2D"/>
			<stop  offset="0.1902" style="stop-color:#41742E"/>
			<stop  offset="0.4445" style="stop-color:#4C8230"/>
			<stop  offset="0.7337" style="stop-color:#629B32"/>
			<stop  offset="1" style="stop-color:#7EBA33"/>
		</linearGradient>
		<path class="st34" d="M27.1,31.3c-0.3,1,0,1.4,2,0.6c2.5-1,5-0.7,8.9,0.6c0.9,0.5-0.6-1.6,1.3-3.6c2-2,3.3-1.8,3.3-1.8
			s-1.7-1.6-0.4-3.7c1.3-2.1,2.6-2.1,2.6-2.1s-1.6-3.6,2.5-8.7c1-0.8-1.3-0.2-3.2,0.7c-1.9,0.8-5.6,0.3-7-0.8c0,1.2-1.7,5-6.1,3
			c0.3,1.4,1.1,6.3-5,5.4C26.7,22.7,27.9,28.4,27.1,31.3z"/>
		
			<linearGradient id="SVGID_36_" gradientUnits="userSpaceOnUse" x1="1063.1228" y1="-2837.5339" x2="1049.0245" y2="-2841.7397" gradientTransform="matrix(0.888 0.4598 -0.4048 0.7818 -2047.2015 1759.1437)">
			<stop  offset="0" style="stop-color:#4F7A2D"/>
			<stop  offset="0.1978" style="stop-color:#537F2F"/>
			<stop  offset="0.4622" style="stop-color:#608D33"/>
			<stop  offset="0.7631" style="stop-color:#78A63B"/>
			<stop  offset="1" style="stop-color:#91C144"/>
		</linearGradient>
		<path class="st35" d="M42.9,24c1.3-2.1,3.2-1.8,3.2-1.8s-2.9-4.5,1.2-9.6c0.2-0.2,0.2-0.4,0.2-0.4c0,0-0.1,0-0.1,0.1
			c-1.1,0.6-9.3,6.1-20.2,19.9c0,0,0,0.1,0,0.1c0.3,0.3,0.9,0.1,2.3-0.1c3.3-0.4,5.7,0.4,9.5,1.7c0.9,0.5-0.9-2.3,1.1-4.2
			c2-2,4.1-1.5,4.1-1.5S41.7,26.1,42.9,24z"/>
		
			<linearGradient id="SVGID_37_" gradientUnits="userSpaceOnUse" x1="1052.4037" y1="-2840.2744" x2="1051.3613" y2="-2840.605" gradientTransform="matrix(0.888 0.4598 -0.4048 0.7818 -2047.2015 1759.1437)">
			<stop  offset="0" style="stop-color:#4F7A2D"/>
			<stop  offset="0.236" style="stop-color:#537F2E"/>
			<stop  offset="0.5514" style="stop-color:#5F8E2F"/>
			<stop  offset="0.9104" style="stop-color:#76A830"/>
			<stop  offset="1" style="stop-color:#7DB030"/>
		</linearGradient>
		<path class="st36" d="M27.4,32.1c0,0,11.5-13.6,19.2-19.2c-1.5,1.4-4.3,3.9-7.1,6.7c-3.5,3.5-7.1,7.3-10.7,11.1
			C28.4,31.1,27.9,31.8,27.4,32.1z"/>
		
			<linearGradient id="SVGID_38_" gradientUnits="userSpaceOnUse" x1="1063.4639" y1="-2844.0657" x2="1055.0344" y2="-2849.4043" gradientTransform="matrix(0.888 0.4598 -0.4048 0.7818 -2047.2015 1759.1437)">
			<stop  offset="0" style="stop-color:#4F7A2D"/>
			<stop  offset="0.1978" style="stop-color:#537F2F"/>
			<stop  offset="0.4622" style="stop-color:#608D33"/>
			<stop  offset="0.7631" style="stop-color:#78A63B"/>
			<stop  offset="1" style="stop-color:#91C144"/>
		</linearGradient>
		<path class="st37" d="M39.3,20.3c0,0,2.8-0.1,6.4,1.6c-0.7-1.2-2.1-5.1,1.1-8.9C47.3,12.5,42.4,17.1,39.3,20.3z"/>
		
			<linearGradient id="SVGID_39_" gradientUnits="userSpaceOnUse" x1="1062.6597" y1="-2835.083" x2="1052.5494" y2="-2842.6658" gradientTransform="matrix(0.888 0.4598 -0.4048 0.7818 -2047.2015 1759.1437)">
			<stop  offset="0" style="stop-color:#4F7A2D"/>
			<stop  offset="0.1978" style="stop-color:#537F2F"/>
			<stop  offset="0.4622" style="stop-color:#608D33"/>
			<stop  offset="0.7631" style="stop-color:#78A63B"/>
			<stop  offset="1" style="stop-color:#91C144"/>
		</linearGradient>
		<path class="st38" d="M45.3,22c0,0-3.9-1.5-6.4-1.2c-0.8,0.8-4.5,4.7-4.5,4.7s5.4-0.4,9,2.1C42.1,26.3,41.5,23.2,45.3,22z"/>
		
			<linearGradient id="SVGID_40_" gradientUnits="userSpaceOnUse" x1="1062.0089" y1="-2828.5774" x2="1051.4016" y2="-2836.5444" gradientTransform="matrix(0.888 0.4598 -0.4048 0.7818 -2047.2015 1759.1437)">
			<stop  offset="0" style="stop-color:#4F7A2D"/>
			<stop  offset="0.1978" style="stop-color:#537F2F"/>
			<stop  offset="0.4622" style="stop-color:#608D33"/>
			<stop  offset="0.7631" style="stop-color:#78A63B"/>
			<stop  offset="1" style="stop-color:#91C144"/>
		</linearGradient>
		<path class="st39" d="M43,27.7c0,0-5.5,1-4,5.8c-3-2.3-7.2-3.9-8.7-3.9c1-1.1,3.6-3.7,3.6-3.7S39.7,25.5,43,27.7z"/>
		
			<linearGradient id="SVGID_41_" gradientUnits="userSpaceOnUse" x1="1058.0599" y1="-2824.6658" x2="1050.1074" y2="-2830.6387" gradientTransform="matrix(0.888 0.4598 -0.4048 0.7818 -2047.2015 1759.1437)">
			<stop  offset="0" style="stop-color:#4F7A2D"/>
			<stop  offset="0.1978" style="stop-color:#537F2F"/>
			<stop  offset="0.4622" style="stop-color:#608D33"/>
			<stop  offset="0.7631" style="stop-color:#78A63B"/>
			<stop  offset="1" style="stop-color:#91C144"/>
		</linearGradient>
		<path class="st40" d="M38.8,33.6c0,0-4.4-3.1-8.7-3.7c-0.5,0.4-2.4,2.3-2.4,2.3S31.6,30.5,38.8,33.6z"/>
		
			<linearGradient id="SVGID_42_" gradientUnits="userSpaceOnUse" x1="1056.6837" y1="-2844.3218" x2="1056.3693" y2="-2845.1458" gradientTransform="matrix(0.888 0.4598 -0.4048 0.7818 -2047.2015 1759.1437)">
			<stop  offset="0" style="stop-color:#6A9B2F"/>
			<stop  offset="0.2724" style="stop-color:#6F9F32"/>
			<stop  offset="0.6362" style="stop-color:#7EAD39"/>
			<stop  offset="1" style="stop-color:#93C246"/>
		</linearGradient>
		<path class="st41" d="M39.3,20.4c0,0,2-0.1,6.5,1.5C45.2,21.5,39.5,19.5,39.3,20.4z"/>
		
			<linearGradient id="SVGID_43_" gradientUnits="userSpaceOnUse" x1="1055.8748" y1="-2836.9399" x2="1055.4165" y2="-2838.1406" gradientTransform="matrix(0.888 0.4598 -0.4048 0.7818 -2047.2015 1759.1437)">
			<stop  offset="0" style="stop-color:#6A9B2F"/>
			<stop  offset="0.2724" style="stop-color:#6F9F32"/>
			<stop  offset="0.6362" style="stop-color:#7EAD39"/>
			<stop  offset="1" style="stop-color:#93C246"/>
		</linearGradient>
		<path class="st42" d="M34.4,25.4c0,0,5-0.1,8.9,2.1c-1.8-1.4-5.2-2.2-7.2-2.3C35,25.2,34.5,25.1,34.4,25.4z"/>
		
			<linearGradient id="SVGID_44_" gradientUnits="userSpaceOnUse" x1="1054.8021" y1="-2828.9392" x2="1053.8103" y2="-2831.5383" gradientTransform="matrix(0.888 0.4598 -0.4048 0.7818 -2047.2015 1759.1437)">
			<stop  offset="0" style="stop-color:#6A9B2F"/>
			<stop  offset="0.2724" style="stop-color:#6F9F32"/>
			<stop  offset="0.6362" style="stop-color:#7EAD39"/>
			<stop  offset="1" style="stop-color:#93C246"/>
		</linearGradient>
		<path class="st43" d="M30.4,29.6c0,0,3.9,0.7,8.6,3.9c-0.7-0.9-4.1-3-6.9-3.7C31,29.4,30.5,29.2,30.4,29.6z"/>
		
			<linearGradient id="SVGID_45_" gradientUnits="userSpaceOnUse" x1="1054.9086" y1="-2845.957" x2="1051.9567" y2="-2853.6931" gradientTransform="matrix(0.888 0.4598 -0.4048 0.7818 -2047.2015 1759.1437)">
			<stop  offset="0" style="stop-color:#3D6F2D"/>
			<stop  offset="0.1902" style="stop-color:#41742E"/>
			<stop  offset="0.4445" style="stop-color:#4C8230"/>
			<stop  offset="0.7337" style="stop-color:#629B32"/>
			<stop  offset="1" style="stop-color:#7EBA33"/>
		</linearGradient>
		<path class="st44" d="M46.7,12.6c0,0-4,2.5-8.4,6.9c0.3-0.9,0.4-4.2-0.9-6.7c1,0.7,4.3,1.5,6.2,0.8C45.5,12.9,46.3,12.6,46.7,12.6
			z"/>
		
			<linearGradient id="SVGID_46_" gradientUnits="userSpaceOnUse" x1="1050.4276" y1="-2837.6631" x2="1045.9635" y2="-2849.3621" gradientTransform="matrix(0.888 0.4598 -0.4048 0.7818 -2047.2015 1759.1437)">
			<stop  offset="0" style="stop-color:#3D6F2D"/>
			<stop  offset="0.1902" style="stop-color:#41742E"/>
			<stop  offset="0.4445" style="stop-color:#4C8230"/>
			<stop  offset="0.7337" style="stop-color:#629B32"/>
			<stop  offset="1" style="stop-color:#7EBA33"/>
		</linearGradient>
		<path class="st45" d="M37.2,12.9c0,0,1.5,4.2,0.5,7.1c-1.3,1.2-4.5,4.6-4.5,4.6s0.3-5-1.9-8.9C32.6,16.2,35.9,17.2,37.2,12.9z"/>
		
			<linearGradient id="SVGID_47_" gradientUnits="userSpaceOnUse" x1="1047.9235" y1="-2831.1035" x2="1043.2394" y2="-2843.3789" gradientTransform="matrix(0.888 0.4598 -0.4048 0.7818 -2047.2015 1759.1437)">
			<stop  offset="0" style="stop-color:#3D6F2D"/>
			<stop  offset="0.1902" style="stop-color:#41742E"/>
			<stop  offset="0.4445" style="stop-color:#4C8230"/>
			<stop  offset="0.7337" style="stop-color:#629B32"/>
			<stop  offset="1" style="stop-color:#7EBA33"/>
		</linearGradient>
		<path class="st46" d="M31.3,16.2c0,0,1.9,4.1,1.6,8.8c-0.8,1.1-3.3,3.9-3.3,3.9s-0.5-4.1-3.2-7.8C28,21.2,31.9,21.4,31.3,16.2z"/>
		
			<linearGradient id="SVGID_48_" gradientUnits="userSpaceOnUse" x1="1047.7499" y1="-2826.8025" x2="1044.0491" y2="-2836.5015" gradientTransform="matrix(0.888 0.4598 -0.4048 0.7818 -2047.2015 1759.1437)">
			<stop  offset="0" style="stop-color:#3D6F2D"/>
			<stop  offset="0.1902" style="stop-color:#41742E"/>
			<stop  offset="0.4445" style="stop-color:#4C8230"/>
			<stop  offset="0.7337" style="stop-color:#629B32"/>
			<stop  offset="1" style="stop-color:#7EBA33"/>
		</linearGradient>
		<path class="st47" d="M26.4,21.5c0,0,2.6,3.6,2.9,7.8c-0.3,0.5-2.1,2.6-2.1,2.6S28.4,28.5,26.4,21.5z"/>
		
			<linearGradient id="SVGID_49_" gradientUnits="userSpaceOnUse" x1="1049.8052" y1="-2846.7415" x2="1050.9148" y2="-2847.697" gradientTransform="matrix(0.888 0.4598 -0.4048 0.7818 -2047.2015 1759.1437)">
			<stop  offset="0" style="stop-color:#3D6F2D"/>
			<stop  offset="0.1902" style="stop-color:#41742E"/>
			<stop  offset="0.4445" style="stop-color:#4C8230"/>
			<stop  offset="0.7337" style="stop-color:#629B32"/>
			<stop  offset="1" style="stop-color:#7EBA33"/>
		</linearGradient>
		<path class="st48" d="M37.4,12.8c0,0,1.4,3.8,0.7,6.8c0.2-0.1,0.6-0.7,0.3-3.2C38.2,13.8,37.4,12.8,37.4,12.8z"/>
		
			<linearGradient id="SVGID_50_" gradientUnits="userSpaceOnUse" x1="1045.2739" y1="-2832.686" x2="1046.2322" y2="-2833.7566" gradientTransform="matrix(0.888 0.4598 -0.4048 0.7818 -2047.2015 1759.1437)">
			<stop  offset="0" style="stop-color:#3D6F2D"/>
			<stop  offset="0.1902" style="stop-color:#41742E"/>
			<stop  offset="0.4445" style="stop-color:#4C8230"/>
			<stop  offset="0.7337" style="stop-color:#629B32"/>
			<stop  offset="1" style="stop-color:#7EBA33"/>
		</linearGradient>
		<path class="st49" d="M26.5,21.1c0,0,2.5,3.4,3.2,7.9c0.2-0.1,0.2-0.6-0.5-2.9C28.2,23.2,26.5,21.1,26.5,21.1z"/>
		
			<linearGradient id="SVGID_51_" gradientUnits="userSpaceOnUse" x1="1046.9838" y1="-2839.9531" x2="1047.8372" y2="-2840.688" gradientTransform="matrix(0.888 0.4598 -0.4048 0.7818 -2047.2015 1759.1437)">
			<stop  offset="0" style="stop-color:#3D6F2D"/>
			<stop  offset="0.1902" style="stop-color:#41742E"/>
			<stop  offset="0.4445" style="stop-color:#4C8230"/>
			<stop  offset="0.7337" style="stop-color:#629B32"/>
			<stop  offset="1" style="stop-color:#7EBA33"/>
		</linearGradient>
		<path class="st50" d="M31.4,15.8c0,0,2.2,4.8,1.9,8.8c0.2-0.1,0.3-2.7-0.2-4.4C32.2,16.9,31.4,15.8,31.4,15.8z"/>
	</g>
	<path class="st51" d="M32.3,32.2c0,0,3.6,0.7,4,0.8c0.4,0.1,1.4-0.4,2.2-1.6c0.8-1.2,1.5-6.4-4-7.8c-0.7-0.4-2.6-1.9-5.1,0.1
		c-0.6-0.7-3.7-3.6-6.8-3.6c-3.2,0-6.4,5.5-6.5,7.2C16,28.9,18,31.4,18.8,32c-0.7,1.7-0.7,5.9,0.5,7.5c1.2,1.6,3.2,2.7,4.3,2.9
		c0-0.6,0-1.7,0-1.7S26.7,32.1,32.3,32.2z"/>
	<g>
		
			<radialGradient id="SVGID_52_" cx="1458.0468" cy="881.975" r="7.5275" gradientTransform="matrix(0.7038 -0.7104 0.7104 0.7038 -1622.196 443.6747)" gradientUnits="userSpaceOnUse">
			<stop  offset="8.950540e-002" style="stop-color:#E63521"/>
			<stop  offset="0.2084" style="stop-color:#E62E1E"/>
			<stop  offset="0.3594" style="stop-color:#E41715"/>
			<stop  offset="0.3867" style="stop-color:#E30D13"/>
			<stop  offset="0.6508" style="stop-color:#9C1915"/>
			<stop  offset="0.6878" style="stop-color:#9F1E18"/>
			<stop  offset="0.7447" style="stop-color:#A52822"/>
			<stop  offset="0.8143" style="stop-color:#AF3936"/>
			<stop  offset="0.8932" style="stop-color:#BF5357"/>
			<stop  offset="0.9425" style="stop-color:#C96771"/>
		</radialGradient>
		<circle class="st52" cx="31.8" cy="29.1" r="6"/>
		
			<radialGradient id="SVGID_53_" cx="1457.4371" cy="898.5876" r="3.1497" gradientTransform="matrix(0.7038 -0.7104 0.6994 0.6928 -1624.6802 440.3682)" gradientUnits="userSpaceOnUse">
			<stop  offset="0.1553" style="stop-color:#F5A684"/>
			<stop  offset="0.2918" style="stop-color:#F49C78"/>
			<stop  offset="0.5405" style="stop-color:#F07E59"/>
			<stop  offset="0.871" style="stop-color:#E94A2E"/>
			<stop  offset="0.9819" style="stop-color:#E63521"/>
		</radialGradient>
		<path class="st53" d="M31.7,26.4c0.8,0.8,0.8,2.2,0,3c-0.8,0.9-2.2,0.9-3,0.1c0.3-0.8,1.1-1.7,0.9-3.4
			C29.7,25.8,30.9,25.5,31.7,26.4z"/>
		
			<radialGradient id="SVGID_54_" cx="1460.7635" cy="885.9144" r="2.294" gradientTransform="matrix(0.7038 -0.7104 0.7104 0.7038 -1622.196 443.6747)" gradientUnits="userSpaceOnUse">
			<stop  offset="0" style="stop-color:#2D0E0F"/>
			<stop  offset="0.133" style="stop-color:#351112"/>
			<stop  offset="0.3753" style="stop-color:#4D1918"/>
			<stop  offset="0.6968" style="stop-color:#731D19"/>
			<stop  offset="0.9819" style="stop-color:#9D1915"/>
		</radialGradient>
		<path class="st54" d="M35.9,28.5c-0.1,0.3-0.3,0.5-0.3,0.5s0.1,0.2,0,0.4c-0.1,0.2-0.2,0.3-0.1,0.4c0.1,0.1,0.1,0.1,0.1,0.3
			c0,0.2-0.1,0.4,0.1,0.4c0.1,0,0,0.2,0.1,0.3c0.1,0.2,0.3,0.2,0.3,0.1c0.1-0.2,0.2-0.1,0.3-0.3c0.1-0.2-0.1-0.2,0.1-0.4
			c0.2-0.2,0.2-0.2,0.1-0.4c0-0.2,0-0.2,0-0.4c0.1-0.2,0.1-0.3,0-0.4c-0.1-0.1-0.1-0.2,0-0.4c0-0.2-0.1-0.3-0.1-0.3s-0.1,0-0.1-0.1
			c0-0.2,0-0.2-0.2,0C36.2,28.3,36,28.1,35.9,28.5z"/>
		
			<radialGradient id="SVGID_55_" cx="1463.8008" cy="877.6633" r="3.5207" gradientTransform="matrix(0.7038 -0.7104 0.7104 0.7038 -1622.196 443.6747)" gradientUnits="userSpaceOnUse">
			<stop  offset="0.1553" style="stop-color:#F5A684"/>
			<stop  offset="0.262" style="stop-color:#F4A27F"/>
			<stop  offset="0.3915" style="stop-color:#F29571"/>
			<stop  offset="0.5328" style="stop-color:#EE7E59"/>
			<stop  offset="0.6826" style="stop-color:#E95D3C"/>
			<stop  offset="0.8376" style="stop-color:#E32E1D"/>
			<stop  offset="0.8883" style="stop-color:#E01714"/>
		</radialGradient>
		<path class="st55" d="M31.6,23.8c0.8-0.2,2.1,0.4,1.4,0.8C32.2,24.9,29.6,24.2,31.6,23.8z"/>
	</g>
	
		<radialGradient id="SVGID_56_" cx="1450.5753" cy="876.3638" r="11.1542" gradientTransform="matrix(0.7038 -0.7104 0.7104 0.7038 -1622.196 443.6747)" gradientUnits="userSpaceOnUse">
		<stop  offset="0.2347" style="stop-color:#2D0E0F"/>
		<stop  offset="0.2394" style="stop-color:#2D0E0F"/>
		<stop  offset="0.7532" style="stop-color:#7B1D19"/>
		<stop  offset="0.9819" style="stop-color:#9D1915"/>
	</radialGradient>
	<path class="st56" d="M26.8,26.3c0,0,0.5-1.2,1-1.7c0.4-0.5,1.6-1.3,1.4-0.7c-0.2,0.5-0.1,1.4,0.1,2.1c0.1,0.7-0.6,2.4-0.9,2.9
		c-0.3,0.5-0.6,1.4,0,1.7c0.6,0.4,2.8,2.3,2.7,3.3c-0.1,1.1-0.7,1.1-1.3,0.8c-0.6-0.3-5.3-4.3-5.3-4.3L26.8,26.3z"/>
	<g>
		
			<radialGradient id="SVGID_57_" cx="1447.7773" cy="881.0652" r="7.3601" gradientTransform="matrix(0.7038 -0.7104 0.7104 0.7038 -1622.196 443.6747)" gradientUnits="userSpaceOnUse">
			<stop  offset="8.950540e-002" style="stop-color:#E63521"/>
			<stop  offset="0.2084" style="stop-color:#E62E1E"/>
			<stop  offset="0.3594" style="stop-color:#E41715"/>
			<stop  offset="0.3867" style="stop-color:#E30D13"/>
			<stop  offset="0.6508" style="stop-color:#9C1915"/>
			<stop  offset="0.6878" style="stop-color:#9F1E18"/>
			<stop  offset="0.7447" style="stop-color:#A52822"/>
			<stop  offset="0.8143" style="stop-color:#AF3936"/>
			<stop  offset="0.8932" style="stop-color:#BF5357"/>
			<stop  offset="0.9425" style="stop-color:#C96771"/>
		</radialGradient>
		<circle class="st57" cx="23.9" cy="35.7" r="5.9"/>
		
			<radialGradient id="SVGID_58_" cx="1446.8922" cy="897.2783" r="3.1738" gradientTransform="matrix(0.7038 -0.7104 0.6994 0.6928 -1624.6802 440.3682)" gradientUnits="userSpaceOnUse">
			<stop  offset="0.1553" style="stop-color:#F5A684"/>
			<stop  offset="0.2918" style="stop-color:#F49C78"/>
			<stop  offset="0.5405" style="stop-color:#F07E59"/>
			<stop  offset="0.871" style="stop-color:#E94A2E"/>
			<stop  offset="0.9819" style="stop-color:#E63521"/>
		</radialGradient>
		<path class="st58" d="M23.4,33.1c0.8,0.8,0.8,2.1,0,2.9c-0.8,0.8-2.1,0.9-2.9,0.1c-0.8-0.8-0.8-2.1,0-2.9
			C21.2,32.7,22.1,33.3,23.4,33.1z"/>
		
			<radialGradient id="SVGID_59_" cx="1450.4342" cy="884.9164" r="2.2428" gradientTransform="matrix(0.7038 -0.7104 0.7104 0.7038 -1622.196 443.6747)" gradientUnits="userSpaceOnUse">
			<stop  offset="0" style="stop-color:#2D0E0F"/>
			<stop  offset="0.133" style="stop-color:#351112"/>
			<stop  offset="0.3753" style="stop-color:#4D1918"/>
			<stop  offset="0.6968" style="stop-color:#731D19"/>
			<stop  offset="0.9819" style="stop-color:#9D1915"/>
		</radialGradient>
		<path class="st59" d="M27.9,35.1c0,0.3-0.3,0.5-0.3,0.5s0.1,0.2,0,0.4c-0.1,0.2-0.2,0.3-0.1,0.4c0.1,0.1,0.1,0.1,0.1,0.3
			c0,0.2-0.1,0.4,0.1,0.4c0.1,0,0,0.2,0.1,0.3c0.1,0.2,0.2,0.2,0.3,0.1c0.1-0.2,0.2-0.1,0.3-0.3c0.1-0.2-0.1-0.2,0.1-0.4
			c0.2-0.2,0.2-0.2,0.1-0.4c0-0.1,0-0.2,0-0.4c0.1-0.2,0.1-0.3,0-0.4c-0.1-0.1-0.1-0.2,0-0.4c0-0.2-0.1-0.3-0.1-0.3s-0.1,0-0.1-0.1
			c0-0.2,0-0.2-0.2,0C28.2,35,28,34.8,27.9,35.1z"/>
	</g>
	
		<radialGradient id="SVGID_60_" cx="1452.7439" cy="876.287" r="5.4109" gradientTransform="matrix(0.7038 -0.7104 0.7104 0.7038 -1622.196 443.6747)" gradientUnits="userSpaceOnUse">
		<stop  offset="0.2347" style="stop-color:#2D0E0F"/>
		<stop  offset="0.2394" style="stop-color:#2D0E0F"/>
		<stop  offset="0.7532" style="stop-color:#7B1D19"/>
		<stop  offset="0.9819" style="stop-color:#9D1915"/>
	</radialGradient>
	<path class="st60" d="M21,30.2c0,0-0.8,0.8-1.3,1.4c-0.5,0.6,1.2,1.5,3,1.3c1.8-0.2,2.5-1.1,3.7-1.1c1.2,0,1.4-0.6,0.8-1
		c-0.6-0.4-1.5-0.8-2-0.9C24.7,29.8,21,30.2,21,30.2z"/>
	<g>
		
			<radialGradient id="SVGID_61_" cx="1453.2761" cy="872.6246" r="7.5272" gradientTransform="matrix(0.7038 -0.7104 0.7104 0.7038 -1622.196 443.6747)" gradientUnits="userSpaceOnUse">
			<stop  offset="8.950540e-002" style="stop-color:#E63521"/>
			<stop  offset="0.2084" style="stop-color:#E62E1E"/>
			<stop  offset="0.3594" style="stop-color:#E41715"/>
			<stop  offset="0.3867" style="stop-color:#E30D13"/>
			<stop  offset="0.6508" style="stop-color:#9C1915"/>
			<stop  offset="0.6878" style="stop-color:#9F1E18"/>
			<stop  offset="0.7447" style="stop-color:#A52822"/>
			<stop  offset="0.8143" style="stop-color:#AF3936"/>
			<stop  offset="0.8932" style="stop-color:#BF5357"/>
			<stop  offset="0.9425" style="stop-color:#C96771"/>
		</radialGradient>
		<circle class="st61" cx="21.8" cy="25.9" r="6"/>
		
			<radialGradient id="SVGID_62_" cx="1452.3912" cy="888.912" r="3.1517" gradientTransform="matrix(0.7038 -0.7104 0.6994 0.6928 -1624.6802 440.3682)" gradientUnits="userSpaceOnUse">
			<stop  offset="0.1553" style="stop-color:#F5A684"/>
			<stop  offset="0.2918" style="stop-color:#F49C78"/>
			<stop  offset="0.5405" style="stop-color:#F07E59"/>
			<stop  offset="0.871" style="stop-color:#E94A2E"/>
			<stop  offset="0.9819" style="stop-color:#E63521"/>
		</radialGradient>
		<path class="st62" d="M21.4,23.4c0.8,0.8,0.8,2.1,0,2.9c-0.8,0.8-2.1,0.9-2.9,0.1c-0.8-0.8-0.8-2.1,0-2.9
			C19.3,22.7,20.6,22.7,21.4,23.4z"/>
		
			<radialGradient id="SVGID_63_" cx="1455.9932" cy="876.5641" r="2.2937" gradientTransform="matrix(0.7038 -0.7104 0.7104 0.7038 -1622.196 443.6747)" gradientUnits="userSpaceOnUse">
			<stop  offset="0" style="stop-color:#2D0E0F"/>
			<stop  offset="0.133" style="stop-color:#351112"/>
			<stop  offset="0.3753" style="stop-color:#4D1918"/>
			<stop  offset="0.6968" style="stop-color:#731D19"/>
			<stop  offset="0.9819" style="stop-color:#9D1915"/>
		</radialGradient>
		<path class="st63" d="M25.9,25.3c-0.1,0.3-0.3,0.5-0.3,0.5s0.1,0.2,0,0.4c-0.1,0.2-0.2,0.3-0.1,0.4c0.1,0.1,0.1,0.1,0.1,0.3
			c0,0.2-0.1,0.4,0.1,0.4c0.1,0,0,0.2,0.1,0.3c0.1,0.2,0.3,0.2,0.3,0.1c0.1-0.2,0.2-0.1,0.3-0.3c0.1-0.2-0.1-0.2,0.1-0.4
			c0.2-0.2,0.2-0.2,0.1-0.4c0-0.2,0-0.2,0-0.4c0.1-0.2,0.1-0.3,0-0.4c-0.1-0.1-0.1-0.2,0-0.4c0-0.2-0.1-0.3-0.1-0.3s-0.1,0-0.1-0.1
			c0-0.2,0-0.2-0.2,0C26.2,25.1,26,24.9,25.9,25.3z"/>
		
			<radialGradient id="SVGID_64_" cx="1459.0302" cy="868.3121" r="3.5211" gradientTransform="matrix(0.7038 -0.7104 0.7104 0.7038 -1622.196 443.6747)" gradientUnits="userSpaceOnUse">
			<stop  offset="0.1553" style="stop-color:#F5A684"/>
			<stop  offset="0.262" style="stop-color:#F4A27F"/>
			<stop  offset="0.3915" style="stop-color:#F29571"/>
			<stop  offset="0.5328" style="stop-color:#EE7E59"/>
			<stop  offset="0.6826" style="stop-color:#E95D3C"/>
			<stop  offset="0.8376" style="stop-color:#E32E1D"/>
			<stop  offset="0.8883" style="stop-color:#E01714"/>
		</radialGradient>
		<path class="st64" d="M21.6,20.6c0.8-0.2,2.1,0.4,1.4,0.8C22.2,21.7,19.6,21.1,21.6,20.6z"/>
	</g>
</g>
</svg>
