<?xml version="1.0" encoding="utf-8"?>
<!-- Generator: Adobe Illustrator 19.2.1, SVG Export Plug-In . SVG Version: 6.00 Build 0)  -->
<svg version="1.1" id="Слой_1" xmlns="http://www.w3.org/2000/svg" xmlns:xlink="http://www.w3.org/1999/xlink" x="0px" y="0px"
	 viewBox="0 0 50 50" style="enable-background:new 0 0 50 50;" xml:space="preserve">
<style type="text/css">
	.st0{fill:#DE8B12;stroke:#A85A23;stroke-width:2;stroke-miterlimit:10;}
	.st1{fill:#EBB954;}
	.st2{fill:#D27B3C;stroke:#D4702C;stroke-miterlimit:10;}
	.st3{opacity:0.2;fill:none;stroke:#D59461;stroke-width:2;stroke-miterlimit:10;}
	.st4{opacity:0.2;}
	.st5{fill:#D59461;}
	.st6{opacity:0.1;}
	.st7{fill:#291305;}
	.st8{fill:#E8B31B;}
</style>
<g>
	<path class="st0" d="M1.9,20.2c0,0-4.2,13.8,9.7,17.8c0,0,15.9,4,28.6-0.9c0,0,10-3.1,7.5-15.7L1.9,20.2z"/>
	<path class="st1" d="M2.6,23.1l1.6,1c0,0-0.9,5.5,1.2,5.3c0,0,1.2,0.1,1.8-0.7c0,0,1.4-2.3,2.7,0c0,0,0.6,0.8,1.2,2.7
		c0,0,1.1,3.4,3.5,3.3c0,0,0.8-0.3,1.3-1.7c0,0,0.3-1,1.8-0.9c0,0,1,0,2.1,1.7c0,0,1.1,1.3,3.9-0.2l1.5-1c0,0,1-0.9,2.4,0
		c0,0,2.2,1.7,4.1,0.5c0,0,0.8-0.5,1-1.7c0,0,0.1-1.5,1.7-1.2c0,0,0.6,0,2.4,1.5c0,0,2,1.5,2.5-0.1c0,0,0.4-2,1.7-1.5
		c0,0,2.5,1.1,2.3-1.3c0,0-0.3-3.1,1.7-1.5c0,0,2,1.2,0.2,3.1c0,0-4.3,6.8-14.9,7.6c0,0-16.4,1.9-23.6-4.7
		C6.6,33.1,3.1,30.3,2.6,23.1z"/>
	<path class="st2" d="M42.9,14.5c-10-6-26.4-3.4-26.4-3.4c-16.3,2.8-15,11.4-15,11.4c0.3,0.6,1.4,0.2,1.4,0.2
		C4.8,22.3,4.2,24,4.2,24L4,26.8C4,27.7,4.8,28,4.8,28c1.6,0.4,1.8-0.1,1.8-0.1c0.7-1.1,1.8-1.4,1.8-1.4c2-0.4,2.6,3.1,2.6,3.1
		c0.8,3.1,2.9,3.7,2.9,3.7c1.4,0.3,1.7-0.9,1.7-0.9c0.6-1.5,1.7-1.7,1.7-1.7c1.2-0.3,2,0.8,2,0.8c0.9,1.4,1.8,1.2,1.8,1.2
		c2.1,0.3,3.9-1.5,3.9-1.5c1.4-1.2,3,0.1,3,0.1c1.3,0.8,2.4,0.8,2.4,0.8c1.6,0,2.1-1.5,2.1-1.5c0.6-1.7,1.3-1.9,1.3-1.9
		c1.2-0.3,2.8,1.4,2.8,1.4c1,1.1,1.8,1.1,1.8,1.1c0.7,0.2,1.7-2,1.7-2c0.5-1,1.5-0.3,1.5-0.3c2,0.7,1.9-1,1.9-1
		c-0.2-2.1,0.3-2.4,0.3-2.4c1.1-0.7,1.4,0.5,1.4,0.5c0.4,1.3,0.7,1.1,0.7,1.1c1.2,0.1,0.9-1.1,0.9-1.1l-0.3-2.6
		c-0.1-1.5,0.9-0.5,0.9-0.5c1,0.9,1.3,0.4,1.3,0.4C49,18.6,42.9,14.5,42.9,14.5z M25,20.2c-7.2-0.4-13-1.5-13-3.4
		c0-1.9,5.8-3.4,13-3.4c7.2,0,12.9,1.5,12.9,3.4C37.9,18.6,32.4,20.6,25,20.2z"/>
	<path class="st3" d="M12,16.3c0,0-2.2,3,12.7,3.9c0,0,10,0.5,13-2.9c0,0,0.5-0.7-0.2-1.5"/>
	<g class="st4">
		<path class="st5" d="M44.5,18.5c0,0,0.8,3-0.9,1.9c0,0-0.4-0.3-0.3,0.8c0,0,0.2,0.9-1.3,0.4c0,0-0.5-0.3-0.4,1.3
			c0,0,0.1,0.2-0.3,0.1c0,0-0.6-0.3,0,0.5c0,0,1,1.1,1.1-0.4c0,0,0-1.1,0.7-0.6c0,0,0.8,0.6,0.7-0.9c0,0-0.2-0.8,0.9-0.5
			c0,0,0.6,0.2,0.4-0.8C45.2,20.3,44.9,18.7,44.5,18.5z"/>
		<path class="st5" d="M24.1,23.1c0,0-1.7,2.6-2,0.6c0,0,0-0.5-0.8,0.4c0,0-0.5,0.7-1.2-0.7c0,0-0.1-0.5-1.2,0.6
			c0,0-0.1,0.2-0.3-0.1c0,0-0.2-0.7-0.4,0.3c0,0-0.1,1.5,1.1,0.6c0,0,0.8-0.7,0.9,0.1c0,0,0.1,1,1.1-0.1c0,0,0.4-0.7,1,0.3
			c0,0,0.3,0.6,0.9-0.3C23.3,24.8,24.3,23.5,24.1,23.1z"/>
		<path class="st5" d="M7.3,20.8c0,0-0.1,3.1,1.3,1.6c0,0,0.3-0.4,0.5,0.8c0,0,0,0.9,1.4,0.1c0,0,0.4-0.4,0.7,1.1c0,0-0.1,0.2,0.3,0
			c0,0,0.6-0.4,0.1,0.5c0,0-0.7,1.3-1.2-0.1c0,0-0.3-1-0.8-0.4c0,0-0.6,0.8-0.9-0.7c0,0,0-0.8-1-0.3c0,0-0.6,0.3-0.6-0.7
			C7.1,22.6,7,21,7.3,20.8z"/>
		<path class="st5" d="M44.5,25.1c0,0,0.9,0.1,1.3,1c0,0,0.2,0.5,0.4-0.2C46.2,25.9,46.5,24.8,44.5,25.1z"/>
		<ellipse class="st5" cx="33.9" cy="22.2" rx="0.7" ry="0.2"/>
		<ellipse class="st5" cx="37.3" cy="21.7" rx="0.4" ry="0.2"/>
		<ellipse class="st5" cx="39.1" cy="20.7" rx="0.6" ry="0.2"/>
		<path class="st5" d="M35.7,20.7c0,0,6.2-1.2,4.8-4.1c0,0-0.4-1.1-1.3-1.2c0,0-1.2-0.2-0.2-0.7c0,0,1.7-0.9,2.8,0.6
			c0,0,1.3,2.2-1,3.8C40.8,19.2,39.6,20.5,35.7,20.7z"/>
		<path class="st5" d="M13.6,20.9c0,0-5.3-1.2-4.1-4.1c0,0,0.3-1.1,1.1-1.2c0,0,1-0.2,0.2-0.7c0,0-1.5-0.9-2.4,0.6
			c0,0-1.1,2.2,0.9,3.8C9.3,19.4,10.3,20.7,13.6,20.9z"/>
		<ellipse class="st5" cx="43.2" cy="16.6" rx="0.3" ry="0.2"/>
		<ellipse class="st5" cx="42.7" cy="18.3" rx="0.4" ry="0.2"/>
		<ellipse class="st5" cx="43.1" cy="19.5" rx="0.4" ry="0.2"/>
		<ellipse class="st5" cx="39.5" cy="17.9" rx="0.4" ry="0.1"/>
		<path class="st5" d="M36.1,29.1c0,0,1.7,2.2,2.7,1.1c0,0,0.5-0.8-0.4-0.6C38.3,29.6,37.3,29.9,36.1,29.1z"/>
		<ellipse class="st5" cx="16.4" cy="21.9" rx="0.6" ry="0.3"/>
		<ellipse class="st5" cx="7.1" cy="16.4" rx="0.5" ry="0.2"/>
		<ellipse class="st5" cx="7.4" cy="18.2" rx="0.5" ry="0.4"/>
		<ellipse class="st5" cx="6.9" cy="19.3" rx="0.4" ry="0.2"/>
		<ellipse class="st5" cx="9.3" cy="21.2" rx="0.4" ry="0.2"/>
		<ellipse class="st5" cx="10.8" cy="17.9" rx="0.3" ry="0.3"/>
		<ellipse class="st5" cx="42.9" cy="31.7" rx="0.3" ry="0.3"/>
		<ellipse class="st5" cx="45" cy="28.7" rx="0.3" ry="0.6"/>
		<ellipse class="st5" cx="44.1" cy="27.2" rx="0.2" ry="0.2"/>
		<ellipse class="st5" cx="42" cy="33.7" rx="0.3" ry="0.6"/>
		<ellipse class="st5" cx="43.1" cy="33.6" rx="0.2" ry="0.3"/>
		<ellipse class="st5" cx="45.3" cy="30" rx="0.2" ry="0.4"/>
		<ellipse class="st5" cx="5.6" cy="31.1" rx="0.3" ry="0.5"/>
		<ellipse class="st5" cx="4.2" cy="31.3" rx="0.2" ry="0.3"/>
		<ellipse class="st5" cx="2.2" cy="27.6" rx="0.2" ry="0.3"/>
		<ellipse class="st5" cx="3.1" cy="27.3" rx="0.2" ry="0.3"/>
		<ellipse class="st5" cx="2.3" cy="25.2" rx="0.3" ry="0.6"/>
		<ellipse class="st5" cx="3.4" cy="24.8" rx="0.1" ry="0.3"/>
	</g>
	<g>
		<g class="st6">
			<ellipse class="st7" cx="37.2" cy="28.3" rx="0.9" ry="0.2"/>
		</g>
		<g>
			<ellipse class="st8" cx="37.2" cy="25.4" rx="0.9" ry="0.2"/>
		</g>
	</g>
	<g>
		<g class="st6">
			<ellipse class="st7" cx="24.7" cy="30.2" rx="0.4" ry="0.2"/>
		</g>
		<g>
			<ellipse class="st8" cx="24.7" cy="27.3" rx="0.4" ry="0.2"/>
		</g>
	</g>
	<g>
		<g class="st6">
			<ellipse class="st7" cx="30.8" cy="26" rx="0.4" ry="0.2"/>
		</g>
		<g>
			<ellipse class="st8" cx="30.8" cy="23.1" rx="0.4" ry="0.2"/>
		</g>
	</g>
	<g>
		<g class="st6">
			<ellipse class="st7" cx="36.2" cy="22.6" rx="0.8" ry="0.2"/>
		</g>
		<g>
			<ellipse class="st8" cx="36.2" cy="19.7" rx="0.8" ry="0.2"/>
		</g>
	</g>
	<g>
		<g class="st6">
			<ellipse class="st7" cx="7.6" cy="22" rx="0.4" ry="0.2"/>
		</g>
		<g>
			<ellipse class="st8" cx="7.6" cy="19.1" rx="0.4" ry="0.2"/>
		</g>
	</g>
	<g>
		<g class="st6">
			<ellipse class="st7" cx="14" cy="27" rx="0.4" ry="0.2"/>
		</g>
		<g>
			<ellipse class="st8" cx="14" cy="24.2" rx="0.4" ry="0.2"/>
		</g>
	</g>
	<g>
		<g class="st6">
			<ellipse class="st7" cx="26.4" cy="13.9" rx="0.4" ry="0.2"/>
		</g>
		<g>
			<ellipse class="st8" cx="26.4" cy="11" rx="0.4" ry="0.2"/>
		</g>
	</g>
	<g>
		<g class="st6">
			<ellipse class="st7" cx="43.8" cy="19.4" rx="0.4" ry="0.2"/>
		</g>
		<g>
			<ellipse class="st8" cx="43.8" cy="16.6" rx="0.4" ry="0.2"/>
		</g>
	</g>
	<g>
		<g class="st6">
			<ellipse class="st7" cx="21" cy="24" rx="0.9" ry="0.2"/>
		</g>
		<g>
			<ellipse class="st8" cx="21" cy="21.2" rx="0.9" ry="0.2"/>
		</g>
	</g>
</g>
</svg>
