<?xml version="1.0" encoding="utf-8"?>
<!-- Generator: Adobe Illustrator 19.2.1, SVG Export Plug-In . SVG Version: 6.00 Build 0)  -->
<svg version="1.1" id="Слой_1" xmlns="http://www.w3.org/2000/svg" xmlns:xlink="http://www.w3.org/1999/xlink" x="0px" y="0px"
	 viewBox="0 0 50 50" style="enable-background:new 0 0 50 50;" xml:space="preserve">
<style type="text/css">
	.st0{fill:#D7E48B;}
	.st1{fill:#629B33;}
	.st2{fill:#6BB12F;}
	.st3{fill:#7EBE33;}
	.st4{fill:#B2D01B;}
	.st5{fill:#98C84E;}
	.st6{fill:#3C6230;}
	.st7{fill:url(#SVGID_1_);}
	.st8{fill:#497823;}
	.st9{fill:none;stroke:#EA7CA2;stroke-width:0.613;}
	.st10{fill:#96C62A;}
	.st11{fill:#C1DB8B;}
	.st12{fill:#96C74E;}
	.st13{fill:#9AC84F;}
	.st14{fill:url(#SVGID_2_);}
	.st15{fill:url(#SVGID_3_);}
	.st16{fill:url(#SVGID_4_);}
	.st17{fill:url(#SVGID_5_);}
	.st18{fill:url(#SVGID_6_);}
	.st19{fill:url(#SVGID_7_);}
	.st20{fill:url(#SVGID_8_);}
	.st21{fill:url(#SVGID_9_);}
	.st22{fill:#B9D216;}
	.st23{fill:url(#SVGID_10_);}
	.st24{fill:url(#SVGID_11_);}
	.st25{fill:#ADCE1F;}
</style>
<g>
	<g>
		<path class="st0" d="M48.8,25c-0.1-0.9,0.4-3.5-0.1-4.2c-0.5-0.6-0.3-1-0.6-3c-0.3-2-2.1-3-2.8-3.8c-0.7-0.8-1.4-3.3-1.4-4.5
			c0-1.2-0.6-1.3-1.4-1.5c-0.8-0.2-1.2-1.3-1.5-1.6c-0.3-0.3-2.7-0.4-3.2-1.2c-0.4-0.8-4.7-1.5-5.1-1.1c-0.5,0.4-0.4,0-1.7,0.1
			c-0.9,0.1-0.6,1.9-0.4,2.8c0.3-0.2,0.7-0.5,0.9-1c0.4-1.1,1.8-1.6,2-0.7c0.2,1,0.5,1,0.8,0.4c0.3-0.6,1-1.3,1.2,0
			C35.8,7,35.8,8,36.3,7.6c0.5-0.4,3.3-2.1,3,0.8c-0.3,2.8-0.3,2.9,0.2,2.1c0.5-0.7,2.7-1.5,1.8,1.1c-0.8,2.5,0.3,0.6,0.3,0.6
			s1.1-1.9,0.6,1.3c0,0,2.2-0.8,2,0.5c-0.2,1.3-1.4,1.7-0.7,2.1c0.7,0.5-0.2,1.9,1.5,2.2c1.7,0.2,2.8,0.2,1.8,1.5
			c-0.9,1.3-2.8,1.6-1.6,2.7c1.2,1.1,2.3,2.2,1.8,2.7c-0.5,0.5-1,1.7,0.1,2c0.4,0.1-2,1.7-2,2.2c0.3-0.2,3.2-1.7,3.5-2
			C49.8,26.2,48.9,25.9,48.8,25z"/>
		<path class="st1" d="M42.1,28.7c1-0.4,2.1-0.1,3-0.9c0.9-0.8-4.8-1.7-2.7-1.7c2.1,0.1-0.6-0.8-1.7-1.1c-1.1-0.4,2.2,0,3.7-0.3
			c1.5-0.3-2.3-1.4-4-1.8c-1.6-0.5,1.4-1.6,3-1.9c1.6-0.3,3.8-3.5,1.3-1.9c-2.5,1.6-4.4,0.8-4.4,0.8c-3.7-1.1,0.4-0.3,2.3-4.1
			c1.9-3.8-1.7-0.1-3.5,0.4c-1.8,0.5,0.4-0.3,1.4-2.4c1-2.2-1,0.4-1.8,0.5c-0.9,0.1-0.5-0.1,0.4-1.2c0.9-1.2,1.9-3,0-1.4
			c-2,1.7-1.6-0.1-2-0.1c-0.4,0,0.3-2.5,0.9-4c0.6-1.4-1.9,0.9-2.1,2.6c-0.3,1.7-1.3,0.7-0.9-0.6c0.3-1.3-0.2-1.6-0.7-3
			c-0.5-1.4-0.7,1.5-0.9,1.9C33,8.6,33,8,32.6,5.9c-0.4-2-1.7,0.6-1.9,1.4c-0.1,0.2-0.2,0.4-0.3,0.6l1.6,6l2.8,5.8l3,9.2
			c0,0,0.6,0.2,1.4,0.5C39.3,28.2,41.4,28.9,42.1,28.7z"/>
		<path class="st2" d="M46.6,27.1c-1.1-0.3-0.6-1.6-0.1-2c0.5-0.5-0.6-1.6-1.8-2.7c-1.2-1.1,0.7-1.4,1.6-2.7
			c0.9-1.3-0.2-1.2-1.9-1.5c-1.7-0.2-0.8-1.7-1.5-2.2c-0.7-0.5,0.5-0.9,0.7-2.1c0.2-1.3-2-0.5-2-0.5c0.5-3.2-0.6-1.3-0.6-1.3
			s-1.1,1.9-0.3-0.6c0.8-2.5-1.4-1.8-1.8-1.1c-0.5,0.7-0.5,0.7-0.2-2.1c0.3-2.8-2.5-1.2-3-0.8c-0.5,0.4-0.5-0.6-0.7-1.9
			c-0.2-1.3-0.9-0.6-1.2,0c-0.3,0.6-0.7,0.6-0.8-0.4c-0.2-1-1.6-0.4-2,0.7c-0.2,0.5-0.5,0.8-0.9,1c0.1,0.4,0.2,0.6,0.2,0.6l0.1,0.4
			c0.2-0.2,0.3-0.3,0.3-0.6c0.2-0.8,1.5-3.5,1.9-1.4C33,8,33,8.6,33.3,8.3c0.3-0.3,0.4-3.3,0.9-1.9c0.5,1.4,1,1.7,0.7,3
			c-0.3,1.3,0.6,2.3,0.9,0.6c0.3-1.7,2.8-4,2.1-2.6c-0.6,1.4-1.3,3.9-0.9,4c0.4,0,0,1.8,2,0.1c2-1.6,1,0.2,0,1.4
			c-0.9,1.2-1.3,1.3-0.4,1.2c0.9-0.1,2.8-2.7,1.8-0.5c-1,2.2-3.2,3-1.4,2.4c1.8-0.5,5.4-4.2,3.5-0.4c-1.9,3.8-6,3-2.3,4.1
			c0,0,1.9,0.8,4.4-0.8c2.5-1.6,0.3,1.6-1.3,1.9c-1.6,0.3-4.6,1.4-3,1.9c1.6,0.5,5.5,1.5,4,1.8c-1.5,0.3-4.8,0-3.7,0.3
			c1.1,0.4,3.8,1.2,1.7,1.1c-2.1-0.1,3.6,0.8,2.7,1.7c-0.9,0.8-2,0.5-3,0.9c-0.8,0.3-2.8-0.4-2.9,0.7c1.6,0.5,4,1.2,4.9,1.2
			c1.4-0.1,0.9-0.5,1.1-1.1c0.1-0.5,1.1-0.8,2-1.5C47.2,27.5,47,27.2,46.6,27.1z"/>
		<path class="st3" d="M47.4,25.1c0.2-0.5-0.1-1.9-0.7-2.2c-0.5-0.3-0.8-1.1,0.1-2.8c0.9-1.8-1.2-2.9-1.6-3.1
			c-0.4-0.2-1-1.9-0.8-2.5c0.2-0.6-1-2-1.5-2.2c-0.6-0.2-0.3-0.1-0.2-1.6c0-1.5-1-1.5-1.5-1.7c-0.6-0.2-1.6-0.9-1.6-1.7
			c0-0.7-0.5-1.3-1.7-1.2c-1.2,0.1-1.8-1.1-2.2-1.6c-0.4-0.5-2.2-0.5-2.4-0.5c-0.2,0-1.6,0.3-2.2,0.3c-0.4,0-0.9,0.5-1.2,0.9
			c0,0.5,0.1,1.1,0.3,1.6c0.3-0.2,0.7-0.5,0.9-1c0.4-1.1,1.8-1.6,2-0.7c0.2,1,0.5,1,0.8,0.4c0.3-0.6,1-1.3,1.2,0
			c0.2,1.3,0.2,2.3,0.7,1.9c0.5-0.4,3.3-2.1,3,0.8c-0.3,2.8-0.3,2.9,0.2,2.1c0.5-0.7,2.7-1.5,1.8,1.1C39.9,14,41.1,12,41.1,12
			s1.1-1.9,0.6,1.3c0,0,2.2-0.8,2,0.5c-0.2,1.3-1.4,1.7-0.7,2.1c0.7,0.5-0.2,1.9,1.5,2.2c1.7,0.2,2.8,0.2,1.9,1.5
			c-0.9,1.3-2.8,1.6-1.6,2.7c1.2,1.1,2.3,2.2,1.8,2.7c-0.5,0.5-1,1.7,0.1,2c0.4,0.1,0.6,0.4,0.6,0.9c0.2-0.2,0.4-0.3,0.6-0.5
			C47.4,27,47.2,25.6,47.4,25.1z"/>
		<path class="st4" d="M48.2,24.8c-0.1-0.9,0.4-3.5-0.1-4.2c-0.5-0.6-0.3-1.1-0.6-3c-0.3-2-2.1-3-2.8-3.8c-0.7-0.8-1.4-3.3-1.4-4.5
			c0-1.2-0.6-1.3-1.4-1.5c-0.8-0.2-1.2-1.3-1.5-1.6c-0.3-0.3-2.7-0.4-3.2-1.2c-0.4-0.8-4.7-1.5-5.1-1.1c-0.5,0.4-0.4,0-1.7,0.1
			c-0.5,0.1-0.7,0.6-0.6,1.3c0.3-0.4,0.8-0.9,1.2-0.9c0.6,0,2-0.3,2.2-0.3c0.2,0,2,0,2.4,0.5c0.4,0.5,1,1.7,2.2,1.6
			c1.2-0.1,1.6,0.4,1.7,1.2c0,0.7,1,1.5,1.6,1.7c0.6,0.2,1.6,0.2,1.5,1.7c0,1.5-0.3,1.4,0.2,1.6c0.6,0.2,1.7,1.6,1.5,2.2
			c-0.2,0.6,0.4,2.3,0.8,2.5c0.4,0.2,2.6,1.3,1.6,3.1c-0.9,1.8-0.6,2.5-0.1,2.8c0.5,0.3,0.9,1.7,0.7,2.2c-0.2,0.5,0.1,1.8,0.5,2.3
			c0.1-0.1,0.2-0.2,0.2-0.2C49.2,26.1,48.2,25.7,48.2,24.8z"/>
		<g>
			<g>
				<g>
					<path class="st5" d="M32.5,4.5c-0.2,0.2-0.4,0.4-0.5,0.7c-0.2,0.3-0.4,2.1-0.4,2.1c-0.1,0,0,1.8,0.1,2.2
						c0.1,0.3,0.2,0.5,0.4,0.7c0.1-0.3,0.1-0.5,0-0.8c-0.1-0.3-0.2-2.1-0.1-2.1c0,0,0.2-1.7,0.4-2.1C32.5,5,32.5,4.8,32.5,4.5z"/>
				</g>
			</g>
			<g>
				<g>
					<path class="st5" d="M34.4,5.2c-0.2,0.2-0.3,0.4-0.3,0.7c-0.1,0.3-0.3,1.9-0.3,1.9c0,0-0.2,1.6-0.2,2c0,0.3,0.1,0.5,0.2,0.7
						c0.1-0.3,0.2-0.4,0.2-0.7c0-0.3,0.2-1.9,0.2-1.9c0,0,0.2-1.6,0.3-1.9C34.6,5.6,34.5,5.4,34.4,5.2z"/>
				</g>
			</g>
			<g>
				<g>
					<path class="st5" d="M38,6.9C37.7,7,37.4,7,37.2,7.3c-0.1,0.1-0.6,0.6-0.9,1C36,8.8,36,9.4,36,9.4c0.1,0-0.6,1.7-0.9,2
						c-0.2,0.3-0.2,0.5-0.3,0.8c0.3-0.1,0.5-0.3,0.7-0.5c0.1-0.2,0.4-0.7,0.7-1.2c0.2-0.5,0.3-1,0.3-1c0,0,0-0.4,0.3-0.9
						c0.3-0.4,0.7-0.8,0.8-1C37.7,7.4,37.8,7.2,38,6.9z"/>
				</g>
			</g>
			<g>
				<g>
					<path class="st5" d="M40.5,9.7c-0.2,0.2-0.4,0.3-0.5,0.5c-0.1,0.3-1.1,1.6-1.1,1.6c0,0-1.1,1.1-1.4,1.2
						c-0.2,0.2-0.3,0.3-0.5,0.5c0.3,0,0.5,0,0.8-0.1c0.3-0.1,1.5-1.3,1.5-1.3c0,0,1-1.3,1.2-1.6C40.5,10.2,40.5,10,40.5,9.7z"/>
				</g>
			</g>
			<g>
				<g>
					<path class="st5" d="M43,13.4c-0.4,0.1-0.7,0.3-1.2,0.6c-0.5,0.3-2.8,2-2.8,2c0,0-2.3,1.7-2.7,2.1c-0.4,0.4-0.6,0.6-0.8,1.1
						c0.4-0.2,0.7-0.4,1.1-0.7c0.4-0.4,2.7-2.1,2.7-2.1c0,0,2.3-1.7,2.8-2C42.5,14,42.7,13.8,43,13.4z"/>
				</g>
			</g>
			<g>
				<g>
					<path class="st5" d="M45.3,18.7c-0.5,0.1-0.8,0.2-1.3,0.4c-0.5,0.3-3.3,1.2-3.3,1.1c0,0-0.7,0.2-1.5,0.2
						c-0.8,0.1-1.7,0-1.9-0.1c-0.5-0.1-0.8-0.2-1.3-0.2c0.3,0.3,0.6,0.5,1.2,0.7c0.3,0.1,1.2,0.2,2.1,0.1c0.8-0.1,1.6-0.2,1.6-0.2
						c0,0.1,2.9-0.9,3.4-1.2C44.7,19.2,45,19,45.3,18.7z"/>
				</g>
			</g>
			<g>
				<g>
					<path class="st5" d="M47.8,24.6c-0.5-0.1-0.9-0.1-1.5-0.1c-0.7,0.1-3.9-0.1-3.9-0.2c0,0-0.8-0.1-1.7-0.4
						c-0.9-0.3-1.7-0.7-2-0.9c-0.5-0.3-0.8-0.4-1.3-0.7c0.3,0.4,0.5,0.7,1.1,1.1c0.3,0.2,1.2,0.7,2.1,0.9c0.9,0.3,1.7,0.4,1.7,0.4
						c0,0.1,3.3,0.4,4,0.2C46.9,25,47.3,24.9,47.8,24.6z"/>
				</g>
			</g>
			<g>
				<g>
					<path class="st5" d="M46.2,27.5c-0.3-0.4-0.5-0.6-1-0.9c-0.3-0.1-1.1-0.6-2-0.6c-0.8-0.1-1.6-0.1-1.6-0.1c0,0.1-3-0.4-3.4-0.9
						c-0.4-0.3-0.7-0.4-1.1-0.7c0.2,0.5,0.4,0.8,0.9,1.1c0.5,0.5,3.6,1,3.6,0.9c0,0,0.8,0.1,1.6,0.2c0.8,0.1,1.6,0.4,1.9,0.6
						C45.5,27.3,45.8,27.3,46.2,27.5z"/>
				</g>
			</g>
			<g>
				<g>
					<path class="st5" d="M40,12.9c-0.3,0-0.5,0-0.8,0.2c-0.3,0.1-1.9,1.2-1.9,1.2c0,0-1.4,1.2-1.5,1.6c-0.2,0.3-0.2,0.5-0.1,0.8
						c0.2-0.2,0.4-0.3,0.5-0.6c0.1-0.3,1.4-1.6,1.4-1.5c0,0,1.5-1,1.8-1.2C39.7,13.3,39.8,13.2,40,12.9z"/>
				</g>
			</g>
		</g>
	</g>
	<g>
		<path class="st6" d="M30.3,13.9l-0.8-0.3c0,0-0.7,0.1-1.5,0.2c-0.5,0.1-0.8,0.8-0.9,1.3l0.5,0.9l4.8,0.8c0,0.1,0,0.2,0.1,0.3
			l0.1-0.3C32,15.6,30.3,13.9,30.3,13.9z"/>
		<g>
			<g>
				<path class="st1" d="M26.8,15.1c-0.2,0.8-0.9,1.2-0.4,1.4c0.5,0.2,1.1,0.8,1.7,0.1c0.6-0.8-0.6-2,1.5-0.3c2,1.6,2.3,1.5,2.6,0.8
					c0.1-0.3,0.4-0.7,0.6-0.9c-0.8-0.6-1.7-0.4-1.9-0.3c-0.3,0.1-0.8-0.3-0.8-0.3s-0.6-0.5-0.8-0.3c-0.2,0.2-0.6,0-0.6-0.4
					c0-0.4-0.4-0.4-0.5-0.4c-0.1,0.1-0.3,0-0.3-0.1c0-0.1-0.5-0.5-0.5-0.5l-1,0.1C26.7,14.3,26.9,14.7,26.8,15.1z"/>
				<path class="st2" d="M26.9,18c1-0.5,1.2-0.9,2.2-0.4c1,0.4,2.6,1.7,3.3,0.7c0.4-0.5,0.8-1.1,1.1-1.4c-0.2-0.2-0.5-0.4-0.7-0.6
					c-0.1,0-0.1-0.1-0.2-0.1c-0.3,0.3-0.5,0.6-0.6,0.9c-0.3,0.7-0.5,0.9-2.6-0.8c-2-1.6-0.9-0.4-1.5,0.3c-0.6,0.8-1.2,0.1-1.7-0.1
					c-0.5-0.2,0.3-0.6,0.4-1.4c0.1-0.4-0.2-0.8-0.5-1.2l-1.4,0.2l-0.9,1.1c0.3,0.6,0.7,1.4,0.9,1.8C25.2,17.6,26,18.5,26.9,18z"/>
				<path class="st3" d="M23.4,18.8c0.8-0.1,2.1-0.3,2.4,0c0.3,0.3,2.3,0.5,2.6,0.3c0.2-0.2,3,0,3.5,0c0.4,0,2-0.2,2.8-0.8
					c-0.1-0.4-0.6-0.9-1.2-1.5c-0.3,0.4-0.7,0.9-1.1,1.4c-0.8,1-2.4-0.2-3.3-0.7c-1-0.4-1.2-0.1-2.2,0.4c-1,0.5-1.7-0.5-2-1.1
					c-0.2-0.4-0.6-1.2-0.9-1.8l-1.3,1.5l-0.6,1.4C22.5,18.5,23,18.9,23.4,18.8z"/>
				<path class="st4" d="M23.4,19.3c-0.4-0.1-1.2,0.2-1.9,0.6l0,0l2,0.7l2.4-0.2C25.1,20,23.9,19.5,23.4,19.3z"/>
				<path class="st5" d="M34.8,18.3c-0.8,0.6-2.4,0.8-2.8,0.8c-0.5,0-3.3-0.2-3.5,0c-0.2,0.2-2.3,0-2.6-0.3c-0.3-0.3-1.6-0.1-2.4,0
					c-0.4,0.1-0.9-0.3-1.2-0.7l-0.7,1.8c0.7-0.4,1.4-0.7,1.9-0.6c0.5,0.1,1.7,0.7,2.5,1.1l3.1-0.2c0,0,5.7-1.2,5.8-1.7
					C34.8,18.4,34.8,18.4,34.8,18.3z"/>
			</g>
			<path class="st5" d="M29.2,18.3c0.1-0.2,0-1.5-0.1-1.5c0.1,0-0.4-1.2-0.6-1.3c-0.1-0.1-0.1-0.1-0.2-0.2c0.1-0.2,0.2-0.4,0.3-0.6
				c-0.1-0.3-0.4-0.3-0.5-0.3c0,0-0.1,0-0.1,0c-0.1,0.3-0.3,0.6-0.5,1.1c-0.1,0-0.1,0-0.2,0c-0.2,0-1.1,0.1-1.1,0.1
				c0,0-0.9,0.2-1.1,0.3c-0.2,0.1-0.2,0.1-0.4,0.2c0.2,0,0.3,0,0.4,0c0.2-0.1,1.1-0.3,1.1-0.3c0,0,0.9-0.1,1.1-0.1c0,0,0,0,0.1,0
				c-0.2,0.4-0.4,0.9-0.7,1.4c-0.1,0-0.2,0-0.3,0.1C26.1,17.3,25,17.9,25,18c0,0-1.1,0.7-1.3,0.9c-0.2,0.1-0.3,0.3-0.4,0.4
				c0.2-0.1,0.3-0.1,0.5-0.3c0.2-0.2,1.2-0.9,1.2-0.9c0,0,1.1-0.7,1.3-0.7c0,0,0.1,0,0.1,0c-0.4,0.8-0.8,1.6-1,2.3l0.5,0
				c0,0,1.4-2.6,2.2-4.2c0,0,0.1,0.1,0.1,0.1c0.2,0.2,0.6,1.3,0.6,1.3c0,0,0.2,1.2,0.1,1.4c0,0.2,0,0.3,0,0.5
				C29.1,18.7,29.2,18.6,29.2,18.3z"/>
		</g>
		<g>
			<path class="st0" d="M17.7,30.6c0.6-0.7,1.4,0.2,1.7-1c0.3-1.2,1-1.6,1.3-1.7c0.3-0.1,0.7,0.1,0.6-0.9c-0.1-1,0.6-2.8,1.2-2.4
				c0.6,0.4,1.5,0.2,1.5,0.2s1.5-1,1.9-0.4c0.4,0.6,2.1-1.1,2.3-1.4c0.2-0.3,0.2-1,1-0.5c0.8,0.5,1.3,1.3,1.8,0.6
				c0.5-0.7,1-1.6,1.4-0.8c0.4,0.9,0.3,1,0.7-0.2c0.4-1.1,1.2-2.8,1.4-1.8c0.2,0.9,0.6,3.9,1.5,3.9c0-1.1,0.2-2.4,0.2-2.4
				c0.6-2.3-1-3.1-1.2-3.1c-0.2,0-0.7,0-1.1-0.3c-0.4-0.2-0.7-0.3-1.2,0.2c-0.5,0.5-3.6-0.4-3.9-0.5c-0.4-0.2-1.6,0-2,0.5
				c-0.4,0.4-0.9,0.9-1.6,0.6c-0.7-0.3-2.9,0.4-2.9,0.4L20.6,21c0,0-2.5,1.8-4.2,5.6c-1.7,3.7-1.5,5.7-1.5,5.7s0.8,0.6,1.3,0.9
				c0.4,0.3,0.6,0.4,1,1c0.1,0.2,0.3,0.4,0.5,0.5c0-0.1,0-0.3-0.1-0.6C17.2,32.9,17,31.3,17.7,30.6z"/>
			
				<radialGradient id="SVGID_1_" cx="249.0518" cy="1298.8103" r="75.272" gradientTransform="matrix(0.2862 7.850000e-002 -7.850000e-002 0.2862 53.2224 -373.7322)" gradientUnits="userSpaceOnUse">
				<stop  offset="0" style="stop-color:#457D37"/>
				<stop  offset="0.366" style="stop-color:#467F37"/>
				<stop  offset="0.5345" style="stop-color:#4C8736"/>
				<stop  offset="0.6364" style="stop-color:#529036"/>
				<stop  offset="1" style="stop-color:#B7C671"/>
			</radialGradient>
			<path class="st7" d="M35.2,29.1c0.2-0.7,0.2-1.6,0.3-1.8c0.1-0.4,0.3-1.1,0.3-1.1c0,0,0-0.1-0.1-0.3c0-0.3,0-0.8,0-1.4
				c0-1.1,0.2-2.4,0.2-2.4c0-0.1,0-0.2,0-0.2c0.4-2.1-1.1-2.9-1.3-2.9c-0.2,0-0.6-0.4-1-0.6c-0.4-0.2-0.8-0.2-1.3,0.3
				c-0.5,0.5-3.5-0.2-3.9-0.3c-0.4-0.2-1.6,0-2,0.5c-0.4,0.4-0.9,0.9-1.6,0.6c-0.7-0.3-2.9,0.4-2.9,0.4l-1.5,1.2
				c0,0-2.5,1.8-4.2,5.6c-1.7,3.7-1.5,5.7-1.5,5.7s0.6,0.4,1,0.7c0.1,0.1,0.2,0.1,0.2,0.2c0.4,0.3,0.6,0.4,1,1
				c0.1,0.2,0.3,0.4,0.5,0.5c0.4,0.3,1,0.5,1.5,0.5c0.4,0,0.4,0,0.5,0.1c0.1,0.1,0.4,0.2,1.1,0.7c0.3,0.2,0.5,0.3,0.8,0.4
				c1.3,0.4,2.6,0.2,2.6,0.2c0.7-0.8,3.9-1.5,3.9-1.5c0.1-0.2,1-0.3,1.3-0.5c0.3-0.1,2.4-1.1,3.3-1.1c1,0,1.7-2.4,1.7-2.4
				s-0.1-0.4,0.4-1C35,29.9,35.1,29.6,35.2,29.1z"/>
			<path class="st8" d="M15.5,29.3L15.1,30c0,0,2.7,5.7,9.1,6.7c0,0,0.3-0.2,0.3-0.2C22.1,34.9,16.5,33.1,15.5,29.3z"/>
			<path class="st8" d="M33.9,28c0-0.3-0.4-1.2-0.2-2.3c0.2-1.1-0.2-4.6-1-5.5c0,0,0.5,4.1,0.2,5.3c-0.3,1.2,0,2,0,2
				s0.2,4.7-1.7,6.5c0.1,0-0.1,0,0,0c0.5-0.4,1.1-1.1,1.3-2C33,30.6,33.9,28.3,33.9,28z"/>
			<path class="st8" d="M31.7,28.4c0.5-1.7,0.6-5.6,0.7-7.3l-0.1-0.6l-0.7,1.3c0,0,0.7,2.3-0.4,6.4c0,0-0.6-5.5-0.7-6.9l0-2.5
				c0,0-0.1,0-0.1,0c-0.2,0.5-0.8,1.7-0.8,2.8c0,1.4,0.2,4,0.4,6.2c0.2,2,0.9,5.8-0.8,7c0.1,0,0.1-0.1,0.1-0.1c0,0,0,0,0,0
				c0.5-0.3,1.1-1,1.5-2.4C30.8,32.3,31.2,30.1,31.7,28.4z"/>
			<path class="st8" d="M27.3,33c0.2-0.6,0.4-2.4,0.6-3.5c0.2-1.1,0.3-5.1,0.3-5.6c-0.1-0.4-0.4-1.2-0.4-1.8c-0.1-0.6,0-2.5,0-2.5
				c-0.1-0.5-0.4-0.9-0.5-0.3c0,0.4-0.1,2-0.2,4c-0.1,2.3,0.1,6.8-0.1,8.3c-0.2,1.5-0.4,1.2-0.4,1.2s0.2-1.5-1.1-3.4
				c-1.3-1.9-1.1-3.2-1.1-3.2c0.9-2.8-0.5-5.4-0.5-5.4l-0.2,0.2c1.3,2.8-0.2,5.7-0.2,5.7c-2.1-1.9-2.3-5.8-2.3-5.8l-0.2,0.2
				c-0.1,0.5,0.6,4.2,1.2,5c0.6,0.8,2.2,4.2,2.2,4.4c0,0,0,0,0,0s0,0,0,0c0,0-0.2-0.2-1.1-0.8c-1.2-0.8-4.7-5.4-4.7-5.4l-0.3,0.3
				c0,0,2.5,4,3,4.3c0.6,0.3,2.5,1.7,3.3,2.5c0.8,0.8,1.4,3,1.4,3s-0.6-0.7-4-2.4c-3.4-1.7-5.2-5.2-5.2-5.2l-0.4,0.3
				c0.2,1.7,2.9,4.6,3.7,5.3c0.8,0.7,4.5,1.8,5.3,2.3c0.5,0.3,1.2,0.4,1.4,0.7c0.5-0.1,0.9-0.2,1.1-0.3C27.6,34.6,27.1,33.5,27.3,33
				z"/>
			<path class="st5" d="M27.5,32.8c0.2-0.6,0.4-2.4,0.6-3.5c0.2-1.1-0.2-5.2-0.3-5.6c-0.1-0.4,0.2-1.1,0.1-1.8
				c-0.1-0.6-0.2-2.5-0.2-2.5c-0.1-0.5-0.6-0.4-0.3-0.2c0.3,0.2-0.2,2,0,4c0.2,2,0,7.2-0.2,8.8c-0.2,1.5-0.5,0.7-0.5,0.7
				s-0.4-1.4-1.7-3.4c-1.3-1.9-0.5-3.2-0.5-3.2c0.9-2.8-0.4-5.1-0.4-5.1l-0.3-0.1c1.3,2.8-0.2,5.7-0.2,5.7c-2.1-1.9-2.2-5.8-2.2-5.8
				L21.1,21c-0.1,0.5,0.9,4.3,1.6,5.1c0.6,0.8,1.8,4.1,1.9,4.4c0,0,0,0,0,0s0,0,0,0c0,0-0.2-0.2-1.1-0.8c-1.2-0.8-4.7-5.4-4.7-5.4
				l-0.3,0.3c0,0,2.6,3.7,3.2,4c0.6,0.3,2.4,2,3.2,2.8c0.8,0.8,1.4,3,1.4,3s-0.8-0.3-4.2-2c-3.4-1.7-5-5.6-5-5.6L16.7,27
				c0.2,1.7,3.7,4.5,4.5,5.3c0.8,0.7,3.9,1.6,4.7,2.1c0.5,0.3,0.8,0.8,1,1.1c0.5-0.1,0.9-0.2,1.1-0.3C27.6,34.6,27.3,33.3,27.5,32.8
				z"/>
			<path class="st9" d="M24.5,30.4C24.5,30.4,24.6,30.4,24.5,30.4C24.6,30.4,24.6,30.4,24.5,30.4z"/>
			<path class="st5" d="M31.5,28.4c0.5-1.7,1-5.6,0.9-7.2l-0.1-0.6l-0.2,1.2c0,0,0.1,3.6-1,7.7c0,0-0.7-6.8-0.8-8.2l0.3-2.4
				c0,0,0,0-0.1,0c-0.2,0.5-0.5,1.7-0.5,2.8c0,1.4,0.3,3.8,0.5,6c0.2,2,0.4,6-1.3,7.3c0.1,0,0.2-0.1,0.3-0.1c0,0,0,0,0,0
				c0.5-0.3,1.1-1,1.5-2.4C30.9,32.4,31,30.1,31.5,28.4z"/>
			<path class="st5" d="M33.7,27.9c0-0.3-0.3-1.2-0.1-2.3c0.2-1.1-0.1-4.5-0.9-5.5c0,0,0.8,4.2,0.5,5.4c-0.3,1.2,0.1,2,0.1,2
				s-0.2,4.7-2.1,6.5c0.1,0,0.1,0,0.2-0.1c0.5-0.4,1.2-1,1.4-1.8C33.2,30.6,33.7,28.2,33.7,27.9z"/>
			<path class="st5" d="M15.5,29.3l-0.2,0.6c0,0,2,4.9,9.1,6.7c0,0,0.1,0,0.1-0.1C22.5,35.8,16.5,33.1,15.5,29.3z"/>
		</g>
		<path class="st0" d="M33,18.3c-0.1,0.1-0.2,0.1-0.2,0.1c-0.1,0-0.5,0.4-0.6,0.5c-0.1,0.1-0.4,0.1-0.5,0.2
			c-0.1,0.1-0.4,0.1-0.6-0.1c-0.3-0.1-0.4-0.1-0.5-0.1c-0.1,0-0.5,0.2-0.7,0.1c-0.2-0.2-0.4-0.3-0.4-0.2c0,0.1-0.7,0.1-0.8-0.1
			c-0.1-0.1,0-0.3-0.2-0.2c-0.2,0.1-0.4,0.2-0.4,0c0-0.1-0.2-0.1-0.3-0.2c-0.5,0.1-0.9,0.2-1.1,0.4c0.5-0.2,1.1,0,1.4,0.1
			c0.4,0.2,4,0.9,4.5,0.2c0.3-0.4,0.6-0.8,0.9-0.8C33.3,18.3,33.1,18.3,33,18.3z"/>
		<g>
			<path class="st1" d="M28.4,18.3c0.3,0.1,0.3-0.1,0.4,0.1c0,0.2,0.5,0.3,0.6,0.1c0.1-0.2,0.6,0,0.7,0.1c0.1,0.1,0.5,0.2,0.5,0.1
				c0-0.1,0.3-0.2,0.5-0.1c0.2,0.1,0.4,0.2,0.5,0.1c0.1-0.1,0.5,0.2,0.6,0c0.1-0.2,0.2-0.3,0.3-0.3c0,0,0.1-0.1,0.3-0.2
				c-0.5,0-1.2,0.2-2.1,0.1c-1.4-0.1-1.5-0.3-2.6-0.2C28.1,18.2,28.2,18.3,28.4,18.3z"/>
			<path class="st3" d="M28.4,18.5c0.2-0.1,0.2-0.1,0.3,0c0.1,0.1,0.8,0.3,0.8,0.2c0-0.1,0.2-0.1,0.4,0c0.2,0.2,0.5,0.1,0.6,0.1
				c0.1,0,0.3-0.2,0.6-0.1c0.3,0.1,0.6,0.1,0.6,0.1c0.1-0.1,0.4,0,0.5-0.1c0.1-0.1,0.5-0.5,0.6-0.5c0,0,0.1,0,0.2-0.1
				c-0.1,0-0.2,0-0.3,0c-0.1,0.1-0.2,0.2-0.3,0.2c-0.1,0-0.2,0.2-0.3,0.3c-0.1,0.2-0.5-0.1-0.6,0c-0.1,0.1-0.4-0.1-0.5-0.1
				c-0.2-0.1-0.4,0-0.5,0.1c0,0.1-0.4,0-0.5-0.1c-0.1-0.1-0.6-0.3-0.7-0.1c-0.1,0.2-0.6,0-0.6-0.1c0-0.2-0.1,0-0.4-0.1
				c-0.2,0-0.2-0.1-0.3-0.2c0,0-0.1,0-0.1,0c-0.1,0-0.2,0-0.3,0c0.1,0.1,0.3,0.2,0.3,0.2C28.1,18.5,28.2,18.6,28.4,18.5z"/>
			<path class="st10" d="M33,18.2c-0.1,0.1-0.2,0.1-0.2,0.1c-0.1,0-0.5,0.4-0.6,0.5c-0.1,0.1-0.5,0-0.5,0.1
				c-0.1,0.1-0.4,0.1-0.6-0.1c-0.3-0.1-0.5,0.1-0.6,0.1c-0.1,0-0.4,0-0.6-0.1c-0.2-0.2-0.4-0.1-0.4,0c0,0.1-0.7-0.1-0.8-0.2
				c-0.1-0.1-0.1-0.1-0.3,0c-0.2,0.1-0.3-0.1-0.4-0.2c0-0.1-0.2-0.1-0.3-0.2c-0.5,0.1-0.9,0.4-1.1,0.6c0.5-0.2,1.1-0.2,1.3-0.1
				c0.4,0.2,4,0.9,4.5,0.2c0.3-0.4,0.6-0.6,1-0.5C33.3,18.3,33.2,18.2,33,18.2z"/>
		</g>
		<g>
			<g>
				<g>
					<path class="st5" d="M28.8,18.3C28.9,18.3,28.9,18.3,28.8,18.3c0.1,0.1,0.2,0.2,0.2,0.3c0,0,0.1,0.2,0.1,0.2c0,0,0,0.1,0.1,0.1
						c0,0,0-0.1,0-0.1c0,0,0-0.3-0.1-0.2c0,0-0.1-0.2-0.2-0.2C28.9,18.2,28.9,18.2,28.8,18.3z"/>
				</g>
			</g>
			<g>
				<g>
					<path class="st5" d="M30.7,18.5C30.7,18.5,30.7,18.5,30.7,18.5c0.1,0.1,0.1,0.2,0.1,0.2c0,0,0.1,0.2,0,0.2c0,0,0,0,0.1,0.1
						c0,0,0-0.1,0-0.1c0,0,0-0.2-0.1-0.2C30.9,18.7,30.8,18.5,30.7,18.5C30.7,18.5,30.7,18.5,30.7,18.5z"/>
				</g>
			</g>
			<g>
				<g>
					<path class="st5" d="M31.8,18.5C31.8,18.5,31.8,18.6,31.8,18.5c0.1,0.1,0.2,0.2,0.1,0.2c0,0,0,0.1,0,0.2c0,0,0,0,0.1,0.1
						c0,0,0,0,0.1-0.1c0,0,0-0.2,0-0.2C32.1,18.6,32,18.5,31.8,18.5C31.9,18.5,31.9,18.5,31.8,18.5z"/>
				</g>
			</g>
		</g>
		<g>
			<path class="st11" d="M14.4,35.3c0,0-1.2,2.4-1.2,2.6c0,0.3-0.3,1.5-0.7,2c-0.4,0.4,0,0.5,1.1,1.2c1.2,0.7,0.4,1,1,1.2
				c0.5,0.1,0.3,1.7,1.9,2c0,0,1.1,2,4.5,1.8c3.4-0.2,9.3,2.4,10.9,0.3c1.6-2.1,1.5-5.2,4.2-5.1c2.7,0.1,6-0.2,7-1.5
				c1.1-1.2,3.5-3.2,3.3-3.7c-0.2-0.5,0-1.1,0.4-1.3c0.5-0.3,0.2-0.4-0.2-0.9c-0.4-0.4-0.1-1.9,0.1-2.8c0.2-0.9-0.2-1.7-0.5-1.8
				c-0.4-0.1-0.7-0.9-0.9-1.6c-0.2-0.7-2.1-3.8-5.4-2.8l-1.5,8.2L33,35.3c0,0-2.5-0.4-3.8,0.7c-1.3,1.1-5.7,1.7-5.7,1.7l-7.1-2.3
				L14.4,35.3z"/>
			<g>
				<path class="st12" d="M46.2,33.3c-0.4-0.4-0.1-1.9,0.1-2.8c0.2-0.9-0.2-1.7-0.5-1.8c-0.4-0.1-0.7-0.9-0.9-1.6
					c-0.1-0.4-0.9-1.8-2.3-2.5c0.1,0.2,0.1,0.4,0.1,0.5c1.8,1,2.3,2.8,2.1,3.2c-0.2,0.5,0.3,1.5,0.8,1.9c0.4,0.4,0.1,2.4-0.6,3
					c-0.7,0.6,0.7,1.8,0.7,1.8c0.1,0.6-0.8,1.7-0.8,1.7s-1,0.5-1.4,1.7c-0.4,1.2-2.5,1.9-4.3,0.5c-1.8-1.3-1.4-0.4-1,0.1
					c0.3,0.5-0.8,2.1-3,1.5c-2.2-0.6-2.1,0-2.1,1c0,1-2.2,3.9-3.5,1.5c-1.3-2.4-1-0.1-1-0.1s1.2,3.5-2.6,3c-3.9-0.5-3.4-2.5-4.2-3.8
					c-0.7-1.3-1.6-0.3-3.4,0.9c-0.8,0.5-1.6,0.6-2.2,0.6c0,0,0,0,0,0.1c0.1,0.1,1.2,2,4.5,1.8c3.4-0.2,9.3,2.4,10.9,0.3
					c1.6-2.1,1.5-5.2,4.2-5.1c2.7,0.1,6-0.2,7-1.5c1.1-1.2,3.5-3.2,3.3-3.7c-0.2-0.5,0-1.1,0.4-1.3C47,33.9,46.7,33.8,46.2,33.3z"/>
				<path class="st1" d="M15,36.2c3.3,0,2.2,0.8,2.2,0.8s-3.9,0.6-3.4,1c0.5,0.3,1.8,0.5,2.2,0.4c0.1,0,0.1,0,0.1,0c0,0,0,0-0.1,0
					c-0.4,0.2-2.5,1.5-2.5,1.5s-0.3,0.4,0.5,0.3c0.8-0.1,3.2-1,3.1-0.6c0,0.3,1.1,0.3,0.7,0.8c-0.4,0.5,0,1,1.1,0.1
					c1.1-0.9,2.8-0.6,3.1-0.5c0.3,0.1,1.6-0.1,1.6,0.5c0,0.6-0.1,2.9,0.5,3.5c0.6,0.6,0.4,0,0.2-0.9c-0.2-0.9,0.4-3.2,0.9-3.4
					c0.5-0.1,0.9-1,0.7,0.5c-0.2,1.4,0.4,2.6,0.4,2.6l-0.1,0.9c0,0,0.5,1.9,0.7,0c0.2-1.9,0.1-3.5,0.6-3.9c0.5-0.3,1.2-0.8,1.6-0.3
					c0.4,0.5,1.5,1.3,1.5,1.3s1.1,2.3,0.9,0.8c-0.2-1.6-0.8-3.8-1-4.3c-0.2-0.5,0.2-1.5,1.2-1.1c1,0.5,1.6,0.4,1.9,1.4
					c0.3,1,1.7,1.4,1.7,1.4s1.4,0.6,0.6-0.2c-0.8-0.8-2.5-2.6-2.1-3.1c0.4-0.6,2-0.1,2.4,0c0.4,0.1,3.3,2.2,3.8,2.3
					c0.5,0.1,0.4-0.7,0.4-0.7s1.7,1.4,1.9,1.1c0.2-0.3-2.6-3.1-3.9-3.5c-1.3-0.4,0.8-0.4,0.8-0.4s2.8,0.9,3.4,2.2
					c0.6,1.3,1.4-0.5,0.2-1.1c-1.3-0.7-2-1.4-2.9-1.7c-0.9-0.2,2.8,0.4,3.3,0.5c0.5,0.2,2.2,1.1,0.7-0.2c-1.4-1.3-4.1-1.5-5-1.1
					c-0.9,0.3-0.1-0.9,1.3-0.8c1.4,0.1,3.4-0.6,3.4-0.6s2,0.1,1.5-0.4c-0.5-0.5-2.5-1-3.5-0.8c-1,0.2-0.3-0.9,0.9-0.9
					c1.2-0.1,2-0.9,0.8-1.2c-1.2-0.2,2.1-0.5,0.5-0.4c-1.6,0.1-2-0.2-3.7,0.4C38.3,28.9,42,27,42,27s0.4-1.1,0.1-1.3
					c-0.3-0.2-0.3-0.3-0.5-0.3c-0.2,0,0.2-0.9-0.6-0.7c0,0-0.5-0.1-1-0.6c-0.2,0-0.4,0.1-0.6,0.1L38,32.5l-5.4,2.2
					c0,0-2.5-0.4-3.8,0.7c-1.3,1.1-5.7,1.7-5.7,1.7l-7.1-2.3l-0.6-0.1C14.2,35.4,12.8,36.2,15,36.2z"/>
				<g>
					<g>
						<g>
							<path class="st5" d="M18.5,37.8c-0.3-0.1-0.5-0.2-0.8-0.1c-0.4,0-2.1,0.6-2.1,0.7c0,0-1.7,0.8-1.9,1.1
								c-0.3,0.2-0.4,0.4-0.5,0.7c0.3-0.1,0.5-0.1,0.8-0.3c0.3-0.3,1.8-1.1,1.8-1c0,0,1.7-0.6,2-0.6C18.1,38.1,18.3,38,18.5,37.8z"
								/>
						</g>
					</g>
					<g>
						<g>
							<path class="st5" d="M22.9,38.7c-0.4-0.2-0.7-0.2-1.2-0.2c-0.3,0-1.1,0.1-1.9,0.2c-0.8,0.1-1.5,0.6-1.4,0.7
								c0,0-0.5,0.6-0.8,1.3c-0.2,0.4-0.3,0.7-0.5,0.8c-0.4,0.3-0.5,0.6-0.6,0.7c-0.2,0.5-0.3,0.8-0.1,1.3c0.1-0.4,0.3-0.6,0.5-1.1
								c0-0.1,0.2-0.4,0.3-0.5c0.5-0.2,0.6-0.7,0.7-1c0.3-0.7,0.7-1.2,0.7-1.2c0,0,0.5-0.4,1.2-0.5c0.7-0.2,1.6-0.2,1.8-0.2
								C22.2,38.9,22.4,38.8,22.9,38.7z"/>
						</g>
					</g>
					<g>
						<g>
							<path class="st5" d="M24.5,38.1c-0.3,0.3-0.4,0.5-0.5,0.9c-0.2,0.4-0.7,2.6-0.6,2.6c0,0-0.1,0.6,0.1,1.2
								c0.2,0.6,0.5,1.2,0.6,1.4c0.2,0.4,0.4,0.6,0.7,0.7c-0.1-0.3-0.1-0.6-0.3-0.9c-0.1-0.2-0.4-0.8-0.6-1.4c-0.2-0.5-0.1-1-0.1-1
								c-0.1,0,0.4-2.1,0.6-2.5C24.5,38.7,24.5,38.5,24.5,38.1z"/>
						</g>
					</g>
					<g>
						<g>
							<path class="st5" d="M26.4,37.7c-0.2,0.3-0.3,0.6-0.4,1c-0.1,0.5-0.2,2.9-0.1,2.9c0,0,0.2,0.6,0.2,1.2c0,0.6,0,1.4,0,1.6
								c0,0.4,0.1,0.9,0.5,1c-0.2-0.3,0-0.5-0.1-1c0-0.2,0.1-0.9,0-1.6c0-0.7-0.2-1.3-0.2-1.3c-0.1,0,0-2.3,0.1-2.8
								C26.5,38.4,26.5,38.1,26.4,37.7z"/>
						</g>
					</g>
					<g>
						<g>
							<path class="st5" d="M29.3,37.2c-0.2,0.2-0.3,0.5-0.4,0.8c0,0.2,0,0.8,0.2,1.4c0.2,0.5,0.6,0.9,0.6,0.9c0,0,0.4,0.4,0.7,0.7
								c0.4,0.4,0.6,0.8,0.6,1c0.1,0.3,0.2,0.5,0.3,0.8c0.2-0.3,0.3-0.5,0.1-0.9c0-0.2-0.3-0.8-0.7-1.2C30.4,40.3,30,40,30,40
								c0,0-0.3-0.3-0.5-0.8c-0.2-0.5-0.2-1-0.2-1.2C29.4,37.7,29.3,37.5,29.3,37.2z"/>
						</g>
					</g>
					<g>
						<g>
							<path class="st5" d="M30.3,35.7c0.3,0.2,0.5,0.3,0.8,0.4c0.2,0,0.8,0.2,1.2,0.5c0.5,0.3,0.7,0.7,0.7,0.7c0,0,0.3,0.5,0.7,0.9
								c0.4,0.4,0.9,0.8,1.1,0.9c0.3,0.2,0.6,0.3,1,0.2c-0.3-0.2-0.4-0.4-0.7-0.6c-0.2-0.1-0.7-0.4-1-0.8c-0.4-0.4-0.6-0.8-0.6-0.8
								c0,0-0.3-0.5-0.8-0.8c-0.5-0.3-1.1-0.5-1.4-0.5C30.9,35.5,30.7,35.5,30.3,35.7z"/>
						</g>
					</g>
					<g>
						<g>
							<path class="st5" d="M35.1,35c0.3,0.2,0.5,0.3,0.9,0.3c0.5,0,2.5,0.7,2.4,0.8c0,0,0.4,0.2,0.8,0.7c0.4,0.5,1,0.9,1.2,1
								c0.4,0.2,0.5,0.2,0.8,0.5c0.1-0.4-0.2-0.7-0.5-0.9c-0.2-0.1-0.7-0.5-1.1-0.9c-0.4-0.5-0.9-0.8-0.9-0.8c0,0-0.5-0.3-1.1-0.5
								c-0.6-0.2-1.3-0.3-1.5-0.4C35.7,34.8,35.5,34.8,35.1,35z"/>
						</g>
					</g>
					<g>
						<g>
							<path class="st5" d="M37.5,34c0.4,0.1,0.6,0.1,1.1,0.1c0.5-0.1,2.8,0.2,2.8,0.3c0-0.1,2.3,0.6,2.7,0.9c0.4,0.2,0.6,0.3,1,0.3
								c-0.3-0.3-0.4-0.5-0.8-0.7c-0.4-0.3-2.8-1-2.8-1c0-0.1-2.4-0.4-2.9-0.3C38.1,33.7,37.8,33.8,37.5,34z"/>
						</g>
					</g>
					<g>
						<g>
							<path class="st5" d="M38.6,32.4c0.3,0.1,0.5,0.1,0.9,0c0.4-0.1,2.3-0.5,2.3-0.4c0,0,1.9-0.2,2.3-0.1c0.3,0,0.5,0,0.9-0.1
								c-0.3-0.2-0.5-0.3-0.8-0.3c-0.4-0.1-2.4,0.1-2.4,0.1c0,0-1.9,0.3-2.3,0.5C39,32.1,38.8,32.2,38.6,32.4z"/>
						</g>
					</g>
					<g>
						<g>
							<path class="st5" d="M38.9,31c0.3-0.1,0.5-0.2,0.7-0.4c0.2-0.3,1.5-1.4,1.6-1.3c0-0.1,1.5-0.8,1.8-0.8
								c0.3-0.1,0.5-0.1,0.7-0.3c-0.3-0.1-0.5-0.2-0.8-0.2c-0.4,0-2,0.8-2,0.9c0,0-1.4,1.1-1.6,1.4C39,30.5,39,30.7,38.9,31z"/>
						</g>
					</g>
					<g>
						<g>
							<path class="st5" d="M39.7,27.2c0.2,0,0.3,0,0.5-0.1c0.2-0.1,0.9-0.8,0.8-0.8c0,0,0.6-0.8,0.7-1c0.1-0.2,0-0.3-0.1-0.5
								c-0.2,0.1-0.3,0.1-0.4,0.3c0,0.2-0.6,0.9-0.6,0.9c0,0-0.6,0.6-0.8,0.7C39.7,26.9,39.7,27,39.7,27.2z"/>
						</g>
					</g>
					<g>
						<g>
							<path class="st5" d="M39.1,29c0.3-0.1,0.5-0.2,0.7-0.4c0.2-0.3,1.7-1.1,1.7-1.1c0,0,0.4-0.2,0.8-0.3c0.4-0.1,0.9-0.1,1.1-0.1
								c0.3,0,0.5,0,0.8-0.1c-0.2-0.2-0.4-0.3-0.8-0.3c-0.2,0-0.7,0-1.2,0.1c-0.5,0.1-0.9,0.3-0.9,0.3c0,0-1.6,0.9-1.8,1.2
								C39.3,28.5,39.2,28.7,39.1,29z"/>
						</g>
					</g>
				</g>
				<path class="st3" d="M14,36.5c1.1,0.6,1.1,0.6,0.7,0.7c-0.4,0.1-1.5,0.3-0.9,1c0.6,0.6,0.1,0.8-0.1,1c-0.2,0.2-1.7,1.6,1.1,1.2
					c2.8-0.5,2.1,0.1,2.1,0.1s-1.7,4.3-0.3,2.9c1.4-1.4,2.3-2.5,2.7-2.5c0.3,0.1,2.3-1.2,3.4,0c1.1,1.2,0.1,4.9,2.5,4.7
					c0,0,0.3,0,0.1-1.9c-0.2-1.9,0.5,0.8,0.5,1.3c0,0.5,1.5,1.4,1.5,0.4c0-1,0.2-4.3,0.6-4.5c0.4-0.2,0.9-0.9,1.3-0.2
					c0.5,0.7,1.9,2.7,2.2,2.4c0.3-0.2,0.9-0.8,0.6-1.7c-0.3-0.9-0.6-3.1-0.5-3.4c0.1-0.3-0.1-1.2,0.6-0.9c0.7,0.4,1,0.4,1.1,0.7
					c0,0.3,2.2,2.5,3.2,2.2c1-0.3,0.6-1-0.3-1.9c-0.9-0.9-1.4-1.8-0.7-1.8c0.7,0,2.2,0.6,2.4,1c0.2,0.4,2.8,1.5,2.9,1.2
					c0.1-0.3,2,1.1,1.9,0c0-1,0.2-1.1,0.5-1.1c0.3,0,1.2-0.7,0.7-1.2c-0.5-0.5-1.4-1.2-1.4-1.2s-0.7-0.9,0.7,0
					c1.4,0.9,2.6,0.9,2-0.2c-0.6-1.1-1.8-1.9-2.4-2c-0.7-0.1-1.6-0.5,0-0.5c1.7,0,3.7-1.2,2.2-1.7c-1.5-0.5-1.3-0.8-0.9-1.4
					c0.4-0.6,0.8-1.4,0.1-1.7c-0.7-0.3,1.6-0.6-1.3-1.4c0,0-0.7-0.2-0.3-0.8c0.2-0.3,0.2-0.6,0-0.9c-0.7-0.4-1.5-0.5-2.5-0.4
					c0.4,0.4,1,0.6,1,0.6c0.8-0.2,0.4,0.7,0.6,0.7c0.2,0,0.3,0.1,0.5,0.3C42.4,25.9,42,27,42,27s-3.7,1.9-2.1,1.3
					c1.7-0.6,2.1-0.4,3.7-0.4c1.6-0.1-1.8,0.2-0.5,0.4c1.2,0.2,0.5,1.1-0.8,1.2c-1.2,0.1-1.9,1.1-0.9,0.9c1-0.2,3,0.3,3.5,0.8
					c0.5,0.5-1.5,0.4-1.5,0.4s-2,0.7-3.4,0.6c-1.4-0.1-2.2,1.2-1.3,0.8c0.9-0.3,3.5-0.2,5,1.1c1.4,1.3-0.2,0.4-0.7,0.2
					c-0.5-0.2-4.2-0.8-3.3-0.5c0.9,0.2,1.6,1,2.9,1.7c1.3,0.7,0.5,2.4-0.2,1.1c-0.6-1.3-3.4-2.2-3.4-2.2s-2.1,0-0.8,0.4
					c1.3,0.4,4.1,3.2,3.9,3.5c-0.2,0.3-1.9-1.1-1.9-1.1s0.1,0.8-0.4,0.7c-0.5-0.1-3.4-2.2-3.8-2.3c-0.4-0.1-2-0.6-2.4,0
					c-0.4,0.6,1.3,2.3,2.1,3.1c0.8,0.8-0.6,0.2-0.6,0.2s-1.4-0.4-1.7-1.4c-0.3-1-0.9-0.9-1.9-1.4c-1-0.5-1.4,0.5-1.2,1.1
					c0.2,0.5,0.9,2.7,1,4.3c0.2,1.6-0.9-0.8-0.9-0.8s-1.1-0.8-1.5-1.3c-0.4-0.5-1.1,0-1.6,0.3c-0.5,0.3-0.4,1.9-0.6,3.9
					c-0.2,1.9-0.7,0-0.7,0l0.1-0.9c0,0-0.6-1.2-0.4-2.6c0.2-1.4-0.2-0.6-0.7-0.5c-0.5,0.1-1.1,2.5-0.9,3.4c0.2,0.9,0.4,1.5-0.2,0.9
					c-0.6-0.6-0.5-2.9-0.5-3.5c0-0.6-1.3-0.4-1.6-0.5c-0.3-0.1-1.9-0.3-3.1,0.5c-1.1,0.9-1.5,0.3-1.1-0.1c0.4-0.5-0.7-0.4-0.7-0.8
					c0-0.3-2.3,0.5-3.1,0.6c-0.8,0.1-0.5-0.3-0.5-0.3s2.1-1.3,2.5-1.5c-0.3,0.1-1.6-0.1-2.2-0.4c-0.6-0.3,3.4-1,3.4-1
					s1.1-0.8-2.2-0.8c-2.2,0-0.8-0.9,0.5-1.4l-0.8-0.1C14,35.2,13.2,36,14,36.5z"/>
				<path class="st3" d="M16.9,40.4c0,0,0.6-0.5-2.1-0.1c-2.8,0.5-1.3-1-1.1-1.2c0.2-0.2,0.7-0.4,0.1-1c-0.6-0.6,0.5-0.8,0.9-1
					c0.4-0.1,0.4-0.1-0.7-0.7c-0.8-0.4,0.1-1.2,0.7-1.7l-0.4,0c-0.3,0.4-0.9,1.2-0.8,2c0,0,0.2,0.2,0,0.6c-0.1,0.4-0.2,1,0,1.2
					c0.2,0.3,0.2,0.4-0.1,0.7c-0.3,0.3-1.1,1.3,0.9,1.6c2,0.2,1.8,0.3,1.6,1c-0.1,0.6-0.2,1.2-0.1,1.8c0.1,0,0.2,0,0.2,0.1
					c0,0,0,0,0,0c0,0,0-0.1,0-0.1C15.9,43.1,16.9,40.4,16.9,40.4z"/>
				<path class="st5" d="M14.3,40.8c-2-0.2-1.2-1.3-0.9-1.6c0.3-0.3,0.3-0.4,0.1-0.7c-0.2-0.3-0.1-0.9,0-1.2c0.1-0.4,0-0.6,0-0.6
					c-0.1-0.8,0.5-1.6,0.8-2l-0.2,0c0,0-1.2,2.4-1.2,2.6c0,0.3,0.4,1.7,0,2.2c-0.4,0.4-0.7,0.3,0.4,1c1.2,0.7,0.5,1,1,1.2
					c0.5,0.1,0.4,1.5,1.6,1.9c-0.2-0.6-0.1-1.2,0.1-1.8C16.1,41.1,16.3,41,14.3,40.8z"/>
				<path class="st5" d="M18.3,43c1.8-1.2,2.7-2.2,3.4-0.9c0.7,1.3,0.3,3.2,4.2,3.8c3.9,0.5,2.6-3,2.6-3s-0.3-2.3,1,0.1
					c1.3,2.4,3.5-0.6,3.5-1.5c0-1-0.1-1.6,2.1-1c2.2,0.6,3.3-1,3-1.5c-0.3-0.5-0.8-1.5,1-0.1c1.8,1.3,3.9,0.6,4.3-0.5
					c0.4-1.2,1.4-1.7,1.4-1.7s1-1.1,0.8-1.7c0,0-1.4-1.2-0.7-1.8c0.7-0.6,1-2.6,0.6-3c-0.4-0.4-0.9-1.4-0.8-1.9
					c0.2-0.4-0.4-2.1-2.1-3.2c0,0.1-0.1,0.2-0.1,0.3c-0.4,0.6,0.3,0.8,0.3,0.8c2.9,0.8,0.6,1.1,1.3,1.4c0.7,0.3,0.4,1.1-0.1,1.7
					c-0.4,0.6-0.7,0.9,0.9,1.4c1.5,0.5-0.5,1.7-2.2,1.7c-1.7,0-0.7,0.3,0,0.5c0.7,0.1,1.8,0.9,2.4,2c0.6,1.1-0.6,1.1-2,0.2
					c-1.4-0.9-0.7,0-0.7,0s0.9,0.7,1.4,1.2c0.5,0.5-0.4,1.3-0.7,1.2c-0.3,0-0.6,0-0.5,1.1c0,1-1.8-0.4-1.9,0
					c-0.1,0.3-2.6-0.8-2.9-1.2c-0.2-0.4-1.7-1-2.4-1c-0.7,0-0.3,0.9,0.7,1.8c0.9,0.9,1.3,1.5,0.3,1.9c-1,0.3-3.2-1.9-3.2-2.2
					c0-0.3-0.3-0.4-1.1-0.7c-0.7-0.4-0.6,0.6-0.6,0.9c-0.1,0.3,0.1,2.4,0.5,3.4c0.3,0.9-0.3,1.5-0.6,1.7c-0.3,0.2-1.7-1.8-2.2-2.4
					c-0.5-0.7-0.9,0-1.3,0.2c-0.4,0.2-0.6,3.5-0.6,4.5c0,1-1.5,0.1-1.5-0.4c0-0.5-0.7-3.2-0.5-1.3c0.2,1.9-0.1,1.9-0.1,1.9
					c-2.3,0.2-1.4-3.6-2.5-4.7c-1.1-1.2-3,0.1-3.4,0c-0.3-0.1-1.3,1.1-2.7,2.5c-0.3,0.3-0.4,0.3-0.5,0.2c0,0,0,0,0,0.1
					C16.8,43.6,17.6,43.5,18.3,43z"/>
			</g>
		</g>
		<g>
			<path class="st11" d="M12.7,36.8c0,0,0.1,0,0.3-0.1c0,0,0.1,0,0.1,0c-0.8-0.3-0.8-1.2-0.8-1.4c0-0.3-0.3-1.3-1.5-1.6
				c-1.2-0.3-2.6-4-2.8-4.6c-0.2-0.6-0.6-1.9-1.4-2.2c-0.8-0.3-1.5-3-1.4-3.1c0-0.2,0.3-0.8,0-1.6c-0.3-0.8,0.3-2.2,0.6-3.4
				c0.3-1.2,0.6-0.5,0.6-0.5s0.9,1.2,1.8,1c0.9-0.3,1.1-2.4,1.1-2.4S8.8,15,8.6,14.7c-0.1-0.3-0.5-0.6,0.6-1.4
				c1.1-0.8,0.9,0.1,1,0.4c0.1,0.3,0.7,0.4,1,0.1c0.4-0.3,0.4-0.1,0.9,0.3c0.4,0.3,1.4,0.2,2,0.1l0-0.6l0-1l0-3.5l0-1c0,0,0,0,0,0
				c-0.1-0.2-0.5-1.7-1.3-1.6c-0.7,0-2.1-0.4-3.4,0.3C9.3,6.9,9,7.1,8.7,7.5c0,0-1.5-0.3-1.7,0.7c-0.2,1-0.3,1.6-0.5,1.7
				c-0.3,0.1-1.4,0.7-1.1,1.8c0.3,1.1,1.1,5-0.6,6.5c-1.7,1.4-2.2,1.2-2.2,1.2s-0.1,3.3-1.1,4.9c-1,1.6-0.8,4.7-0.2,5.4
				c0.6,0.7,0.7,2,0.7,2s0.7,2.1,1.2,2.4c0.4,0.3,1.1,1,1.1,1.5c0,0.5,1,1.5,1.5,1.6c0.4,0.1,4,0.1,4.4,0.6c0.3,0.5,2.4,0.7,2.7,0.7
				c0.2,0,0.1-0.5,0-1C12.7,37.1,12.7,36.8,12.7,36.8z"/>
			<g>
				<path class="st5" d="M6.5,17.6c0,0,0.1,0.2,0.2,0.5c0.3-0.8,0.1-2,0.1-2c-0.5-1.7,0.2-1.8,0.4-2.2c0.3-0.3-0.1-0.9-0.1-0.9
					c-0.8-2.6,1.2-3.6,1.2-3.6c0.8,0.9,1.4,0.2,1.4,0.2c0.7-2.7,2.3,0,2.4,0.8c0,0.6,1.6,0.8,2.6,0.9l0-2l0-1c0,0,0,0,0,0
					c-0.1-0.2-0.5-1.7-1.3-1.6c-0.7,0-2.1-0.4-3.4,0.3C9.8,7,9.5,7.3,9.2,7.6c0,0-1.5-0.3-1.7,0.7C7.3,9.4,7.3,9.9,7,10
					c-0.3,0.1-1.4,0.7-1.1,1.8c0.3,1,1,4.4-0.2,6.1L5.8,18C6.2,17.3,6.5,17.6,6.5,17.6z"/>
				<path class="st3" d="M12.2,10.3c-0.1-0.8-1.7-3.6-2.4-0.8c0,0-0.6,0.7-1.4-0.2c0,0-2,1-1.2,3.6c0,0,0.3,0.6,0.1,0.9
					C7,14.1,6.3,14.3,6.8,16c0,0,0.2,1.2-0.1,2c0.2,0.3,0.4,0.6,0.6,0.4c0.4-0.4,0-1.8-0.2-3C6.8,14.3,7.5,15,7.5,15s1,2.2,1.2,2.4
					c0.2,0.2,0.6,0,0.5-0.4c-0.1-0.4-0.9-2.4-1.2-2.9c-0.3-0.5-0.4-1.3-0.2-1.3c0.2,0.1-0.2-0.3-0.2-0.9c0-0.6,0.3-0.4,0.3-0.4
					L8.5,13c0,0,0-1.5,0.1-1.9c0.1-0.4,0.4-1.6,0.7-0.3c0.3,1.3,1,1.8,1.2,1.8c0.2,0.1,0.2-0.6,0.2-1c-0.1-0.4-0.4-1.7-0.2-2.4
					c0.2-0.7,0.7-0.6,0.6,0.4c-0.1,1,0.6,1,1.2,1.8c0.4,0.6,1.7,0.9,2.6,1l0-1.3C13.8,11.1,12.2,10.9,12.2,10.3z"/>
				<path class="st1" d="M12.1,11.4c-0.5-0.8-1.3-0.8-1.2-1.8c0.1-1-0.4-1.1-0.6-0.4c-0.2,0.7,0.2,1.9,0.2,2.4c0.1,0.4,0,1.1-0.2,1
					c-0.2-0.1-0.8-0.5-1.2-1.8C8.9,9.4,8.6,10.6,8.6,11C8.5,11.5,8.5,13,8.5,13l-0.7-1.5c0,0-0.3-0.1-0.3,0.4c0,0.6,0.4,1,0.2,0.9
					c-0.2-0.1-0.1,0.8,0.2,1.3c0.3,0.5,1.2,2.5,1.2,2.9c0.1,0.4-0.4,0.7-0.5,0.4C8.5,17.2,7.5,15,7.5,15s-0.7-0.8-0.4,0.4
					c0.3,1.2,0.6,2.6,0.2,3c-0.4,0.4-0.8-0.9-0.8-0.9s-0.5-0.5-1,1.2c-0.5,1.6-0.6,1.8-0.6,1.8s-0.1,0.9-0.4,0.9
					c-0.3,0-0.4,0.1,0.1,0.8c0.4,0.7,0.4,1.1,0,1.7c-0.4,0.6,0.5,2,0.5,2s0.6,0.5,0,0.9c-0.6,0.4-1.5,0.9-2.4,1
					c-0.9,0.1,1.4,0.7,2.5-0.2c1.1-1,1.6,1.1,1.1,1.3c-0.5,0.2-0.4,2-0.7,2.3c-0.3,0.3-1.2,1.3-1.2,1.3s0.7,0.5,1.4-0.6
					c0.8-1.1,1.4-0.7,1.3-0.4c-0.1,0.3,0.4,1.6-0.2,2.5c-0.6,0.8-1.7,2.4-0.4,1.5C8,34.6,8,33.6,8.2,33.1c0.2-0.5,1-0.6,0.6,0.7
					C8.4,35.1,8,36,8,36s-0.7,1.9,0.8-0.1c1.5-2.1,1.4-2.1,1.5-1.4c0.1,0.7,0.1,1.6,1,1.4c0.4-0.1,0.9-0.4,1.5-0.4c0,0,0,0,0-0.1
					c0-0.3-0.3-1.3-1.5-1.6c-1.2-0.3-2.6-4-2.8-4.6c-0.2-0.6-0.6-1.9-1.4-2.2c-0.8-0.3-1.5-3-1.4-3.1c0-0.2,0.3-0.8,0-1.6
					c-0.3-0.8-0.2-2.7,0.1-3.9c0.3-1.2,1.1,0,1.1,0s0.9,1.2,1.8,1c0.9-0.3,1.1-2.4,1.1-2.4s-0.4-1.7-0.6-2.1
					c-0.1-0.3-0.5-0.6,0.6-1.4c1.1-0.8,0.9,0.1,1,0.4c0.1,0.3,0.7,0.4,1,0.1c0.4-0.3,0.4-0.1,0.9,0.3c0.4,0.3,1.4,0.2,2,0.1l0-0.6
					l0-1l0-0.3C13.9,12.3,12.5,12,12.1,11.4z"/>
				<path class="st6" d="M12.7,14.2c-0.5-0.4-0.5-0.6-0.9-0.3c-0.4,0.3-0.9,0.2-1-0.1c-0.1-0.3,0-1.2-1-0.4
					c-1.1,0.8-0.8,1.1-0.6,1.4c0.1,0.3,0.6,2.1,0.6,2.1S9.6,19,8.7,19.3c-0.9,0.3-1.8-1-1.8-1s-0.8-1.2-1.1,0
					c-0.3,1.2-0.4,3.1-0.1,3.9c0.3,0.8,0,1.4,0,1.6c0,0.2,0.6,2.9,1.4,3.1c0.8,0.3,1.2,1.5,1.4,2.2c0.2,0.6,1.6,4.3,2.8,4.6
					c1.2,0.3,1.5,1.3,1.5,1.6c0,0.2,0,1.1,0.8,1.4c0.4-0.2,0.9-0.5,1-1c0.1-0.7-4.4-6.4-4.4-6.4l-0.7-3.2l0.5-1.5l1.3-3.8l0.5-0.7
					l2.9-4.1l0-1.8C14.1,14.4,13.1,14.5,12.7,14.2z"/>
				<g>
					<g>
						<g>
							<g>
								<path class="st5" d="M10.5,7.5c0,0.6-0.1,1,0.3,1.7c0.1,0.1,0.1,0.4,0.1,0.8c-0.2,0.5,0.1,1.1,0.3,1.5
									c0.2,0.4,0.5,1,0.6,1.1c0,0.3,0,0.5,0,0.5c0,0-0.2,3.6-0.5,4.3c-0.1,0.7,0,1.1,0.4,1.6c-0.1-0.6,0.1-0.9,0.1-1.6
									c0.3-0.6,0.6-4.4,0.5-4.3c0,0,0-0.2,0-0.6c-0.3-0.4-0.4-0.7-0.6-1.2c-0.2-0.5-0.4-0.9-0.3-1.3c0.1-0.4,0-0.9-0.1-1.1
									C10.9,8.5,10.8,8,10.5,7.5z"/>
							</g>
						</g>
						<g>
							<g>
								<path class="st5" d="M8.5,8.3c-0.1,0.3-0.1,0.5,0,0.9C8.6,9.6,9,11.5,9,11.5c0,0,0.2,1.9,0.1,2.3c0,0.4,0,0.5,0.1,0.9
									c0.2-0.3,0.3-0.5,0.4-0.8c0.1-0.4-0.1-2.4-0.1-2.4c0,0-0.3-2-0.5-2.3C8.9,8.8,8.8,8.6,8.5,8.3z"/>
							</g>
						</g>
						<g>
							<g>
								<path class="st5" d="M7.3,10.2c0,0.2,0,0.4,0.1,0.5C7.5,11,8,11.9,8,11.9c0,0,0.3,1,0.3,1.2c0,0.2,0.1,0.3,0.3,0.5
									c0.1-0.2,0.2-0.3,0.2-0.5c0-0.2-0.3-1.3-0.4-1.3c0,0-0.5-1-0.6-1.2C7.7,10.4,7.6,10.3,7.3,10.2z"/>
							</g>
						</g>
						<g>
							<g>
								<path class="st5" d="M7.8,13.2c0.3,0.2,0.3,0.4,0.5,0.6c0.3,0.2,1,2,1,2.1c0,0,0.5,1.9,0.6,2.3c0.1,0.4,0.2,0.5,0.4,0.8
									c0.1-0.3,0.1-0.5,0.1-0.9c-0.1-0.4-0.6-2.3-0.6-2.3c0,0-0.7-1.9-1.1-2.2C8.4,13.3,8.1,13.1,7.8,13.2z"/>
							</g>
						</g>
						<g>
							<g>
								<path class="st5" d="M6.6,14.4c0.2,0.2,0.2,0.3,0.4,0.5c0.3,0.1,1,1.5,0.9,1.5c0,0,0.5,1.5,0.5,1.8c0.1,0.3,0.2,0.4,0.4,0.6
									C9,18.6,9,18.4,9,18.1c0-0.3-0.5-1.8-0.6-1.8c0,0-0.7-1.5-1-1.7C7.1,14.4,6.9,14.3,6.6,14.4z"/>
							</g>
						</g>
						<g>
							<g>
								<path class="st5" d="M3.8,21.3c0.2,0.2,0.3,0.3,0.5,0.3c0.2,0,1.3,0.1,1.3,0.1c0,0,1.1,0,1.3,0c0.2,0,0.3-0.1,0.5-0.2
									c-0.2-0.1-0.3-0.2-0.5-0.2c-0.2,0-1.3,0-1.3,0c0,0-1.1-0.1-1.3-0.1C4.1,21.1,3.9,21.2,3.8,21.3z"/>
							</g>
						</g>
						<g>
							<g>
								<path class="st5" d="M2.2,27.8C2.5,28,2.7,28,3.1,28c0.2,0,0.8-0.1,1.3-0.3c0.5-0.2,1-0.5,0.9-0.5c0,0,0.4-0.3,0.8-0.7
									c0.4-0.4,0.6-1,0.7-1.2c0.1-0.4,0.1-0.6,0-0.9c-0.2,0.3-0.3,0.4-0.4,0.8c-0.1,0.2-0.3,0.7-0.6,1.1c-0.3,0.4-0.7,0.6-0.7,0.6
									c0,0-0.4,0.3-0.9,0.4c-0.5,0.2-1,0.3-1.2,0.3C2.7,27.6,2.5,27.7,2.2,27.8z"/>
							</g>
						</g>
						<g>
							<g>
								<path class="st5" d="M4.1,32.5c0.4-0.1,0.6-0.2,1-0.4c0.2-0.1,0.7-0.6,1.1-1.2c0.4-0.5,0.7-1.1,0.7-1.1c0.1,0,0.6-2.3,1-2.6
									c0.2-0.3,0.3-0.6,0.5-0.9C8,26.5,7.7,26.6,7.5,27c-0.4,0.4-0.9,2.7-1,2.6c0,0-0.2,0.5-0.6,1c-0.4,0.5-0.9,0.9-1.1,1.1
									C4.4,32,4.3,32.2,4.1,32.5z"/>
							</g>
						</g>
					</g>
					<g>
						<g>
							<path class="st5" d="M7.2,28.5c0,0.4,0.1,0.6,0.2,1c0.1,0.2,0.3,0.8,0.4,1.4C7.9,31.5,7.6,32,7.6,32c0,0-0.9,2.1-1.2,2.4
								c-0.2,0.3-0.3,0.6-0.5,0.9c0.4-0.1,0.6-0.3,0.9-0.6c0.3-0.4,1.3-2.5,1.3-2.5c0,0,0.3-0.6,0.2-1.3c0-0.7-0.3-1.4-0.4-1.6
								C7.7,28.9,7.5,28.8,7.2,28.5z"/>
						</g>
					</g>
					<g>
						<g>
							<path class="st5" d="M9.6,28.9c-0.3,0.3-0.4,0.5-0.5,1c0.1,0.5-0.3,2.8-0.2,2.9C9,32.7,8.2,35,8,35.5c-0.2,0.4-0.2,0.7-0.3,1
								c0.4-0.2,0.6-0.4,0.7-0.8c0.2-0.4,1-2.7,0.8-2.8c0,0.1,0.3-2.4,0.2-2.9C9.6,29.5,9.5,29.3,9.6,28.9z"/>
						</g>
					</g>
					<g>
						<g>
							<path class="st5" d="M10.6,30.9c-0.1,0.3-0.2,0.5-0.2,0.8c0,0.4,0.4,2.2,0.5,2.2c-0.1,0.1,1.1,1.5,1.3,1.8
								c0.2,0.3,0.3,0.4,0.5,0.6c0.1-0.3,0.1-0.5-0.1-0.9c-0.2-0.4-1.4-1.7-1.3-1.7c-0.1,0.1-0.5-1.6-0.4-2
								C10.8,31.4,10.7,31.2,10.6,30.9z"/>
						</g>
					</g>
				</g>
				<path class="st5" d="M11.6,36.6c-0.4,0.4-1.2-0.3-1.5-0.6c-0.3-0.3-1.3,0.9-1.3,0.9C5,38.2,5.7,34.4,6,34c0.3-0.4-0.8-0.6-1.8-1
					c-1-0.4,0.2-2.8,0.7-3.7c0.5-0.9-0.3-0.4-2-0.7c-1.6-0.3-0.6-2.2,0-2.4c0.6-0.2,0.9-1.4,1.2-2c0.3-0.6-0.2-0.7-0.5-1.9
					c-0.4-1.2,0.6-2.4,1-2.8c0.2-0.2,0.4-0.7,0.5-1.2c-1.5,1.3-2.1,1.1-2.1,1.1S3,22.8,2,24.4c-1,1.6-0.8,4.7-0.2,5.4
					c0.6,0.7,0.7,2,0.7,2s0.7,2.1,1.2,2.4c0.4,0.3,1.1,1,1.1,1.5c0,0.5,1,1.5,1.5,1.6c0.4,0.1,4,0.1,4.4,0.6
					c0.3,0.5,2.4,0.7,2.7,0.7c0.2,0,0.1-0.5,0-1c0-0.2-0.1-0.4-0.1-0.5C12.6,36.8,11.9,36.3,11.6,36.6z"/>
				<path class="st3" d="M13.6,36.8c-0.8-0.3-0.8-1.1-0.8-1.4c-0.6,0-1.1,0.3-1.5,0.4c-0.9,0.3-0.9-0.7-1-1.4
					c-0.1-0.7,0-0.6-1.5,1.4C7.3,37.9,8,36,8,36s0.4-0.9,0.8-2.2c0.4-1.3-0.4-1.2-0.6-0.7C8,33.6,8,34.6,6.6,35.5
					c-1.3,0.9-0.2-0.7,0.4-1.5c0.6-0.8,0.1-2.1,0.2-2.5c0.1-0.3-0.5-0.7-1.3,0.4c-0.8,1.1-1.4,0.6-1.4,0.6s0.9-1,1.2-1.3
					C6,30.8,5.9,29,6.4,28.8c0.5-0.2,0-2.2-1.1-1.3c-1.1,1-3.4,0.3-2.5,0.2c0.9-0.1,1.8-0.6,2.4-1c0.6-0.4,0-0.9,0-0.9s-1-1.4-0.5-2
					c0.4-0.6,0.4-1,0-1.7c-0.4-0.7-0.4-0.8-0.1-0.8c0.3,0,0.4-0.9,0.4-0.9s0-0.2,0.6-1.8c0.1-0.3,0.2-0.6,0.3-0.8l-0.1-0.1
					c-0.1,0.1-0.2,0.3-0.4,0.4c-0.1,0.1-0.1,0.1-0.2,0.2c-0.1,0.5-0.3,1-0.5,1.2c-0.4,0.4-1.4,1.6-1,2.8c0.4,1.2,0.9,1.3,0.5,1.9
					c-0.3,0.6-0.6,1.8-1.2,2c-0.6,0.2-1.6,2.1,0,2.4c1.6,0.3,2.5-0.2,2,0.7c-0.5,0.9-1.6,3.3-0.7,3.7c1,0.4,2.1,0.6,1.8,1
					c-0.3,0.4-1,4.2,2.8,2.9c0,0,1-1.2,1.3-0.9c0.3,0.3,1.1,1,1.5,0.6c0.3-0.3,1,0.2,1.6,0.5c0-0.1,0-0.2,0-0.2S13.3,36.9,13.6,36.8
					C13.5,36.8,13.6,36.8,13.6,36.8z"/>
			</g>
		</g>
		<g>
			<path class="st11" d="M38.9,14.1c-0.7-0.6-0.3-1.5-0.2-2.2c0-0.7-0.6-1.2-0.8-1.3c-0.2-0.1-0.6-1.5-1.1-2.2c-0.5-0.7-2.4-2-3.6-2
				c-1.2,0-2.8-1.4-3.6-2.1c-0.7-0.6-1.8-0.8-2.6-0.8c-0.7,0-1.2-0.2-2.1-0.6C24,2.6,20.7,3,20.3,3.2c-0.4,0.2-0.9,0.8-2,0.7
				c-1,0-2.3,0.3-2.2,1.3c0.1,1-0.1,1.9-0.5,2.2c-0.4,0.3-1,0.9-1.4,1.4c-0.4,0.6-0.6-0.2-1.9,1.5c-1.3,1.7,0.7,3.2,0.5,4.1
				c-0.1,0.6-0.5,1-0.5,1.2c0.4,0,1-0.5,1.2-0.8c0.3-0.6,1-0.9,1.4-1c0.3,0,0.6-1.2,0.8-1.6c0.3-0.4,0.9-0.8,1.2-0.9
				c0.3-0.1,0.7-0.6,0.7-1C17.6,10,18.2,9.6,19,9.6c0.8,0,1.3,0.5,1.9,0.3c0.6-0.2,1.3-0.1,1.6,0.4c0.4,0.6,1.4,1.2,1.8,0.6
				c0.3-0.6,1.3-0.9,1.5-0.4c0.2,0.5,1.4,0.9,2.6,0.3c0.8-0.4,1.7,0.8,2.1,2.1l1,0.5l5.9,4.2c0,0,0,0,1.1-0.6
				C39.6,16.6,39.6,14.8,38.9,14.1z"/>
			<path class="st1" d="M38.2,15.8c1.7-1.2-0.7-0.3-1.6-0.5c-0.1,0-0.1,0-0.2,0c-0.1,0-0.2,0,0,0c0.3,0,0.9,0,1.4-0.7
				c0.7-1.1-1.1-0.5-1.4-0.5c-0.3,0-0.3,0,1.1-0.8c1.4-0.8-1-0.3-1.8-0.7c-0.7-0.4,0,0,0.5-1.2c0.5-1.2-0.6-0.1-2.1,0
				c-1.5,0.1,0.3-0.2,1-1.8c0.7-1.7-2.6-0.5-3.6,0.2c-1,0.7-0.5-0.6-0.5-0.6c0.9-1.3-2,0.6-1.7-0.1c0.3-0.7-1.8,0.4-2.4,0.6
				c-0.6,0.2-0.9-0.2-0.5-1.6c0.4-1.4-0.5-2-0.8-1c-0.2,1-0.5,1.8-0.8,1.5c-0.3-0.3-0.9-0.2-1.1-0.3c-0.2,0-0.7-0.6-0.8-1.8
				c-0.1-1.2-0.9,0.1-0.6,1.3c0.3,1.2-0.7,0.7-1.4-1.2c-0.7-1.9-0.4,0.6-0.6,1.5c-0.2,0.9-1.3-0.5-2.6-1.2C16.6,6,17.8,8.3,18.2,9
				c0.4,0.7-0.8,0-1.9-0.2c-1.1-0.2-0.2,0.8,0.5,1.3c0.7,0.6-0.8,0.1-1.7,0.2c-0.9,0.1-0.2,0.6,0.7,1.3c0.9,0.7-0.5,1.1-0.8,1.1
				c-0.4,0-2.1-0.2-1.9,0.7c0.1,0.4-0.1,0.9-0.3,1.2c0,0.1,0.1,0.3,0,0.4c-0.1,0.6-0.4,0.6-0.4,0.8c0.4,0,0.9,0,1.1-0.3
				c0.3-0.6,1-0.9,1.4-1c0.3,0,0.6-1.2,0.8-1.6c0.3-0.4,0.9-0.8,1.2-0.9c0.3-0.1,0.7-0.6,0.7-1c-0.1-0.5,0.5-0.8,1.3-0.8
				c0.8,0,1.3,0.5,1.9,0.3c0.6-0.2,1.3-0.1,1.6,0.4c0.4,0.6,1.4,1.2,1.8,0.6c0.3-0.6,1.3-0.9,1.5-0.4c0.2,0.5,1.4,0.9,2.6,0.3
				c0.8-0.4,1.7,0.8,2.1,2.1l1,0.5l5.9,4.2c0,0,0,0,0.4-0.2C37.1,17.5,36.9,16.7,38.2,15.8z"/>
			<path class="st2" d="M38.6,15.8c1-1-0.5-0.8-0.3-1.2c0.3-0.5-0.3-1.1-0.3-1.1c1.2-1-0.9-1.1-0.9-1.1s-0.6,0.4-0.3-0.8
				c0.3-1.2-0.6-1.3-0.9-1.2c-0.3,0.1-0.7,0.4-0.3-0.4c0.4-0.8-0.1-1.5-0.8-1.7c-0.7-0.2-2.6-0.4-2.9,0c-0.3,0.3-2,0.1-1.9-0.4
				c0-0.4-1.7-0.2-2,0c-0.2,0.2-0.1,1.5-0.9-0.6C26.3,5.2,25.3,7,25.3,7S24.7,7.7,23.7,6c-1-1.6-1.2-0.7-1.2-0.7S22,7.1,21.4,5.9
				C20.8,4.7,20,6,20,6.7c0,0.6-0.2,0.6-0.6,0.2c-0.5-0.4-2-1.1-2.3-0.4c-0.4,0.7,0.6,2.2,0.3,2.1c-0.2-0.1-1.2-0.3-1.8,0.1
				c-0.6,0.4,0.2,1.1,0,1.2c-0.2,0.1-0.5-0.1-1.3,0c-0.8,0.1,0,1.3,0,2.1c0,0.8-0.7,0.2-1.3,0.4c-0.3,0.1-0.5,0.9-0.6,1.5
				c0.1,0.2,0.2,0.5,0.3,0.7c0.2-0.3,0.5-0.7,0.3-1.2c-0.2-0.9,1.5-0.7,1.9-0.7c0.4,0,1.7-0.4,0.8-1.1c-0.9-0.7-1.7-1.2-0.7-1.3
				c0.9-0.1,2.4,0.4,1.7-0.2c-0.7-0.6-1.6-1.5-0.5-1.3C17.4,9,18.7,9.6,18.2,9c-0.4-0.7-1.6-2.9-0.4-2.2c1.3,0.7,2.4,2.1,2.6,1.2
				c0.2-0.9-0.1-3.4,0.6-1.5c0.7,1.9,1.7,2.4,1.4,1.2c-0.3-1.2,0.5-2.5,0.6-1.3c0.1,1.2,0.6,1.7,0.8,1.8c0.2,0,0.8,0,1.1,0.3
				C25.2,8.8,25.5,8,25.7,7c0.2-1,1.1-0.4,0.8,1c-0.4,1.4-0.1,1.8,0.5,1.6c0.6-0.2,2.7-1.3,2.4-0.6c-0.3,0.7,2.6-1.2,1.7,0.1
				c0,0-0.5,1.3,0.5,0.6c1-0.7,4.3-1.9,3.6-0.2c-0.7,1.7-2.5,2-1,1.8c1.5-0.1,2.6-1.3,2.1,0c-0.5,1.2-1.3,0.9-0.5,1.2
				c0.7,0.4,3.2-0.2,1.8,0.7c-1.4,0.8-1.4,0.8-1.1,0.8c0.3,0,2.1-0.6,1.4,0.5c-0.5,0.7-1.4,0.7-1.6,0.7c0,0,0.5,0.4,0.5,0.4
				c0.8,0.2,3-0.9,1.3,0.2c-1.3,0.9-0.9,1.6-0.3,2.1c0.1-0.1,0.3-0.2,0.6-0.3C38.1,17,38.1,16.3,38.6,15.8z"/>
			<path class="st4" d="M13.3,11c0-0.5,0.4-1.1,1.2-1.8c0.8-0.7,1-0.8,1.2-1.1c0.2-0.3,0.4-0.3,0.7-0.4c0.2,0-0.2-1.6,0.5-2
				c0.7-0.4,1.2-0.5,1.8-0.1C19.4,6,20,5.4,20.5,4.9c0.5-0.5,0.8-0.8,1.1-0.4C22,5,22.4,4.8,22.8,4.4c0.3-0.3,0.8-0.2,1.4,0.7
				c0.5,0.9,0.8,0.9,1.4,0.5C26.1,5.3,26.3,5,27,6c0.7,1.1,0.7,1.6,1.2,1.2c0.5-0.4,1.4-1.3,2-0.1c0.6,1.1,0.9,0.6,1.3,0.4
				c0.5-0.2,1.8-0.4,2.8,0.1c1,0.5,1.6,0.8,1.7,1.7c0.1,0.8,0.9,1.1,0.9,1.1s0.5,0.1,0.2,1.2c-0.2,0.7,0.7,0.7,1.3,0.6
				c-0.1-0.6-0.6-1-0.8-1.1c-0.2-0.1-0.6-1.5-1.1-2.2c-0.5-0.7-2.4-2-3.6-2c-1.2,0-2.8-1.4-3.6-2.1c-0.7-0.6-1.8-0.8-2.6-0.8
				c-0.7,0-1.2-0.2-2.1-0.6c-0.9-0.4-4.2-0.1-4.6,0.1c-0.4,0.2-0.9,0.8-2,0.7c-1,0-2.3,0.3-2.2,1.3c0.1,1-0.1,1.9-0.5,2.2
				c-0.4,0.3-1,0.9-1.4,1.4c-0.4,0.6-0.6-0.2-1.9,1.5c-0.6,0.8-0.5,1.5-0.2,2.2c0.2-0.4,0.4-0.8,0.6-1.1
				C13.2,11.4,13.3,11.6,13.3,11z"/>
			<path class="st6" d="M28.3,11.3c-1.2,0.6-2.3,0.3-2.6-0.3c-0.2-0.5-1.2-0.1-1.5,0.4c-0.3,0.6-1.4-0.1-1.8-0.6
				c-0.4-0.6-1-0.6-1.6-0.4c-0.6,0.2-1.1-0.3-1.9-0.3c-0.8,0-1.4,0.3-1.3,0.8c0.1,0.5-0.4,0.9-0.7,1c-0.3,0.1-1,0.4-1.2,0.9
				c-0.3,0.4-0.5,1.6-0.8,1.6c-0.3,0-1.1,0.4-1.4,1c-0.2,0.3-0.6,0.4-1.1,0.3c0,0.1,0,0.2,0.2,0.4c0.4,0.8,0.3,1.8,0.3,1.8l1.3-0.9
				c0,0,0.4-0.3,0.4-0.7c0-0.4,1-0.6,1.1-1.2c0.1-0.5,1.4-1.6,1.7-1.5c0.3,0.1,1.4-0.8,1.5-1c0.1-0.2,1.6-0.9,2.6-0.6
				c1,0.3,3,0,3.5-0.1c0.6-0.1,2.5,0.5,2.5,0.5l0.8-0.1l2.1,1C30,12.1,29.1,10.9,28.3,11.3z"/>
			<path class="st3" d="M38.7,14.6c-0.7-0.6-0.3-1.5-0.2-2.2c0-0.1,0-0.1,0-0.2c-0.6,0.1-1.5,0.1-1.3-0.6c0.3-1.1-0.2-1.2-0.2-1.2
				s-0.8-0.3-0.9-1.1c-0.1-0.8-0.7-1.2-1.7-1.7c-1-0.5-2.4-0.3-2.8-0.1c-0.4,0.2-0.7,0.7-1.3-0.4c-0.6-1.1-1.5-0.3-2,0.1
				C27.7,7.7,27.7,7.1,27,6c-0.7-1.1-0.9-0.7-1.5-0.4c-0.6,0.3-0.8,0.4-1.4-0.5c-0.5-0.9-1-1.1-1.4-0.7C22.4,4.8,22,5,21.7,4.5
				c-0.3-0.4-0.6-0.1-1.1,0.4c-0.5,0.5-1.1,1-1.8,0.7c-0.6-0.3-1.1-0.3-1.8,0.1c-0.7,0.4-0.3,1.9-0.5,2c-0.2,0-0.5,0-0.7,0.4
				c-0.2,0.3-0.4,0.4-1.2,1.1c-0.8,0.7-1.2,1.2-1.2,1.8c0,0.5-0.2,0.4-0.7,0.9c-0.2,0.3-0.5,0.7-0.6,1.1c0.1,0.3,0.3,0.6,0.4,0.9
				c0.1-0.6,0.2-1.4,0.6-1.5c0.6-0.2,1.3,0.4,1.3-0.4c0-0.8-0.8-2.1,0-2.1c0.8-0.1,1.2,0.1,1.3,0c0.2-0.1-0.7-0.8,0-1.2
				c0.6-0.4,1.6-0.2,1.8-0.1c0.2,0.1-0.7-1.5-0.3-2.1c0.4-0.7,1.9,0,2.3,0.4c0.5,0.4,0.7,0.5,0.6-0.2c0-0.6,0.8-2,1.4-0.8
				c0.6,1.2,1.1-0.5,1.1-0.5s0.3-1,1.2,0.7c1,1.6,1.6,0.9,1.6,0.9s1-1.7,1.7,0.3c0.7,2.1,0.6,0.8,0.9,0.6c0.2-0.2,2-0.5,2,0
				c0,0.4,1.6,0.7,1.9,0.4c0.3-0.3,2.2-0.1,2.9,0c0.7,0.2,1.2,0.9,0.8,1.7c-0.4,0.8,0,0.5,0.3,0.4c0.3-0.1,1.3,0,0.9,1.2
				c-0.3,1.2,0.3,0.8,0.3,0.8s2.1,0,0.9,1.1c0,0,0.6,0.6,0.3,1.1c-0.3,0.5,1.3,0.2,0.3,1.2c-0.5,0.5-0.4,1.2-0.2,1.9c0,0,0,0,0.1,0
				C39.4,17.1,39.5,15.2,38.7,14.6z"/>
			<g>
				<g>
					<g>
						<path class="st5" d="M26.3,11.9c0.2-0.2,0.4-0.4,0.5-0.7c0.2-0.4,1.3-2.1,1.3-2.1c0,0,0.1-0.1,0.2-0.2
							c0.2-0.1,0.4-0.3,0.6-0.6c0.4-0.5,0.7-1,0.8-1.2c0.2-0.3,0.2-0.6,0.3-0.9c-0.2,0.3-0.3,0.4-0.5,0.8c-0.1,0.2-0.4,0.7-0.7,1.1
							c-0.2,0.2-0.3,0.4-0.5,0.5C28,8.9,28,9,28,9c0,0-1.1,1.7-1.3,2.1C26.5,11.4,26.4,11.6,26.3,11.9z"/>
					</g>
				</g>
				<g>
					<g>
						<path class="st5" d="M26.5,11.4c-0.3-0.2-0.4-0.4-0.6-0.6c-0.1-0.1-0.3-0.7-0.2-1.3c0.1-0.6,0.2-1.1,0.2-1.1
							c0,0,0.5-2,0.6-2.4c0.1-0.4,0.1-0.6,0-0.9c-0.1,0.3-0.2,0.5-0.2,0.9c-0.1,0.4-0.6,2.4-0.6,2.4c0,0-0.1,0.5-0.2,1.1
							c-0.1,0.6,0.1,1.2,0.3,1.4C26,11.2,26.2,11.4,26.5,11.4z"/>
					</g>
				</g>
				<g>
					<g>
						<path class="st5" d="M27.6,9.7c0.3,0.2,0.5,0.2,0.8,0.3c0.2,0,0.8,0.1,1.3-0.2c0.5-0.3,0.8-0.6,0.8-0.6c0,0,1.6-1,2-1.2
							c0.3-0.2,0.5-0.3,0.7-0.5c-0.3,0.1-0.5,0.1-0.8,0.3c-0.4,0.2-2,1.1-2,1.2c0,0-0.4,0.3-0.8,0.6c-0.4,0.2-1,0.2-1.2,0.2
							C28.1,9.7,27.9,9.7,27.6,9.7z"/>
					</g>
				</g>
				<g>
					<g>
						<path class="st5" d="M22.8,4.4c-0.1,0.4-0.2,0.6-0.2,1c-0.1,0.5,0.1,2.8,0.1,2.8c-0.1,0,0.4,2.3,0.7,2.7
							c0.2,0.4,0.3,0.6,0.6,0.9c-0.1-0.3-0.2-0.6-0.4-1c-0.3-0.4-0.8-2.7-0.7-2.7c0,0-0.2-2.3-0.1-2.8C22.8,5,22.8,4.8,22.8,4.4z"/>
					</g>
				</g>
				<g>
					<g>
						<path class="st5" d="M17,5.5c0,0.4,0,0.7,0.2,1.1c0.1,0.2,0.3,1,0.8,1.5C18.5,8.7,19.1,9,19,9c0,0,0.5,0.4,0.9,0.9
							c0.2,0.7,1,1.1,1.2,1.2c0.4,0.2,0.7,0.3,1,0.5c-0.3-0.2-0.5-0.4-0.9-0.7c-0.2-0.2-1-0.4-1.1-1.2c-0.4-0.6-0.9-1-0.9-1
							c0,0-0.6-0.3-1-0.8c-0.4-0.5-0.7-1.2-0.7-1.5C17.3,6.1,17.2,5.9,17,5.5z"/>
					</g>
				</g>
				<g>
					<g>
						<path class="st5" d="M13.3,10.3c0.3,0.1,0.5,0.2,0.9,0.3c0.4,0.1,2.3,0.5,2.3,0.6c0,0,0.1,0,0.2,0.1c0.2,0.2,0.4,0.2,0.7,0.3
							c0.5,0.2,1.2,0.2,1.4,0.2c0.4,0,0.6,0,0.9-0.1c-0.3,0-0.5-0.1-0.9-0.2c-0.2,0-0.8-0.1-1.3-0.2c-0.3-0.1-0.5-0.2-0.6-0.3
							c-0.2-0.1-0.3-0.2-0.3-0.2c0-0.1-2-0.6-2.4-0.6C13.8,10.2,13.6,10.2,13.3,10.3z"/>
					</g>
				</g>
				<g>
					<g>
						<path class="st5" d="M14.8,9.3c0.2,0.1,0.4,0.2,0.7,0.2c0.3,0,1.9,0.4,1.9,0.5c0,0,1.5,0.6,1.7,0.9c0.2,0.2,0.3,0.3,0.6,0.5
							c-0.1-0.2-0.2-0.4-0.4-0.6c-0.2-0.3-1.8-1-1.8-1c0,0-1.6-0.5-1.9-0.5C15.3,9.2,15.1,9.3,14.8,9.3z"/>
					</g>
				</g>
				<g>
					<g>
						<path class="st5" d="M13.3,14.2c0.2,0,0.3,0.1,0.5,0c0.1,0,0.4-0.1,0.6-0.3c0.3-0.2,0.4-0.3,0.4-0.3c0-0.1,0.9-0.2,1.1-0.2
							c0.2,0,0.3,0,0.5-0.1c-0.1-0.1-0.2-0.1-0.4-0.2c-0.2-0.1-1.3,0.1-1.2,0.2c-0.1,0.1-0.8,0.6-1,0.6C13.5,14,13.5,14.1,13.3,14.2
							z"/>
					</g>
				</g>
				<g>
					<g>
						<path class="st5" d="M20.2,4.7c-0.1,0.3-0.1,0.5,0,0.9c0,0.4,0.6,2.2,0.7,2.2c0,0,0.2,0.4,0.5,0.9c0.3,0.4,0.8,0.8,0.9,0.9
							c0.3,0.2,0.5,0.3,0.8,0.3c-0.2-0.2-0.4-0.3-0.7-0.5c-0.2-0.1-0.6-0.5-0.9-0.9C21.2,8.1,21,7.7,21,7.7c-0.1,0-0.7-1.8-0.6-2.1
							C20.3,5.2,20.3,5,20.2,4.7z"/>
					</g>
				</g>
				<g>
					<g>
						<path class="st5" d="M35.3,8.6c-0.2,0-0.3,0-0.4,0.1c-0.2,0.1-1,0.5-1,0.5c0,0-0.8,0.5-0.9,0.6c-0.1,0.1-0.2,0.2-0.2,0.4
							c0.1-0.1,0.2-0.1,0.3-0.2C33.3,9.9,34,9.4,34,9.4c0,0,0.8-0.4,0.9-0.5C35.1,8.8,35.2,8.7,35.3,8.6z"/>
					</g>
				</g>
				<g>
					<g>
						<path class="st5" d="M37.2,11.2c-0.1,0-0.2,0-0.3,0c-0.1,0.1-0.7,0.3-0.7,0.3c0,0-0.6,0.2-0.7,0.2c-0.1,0-0.1,0.1-0.3,0.1
							c0.1,0.1,0.2,0.1,0.3,0.1c0.1,0,0.7-0.2,0.7-0.3c0,0,0.6-0.3,0.7-0.3C37.1,11.4,37.2,11.3,37.2,11.2z"/>
					</g>
				</g>
				<g>
					<g>
						<path class="st5" d="M38,14.2c0-0.1-0.1-0.1-0.2-0.1c-0.1,0-0.5-0.1-0.5-0.1c0,0-0.4,0-0.5,0c-0.1,0-0.1,0.1-0.2,0.1
							c0.1,0.1,0.1,0.1,0.2,0.1c0.1,0,0.4,0,0.4,0c0,0,0.4,0.1,0.5,0.1C37.9,14.2,37.9,14.2,38,14.2z"/>
					</g>
				</g>
				<g>
					<g>
						<path class="st5" d="M39,15.8c0-0.1-0.1-0.2-0.1-0.2c-0.1-0.1-0.6-0.3-0.6-0.3c0,0-0.5-0.2-0.7-0.2c-0.1,0-0.2,0-0.3,0.1
							c0.1,0.1,0.1,0.1,0.2,0.1c0.1,0,0.6,0.2,0.6,0.2c0,0,0.5,0.3,0.6,0.3C38.9,15.8,38.9,15.8,39,15.8z"/>
					</g>
				</g>
			</g>
		</g>
		<path class="st6" d="M13.6,36.8l1.3,0.1c0,0,0.6,0.5,0.9,0.6c0.3,0.1,0.4,0.1,0.6,0.3c0.2,0.2,1.5,0.9,1.9,0.2
			c0.4-0.7-2.2-1.9-2.2-1.9l-1-0.3l-0.4,0L13.6,36.8z"/>
		<g>
			<path class="st13" d="M17.7,35.2c-0.2-0.2-0.3-0.4-0.5-0.5c-2.7,0-3.8-0.1-3.8-0.1l3.3-0.5l-0.2-0.3l-3,0.4l1-1.3
				c0,0,0.3-0.4,0.6-0.8l-0.3-0.3c-0.6,0.5-1.5,2.1-1.6,1.9c-0.1-0.2,0.2-2.3,0.4-3.4l-0.4-0.5c-0.2,1.2-0.3,4-0.3,4l-0.3-4.7
				l-0.5-0.5c0.1,1,0.6,5,0.7,5.2c0,0.1-0.1,0.4-0.2,0.6c0.1,0.2,0.2,0.4,0.5,0.5c0.2-0.1,0.3-0.3,0.3-0.3
				C14,35.2,16.6,35.2,17.7,35.2z"/>
			<g>
				
					<radialGradient id="SVGID_2_" cx="236.8461" cy="1348.0649" r="28.0849" gradientTransform="matrix(0.2862 7.850000e-002 -7.850000e-002 0.2862 53.4851 -374.6859)" gradientUnits="userSpaceOnUse">
					<stop  offset="0" style="stop-color:#457D37"/>
					<stop  offset="0.366" style="stop-color:#467F37"/>
					<stop  offset="0.5345" style="stop-color:#4C8736"/>
					<stop  offset="0.6364" style="stop-color:#529036"/>
					<stop  offset="1" style="stop-color:#B7C671"/>
				</radialGradient>
				<path class="st14" d="M13.2,29.8l-0.3-0.4l-0.3-0.3l0.3,4.7C12.9,33.9,13,31,13.2,29.8z"/>
				
					<radialGradient id="SVGID_3_" cx="236.8474" cy="1348.0646" r="28.0867" gradientTransform="matrix(0.2862 7.850000e-002 -7.850000e-002 0.2862 53.4851 -374.6859)" gradientUnits="userSpaceOnUse">
					<stop  offset="0" style="stop-color:#457D37"/>
					<stop  offset="0.366" style="stop-color:#467F37"/>
					<stop  offset="0.5345" style="stop-color:#4C8736"/>
					<stop  offset="0.6364" style="stop-color:#529036"/>
					<stop  offset="1" style="stop-color:#B7C671"/>
				</radialGradient>
				<path class="st15" d="M14.8,31.8l-0.3-0.4l-0.9-1.1c-0.2,1.1-0.5,3.2-0.4,3.4C13.3,33.8,14.2,32.3,14.8,31.8z"/>
				
					<radialGradient id="SVGID_4_" cx="236.8484" cy="1348.0614" r="28.0893" gradientTransform="matrix(0.2862 7.850000e-002 -7.850000e-002 0.2862 53.4851 -374.6859)" gradientUnits="userSpaceOnUse">
					<stop  offset="0" style="stop-color:#457D37"/>
					<stop  offset="0.366" style="stop-color:#467F37"/>
					<stop  offset="0.5345" style="stop-color:#4C8736"/>
					<stop  offset="0.6364" style="stop-color:#529036"/>
					<stop  offset="1" style="stop-color:#B7C671"/>
				</radialGradient>
				<path class="st16" d="M17.3,34.7c-0.1-0.1-0.2-0.2-0.2-0.2l-0.3-0.4l-3.3,0.5C13.5,34.6,14.6,34.7,17.3,34.7z"/>
				
					<radialGradient id="SVGID_5_" cx="236.8474" cy="1348.0668" r="28.0821" gradientTransform="matrix(0.2862 7.850000e-002 -7.850000e-002 0.2862 53.4851 -374.6859)" gradientUnits="userSpaceOnUse">
					<stop  offset="0" style="stop-color:#457D37"/>
					<stop  offset="0.366" style="stop-color:#467F37"/>
					<stop  offset="0.5345" style="stop-color:#4C8736"/>
					<stop  offset="0.6364" style="stop-color:#529036"/>
					<stop  offset="1" style="stop-color:#B7C671"/>
				</radialGradient>
				<path class="st17" d="M13.5,34.2l3-0.4L15.9,33l-0.8-0.9c-0.2,0.4-0.6,0.8-0.6,0.8L13.5,34.2z"/>
				
					<radialGradient id="SVGID_6_" cx="236.8469" cy="1348.0712" r="28.078" gradientTransform="matrix(0.2862 7.850000e-002 -7.850000e-002 0.2862 53.4851 -374.6859)" gradientUnits="userSpaceOnUse">
					<stop  offset="0" style="stop-color:#457D37"/>
					<stop  offset="0.366" style="stop-color:#467F37"/>
					<stop  offset="0.5345" style="stop-color:#4C8736"/>
					<stop  offset="0.6364" style="stop-color:#529036"/>
					<stop  offset="1" style="stop-color:#B7C671"/>
				</radialGradient>
				<path class="st18" d="M16.6,36c0,0,1.3,0.2,2,0.4c-0.3-0.4-0.6-0.8-0.9-1.1c-1.2,0-3.7,0-4.3-0.4c0,0-0.2,0.2-0.3,0.3
					c0,0,0,0,0,0c0.4,0.1,0.7,0.3,0.9,0.5c0,0,0.1,0,0.1,0C14.6,35.6,16.6,36,16.6,36z"/>
				
					<radialGradient id="SVGID_7_" cx="236.8479" cy="1348.0656" r="28.0836" gradientTransform="matrix(0.2862 7.850000e-002 -7.850000e-002 0.2862 53.4851 -374.6859)" gradientUnits="userSpaceOnUse">
					<stop  offset="0" style="stop-color:#457D37"/>
					<stop  offset="0.366" style="stop-color:#467F37"/>
					<stop  offset="0.5345" style="stop-color:#4C8736"/>
					<stop  offset="0.6364" style="stop-color:#529036"/>
					<stop  offset="1" style="stop-color:#B7C671"/>
				</radialGradient>
				<path class="st19" d="M18.8,36.6c-0.6-0.1-2.3-0.4-2.3-0.4c0,0-1.6-0.3-2.2-0.4c0,0.1,0.1,0.1,0.1,0.1c0.1,0.3,1.1,1,1.6,1.2
					c0.4,0.2,0.6,0.4,0.7,0.6c0.1,0.1,1.7,0.7,2.4,0.1C19.3,37.6,19.1,37.1,18.8,36.6z"/>
				
					<radialGradient id="SVGID_8_" cx="236.8491" cy="1348.0656" r="28.0848" gradientTransform="matrix(0.2862 7.850000e-002 -7.850000e-002 0.2862 53.4851 -374.6859)" gradientUnits="userSpaceOnUse">
					<stop  offset="0" style="stop-color:#457D37"/>
					<stop  offset="0.366" style="stop-color:#467F37"/>
					<stop  offset="0.5345" style="stop-color:#4C8736"/>
					<stop  offset="0.6364" style="stop-color:#529036"/>
					<stop  offset="1" style="stop-color:#B7C671"/>
				</radialGradient>
				<path class="st20" d="M9.8,27.7c0-0.2,0-0.4,0-0.5l-0.5-0.3L9,27c0,0,0.2,2.5,0.3,2.7c0.2,0.2,0.6,1.5,0.7,1.6
					c0,0.1,0.3,0.2,0.4,0.3c-0.2-0.7-0.3-1.5-0.3-1.5C10.1,30.1,9.8,28.1,9.8,27.7z"/>
				
					<radialGradient id="SVGID_9_" cx="236.8476" cy="1348.0654" r="28.0842" gradientTransform="matrix(0.2862 7.850000e-002 -7.850000e-002 0.2862 53.4851 -374.6859)" gradientUnits="userSpaceOnUse">
					<stop  offset="0" style="stop-color:#457D37"/>
					<stop  offset="0.366" style="stop-color:#467F37"/>
					<stop  offset="0.5345" style="stop-color:#4C8736"/>
					<stop  offset="0.6364" style="stop-color:#529036"/>
					<stop  offset="1" style="stop-color:#B7C671"/>
				</radialGradient>
				<path class="st21" d="M12.7,33.9c-0.1-0.2-0.5-4.2-0.7-5.2l-0.5-0.4l-1.6-1c0,0.1,0,0.2,0.1,0.4c0,0.4,0.3,2.4,0.3,2.4
					c0,0,0.2,1,0.4,1.7c0.1,0,0.1,0,0.1,0s0.6,0.7,0.7,1.1c0,0.4,0.9,1,1,1.1c0.1,0,0,0.3,0.1,0.5C12.7,34.3,12.8,34,12.7,33.9z"/>
			</g>
			<path class="st13" d="M10,27.7c0-0.2,0-0.3-0.1-0.4l-0.2-0.1c0,0.2,0,0.3,0,0.5c0,0.4,0.3,2.4,0.3,2.4c0,0,0.2,0.8,0.3,1.5
				c0.1,0.1,0.2,0.1,0.3,0.1C10.5,31,10.3,30,10.3,30C10.3,30,10.1,28.1,10,27.7z"/>
			<path class="st13" d="M18.8,36.6c-0.1-0.1-0.1-0.2-0.2-0.3c-0.7-0.1-2-0.4-2-0.4c0,0-2-0.4-2.4-0.5c0,0-0.1,0-0.1,0
				c0.1,0.1,0.2,0.2,0.2,0.3c0.6,0.1,2.2,0.4,2.2,0.4C16.5,36.2,18.2,36.5,18.8,36.6z"/>
		</g>
		<g>
			<path class="st11" d="M29.4,35.2c-1,0.1-0.9,0.2-1.2-0.1c-0.1,0-0.2-0.1-0.3-0.1c-0.4,0-1.2,0.1-2,0.3c-0.7,0.2-1.4,0.5-1.9,0.8
				c0,0-2.4-0.1-3-0.6c-0.5-0.5-0.3-0.7-1.9-0.9c-1.6-0.2-1.8-0.7-1.8-0.7s0.1-0.3-1.5-1.2c-1.7-0.9-1.6-1.9-1.6-1.9s-3.6-3.8-4-4.5
				c-0.4-0.7,0.6-1.6-0.3-3.6c0,0,0-0.1,0-0.2c0.1-0.4,0.2-1.2,0.4-1.9c0.2-0.6,0.3-1.1,0.5-1.1c0,0-0.1-0.2-0.2-0.4
				c-0.1-0.3-0.4-0.7-0.7-0.6c-0.5,0-0.4,0.3-0.5,0c-0.1-0.3-0.9-0.8-1.1-0.6c-0.3,0.2-0.7,0.5-0.8,0.3c-0.2-0.2-0.7-0.8-1-0.6
				c-0.3,0.3-1,1.3-0.2,3.2c0,0-2.1,3.4,3.1,7.3c5.2,3.8,5.9,4.8,5.9,6.6c-0.1,1.8,2.3,3.9,4.9,3.3c2.7-0.6,3.1-0.1,3.7,0.3
				c0.6,0.4,1.8-0.1,2.1-0.3c0.3-0.2,3.9,0.6,3.6-1.1c0,0,0-0.6,0.5-0.9C30.6,35.9,30.4,35.1,29.4,35.2z"/>
			<path class="st1" d="M10.2,20c-0.4-0.7-0.5-1.3-0.5-1.3S9.5,21,9,20.6c-0.5-0.4-0.8-1.7-0.8-1.7S7.8,20,8.3,20.7
				C8.8,21.4,10,23.1,10,24c0,0.8-0.3,0.6-0.7-0.2c-0.4-0.7-1.1-1.6-1.1-1.6l-0.7-0.5l-0.3-0.4c0,0-0.2,0.4,0.1,0.7
				c0.3,0.3,1.4,1.6,1.5,1.9c0.1,0.4,0.7,0.9,0.8,1.2l0.4,0.8c0,0-1.3-0.8-2.1-0.9l-0.5-0.1c0,0,2.6,1.3,2.9,1.6
				c0.3,0.4,1.4,1.6,1.5,1.8c0.1,0.2,0.5,0.7,0.5,0.7l0.2,0.3l-0.8-0.2c0,0-0.1,0.2,0.6,0.4c0.8,0.2,1.7,1,1.8,1.2
				c0.1,0.2,0.4,1,0.4,1s1.3,1.2,1.8,1.5c0.5,0.3,0.7,0.9,0.7,1.1c0,0.2-0.5,1.3-0.5,1.3s0,1.4,0.3,0.5c0.3-0.8,0.6-2,1.4-1.6
				c0.8,0.4,1.8,0.4,1.9,0.6c0.1,0.3,0.6,0.4,0.6,0.4s-0.1,0.6-0.2,0.8c0,0.2-0.4,1-0.4,1s0,0.9,0.4,0.2c0.4-0.6,0.6-1.8,0.8-1.7
				c0.2,0.1,2.2,0.3,2.5,0.4c0.3,0.1,0.6,0,0.8,0.3c0.1,0.3,0.7,1.2,0.7,1.2s0.3,0.4,0.3,0.1c0-0.3-0.4-1.3-0.7-1.6
				c-0.3-0.3,1.4-0.4,1.7-0.3c0.3,0.1,1.9,0.4,2.3,0.8c0.4,0.4,0.3-0.4-0.4-0.8c-0.7-0.4-1.6-0.5-2.1-0.5c-0.1,0-0.2-0.1-0.4-0.2
				c-0.7,0.2-1.4,0.5-1.9,0.8c0,0-2.4-0.1-3-0.6c-0.5-0.5-0.3-0.7-1.9-0.9c-1.6-0.2-1.8-0.7-1.8-0.7s-0.2,0.1-1.5-1.2
				c-1.5-1.4-1.6-1.9-1.6-1.9s-3.6-3.8-4-4.5c-0.4-0.7,0.6-1.6-0.3-3.6c0,0,0-0.1,0-0.2C9.7,21.5,9.9,20.6,10.2,20z"/>
			<path class="st3" d="M29.7,35.1c-1,0.1-0.9,0.2-1.2-0.1c-0.1,0-0.2-0.1-0.3-0.1c0.1,0.3,0.5,0.6,0.8,0.7c0.4,0.1,0.5,0.8,0.5,1.2
				c0,0.4-0.9,0.3-2.2-0.3c-1.3-0.6-1.7-0.2-1.5-0.1c0.2,0.1,0.6,0.2,0.2,1.3c-0.4,1.1-1.6-0.5-1.6-0.7c-0.1-0.2-1.4-0.5-1.9-0.6
				c-0.4-0.1-0.6,0.1-1.4,1c-0.8,0.9-1.1,0.2-1.2,0.1c-0.1-0.1-0.2-1.6-0.2-1.6s0,0,0-0.4c0-0.4-1.1-0.5-2.5,0.7
				c-1.3,1.2-0.7-1.6-0.6-2c0.1-0.5-0.4-0.9-1.3-1.8c-1-0.9-1.4-1.6-1.5-1.7c-0.1-0.1-0.3-0.6-1.6-1.1c-1.3-0.6-1-1.1-0.6-1.2
				c0.3,0-0.3-0.4-0.6-0.4c-0.3-0.1-0.7-0.9-0.9-1.2c-0.2-0.4-0.9-0.1-2.4-1.4c-1.5-1.3,0.7-0.9,1.1-0.9c0.4,0-1.1-0.7-1-1.1
				c0.1-0.4-0.6-1.1-0.8-2c-0.1-0.9,0.7-0.6,0.7-1c0.1-0.3-0.2-1.7,0-2c0.1-0.3,1,0.3,1.2,0.3c0.2-0.1,0.2-0.3,0.4-0.4
				c0.3-0.2,0.6,0.4,0.8,0.6c0.1,0.1,0.3,0.3,0.5,0.5c0.2-0.2,0.3-0.3,0.5-0.4c-0.1-0.3-0.4-0.7-0.7-0.6c-0.5,0-0.4,0.3-0.5,0
				c-0.1-0.3-0.9-0.8-1.1-0.6c-0.3,0.2-0.7,0.5-0.8,0.3c-0.2-0.2-0.7-0.8-1-0.6c-0.3,0.3-1,1.3-0.2,3.2c0,0-2.1,3.4,3.1,7.3
				c5.2,3.8,5.9,4.8,5.9,6.6c-0.1,1.8,2.3,3.9,4.9,3.3c2.7-0.6,3.1-0.1,3.7,0.3c0.6,0.4,1.8-0.1,2.1-0.3c0.3-0.2,3.9,0.6,3.6-1.1
				c0,0,0-0.6,0.5-0.9C30.9,35.8,30.7,35,29.7,35.1z"/>
			<path class="st2" d="M9.3,18.4c-0.3,0.2-0.2,0.4-0.4,0.4c-0.2,0.1-1.1-0.6-1.2-0.3c-0.1,0.3,0.1,1.6,0,2c-0.1,0.3-0.8,0-0.7,1
				c0.1,0.9,0.9,1.6,0.8,2c-0.1,0.4,1.4,1.1,1,1.1c-0.4,0-2.6-0.4-1.1,0.9c1.5,1.3,2.2,1,2.4,1.4c0.2,0.4,0.6,1.1,0.9,1.2
				c0.3,0.1,0.9,0.4,0.6,0.4c-0.3,0-0.7,0.6,0.6,1.2c1.3,0.6,1.6,1,1.6,1.1c0.1,0.1,0.5,0.8,1.5,1.7c1,0.9,1.5,1.3,1.3,1.8
				c-0.1,0.5-0.7,3.2,0.6,2c1.3-1.2,2.5-1,2.5-0.7c0,0.4,0,0.4,0,0.4s0.1,1.6,0.2,1.6c0.1,0.1,0.4,0.8,1.2-0.1c0.8-0.9,1-1.2,1.4-1
				c0.4,0.1,1.8,0.4,1.9,0.6c0.1,0.2,1.3,1.8,1.6,0.7c0.4-1.1,0-1.2-0.2-1.3c-0.2-0.1,0.3-0.5,1.5,0.1c1.3,0.6,2.2,0.7,2.2,0.3
				c0-0.4-0.1-1.1-0.5-1.2c-0.3-0.1-0.7-0.4-0.8-0.7c-0.4,0-1.2,0.1-2,0.3c0.1,0.1,0.3,0.2,0.4,0.2c0.5,0,1.3,0.1,2.1,0.5
				c0.7,0.4,0.9,1.1,0.4,0.8c-0.4-0.4-2.1-0.6-2.3-0.8c-0.3-0.1-2,0-1.7,0.3c0.3,0.3,0.7,1.3,0.7,1.6c0,0.3-0.3-0.1-0.3-0.1
				s-0.6-0.9-0.7-1.2c-0.1-0.3-0.5-0.2-0.8-0.3c-0.3-0.1-2.3-0.4-2.5-0.4c-0.2-0.1-0.4,1.1-0.8,1.7c-0.4,0.6-0.4-0.2-0.4-0.2
				s0.3-0.8,0.4-1c0-0.2,0.2-0.8,0.2-0.8s-0.5-0.1-0.6-0.4c-0.1-0.3-1.1-0.2-1.9-0.6c-0.8-0.4-1,0.8-1.4,1.6
				c-0.3,0.8-0.3-0.5-0.3-0.5s0.5-1.2,0.5-1.3c0-0.2-0.2-0.8-0.7-1.1c-0.5-0.3-1.8-1.5-1.8-1.5s-0.3-0.9-0.4-1c-0.1-0.2-1-1-1.8-1.2
				c-0.8-0.2-0.6-0.4-0.6-0.4l0.8,0.2L12.3,29c0,0-0.5-0.6-0.5-0.7c-0.1-0.2-1.2-1.4-1.5-1.8c-0.3-0.4-2.9-1.6-2.9-1.6L7.9,25
				c0.7,0.1,2.1,0.9,2.1,0.9l-0.4-0.8c-0.1-0.3-0.8-0.8-0.8-1.2c-0.1-0.4-1.2-1.6-1.5-1.9c-0.3-0.3-0.1-0.7-0.1-0.7l0.3,0.4l0.7,0.5
				c0,0,0.8,0.9,1.1,1.6c0.4,0.7,0.7,1,0.7,0.2c0-0.8-1.2-2.6-1.7-3.3c-0.5-0.7-0.1-1.8-0.1-1.8s0.3,1.3,0.8,1.7
				c0.5,0.4,0.7-1.9,0.7-1.9s0.2,0.7,0.5,1.3c0.1-0.2,0.2-0.3,0.4-0.5c-0.2-0.2-0.4-0.5-0.5-0.5C9.9,18.9,9.6,18.2,9.3,18.4z"/>
			<g>
				<g>
					<g>
						<path class="st5" d="M9.7,18.7c-0.1,0.1-0.1,0.2-0.1,0.3c0,0.1-0.1,0.8-0.1,0.8c0,0-0.1,0.6-0.1,0.8c0,0.1,0,0.2,0,0.3
							c0.1-0.1,0.2-0.1,0.2-0.3c0-0.1,0.1-0.8,0.1-0.8c0,0,0.1-0.7,0.1-0.8C9.8,18.8,9.8,18.8,9.7,18.7z"/>
					</g>
				</g>
				<g>
					<g>
						<path class="st5" d="M8.2,18.8c0,0.3,0,0.5,0.1,0.9c0,0.2,0.2,0.9,0.6,1.2c0.3,0.5,0.5,0.9,0.5,0.9c0,0,0.8,1.8,0.9,2.2
							c0.1,0.4,0.2,0.5,0.2,0.8c0.1-0.3,0.1-0.5,0-0.9c-0.1-0.4-0.9-2.3-0.9-2.2c0,0-0.2-0.5-0.5-0.9c-0.4-0.5-0.5-0.9-0.6-1.2
							C8.3,19.3,8.3,19.1,8.2,18.8z"/>
					</g>
				</g>
				<g>
					<g>
						<path class="st5" d="M7,21.1c0.1,0.2,0.1,0.3,0.3,0.5c0.1,0.1,0.3,0.4,0.7,0.6c0.2,0.2,0.4,0.5,0.4,0.4c0,0,0.7,1,0.8,1.3
							c0.1,0.2,0.2,0.3,0.3,0.5c0-0.2,0-0.4-0.1-0.6c-0.1-0.3-0.8-1.3-0.8-1.3c0,0-0.2-0.3-0.5-0.5c-0.3-0.1-0.5-0.4-0.6-0.5
							C7.2,21.3,7.1,21.2,7,21.1z"/>
					</g>
				</g>
				<g>
					<g>
						<path class="st5" d="M7.3,24.9C7.4,25,7.5,25,7.7,25.1c0.2,0,1.1,0.3,1.1,0.3c0,0,0.8,0.4,1,0.5C9.9,26,10,26,10.1,26
							c-0.1-0.1-0.1-0.2-0.3-0.3c-0.1-0.1-1-0.6-1-0.6c0,0-0.9-0.3-1.1-0.3C7.5,24.8,7.4,24.8,7.3,24.9z"/>
					</g>
				</g>
				<g>
					<g>
						<path class="st5" d="M11.3,29c0.1,0.1,0.1,0.1,0.2,0.1c0.1,0,0.5,0.1,0.5,0.1c0,0,0.4,0.1,0.5,0.2c0.1,0,0.1,0,0.2,0
							c0-0.1,0-0.1-0.1-0.2C12.5,29.2,12,29,12,29c0,0-0.4-0.1-0.5-0.1C11.4,28.9,11.4,29,11.3,29z"/>
					</g>
				</g>
				<g>
					<g>
						<path class="st5" d="M16.5,36.3c0.1-0.1,0.1-0.2,0.1-0.3c0-0.1,0.2-0.7,0.2-0.7c0,0,0.2-0.6,0.3-0.7c0-0.1,0-0.2,0-0.3
							c-0.1,0.1-0.2,0.1-0.2,0.2c-0.1,0.1-0.3,0.7-0.3,0.7c0,0-0.2,0.6-0.2,0.8C16.4,36.1,16.4,36.2,16.5,36.3z"/>
					</g>
				</g>
				<g>
					<g>
						<path class="st5" d="M20.2,37.8c0.1-0.1,0.2-0.1,0.2-0.2c0.1-0.1,0.2-0.7,0.2-0.7c0,0,0.1-0.6,0.1-0.8c0-0.1,0-0.2-0.1-0.3
							c-0.1,0.1-0.1,0.2-0.1,0.3c0,0.1-0.1,0.7-0.1,0.7c0,0-0.2,0.6-0.2,0.7C20.2,37.6,20.2,37.6,20.2,37.8z"/>
					</g>
				</g>
				<g>
					<g>
						<path class="st5" d="M25.5,38.1c0.1-0.1,0.1-0.2,0.1-0.3c0-0.1-0.3-0.8-0.3-0.7c0,0-0.4-0.6-0.5-0.6c-0.1-0.1-0.2-0.1-0.3-0.1
							c0,0.1,0.1,0.2,0.1,0.3c0.1,0.1,0.5,0.5,0.5,0.5c0,0,0.3,0.5,0.3,0.7C25.3,38,25.4,38.1,25.5,38.1z"/>
					</g>
				</g>
				<g>
					<g>
						<path class="st5" d="M29.3,37c-0.1-0.1-0.2-0.2-0.3-0.3c-0.2-0.1-1.1-0.5-1.1-0.5c0,0-1-0.2-1.2-0.2c-0.2,0-0.3,0-0.4,0.1
							c0.2,0.1,0.2,0.1,0.4,0.1c0.2,0,1.1,0.2,1.1,0.2c0,0,0.9,0.3,1.1,0.4C29.1,36.9,29.2,36.9,29.3,37z"/>
					</g>
				</g>
			</g>
			<path class="st6" d="M10.2,20c-0.4,0.6-0.5,1.5,0.1,2.6c0.1-0.4,0.2-1.2,0.4-1.9C10.5,20.5,10.4,20.2,10.2,20z"/>
			<path class="st6" d="M10.7,20.7c0.2-0.6,0.3-1.1,0.5-1.1c0,0-0.1-0.2-0.2-0.4c-0.2,0.2-0.6,0.4-0.8,0.9
				C10.4,20.2,10.5,20.5,10.7,20.7z"/>
		</g>
		<path class="st6" d="M32,34.3c0.6,0.1,0.9-0.4,1.2-0.8c0.2-0.3,0.6-0.7,0.7-1.1c0-0.2,0.4-0.7,0.5-0.8c0-0.1,0.5-0.4,0.9-1
			c0.4-0.6,0.1-1.1,0.4-2.9c0.2-1.1-0.1-1.6-0.3-1.8c-0.2,0.5-0.4,1.2-0.3,1.8c0.3,1-0.9,2.7-0.8,3.5c0,0.7-0.9,1-1.1,1.7
			c-0.1,0.5-1.1,0.9-1.8,1C31.5,34.1,31.7,34.3,32,34.3z"/>
		<g>
			<path class="st0" d="M40.5,25.7c0.3-1.4-0.1-4-0.6-4.4c-0.6-0.4-1.2-1.8-1.3-3.1c-0.1-1.3-1.6-4.7-1.9-4.8
				c-0.3-0.1-1-0.7-1.4-1.5c-0.4-0.8-1.3-1-1.5-1.1c-0.2-0.1-0.7-0.5-1.6-1c-0.8-0.5-0.6-0.1-2.4,0.3c-1.2,0.3-1.8,1.4-2,2.1
				c0.4-0.2,0.9-0.4,1.1-0.6c0.4-0.4,0.1,1.1,0.5,0.3c0.4-0.8,1.5-0.9,1.6-0.3c0.2,0.5,0.5,1.1,0.7,0.7c0.2-0.4,0.4-0.9,0.9-0.1
				c0.5,0.8,0.6,1.7,1,1.8c0.4,0.1,0.6,0.6,0.7,0.8c0.1,0.2,1.1-0.4,1.3,0.3c0.2,0.7,0.7,1.1,1,1.1c0.3-0.1,0.4,0.2,0.4,0.7
				c-0.1,0.5,0,1,0.3,1.1c0.3,0.1,0.9,0.4,0.7,0.9c-0.1,0.5-0.2,1.3,0,1.6c0.2,0.3,1.2,1,0.5,1.5c-0.7,0.5-1.1,0.7-0.6,1.1
				c0.5,0.4,1.6,1.7,0.9,2.2c-0.8,0.5-0.7,1-0.3,1.2c0.4,0.2,0.7,0.3,0.1,1.1c-0.6,0.9-1,1-0.9,1.8c0.2,0.8,0.8,1.2,0.5,1.9
				c-0.3,0.7,0.2,2.1-1.1,1.5c-1.4-0.6-1.5,0.1-1.7,0.6c-0.1,0.5-0.7,2.9-1.3,2.5c-0.6-0.3-0.9,0-1.1,0.1c-0.2,0.1-1.9-0.2-2.2-0.4
				c-0.2-0.2-0.7-0.4-1-0.6c-1,0.4-2.1,0.9-1.7,0.9c0.6,0,2.4,0.3,2.4,0.3c0.9,1.2,1.9,0.2,3.3,0.5c1.4,0.3,2.8-0.9,2.8-0.9
				c1.1,0.3,2.5-1.9,3.1-3.5C40.1,30.4,40.2,27.1,40.5,25.7z"/>
			<path class="st1" d="M32.7,34.7c0.1,0,0.5-1.7,0.7-0.4c0.2,1.3,1.1-1.6,1.5-2.5c0.4-0.9,0.8-0.2,0.8-0.2c0.9,0.8,1.6,0.1,1-0.7
				c-0.6-0.8-0.3-0.9-0.3-1.2c0.1-0.3-0.1-1.6-0.1-1.7c0-0.1,0.1-0.6,0.9-0.6c0.8,0-0.1-1.2-0.5-1.6c-0.4-0.4-0.8-0.6,0.5-1.2
				c1.3-0.6-0.7-1-0.9-1.5c-0.2-0.5,0.3-0.7,0.7-1.2c0.4-0.5,0-0.5,0.1-1.1c0.1-0.6-0.5-0.7-0.3-1.6c0.2-0.9-0.6-0.8-0.6-0.8
				s-0.5-0.2-0.5-1.7c0-1.5-0.7-0.2-0.7-0.2s-0.4,1.1-0.4-0.9c0-2-0.5,0.1-0.8,0.1c-0.3,0-0.3-0.8-1.1-1.9c-0.8-1.1-1.5-1.3-1.7-1
				c-0.2,0.4,0-0.3-0.8-1.1c-0.7-0.8-1.1,0.3-1.2,0.6c-0.1,0.3-0.5,0.5-0.8,0.1C28,12.3,27.5,12.6,27,13l-0.3,1.3l0.4,0.8
				c0.2-0.5,0.4-1.2,0.9-1.3c0.8-0.1,1.5-0.2,1.5-0.2l0.8,0.3c0,0,1.8,1.7,2.4,2.9L32.5,17c0.4,0.7,1.9,2,2.3,2.2
				c0.6,0.3,1.1,2,1.1,2c-0.7,1.6-0.3,4-0.3,4s0,0.3-0.2,0.7c0.2,0.2,0.5,0.6,0.3,1.8c-0.3,1.8,0.1,2.3-0.4,2.9
				c-0.4,0.6-0.9,0.9-0.9,1c0,0.2-0.4,0.7-0.5,0.8c-0.1,0.4-0.5,0.8-0.7,1.1c-0.3,0.4-0.6,0.9-1.2,0.8c-0.3,0-0.5-0.2-0.6-0.4
				c-0.3,0.1-0.6,0.1-0.7,0.2c-0.2,0-0.6,0.2-1.1,0.3C32.3,36.4,32.6,34.7,32.7,34.7z"/>
			<path class="st2" d="M32.4,35.6c0.2-0.1,0.5-0.5,1.1-0.1c0.6,0.3,1.2-2,1.3-2.5c0.1-0.5,0.3-1.2,1.7-0.6c1.4,0.6,0.8-0.8,1.1-1.5
				c0.3-0.7-0.4-1.1-0.5-1.9c-0.2-0.8,0.2-0.9,0.9-1.8c0.6-0.9,0.2-0.9-0.1-1.1c-0.4-0.2-0.4-0.7,0.3-1.2c0.8-0.5-0.4-1.8-0.9-2.2
				c-0.5-0.4-0.1-0.5,0.6-1.1c0.7-0.5-0.3-1.2-0.5-1.5c-0.2-0.3-0.1-1.1,0-1.6c0.1-0.5-0.4-0.8-0.7-0.9c-0.3-0.1-0.4-0.5-0.3-1.1
				c0.1-0.5-0.1-0.8-0.4-0.7c-0.3,0.1-0.8-0.4-1-1.1c-0.2-0.7-1.2-0.1-1.3-0.3c-0.1-0.2-0.3-0.7-0.7-0.8c-0.4-0.1-0.5-1-1-1.8
				c-0.5-0.8-0.7-0.3-0.9,0.1c-0.2,0.4-0.6-0.2-0.7-0.7c-0.2-0.5-1.2-0.5-1.6,0.3c-0.4,0.8-0.1-0.7-0.5-0.3
				c-0.2,0.2-0.7,0.5-1.1,0.6c-0.1,0.4-0.2,0.7-0.2,0.7L27,13c0.5-0.3,1-0.7,1.2-0.4c0.3,0.5,0.7,0.2,0.8-0.1
				c0.1-0.3,0.4-1.5,1.2-0.6c0.7,0.8,0.6,1.5,0.8,1.1c0.2-0.4,1-0.1,1.7,1c0.8,1.1,0.8,1.9,1.1,1.9c0.3,0,0.8-2.1,0.8-0.1
				c0,2,0.4,0.9,0.4,0.9s0.7-1.3,0.7,0.2c0,1.5,0.5,1.7,0.5,1.7s0.8-0.1,0.6,0.8c-0.2,0.9,0.4,1,0.3,1.6c-0.1,0.6,0.3,0.6-0.1,1.1
				c-0.4,0.5-0.8,0.7-0.7,1.2c0.2,0.5,2.2,0.9,0.9,1.5c-1.3,0.6-0.9,0.8-0.5,1.2c0.4,0.4,1.3,1.6,0.5,1.6c-0.8,0-0.9,0.5-0.9,0.6
				c0,0.1,0.2,1.4,0.1,1.7c-0.1,0.3-0.4,0.4,0.3,1.2c0.6,0.8,0,1.5-1,0.7c0,0-0.4-0.7-0.8,0.2c-0.4,0.9-1.3,3.8-1.5,2.5
				c-0.2-1.3-0.6,0.3-0.7,0.4c-0.1,0-0.5,1.8-3.1-0.3c-0.2,0.1-0.3,0.1-0.5,0.2c0.4,0.2,0.9,0.5,1,0.6
				C30.5,35.5,32.3,35.8,32.4,35.6z"/>
			<path class="st3" d="M29.7,35.4c0.2,0,1.6,0.4,2,0.5c0.4,0.1,0.7-0.3,1.1,0c0.3,0.3,1.3,0,1.3-0.1c0-0.1,0.3-0.2,0.6-0.4
				c0.4-0.1,0.8-1.1,1-1.7c0.2-0.5,0.9-0.4,2.1-0.7c1.2-0.4,0.6-1.9,0.6-2.1c0.1-0.2,0.1-0.3,0-0.9c-0.1-0.5-0.1-1.6,0.5-1.8
				c0.6-0.3,0.3-0.6,0.4-1c0.1-0.4-0.4-1-0.6-1.3c-0.2-0.3-0.1-0.5,0.6-1.1c0.7-0.5,0.1-1.2-0.4-1.5c-0.4-0.3-0.4-0.5-0.1-0.7
				c0.3-0.2,0.7-0.5,0.1-1.1c-0.6-0.6-1.1-1.7-0.9-2.2c0.1-0.5-0.5-1.8-0.7-1.9c-0.2-0.1-0.2-0.7-0.4-1.5c-0.2-0.7-0.6-0.6-0.9-0.7
				c-0.3-0.1-0.5-0.6-0.4-0.8c0.1-0.3-0.5-0.7-1.5-1c-1-0.3-0.4-0.8-0.6-1.4c-0.2-0.6-1.5-0.9-1.8-0.9c-0.3,0-0.3-0.2-0.5-0.4
				c-0.2-0.2-1,0-1.2,0.1c-0.2,0.1-0.9,0.2-1.2,0.1c-0.1-0.1-0.8,0.4-1.3,0.8c-0.1,0.2-0.2,0.4-0.2,0.6c0.4-0.2,0.9-0.4,1.1-0.6
				c0.4-0.4,0.1,1.1,0.5,0.3c0.4-0.8,1.5-0.9,1.6-0.3c0.2,0.5,0.5,1.1,0.7,0.7c0.2-0.4,0.4-0.9,0.9-0.1c0.5,0.8,0.6,1.7,1,1.8
				c0.4,0.1,0.6,0.6,0.7,0.8c0.1,0.2,1.1-0.4,1.3,0.3c0.2,0.7,0.7,1.1,1,1.1c0.3-0.1,0.4,0.2,0.4,0.7c-0.1,0.5,0,1,0.3,1.1
				c0.3,0.1,0.9,0.4,0.7,0.9c-0.1,0.5-0.2,1.3,0,1.6c0.2,0.3,1.2,1,0.5,1.5c-0.7,0.5-1.1,0.7-0.6,1.1c0.5,0.4,1.6,1.7,0.9,2.2
				c-0.8,0.5-0.7,1-0.3,1.2c0.4,0.2,0.7,0.3,0.1,1.1c-0.6,0.9-1,1-0.9,1.8c0.2,0.8,0.8,1.2,0.5,1.9c-0.3,0.7,0.2,2.1-1.1,1.5
				c-1.4-0.6-1.5,0.1-1.7,0.6c-0.1,0.5-0.7,2.9-1.3,2.5c-0.6-0.3-0.9,0-1.1,0.1c-0.2,0.1-1.9-0.2-2.2-0.4c-0.2-0.2-0.7-0.4-1-0.6
				c-0.4,0.1-0.7,0.3-1.1,0.5C28.6,35.4,29.5,35.4,29.7,35.4z"/>
			<path class="st22" d="M40,25.6c0.3-1.4-0.1-4-0.6-4.4c-0.6-0.4-1.2-1.8-1.3-3.1c-0.1-1.3-1.6-4.7-1.9-4.8c-0.3-0.1-1-0.7-1.4-1.5
				c-0.4-0.8-1.3-1-1.5-1.1c-0.2-0.1-0.7-0.5-1.6-1c-0.8-0.5-0.6-0.1-2.4,0.3c-0.9,0.2-1.5,0.9-1.8,1.5c0.5-0.4,1.2-0.9,1.3-0.8
				c0.3,0.1,0.9,0,1.2-0.1c0.2-0.1,1-0.3,1.2-0.1c0.2,0.2,0.2,0.3,0.5,0.4c0.3,0,1.5,0.3,1.8,0.9c0.2,0.6-0.3,1,0.6,1.4
				c1,0.3,1.6,0.8,1.5,1c-0.1,0.3,0.1,0.8,0.4,0.8c0.3,0.1,0.7,0,0.9,0.7c0.2,0.7,0.1,1.4,0.4,1.5c0.2,0.1,0.9,1.3,0.7,1.9
				c-0.1,0.5,0.3,1.7,0.9,2.2c0.6,0.6,0.1,0.9-0.1,1.1c-0.3,0.2-0.3,0.4,0.1,0.7c0.4,0.3,1,1,0.4,1.5c-0.7,0.5-0.7,0.8-0.6,1.1
				c0.2,0.3,0.7,0.9,0.6,1.3c-0.1,0.4,0.2,0.8-0.4,1c-0.6,0.3-0.6,1.3-0.5,1.8c0.1,0.5,0.1,0.6,0,0.9c-0.1,0.2,0.5,1.7-0.6,2.1
				c-1.2,0.4-1.8,0.2-2.1,0.7c-0.2,0.5-0.7,1.5-1,1.7c-0.4,0.1-0.7,0.3-0.6,0.4c0,0.1-0.9,0.4-1.3,0.1c-0.3-0.3-0.7,0.2-1.1,0
				c-0.4-0.1-1.8-0.5-2-0.5c-0.2,0-1.1,0-1.6-0.3c-0.6,0.3-0.9,0.5-0.7,0.5c0.6,0,2.4,0.3,2.4,0.3c0.9,1.2,1.9,0.2,3.3,0.5
				c1.4,0.3,2.8-0.9,2.8-0.9c1.1,0.3,2.5-1.9,3.1-3.5C39.6,30.3,39.7,27,40,25.6z"/>
			<g>
				<g>
					<g>
						<path class="st5" d="M30.1,13.3c0-0.2,0.1-0.1,0-0.3c-0.1-0.2-0.4-1.2-0.4-1.2c0,0-0.1-1,0-1.2c0-0.2,0.1-0.3,0.1-0.5
							c-0.1,0.1-0.2,0.2-0.3,0.4c-0.1,0.2-0.1,1.3,0,1.3c0,0,0.3,1.1,0.4,1.2C30,13.4,30,13.2,30.1,13.3z"/>
					</g>
				</g>
				<g>
					<g>
						<path class="st5" d="M31.3,10.4c-0.1,0.4-0.1,0.7-0.1,1.1c0,0.3,0,1,0.2,1.7c0.2,0.7,0.6,1.2,0.6,1.2c0,0,0.5,0.4,0.7,1.1
							c0.2,0.3,0.1,0.6,0.3,1c0.2,0.3,0.3,0.5,0.4,0.6c0.3,0.4,0.5,0.6,0.8,0.8c-0.2-0.3-0.4-0.5-0.6-0.9c-0.1-0.1-0.2-0.3-0.4-0.6
							c-0.1-0.1-0.1-0.7-0.2-1c-0.3-0.7-0.8-1.1-0.8-1.1c0,0-0.4-0.5-0.6-1.1c-0.2-0.7-0.2-1.4-0.2-1.7
							C31.4,11.1,31.4,10.8,31.3,10.4z"/>
					</g>
				</g>
				<g>
					<g>
						<path class="st5" d="M35.9,13.7c-0.2,0-0.3,0-0.5,0c-0.2,0-1,0.8-0.9,0.8c-0.1,0-0.3,1-0.2,1.2c0,0.2,0.1,0.3,0.2,0.4
							c0.1-0.2,0.1-0.3,0.1-0.4c-0.1-0.2,0.2-1.1,0.2-1.1c-0.1,0,0.6-0.7,0.8-0.7C35.7,13.8,35.8,13.8,35.9,13.7z"/>
					</g>
				</g>
				<g>
					<g>
						<path class="st5" d="M36.4,15.1c-0.2,0-0.4,0-0.7,0.2c-0.1,0.1-0.5,0.5-0.5,1c-0.1,0.4,0,0.8,0,0.8c0,0,0.2,1.5,0.3,1.8
							c0,0.3,0.1,0.4,0.2,0.7c0.1-0.2,0.1-0.4,0.1-0.7c0-0.3-0.3-1.8-0.3-1.8c0,0-0.1-0.4,0-0.8c0-0.4,0.3-0.7,0.4-0.8
							C36.1,15.3,36.2,15.2,36.4,15.1z"/>
					</g>
				</g>
				<g>
					<g>
						<path class="st5" d="M37.6,17.9c-0.1-0.1-0.2-0.1-0.4,0c-0.2,0-0.8,0.6-0.7,0.7c-0.1,0-0.2,0.8-0.2,1c0,0.1,0.1,0.2,0.1,0.3
							c0.1-0.1,0.1-0.2,0.1-0.3c0-0.2,0.1-0.9,0.2-0.9c0,0,0.4-0.6,0.6-0.6C37.4,18.1,37.5,18,37.6,17.9z"/>
					</g>
				</g>
				<g>
					<g>
						<path class="st5" d="M38.8,21.6c-0.1-0.1-0.2-0.2-0.3-0.2c-0.2-0.1-1-0.2-1-0.2c0,0-0.9,0-1,0.2c-0.1,0.1-0.2,0.2-0.2,0.4
							c0.1-0.1,0.2-0.1,0.3-0.2c0.1-0.1,0.9-0.2,0.9-0.2c0,0,0.8,0.1,1,0.2C38.6,21.6,38.7,21.6,38.8,21.6z"/>
					</g>
				</g>
				<g>
					<g>
						<path class="st5" d="M39.3,24c-0.2,0-0.3-0.1-0.4,0c-0.2,0.1-1.1,0.2-1.1,0.1c0,0-0.9,0-1-0.1c-0.2,0-0.2,0-0.4,0
							c0.1,0.1,0.2,0.2,0.3,0.3c0.2,0.1,1.1,0.1,1.1,0.1c0,0,0.9-0.1,1.1-0.2C39.1,24.1,39.1,24.1,39.3,24z"/>
					</g>
				</g>
				<g>
					<g>
						<path class="st5" d="M39,27.5c-0.1-0.1-0.2-0.1-0.4-0.1c-0.2,0-1-0.2-1-0.2c0,0-0.8-0.4-0.8-0.6c-0.1-0.1-0.2-0.2-0.3-0.2
							c0,0.1,0,0.3,0.2,0.4c0.1,0.2,0.9,0.7,0.9,0.6c0,0,0.9,0.3,1.1,0.2C38.8,27.6,38.9,27.6,39,27.5z"/>
					</g>
				</g>
				<g>
					<g>
						<path class="st5" d="M36.1,29.6C36,29.7,36,29.9,36,30.1c0,0.3,0.5,1.4,0.6,1.4c-0.1,0.1,0.9,0.9,1.1,0.9
							c0.2,0.1,0.4,0.1,0.5,0.1c-0.2-0.1-0.3-0.2-0.5-0.3c-0.3,0-1.1-0.8-1-0.8c-0.1,0-0.5-1-0.5-1.3C36.2,29.9,36.2,29.7,36.1,29.6
							z"/>
					</g>
				</g>
				<g>
					<g>
						<path class="st5" d="M34.1,33c-0.1,0.1-0.2,0.2-0.3,0.3c-0.1,0.2-0.3,1.1-0.2,1.1c0,0,0,0.9,0.1,1.1c0.1,0.2,0.2,0.2,0.3,0.3
							c0-0.2,0-0.2-0.1-0.4c-0.1-0.1-0.1-1-0.1-1c0,0,0.1-0.9,0.2-1C34.1,33.2,34.1,33.1,34.1,33z"/>
					</g>
				</g>
			</g>
		</g>
		<g>
			<g>
				
					<radialGradient id="SVGID_10_" cx="257.3166" cy="1317.6771" r="49.481" gradientTransform="matrix(0.2862 7.850000e-002 -7.850000e-002 0.2862 53.5755 -375.0198)" gradientUnits="userSpaceOnUse">
					<stop  offset="0" style="stop-color:#457D37"/>
					<stop  offset="0.366" style="stop-color:#467F37"/>
					<stop  offset="0.5345" style="stop-color:#4C8736"/>
					<stop  offset="0.6364" style="stop-color:#529036"/>
					<stop  offset="1" style="stop-color:#B7C671"/>
				</radialGradient>
				<path class="st23" d="M21.1,18.8c-0.5-0.4-3.1-1.8-3.2-1.8c0-0.1-2.8-1-3.5-1c-0.3,0-0.5-0.1-0.6-0.2c0,0.1-0.1,0.1-0.1,0.2
					c0,0.6-0.5,1.1-0.8,1.1c-0.3,0.1-0.8,0.6-0.9,0.9c-0.1,0.3-1.1,0.8-1.4,2.5c0,0-0.6,1.8-0.5,2.7c0.1,0.8,0.5,2.3,0.1,3
					c0,0,2.2,3,3,3.6c0.7,0.6,1.5,1.8,2,2.1c0,0,0.5-1.1,0.3-2.1c-0.2-1,1-3.3,1-3.3s4.2-5.8,5.5-7.3C21.7,19.1,21.4,19,21.1,18.8z"
					/>
				
					<radialGradient id="SVGID_11_" cx="257.3154" cy="1317.6763" r="49.4795" gradientTransform="matrix(0.2862 7.850000e-002 -7.850000e-002 0.2862 53.5755 -375.0198)" gradientUnits="userSpaceOnUse">
					<stop  offset="0" style="stop-color:#457D37"/>
					<stop  offset="0.366" style="stop-color:#467F37"/>
					<stop  offset="0.5345" style="stop-color:#4C8736"/>
					<stop  offset="0.6364" style="stop-color:#529036"/>
					<stop  offset="1" style="stop-color:#B7C671"/>
				</radialGradient>
				<path class="st24" d="M29.4,12.7c0,0-2.4-0.8-3.4-1c-0.9-0.1-2,0.1-2.6-0.2c-0.6-0.3-4.4-0.1-5,0.5c0,0-2.4,1.2-2.6,1.8
					c-0.2,0.7-0.7,1.1-0.7,1.1s-0.1,0-0.3,0.1c0.9,0.1,3.5,1,3.5,1.1c0-0.1,2.9,1.4,3.3,1.9c0.4,0.3,0.6,0.5,0.7,0.9
					c1.3-1.4,4.1-4.6,4.1-4.6L29.4,12.7z"/>
				<path class="st5" d="M22.1,19.2c0.1,0,0.2,0,0.4,0.1c0-0.1-0.1-0.2-0.1-0.3C22.3,19,22.2,19,22.1,19.2
					C22.2,19.1,22.1,19.1,22.1,19.2z"/>
				<path class="st5" d="M21.6,18c-0.5-0.4-3.3-1.9-3.3-1.9c0-0.1-2.6-1-3.5-1.1c-0.3,0.1-0.8,0.4-1,0.7c0.2,0.1,0.4,0.1,0.6,0.2
					c0.6,0,3.5,1,3.5,1c0-0.1,2.7,1.4,3.2,1.8c0.4,0.2,0.6,0.3,1,0.4c0,0,0.1-0.1,0.1-0.1c0,0,0.1-0.1,0.1-0.2
					C22.2,18.5,22,18.3,21.6,18z"/>
				<g>
					<g>
						<path class="st5" d="M14.9,15.3c0.5-0.1,0.9-0.2,1.5-0.4c0.3-0.1,1.3-0.4,2.2-0.6c0.9-0.2,1.7-0.1,1.7-0.1c0,0,3.3,0.8,4,1.1
							c0.6,0.2,0.9,0.3,1.4,0.6c-0.4-0.4-0.7-0.6-1.3-0.8c-0.6-0.3-4-1.1-4-1.1c0,0-0.9-0.1-1.8,0.1c-0.9,0.2-1.9,0.5-2.2,0.6
							C15.7,14.9,15.4,15,14.9,15.3z"/>
					</g>
				</g>
				<g>
					<g>
						<path class="st5" d="M17.7,16.5c0.3,0,0.5-0.1,0.8-0.1c0.4-0.2,2.2-0.2,2.2-0.1c0-0.1,1.8,0.3,2.1,0.5
							c0.3,0.1,0.5,0.2,0.8,0.2c-0.2-0.2-0.4-0.3-0.7-0.5c-0.3-0.2-2.2-0.6-2.2-0.6c0-0.1-1.9,0-2.3,0.2
							C18.1,16.2,17.9,16.3,17.7,16.5z"/>
					</g>
				</g>
				<g>
					<g>
						<path class="st5" d="M16.3,16.2c0,0.3,0,0.5,0.1,0.9c0.1,0.4,1.2,2.1,1.2,2.1c0,0,1.4,1.5,1.7,1.7c0.3,0.2,0.5,0.3,0.8,0.4
							c-0.2-0.2-0.3-0.4-0.6-0.6c-0.3-0.2-1.7-1.6-1.7-1.7c0,0-1.1-1.6-1.2-2C16.5,16.7,16.4,16.5,16.3,16.2z"/>
					</g>
				</g>
				<g>
					<g>
						<path class="st5" d="M14.1,15.7c-0.3,0.4-0.4,0.7-0.4,1.2c0,0.3,0.1,1.2,0.4,1.9c0.3,0.7,0.7,1.3,0.7,1.3c0,0,0.4,0.6,0.9,1.2
							c0.5,0.6,1.2,1.1,1.4,1.3c0.4,0.3,0.7,0.4,1.1,0.6c-0.3-0.4-0.5-0.6-0.8-0.9c-0.5-0.3-2.3-2.3-2.3-2.3c0,0-0.4-0.6-0.7-1.2
							c-0.3-0.7-0.4-1.5-0.4-1.7C14.2,16.4,14.1,16.1,14.1,15.7z"/>
					</g>
				</g>
				<g>
					<g>
						<path class="st5" d="M12.5,17.6c-0.1,0.5-0.1,0.8-0.1,1.4c0,0.3,0.1,1.2,0.3,2.1c0.2,0.9,0.7,1.5,0.7,1.5
							c-0.1,0.1,0.7,0.4,1.2,1.1c0.5,0.7,0.7,1.6,0.8,1.9c0.1,0.5,0.2,0.9,0.2,1.3c0.2-0.5,0.1-0.8,0-1.4c-0.1-0.3-0.3-1.2-0.8-1.9
							c-0.5-0.7-1.3-1-1.2-1.1c0,0-0.5-0.6-0.6-1.4c-0.2-0.8-0.2-1.7-0.3-2.1C12.6,18.4,12.6,18.1,12.5,17.6z"/>
					</g>
				</g>
				<g>
					<g>
						<path class="st5" d="M11,20.4c-0.1,0.5-0.2,0.9-0.2,1.6c0,0.4,0.1,1.5,0.5,2.4c0.3,1,1,1.6,1,1.6c0,0,0.7,0.6,1.2,1.4
							c0.5,0.8,0.8,1.9,0.7,2.2c0.1,0.7,0.5,1,0.9,1.3c-0.3-0.4-0.6-0.7-0.7-1.3c0.1-0.3-0.2-1.5-0.7-2.3c-0.5-0.9-1.2-1.5-1.2-1.5
							c0,0-0.7-0.6-1-1.5c-0.4-0.9-0.4-2-0.4-2.3C11.1,21.4,11,21,11,20.4z"/>
					</g>
				</g>
				<g>
					<g>
						<path class="st5" d="M17.2,12.9c0.4-0.1,0.7-0.1,1.3-0.2c0.3-0.1,1.1-0.2,1.9-0.3c0.8,0,1.5,0.1,1.5,0.1c0,0,0.7,0.1,1.5,0.3
							c0.8,0.2,1.5,0.7,1.7,0.8c0.4,0.3,0.7,0.5,1.1,0.7c-0.3-0.4-0.5-0.6-0.9-0.9c-0.2-0.2-1-0.6-1.8-0.9c-0.8-0.3-1.5-0.3-1.5-0.3
							c0,0-0.7-0.1-1.6-0.1c-0.8,0-1.7,0.2-2,0.3C17.9,12.5,17.6,12.6,17.2,12.9z"/>
					</g>
				</g>
				<g>
					<path class="st0" d="M16.4,25.6c-0.1-0.3-0.2-1.5,0.1-1c0.3,0.5,0.8,0.1,0.9-0.3c0.1-0.4,0.3-0.8,0.6-0.8
						c0.3-0.1,0-1.1,0.5-0.9c0.5,0.3,0.6,0.2,0.8-0.5c0.3-0.7,0.3-1.1,0.5-1.1c0.3-0.1-0.3-0.9,0.3-0.5c0.6,0.4,0.8-0.2,0.8-0.4
						c0-0.2,0.2-1,0.7-0.7c0.5,0.2,0.9-0.7,1-0.9c0.1-0.2,0.2-1,0.5-0.7c0.3,0.3,0.8-0.9,0.8-0.9s0.5-0.6,0.9-0.6
						c0.5-0.1,0.7-0.9,0.8-1.1c0.2-0.2,0.5-0.1,0.5-0.9c0-0.7,0.3-1,0.5-0.7c0.2,0.4,0.8,0.6,0.9,0.2c0.1-0.4,0.3-0.8,0.7-0.7
						c0.3,0.1,0.8,0.1,1.2-0.4c-0.3-0.2-0.7-0.3-1.1-0.2c-0.8,0.3-0.6-0.8-0.6-0.8s-1.9,0.2-2.4,1c-0.5,0.8-0.5,1.2-0.6,1.3
						c-0.1,0.2-0.6,1.4-0.9,1.6c0,0-2.2,3.1-3.6,3.5c-1.4,0.4-1.9,2.2-1.9,2.2s-0.1,0.6-0.6,0.7c-0.4,0.1-0.7,0.6-0.7,0.6
						s-1.3,1.3-1.2,1.9c0.1,0.6,0.1,0.8-0.1,1.1c-0.1,0.2,0,1.3,0,2.1c0.2-0.5,0.3-1.3,0.5-1.5C16.7,26,16.5,25.9,16.4,25.6z"/>
					<g>
						<path class="st1" d="M29.8,12.8c-0.5,0.5-0.9,0.5-1.2,0.4c-0.4-0.1-0.7,0.3-0.7,0.7c-0.1,0.4-0.7,0.2-0.9-0.2
							c-0.2-0.4-0.5-0.1-0.5,0.7c0,0.7-0.3,0.6-0.5,0.9c-0.2,0.2-0.4,1.1-0.8,1.1c-0.5,0.1-0.9,0.6-0.9,0.6s-0.5,1.2-0.8,0.9
							c-0.3-0.3-0.4,0.6-0.5,0.7c-0.1,0.2-0.4,1.1-1,0.9c-0.5-0.2-0.7,0.5-0.7,0.7c0,0.2-0.2,0.8-0.8,0.4c-0.6-0.4-0.1,0.4-0.3,0.5
							c-0.3,0.1-0.3,0.4-0.5,1.1c-0.3,0.7-0.4,0.8-0.8,0.5c-0.5-0.3-0.2,0.8-0.5,0.9c-0.3,0.1-0.5,0.4-0.6,0.8
							c-0.1,0.4-0.6,0.8-0.9,0.3c-0.3-0.5-0.2,0.6-0.1,1c0.1,0.3,0.3,0.4-0.1,0.8c-0.2,0.2-0.5,0.9-0.8,1.4c0,0.3-0.2,0.6-0.1,0.8
							c0,0,1.3-2.5,3.3-4.7c2-2.2,2.7-3.6,2.7-3.6s2.4-2.7,3.1-3.2c0.7-0.5,1.7-1.8,2.1-2.2c0,0,0.5,0,0.9-0.7
							c0.4-0.7,1.2-1,1.7-0.9c0.6,0.1,0.8-0.3,0.8-0.3S30.2,12.9,29.8,12.8z"/>
						<path class="st2" d="M29.3,12.6c-0.2,0.2-0.5,0.2-0.5,0.2c-0.1-0.1-0.9,0.1-1.1,0.6c-0.1,0.5-0.1,0.4-0.7,0
							c-0.6-0.4-1.1,1.1-1.1,1.5c-0.1,0.4-0.5,1-0.7,1.1c-0.2,0.1-0.7,0.2-0.9,0.5c-0.2,0.3-0.7,1-0.9,1.1c-0.2,0-0.6,0.5-0.7,0.9
							c-0.1,0.4-0.2,0.7-0.6,0.7c-0.4,0-0.8,0.5-0.9,0.7c-0.1,0.2-0.3,0.4-0.7,0.3c-0.4-0.1-0.8,1.5-1,2c-0.2,0.4-0.5,0.3-0.8,0.3
							c-0.2,0-1,0.9-1.1,1c-0.1,0.1-0.2,0.6-0.8,0.9c-0.6,0.3-0.3,1.4-0.4,1.9c-0.1,0.3-0.2,0.4-0.4,0.4c-0.1,0.4-0.1,0.9-0.1,1.3
							c0.2-0.5,0.5-1.2,0.8-1.4c0.4-0.4,0.2-0.5,0.1-0.8c-0.1-0.3-0.2-1.5,0.1-1c0.3,0.5,0.8,0.1,0.9-0.3c0.1-0.4,0.3-0.8,0.6-0.8
							c0.3-0.1,0-1.1,0.5-0.9c0.5,0.3,0.6,0.2,0.8-0.5c0.3-0.7,0.3-1.1,0.5-1.1c0.3-0.1-0.3-0.9,0.3-0.5c0.6,0.4,0.8-0.2,0.8-0.4
							c0-0.2,0.2-1,0.7-0.7c0.6,0.2,0.9-0.7,1-0.9c0.1-0.2,0.2-1,0.5-0.7c0.3,0.3,0.8-0.9,0.8-0.9s0.5-0.6,0.9-0.6
							c0.5-0.1,0.7-0.9,0.8-1.1c0.2-0.2,0.5-0.1,0.5-0.9c0-0.7,0.3-1,0.5-0.7c0.2,0.3,0.8,0.6,0.9,0.2c0.1-0.4,0.3-0.8,0.7-0.7
							c0.3,0.1,0.8,0.1,1.2-0.4C29.7,12.7,29.5,12.6,29.3,12.6z"/>
						<path class="st3" d="M28.7,12.6c-0.4,0.2-0.6-0.1-0.7-0.3c-0.4,0.3-0.9,0.4-1.2,0.5c-0.4,0.1-0.9,1.1-1.1,1.6
							c-0.2,0.5-0.8,1.4-0.9,1.3c-0.2-0.1-0.7,0.5-0.9,1c-0.1,0.3-0.5,0.5-0.9,0.7c-0.7,0.9-1.7,1.8-2.4,2c-1.4,0.4-1.9,2.2-1.9,2.2
							s-0.1,0.6-0.6,0.7c-0.4,0.1-0.7,0.6-0.7,0.6s-1.3,1.3-1.2,1.9c0.1,0.6,0.1,0.8-0.1,1.1c-0.1,0.1-0.1,0.4-0.2,0.8
							c0.1,0,0.3-0.1,0.4-0.4c0.1-0.5-0.1-1.6,0.4-1.9c0.6-0.3,0.7-0.9,0.8-0.9c0.1-0.1,0.9-0.9,1.1-1c0.2,0,0.6,0.1,0.8-0.3
							c0.2-0.4,0.6-2.1,1-2c0.4,0.1,0.6-0.1,0.7-0.3c0.1-0.2,0.5-0.7,0.9-0.7c0.4,0,0.6-0.3,0.6-0.7c0.1-0.4,0.5-0.9,0.7-0.9
							c0.2,0,0.7-0.7,0.9-1.1c0.2-0.3,0.8-0.5,0.9-0.5c0.2-0.1,0.6-0.7,0.7-1.1c0.1-0.4,0.5-1.8,1.1-1.5c0.6,0.4,0.6,0.4,0.7,0
							c0.1-0.5,0.9-0.7,1.1-0.6c0.1,0,0.3,0,0.5-0.2C29.1,12.5,28.9,12.5,28.7,12.6z"/>
						<path class="st25" d="M23.9,16.6c0.1-0.5,0.7-1,0.9-1c0.2,0.1,0.7-0.8,0.9-1.3c0.2-0.5,0.6-1.5,1.1-1.6
							c0.3-0.1,0.8-0.2,1.2-0.5c-0.1-0.2-0.1-0.5-0.1-0.5s-1.7,0.3-2.2,1c-0.5,0.8-0.5,1.2-0.6,1.3c-0.1,0.2-0.6,1.4-0.9,1.6
							c0,0-0.5,0.7-1.2,1.5C23.3,17.1,23.8,16.8,23.9,16.6z"/>
						<g>
							<g>
								<g>
									<path class="st5" d="M16.7,24.1c-0.1,0.1-0.1,0.1-0.1,0.2c-0.1,0.1,0.1,0.7,0.2,0.7c0,0,0.4,0.4,0.5,0.5
										c0.1,0.1,0.2,0.1,0.3,0.1c-0.1-0.1-0.1-0.1-0.2-0.2c-0.1,0-0.5-0.4-0.5-0.4c0,0-0.2-0.5-0.2-0.6
										C16.7,24.2,16.7,24.2,16.7,24.1z"/>
								</g>
							</g>
							<g>
								<g>
									<path class="st5" d="M18.3,22.4c0,0.1-0.1,0.1,0,0.2c0,0.1,0.3,0.5,0.3,0.5c0,0,0.4,0.3,0.5,0.3c0.1,0,0.1,0,0.2,0
										c0-0.1-0.1-0.1-0.2-0.1c-0.1,0-0.5-0.3-0.4-0.3c0,0-0.3-0.3-0.3-0.4C18.4,22.5,18.3,22.5,18.3,22.4z"/>
								</g>
							</g>
							<g>
								<g>
									<path class="st5" d="M19.6,20.2c0.1,0.1,0.1,0.1,0.2,0.1c0.1,0,0.5,0.3,0.4,0.3c0,0,0.3,0.4,0.3,0.5c0,0.1,0.1,0.1,0.2,0.2
										c0-0.1,0-0.1,0-0.2c0-0.1-0.3-0.5-0.3-0.5c0,0-0.4-0.3-0.5-0.4C19.7,20.2,19.7,20.2,19.6,20.2z"/>
								</g>
							</g>
							<g>
								<g>
									<path class="st5" d="M20.9,19.3c0,0.1,0.1,0.1,0.1,0.1c0.1,0,0.3,0.2,0.3,0.2c0,0,0.2,0.3,0.2,0.4c0,0.1,0.1,0.1,0.1,0.1
										c0-0.1,0-0.1,0-0.2c0-0.1-0.2-0.4-0.2-0.4c0,0-0.3-0.3-0.4-0.3C21.1,19.3,21,19.3,20.9,19.3z"/>
								</g>
							</g>
							<g>
								<g>
									<path class="st5" d="M22.7,18c0,0,0.1,0.1,0.1,0.1c0.1,0,0.3,0.1,0.3,0.1c0,0,0.2,0.2,0.1,0.2c0,0,0,0.1,0.1,0.1
										c0,0,0.1-0.1,0-0.1c0-0.1-0.2-0.3-0.2-0.3c0,0-0.3-0.1-0.3-0.1C22.7,17.9,22.7,17.9,22.7,18z"/>
								</g>
							</g>
							<g>
								<g>
									<path class="st5" d="M23.3,17.2c0,0,0.1,0.1,0.1,0.1c0.1,0,0.3,0.1,0.3,0.1c0,0,0.2,0.2,0.2,0.2c0,0,0,0.1,0.1,0.1
										c0-0.1,0-0.1,0-0.1c0-0.1-0.2-0.3-0.2-0.3c0,0-0.3-0.1-0.3-0.1C23.4,17.2,23.4,17.2,23.3,17.2z"/>
								</g>
							</g>
							<g>
								<g>
									<path class="st5" d="M24.5,15.5c0.1,0,0.1,0.1,0.2,0.1c0.1,0,0.5,0.1,0.5,0.1c0,0,0.3,0.2,0.3,0.3c0,0.1,0,0.1,0.1,0.2
										c0-0.1,0-0.1,0-0.2c0-0.1-0.4-0.4-0.4-0.4c0,0-0.4-0.2-0.5-0.2C24.7,15.5,24.6,15.5,24.5,15.5z"/>
								</g>
							</g>
							<g>
								<g>
									<path class="st5" d="M26.1,12.9c0,0.1,0,0.2,0.1,0.3c0,0.1,0.2,0.2,0.3,0.4c0.1,0.1,0.1,0.1,0.2,0.2c0,0,0,0,0,0
										c0,0,0.3,0.5,0.3,0.7c0,0.1,0,0.2,0.1,0.3c0.1-0.1,0.1-0.2,0.1-0.3c0-0.2-0.3-0.8-0.4-0.7c0,0,0,0-0.1-0.1
										c0,0-0.1-0.1-0.1-0.1c-0.1-0.1-0.2-0.3-0.3-0.4C26.2,13,26.2,13,26.1,12.9z"/>
								</g>
							</g>
							<g>
								<g>
									<path class="st5" d="M27.5,12.3c0,0.1,0,0.1,0.1,0.2c0.1,0.1,0.3,0.5,0.3,0.5c0,0,0.1,0.5,0.1,0.6c0,0.1,0,0.1,0,0.2
										c0.1-0.1,0.1-0.1,0.1-0.2C28.1,13.5,28,13,28,13c0,0-0.2-0.5-0.3-0.5C27.6,12.3,27.5,12.3,27.5,12.3z"/>
								</g>
							</g>
						</g>
					</g>
				</g>
			</g>
			<path class="st1" d="M10.2,25.3c0,0,0.5-0.1,0.5,0.4c0.1,0.7,0.7,1.1,1.1,1.8c0.2,0.4,0.4,0.8,0.7,1.1c0.1,0.2,0.4,0.6,0.7,0.7
				c0.1,0,0.3,0.6,0.3,0.7c0,0.1-1.1-0.9-1.1-1c0-0.1-0.8-1.1-0.8-1.1l-0.9-1.1l-0.4-0.4l-0.1-0.5L10.2,25.3z"/>
		</g>
	</g>
</g>
</svg>
