<?xml version="1.0" encoding="utf-8"?>
<!-- Generator: Adobe Illustrator 19.2.1, SVG Export Plug-In . SVG Version: 6.00 Build 0)  -->
<svg version="1.1" id="Слой_1" xmlns="http://www.w3.org/2000/svg" xmlns:xlink="http://www.w3.org/1999/xlink" x="0px" y="0px"
	 viewBox="0 0 50 50" style="enable-background:new 0 0 50 50;" xml:space="preserve">
<style type="text/css">
	.st0{fill:#856500;}
	.st1{fill:#F5AB19;}
	.st2{fill:#F9BE00;}
	.st3{fill:#F9BF3E;}
	.st4{fill:#FCD13F;}
	.st5{fill:#FFE792;}
	.st6{fill:#D7A400;}
	.st7{fill:#FFE100;}
	.st8{fill:#EF8200;}
	.st9{fill:#FCCF00;}
	.st10{fill:#FFFAC6;}
	.st11{fill:#FCD25C;}
	.st12{fill:#FFFDED;}
</style>
<g>
	<path class="st0" d="M40.4,28.3l0.1-0.8c0.1,0,0.2,0,0.3,0l0-2.6c0,0,0-0.1,0-0.1c0,0,0-0.1,0-0.1l0-0.2h0
		c-0.1-1.7-1.2-3.2-3.1-4.5l-11.2,3.5v-7.2C24.8,16.1,22.9,16,21,16c-2.2,0-4.4,0.2-6.4,0.5c0.1,0.2,0.1,0.3,0.1,0.5
		c0,0.3-0.1,0.6-0.3,0.9c-2.5,1.2-3.3-0.7-3.3-0.7l-1.1,0.4c0,0,0-0.1,0-0.1c-5.1,1.5-8.6,4.1-8.8,7.1h0v9.6c0,0,0.1,0.1,0.1,0.1
		v1.6c0,0,0.4,0.3,0.5,1.2c-0.2,0.3-0.4,0.6-0.6,0.8v0.5c0,0,1.6,7.2,20.2,6.9c0,0,3,0,6.7-0.6c0,0,0-0.1,0-0.1l1-0.2
		c0,0,0.1-3.8,3.4-1.7c0.2,0.3,0.3,0.6,0.3,1c3.6-1.1,6.9-2.9,8-5.9l0-5c-2-0.7-1.9-2-1.9-2C38.2,29.1,40.4,28.3,40.4,28.3z"/>
	<path class="st0" d="M48.7,8.9c0,0-4.4-2.8-12.4-4.1l-0.6,1c0,0,0,0,0,0l-0.3,0.5c0,0,1.1,0.2,0.9,0.9c-0.2,0-0.3,0.1-0.5,0.1
		c-0.3,0-0.6-0.1-0.9-0.2l-5.6,9.2l-0.1,0c0,0-0.7,1.4,0,3.2c0,0,0.1,2.4-0.3,3.6l-0.7,6.6c0,0-0.1,0.8,1.1,0.5l2.9-1.4
		c0,0,0,0,0-0.1l1-0.4c0,0-0.6-2,1.3-2.4c0,0,0.3-0.1,0.7-0.1c0.5,0.2,0.9,0.6,1.1,1.1l11.6-5.5c0,0,0.1-1.8,0.3-4.1l0,0l0-0.8
		c0-0.1,0-0.2,0-0.4c0,0,0,0,0,0l0-0.6c-1.5-0.9,0.1-2,0.1-2l0-0.1c0,0,0.1,0,0.1,0C48.6,11.3,48.7,9.4,48.7,8.9L48.7,8.9z
		 M34.7,15.8c0.2,0.1,0.5,0.2,0.8,0.2c-0.5,0-0.8-0.1-1.2-0.3C34.5,15.7,34.6,15.8,34.7,15.8z M44.7,13.5
		C44.7,13.5,44.7,13.5,44.7,13.5c0.2,0,0.3,0.1,0.5,0.1C45,13.6,44.8,13.5,44.7,13.5z"/>
	<g>
		<path class="st1" d="M36.3,5.4l-0.8,1.2c0,0,1.7,0.3,0.4,1.5l2.6-1.5L36.3,5.4z"/>
		<ellipse class="st2" cx="40.3" cy="8.5" rx="1.8" ry="1.1"/>
		<g>
			<ellipse class="st1" cx="44" cy="10.8" rx="2.4" ry="2.8"/>
			<path class="st1" d="M48.1,13.6c0,0-1.5,1.1-0.1,1.9l-0.1,1.8L46,15.2l1.9-2.5"/>
			<path class="st1" d="M31.6,28.6l1.7-0.6c0,0-0.5-1.9,1.3-2.4c0,0,1.2-0.6,1.8,0.8l0.3-2.6L32,24.6L31.6,28.6z"/>
			<ellipse class="st1" cx="35.7" cy="14.2" rx="2.4" ry="1.7"/>
			<path class="st3" d="M36.4,5.1l-0.6,1c0,0,0.1,0,0.1,0c0.7,0,1.3,0.3,1.3,0.7c0,0.4-0.6,0.7-1.3,0.7c-0.3,0-0.6-0.1-0.9-0.2
				l-5.4,8.9l4.2-1.6c-0.2-0.1-0.3-0.3-0.3-0.5c0-0.5,0.8-1,1.8-1c0.6,0,1.1,0.1,1.4,0.4l5.9-2.2c-0.2-0.3-0.3-0.6-0.3-1
				c0-1.1,0.9-2,2-2c0.9,0,1.7,0.7,1.9,1.5l2.1-0.8C48.4,9.1,44.1,6.4,36.4,5.1z"/>
			<path class="st2" d="M37.2,11c0,0.4-0.7,0.8-1.6,0.8c-0.9,0-1.6-0.3-1.6-0.8c0-0.9-0.9-0.8,1.6-0.8C36.4,10.2,37.2,10.5,37.2,11z
				"/>
			<ellipse class="st1" cx="36.1" cy="10.9" rx="1" ry="0.5"/>
			<path class="st4" d="M35.7,16c0.8,0,1.4-0.6,1.4-1.3c0-0.4-0.3-0.8-0.6-1.1l-2.2,0.9c0,0.1,0,0.1,0,0.2
				C34.2,15.4,34.9,16,35.7,16z"/>
			<g>
				<path class="st5" d="M48.2,13.5c0.1-2.2,0.3-4,0.2-4.4l-2.3,0.9c1.3,2.9-1.2,3.7-1.2,3.7c-1.7-0.2-2.4-1.4-2.5-2.3l-6,2.3
					c0.4,0.2,0.6,0.6,0.6,1.1c0,0.7-0.6,1.3-1.4,1.3c-0.8,0-1.1-0.2-1.8-1.1c0-0.1-0.1-0.2-0.1-0.3l-4.3,1.6c0,0-0.7,1.4,0,3.1
					c0,0,0.1,2.3-0.3,3.5l-0.7,6.4c0,0-0.1,0.8,1.1,0.5l2.8-1.3c-0.1-0.3-0.2-0.6-0.2-1c0-1.2,1-2.1,2.1-2.1c0.9,0,1.6,0.5,2,1.3
					l11.2-5.3c0,0,0.2-2.4,0.4-5.1c-0.6-0.1-1-0.7-1-1.3C46.9,14.2,47.5,13.6,48.2,13.5z"/>
				<path class="st4" d="M44.9,13.6c0,0,2.4-0.7,1.2-3.7l-3.4,1.3C42.8,12.1,43.2,13.4,44.9,13.6z"/>
			</g>
			<ellipse transform="matrix(0.4945 -0.8692 0.8692 0.4945 2.3907 42.4608)" class="st4" cx="37.7" cy="19.2" rx="2.4" ry="1.8"/>
			<ellipse transform="matrix(0.3426 -0.9395 0.9395 0.3426 13.2541 52.3004)" class="st4" cx="44" cy="16.7" rx="1.7" ry="1.3"/>
			<path class="st2" d="M38.9,17.1C38.7,17,38.5,17,38.3,17c0.1,0.9,0.1,3-1.8,4.3c0.8,0.5,2-0.1,2.7-1.2
				C39.9,18.9,39.7,17.6,38.9,17.1z"/>
			<path class="st2" d="M45.2,17.1c0.3-0.9,0-1.8-0.6-2c-0.2-0.1-0.4-0.1-0.6,0c0.2,0.2,1.3,2-0.1,3.3
				C44.4,18.3,44.9,17.8,45.2,17.1z"/>
			<path class="st6" d="M38.8,17.1c-0.8-0.4-1.8,0-2.5,0.9C36.8,18,37.6,17.8,38.8,17.1z"/>
			<path class="st6" d="M44.1,15.1c-0.5,0-0.9,0.2-1.2,0.8C43.2,15.8,43.5,15.6,44.1,15.1z"/>
		</g>
	</g>
	<g>
		<path class="st1" d="M9.7,18.1l1.6-0.5c0,0,1,2,3.9,0.3l-1.5,2.6L9.7,18.1z"/>
		<path class="st1" d="M40.2,26.6L40,28.3c0,0-2.1,0.9-1.5,2.4c0,0-0.1,1.2,1.9,1.9L38.8,34l-4-4.6L40.2,26.6z"/>
		<path class="st1" d="M27.1,44.1l1.7-0.3c0,0,0.1-3.7,3.4-1.6l0.1-2.7l-5.5,0.5L27.1,44.1z"/>
		<path class="st1" d="M1.6,32.9v2.7c0,0,0.9,0.6,0.4,2.7C2.1,38.2,4.5,37.2,1.6,32.9z"/>
		<polygon class="st5" points="26.4,16.7 26.4,26.8 10.3,34.2 13.4,20.7 		"/>
		<path class="st5" d="M40.1,27.5c0.1,0,0.2,0,0.4,0l0-2.9l-20.4,1.8L1.5,24.6v9.3c0.5,0.4,0.9,1.1,0.9,1.8c0,0.7-0.3,1.4-0.9,1.8
			V38c0,0,1.6,7,19.8,6.6c0,0,3,0,6.6-0.6c-0.1-0.3-0.2-0.5-0.2-0.8c0-1.3,1.1-2.4,2.4-2.4c1.3,0,2.3,1,2.4,2.2
			c3.6-1,6.8-2.8,7.8-5.7l0-4.8c-0.1,0-0.2,0-0.3,0c-1.4,0-2.5-1.1-2.5-2.5C37.5,28.7,38.7,27.5,40.1,27.5z"/>
		<path class="st3" d="M37.3,20.3l-16.7,5.1l5.8-8.7c-1.7-0.2-3.5-0.3-5.4-0.3c-2.2,0-4.3,0.2-6.3,0.4c0.1,0.2,0.1,0.3,0.1,0.5
			c0,1-1.1,1.8-2.4,1.8c-1.1,0-2-0.6-2.3-1.4C5,19.4,1.5,22,1.5,24.9c0,4.7,8.7,8.5,19.4,8.5c10.7,0,19.4-3.8,19.4-8.5
			C40.4,23.2,39.3,21.6,37.3,20.3z"/>
		<g>
			<ellipse class="st1" cx="9.4" cy="25.4" rx="3.4" ry="1.8"/>
			<ellipse class="st7" cx="9.9" cy="24.9" rx="2.4" ry="1.2"/>
			<path class="st8" d="M8.9,27.2C8.9,27.2,8.9,27.2,8.9,27.2l1.5-0.1c1.4-0.2,2.4-0.9,2.4-1.7c0-0.6-0.5-1.1-1.3-1.4l-1.5-0.3
				C9.9,23.7,12.3,26.9,8.9,27.2z"/>
			<path class="st9" d="M10.7,26c1-0.2,1.6-0.6,1.6-1.1c0-0.4-0.3-0.7-0.8-0.9l-1.6-0.3C9.9,23.7,10.9,25,10.7,26z"/>
		</g>
		<g>
			<ellipse transform="matrix(0.9643 -0.2649 0.2649 0.9643 -6.2672 8.3405)" class="st1" cx="27.8" cy="27.4" rx="4.2" ry="2.2"/>
			<ellipse transform="matrix(0.9643 -0.2648 0.2648 0.9643 -6.0276 8.4449)" class="st7" cx="28.3" cy="26.6" rx="3" ry="1.4"/>
			<path class="st8" d="M27.8,29.7C27.8,29.7,27.8,29.7,27.8,29.7l1.8-0.6c1.6-0.7,2.5-1.9,2.3-2.8c-0.2-0.7-1-1.1-2-1.3l-1.9,0.2
				C27.9,25.2,31.8,28.2,27.8,29.7z"/>
			<path class="st9" d="M29.6,27.6c1.1-0.5,1.7-1.2,1.6-1.9c-0.1-0.4-0.6-0.7-1.3-0.8l-2,0.2C27.9,25.2,29.4,26.4,29.6,27.6z"/>
		</g>
		<ellipse transform="matrix(0.8421 -0.5394 0.5394 0.8421 -18.5533 15.0475)" class="st4" cx="16.4" cy="39.2" rx="2.6" ry="2"/>
		<path class="st2" d="M17.5,40.9c1.2-0.8,1.8-2.2,1.2-3.1c-0.2-0.3-0.5-0.5-0.8-0.6c0,0.4-0.4,3.7-3.3,3.9
			C15.3,41.6,16.5,41.5,17.5,40.9z"/>
		<path class="st6" d="M18.1,37.4c-1.2,0.1-1.9,0-2.3-0.1C16.8,36.9,17.5,36.8,18.1,37.4"/>
		<ellipse transform="matrix(0.842 -0.5395 0.5395 0.842 -13.6186 24.8423)" class="st4" cx="35.6" cy="35.7" rx="2.6" ry="2"/>
		<path class="st2" d="M36.7,37.3c1.2-0.8,1.7-2.2,1.2-3.1c-0.2-0.3-0.5-0.5-0.8-0.6c0,0.4-0.4,3.7-3.3,3.9
			C34.5,38,35.7,38,36.7,37.3z"/>
		<path class="st6" d="M37.2,33.8c-0.6-0.5-1.3-0.5-2.3-0.1C35.3,33.8,36,33.9,37.2,33.8"/>
	</g>
	<path class="st10" d="M37.6,26.6c0,0-4.1,7.8-24.1,5.4c0,0,13.8,3.9,24.6-4.3C38.2,27.6,39.3,25.5,37.6,26.6z"/>
	<path class="st11" d="M8.8,31.6c0,0-3.4-1.6-2.2,10.9l-1.3-0.6c0,0-0.3-7.1,0.5-9.5c0,0,0-1.5,2.8-1.4L8.8,31.6z"/>
	<path class="st11" d="M9.7,31.6c0,0-1.3,0.2-1.5,1.6c0,0-1.2,6.2-0.2,9.9l0.3,0.1c0,0-0.7-7.3,0.6-10.2c0,0,0.3-1.3,1.2-1.2
		L9.7,31.6z"/>
	<polygon class="st12" points="46.6,8.7 31.8,14.9 47.2,9 	"/>
	<path class="st10" d="M8.4,31.5c0,0-2.7-0.2-1.7,11l0.6,0.1c0,0-1.5-9.6,1.6-10.9L8.4,31.5z"/>
</g>
</svg>
