<?xml version="1.0" encoding="utf-8"?>
<!-- Generator: Adobe Illustrator 19.2.1, SVG Export Plug-In . SVG Version: 6.00 Build 0)  -->
<svg version="1.1" id="Слой_1" xmlns="http://www.w3.org/2000/svg" xmlns:xlink="http://www.w3.org/1999/xlink" x="0px" y="0px"
	 viewBox="0 0 50 50" style="enable-background:new 0 0 50 50;" xml:space="preserve">
<style type="text/css">
	.st0{fill:#E99083;}
	.st1{fill:#9E9A98;}
	.st2{fill:#7F8992;}
	.st3{fill:#C96D5F;}
	.st4{fill:#C2453D;}
	.st5{fill:#6E8092;}
	.st6{fill:#C5B4A5;}
	.st7{fill:#E9725D;}
	.st8{fill:#7D7F81;}
	.st9{fill:#D6554C;}
	.st10{fill:#606574;}
	.st11{fill:#BE5F62;}
	.st12{fill:#DA6A56;}
	.st13{fill:#FDE6D8;}
	.st14{fill:#EFC8B6;}
	.st15{opacity:0.71;fill:#FDE6D8;}
	.st16{fill:#EEBBA9;}
	.st17{opacity:0.3;fill:#FCF3A2;}
	.st18{fill:#798C9A;}
	.st19{opacity:0.3;fill:#F9D4E4;}
	.st20{opacity:0.13;fill:#434244;}
	.st21{fill:#D1D2D3;}
	.st22{opacity:0.34;fill:#EFF2CE;}
</style>
<g>
	<path class="st0" d="M4.6,27.7c0,0-2.1-2.1-1.9-6.4l0,0c0,0-0.5,2.7,0.4,4.5C4.1,27.7,4.6,27.7,4.6,27.7z"/>
	<g>
		<path class="st1" d="M47.7,28.8L46,30.5L45.5,31l-3.3,3.3l-5,4.9c-0.6-1.3-1.3-2.6-2.1-3.7c-0.6-0.8-1.3-1.6-2-2.4
			c-0.6-0.7-1.3-1.4-2-2c-1.6-0.6-4.8-1.9-6.1-3.8c-0.4-0.5-0.8-1.1-1.2-1.7c0-0.1-0.1-0.1-0.1-0.2c-1.7-1.2-3.1-2.3-4-3.4
			c-1.3-1.6-3.5-3-5.8-4.3c0,0,0,0-0.1,0c-0.1,0-0.2-0.1-0.3-0.1c-0.2-0.1-0.5-0.1-0.7-0.2c-2-0.5-3.4-1-4.4-1.3
			c-0.1,0-0.2-0.1-0.3-0.1c-1.2-0.3-1.8-0.4-2.5,0.1c-0.7,0.5-1.1,0.7-1.2,0.8c-0.1,0.1-0.1,0.1-0.1,0.1c0,0,0,0,0,0s0,0,0,0
			c0,0,0-0.1,0-0.1c0.2-0.4,0.9-1.7,2.3-2.5c1.2-1,2.6-2,4.1-3C15.8,7.9,22.5,4.6,28.4,4c1.9-0.2,3.7-0.1,5.3,0.3
			c0.7,0.2,1.4,0.5,2,0.9c0.7,0.4,1.2,1,1.8,1.6c1.6,1.9,2.7,4.4,3.8,6.5c0.7,1.5,1.5,2.7,2.4,3.4c1.2,1,2.1,3,2.8,5.2
			c0.7,2.4,1.1,4.9,1.2,6.1C47.7,28.5,47.7,28.8,47.7,28.8z"/>
		<path class="st2" d="M47.7,28.8L37.2,39.1c-0.6-1.3-1.3-2.6-2.1-3.7c-1.2-1.6-2.6-3.1-4-4.4c0,0,9.2-3.3,15.4-9.2
			c0.7,2.4,1.1,4.9,1.2,6.1C47.7,28.5,47.7,28.8,47.7,28.8z"/>
		<path class="st3" d="M34.1,46.1c0,0,1.5-0.7,3-3.3c1.4-2.5,9.5-10.7,9.7-11.6c0.2-0.8,0.3-1.9,0.3-1.9s-11.1,9.4-11.6,9.5
			c-0.5,0.1-4.5-1.1-4.5-1.1s3.7,1.8,3.9,3.2C34.9,42.4,34.1,46.1,34.1,46.1z"/>
		<path class="st4" d="M34.4,40.2c0,0,0.2,0.9,1.9,0.2c1.7-0.8,2.4-0.9,3.3-2.6c0.9-1.7,5-5.2,5.8-6c0.9-0.7,2-1.7,2-2.2
			c0-0.5,0-0.5,0-0.5l-10,8.7c0,0-1.1,2.2-4.8,1L34.4,40.2z"/>
		<path class="st5" d="M47.7,28.8L37.2,39.1c-0.6-1.3-0.2-1.4-1-2.6c0.9-0.4,7-4.9,11.4-8.6C47.7,28.5,47.7,28.8,47.7,28.8z"/>
		<path class="st6" d="M41.2,13.2c-8,2.8-15.6,10.4-17.5,12.4c0-0.1-0.1-0.1-0.1-0.2c-1.7-1.2-3.1-2.3-4-3.4c-1.3-1.6-3.5-3-5.8-4.3
			c0,0,0,0-0.1,0c-0.4-0.1-0.7-0.2-1-0.3c-2-0.5-3.4-1-4.4-1.3C8.5,14,20.4,7.5,28,4.8C30.4,4,34.3,4,35.7,5.1
			C38.4,6.9,39.8,10.4,41.2,13.2z"/>
		<path class="st7" d="M9.2,15.4c1.3-0.3,8,1.5,9.8,4c0.7,1,2.3,2.7,4.1,4.5c2.1,2,4,4.3,6.3,5.6c0.7,0.4,2.4,2.1,2.9,2.5
			c4.3,3.4,4.2,5.2,4.8,6.4c0.2,0.5-0.3,1.8-1.3,0.7c-2.2,0-2.7,0.1-5.2-1.3c-1.7-0.9-4.4-2.2-4.4-2.2c0.1,0.1,0.7,0.2,1,0.4
			c0.1,0,0.1,0.1,0.2,0.1c0,0,0,0,0,0c2,1.2,6.5,3.3,7.5,4.8c1,1.5,0,4.8-0.9,5.2c-0.2,0.1-0.3,0.1-0.4-0.1
			c-0.2-0.3-0.9-0.6-1.6-0.9c-1.6-0.6-3.8-0.9-3.8-0.9c-6.6-1-10.1-2-10.1-2C8,38,4.8,33.2,3.2,28.8c-0.2-0.4-0.3-0.8-0.4-1.2
			c-0.1-0.2-0.1-0.4-0.2-0.5c-0.2-1.1-0.3-2.2-0.3-3.2c0-1.6,0.3-3,0.7-4.1c0.1-0.2,0.2-0.4,0.2-0.6c0.2-0.6,0.5-1,0.7-1.3
			c0.2-0.3,0.3-0.5,0.3-0.5C6.3,14.3,7.9,15.7,9.2,15.4z"/>
		<path class="st8" d="M37.5,6.7C25.2,9,16.1,17.3,16.1,17.3s-1.1,0.2-2.6,0.4c-0.2-0.1-0.5-0.1-0.7-0.2c-1.4-0.4-2.5-0.7-3.4-1
			c-0.4-0.1-0.7-0.2-1-0.3c-0.1,0-0.2-0.1-0.3-0.1c-1.2-0.3-1.8-0.4-2.5,0.1c-0.7,0.5-1.1,0.7-1.2,0.8c-0.1,0.1-0.2,0.1-0.2,0.1
			s0,0,0.1-0.1c0.2-0.4,0.9-1.7,2.3-2.5C13.2,9,24.7,2.5,33.1,4.1c0.2,0,0.5,0.1,0.7,0.1c0.7,0.2,1.4,0.5,2,0.9
			C36.4,5.5,37,6.1,37.5,6.7z"/>
		<path class="st9" d="M33.8,46.1c0.1-0.1,0.2-0.1,0.2-0.2C33.9,46,33.8,46.1,33.8,46.1z"/>
		<path class="st9" d="M18,31.8c0.6,0.3,3.7,3.1,8.5,3.8c0,0,1.8,1.1,4.4,2.3c0.9,0.4,1.6,0.8,2.3,1.3c0.5,0.3,0.9,0.7,1.2,1.1
			c0.5,0.6,0.8,1.3,0.7,2.1c0.2,1.3,0.2,2.6-1,3.6c0,0-0.1,0.1-0.1,0.1c0,0,0.1-0.1,0.1-0.1c0.2-0.3,0.5-0.8-0.1-1.8
			c-0.1-0.2-0.2-0.4-0.4-0.6c-1.6-2-6.9-5.3-10.6-7c-1.2-0.6-2.3-1.1-3.1-1.5c-1.7-0.9-2.6-1.7-2.9-2.3C16.5,31.7,17.5,31.4,18,31.8
			z"/>
		<path class="st10" d="M33.1,4.1c-2,0.4-3.9,0.8-4.3,1.1c-1,0.6-3.1,2.2-4.5,2.2c-1.4,0-3.6,1.7-4.4,2.6c-0.8,1-1.9,2.1-3.7,2.1
			c-1.8,0-5.4,2.2-5.5,2.7c0,0.2-0.5,1-1.3,1.6c-0.4-0.1-0.7-0.2-1-0.3c-0.1,0-0.2-0.1-0.3-0.1c-1.2-0.3-1.8-0.4-2.5,0.1
			c-0.7,0.5-1.1,0.7-1.2,0.8c-0.1,0.1-0.2,0.1-0.2,0.1s0,0,0.1-0.1c0.2-0.4,0.9-1.7,2.3-2.5C13.2,9,24.7,2.5,33.1,4.1z"/>
		<path class="st11" d="M33.2,39.1c0.5,0.3,0.9,0.7,1.2,1.1c0.5,0.6,1,1.1,1,2.1c0.2,1.3-0.6,3.7-1.3,3.5c0,0,0,0,0,0
			c0-0.1-0.1-0.3-0.1-0.5c0-0.2,0-0.2,0.2-0.8C35,42.8,34.3,40.6,33.2,39.1z"/>
		<path class="st12" d="M14.9,30.9c0,0-2.8-2.6-1.9-10.9L11,18.9c0,0,2.7,7.6-0.9,9.5c0,0,4,7.6,2.6,9.8l0.9,0.9l0.3-0.1
			C13.8,39,12.9,31,14.9,30.9z"/>
		<path class="st13" d="M14.8,30.9c0,0-1.1,0-2.1,0.3c-1,0.3-2.3-1.3-2.1-2.3c0.2-1,1.1-1.9,1.8-1.3c1,0.9,1,1.9,1.6,2.6
			C14.5,30.9,14.8,30.9,14.8,30.9z"/>
		<path class="st14" d="M3.2,28.8c0.9,1.6,3.4,5.3,7.2,8.6c0,0,1.3,1.5,2.9,0.7c0,0-0.1,2.3,9.3,4.3c0,0,7.4,1.8,9.6,2.6
			c0,0,0,0-0.1,0c-1.6-0.6-3.8-0.9-3.8-0.9c-6.6-1-10.1-2-10.1-2C8,38,4.8,33.2,3.2,28.8z"/>
		<path class="st13" d="M9.2,15.4c1.3-0.3,8,1.5,9.8,4c1.6,2.1,10,10.2,14.7,12.8c2.5,2.7,3.7,6.6,3.4,6c-3.2-7.5-10.6-7.1-13-11.5
			c-1.4-2.5-5.3-5.2-5.3-5.2c-4.8-3.9-6.2-0.9-6.2-0.9s-1.3-1.9-3.3-2.9c-1.7-0.9-4.7-0.1-5.3,0.1c0.2-0.3,0.3-0.5,0.3-0.5
			C6.3,14.3,7.9,15.7,9.2,15.4z"/>
		<path class="st0" d="M24.4,35c0,0-1.9-3.6,0.8-6.6l0.1-0.1l-0.7-0.8c0,0-1.4,2.6-1.1,5.4c0,0,0.1,1,0.4,2L24.4,35z"/>
		<path class="st0" d="M20.8,33.5c0,0,1.7-6.7-0.4-10.8l-0.8-0.6c0,0,2.6,5.8,0.7,11.2L20.8,33.5z"/>
		<path class="st0" d="M18.5,32c0,0,0.5-8.1-3.5-12.4l-0.2-0.1c0,0,4,3.8,3.1,12.3l0.5,0.4L18.5,32z"/>
		<path class="st15" d="M14.9,30.9c0,0,0.7,0.8,1.6,0.5c0.9-0.2,1.8-0.3,2.9,0.6c1.1,0.9,3.9,2.2,5.4,2.8c1.3,0.5,8.3,3.5,8.3,3.5
			s-3.3-1.2-10.7-4.1c0,0-2.7-1.3-3.4-1.9c-0.6-0.6-1.2-0.8-2-0.7c0,0-0.4,0.5,0,1c0.5,0.5,1.8,2,7.2,4.2c0,0,7.4,3.7,9,6
			c0,0,1.4,1.4,1.1,2.4c0,0-0.1,0.2-0.2,0.4c-0.1,0.1,0.1,0-0.1-0.5c-0.2-0.5-0.2-1.5-1.6-2.5c-1.5-1.6-6.8-4.6-8.7-5.3
			c-1.9-0.7-5.8-2.6-7.1-4.5C16.2,32.2,14.9,30.9,14.9,30.9z"/>
		<path class="st16" d="M11.3,29.4c0,0,0.5,1.1,1.2,1.1c0.7,0.1,0.6-0.8,0.5-1.2c-0.2-0.4-0.4-1.2-0.8-1.1c-0.4,0.1-0.7,0.1-0.8,0.5
			C11.3,29.2,11.3,29.4,11.3,29.4z"/>
		<path class="st0" d="M16.9,31.4c0,0,0.8-5.8-2.5-8.6c0,0,1.7,1.7,2.1,4.4c0.4,2.4,0,4.3,0,4.3L16.9,31.4z"/>
		<path class="st0" d="M15.7,30c0,0,0.8-2.1-0.6-4.6c-1.4-2.5-1.6-0.2-1.6,0.5c0,0.7,0.1,1.8,0.3,2.3c0,0-0.3-1.5-0.2-2.3
			c0.2-0.8,0.2-2.2,1.3-0.5C16.1,27.2,15.7,30,15.7,30z"/>
		<path class="st0" d="M15.3,28.2c0,0,0.3,1.8-0.3,1.8c-0.6-0.1-1-1-1.1-2c-0.2-1.2-0.2-1.7,0.1-2.6c0,0-0.4,1.5,0.1,2.8
			c0.4,1.3,0.5,1.5,1,1.6C15.5,29.9,15.3,28.2,15.3,28.2z"/>
		<path class="st0" d="M14.9,27.9c0,0,0-1.1-0.4-1.7c-0.4-0.5-0.2,1-0.2,1s0-1,0.2-0.9C14.6,26.5,14.9,27.9,14.9,27.9z"/>
		<g>
			<path class="st0" d="M14.9,38.1c0,0,1.2-1.4,0.9-4c-0.3-2.5-1.1-0.7-1.3-0.2c-0.2,0.5-0.5,1.5-0.4,2c0,0,0.2-1.4,0.6-2
				c0.3-0.6,0.8-1.8,1.1,0.1C16,35.9,14.9,38.1,14.9,38.1z"/>
			<path class="st0" d="M14.6,36.7c0,0-0.4,1.6-0.7,1.3c-0.4-0.3-0.4-1.2-0.2-2c0.2-1,0.4-1.5,0.8-2.1c0,0-0.7,1.1-0.8,2.3
				c-0.1,1.2-0.1,1.4,0.2,1.7C14.2,38.2,14.6,36.7,14.6,36.7z"/>
			<path class="st0" d="M14.7,36.1c0,0,0.3-0.9,0.2-1.5c-0.1-0.6-0.5,0.7-0.5,0.7s0.3-0.8,0.4-0.7C14.9,34.8,14.7,36.1,14.7,36.1z"
				/>
		</g>
		<path class="st0" d="M28.4,35.4c0,0-0.5-2.9-0.4-3.9c0.1-1,0.5-1.2,0.5-1.2l0.4,0.2c0,0-0.6,0.7-0.6,1.2c0,0.5,0.4,3.8,0.4,3.8
			L28.4,35.4L28.4,35.4z"/>
		<path class="st0" d="M31.1,37.2c0,0-1.4-2.5,1.3-4.4l0.1-0.1l0.5,0.4c0,0-1.6,0.9-1.7,2.3c-0.1,1.4,0.1,1.9,0.1,1.9L31.1,37.2z"/>
		<path class="st0" d="M6.9,26.4c0,0-3.8-5.9-1.5-9.1l-0.6,0.1c0,0-2.4,2.4,1.3,8.5L6.9,26.4z"/>
		<path class="st0" d="M8.5,27.5c0,0-3.9-8.5-0.9-10.3l-0.8,0c0,0-2.8,3,1.2,10L8.5,27.5z"/>
		<path class="st0" d="M9.1,27.8c0,0,3.4-3.9,0.9-9.6l0.4,0.1c0,0,2.7,6.2-1.1,9.6L9.1,27.8z"/>
		<path class="st0" d="M9.7,19.7c0,0-0.5-2.1-1.4-1.3c-0.9,0.7-0.6,4.9,0.3,6.6c0,0-1.4-5.1-0.1-6.3C8.4,18.8,9,18.2,9.7,19.7z"/>
		<path class="st0" d="M8.6,21.4c0,0,0,2.4,0.7,2.4c0.7,0,0.8-1.9,0.4-3c0,0,0,2.8-0.5,2.4C8.8,23,8.6,21.4,8.6,21.4z"/>
		<path class="st0" d="M31.3,41.8c0,0-1.7,0.3-1.9,2.4L28.7,44c0,0,0.6-1.9,2.1-2.5L31.3,41.8z"/>
		<path class="st0" d="M28.1,39.7c0,0-0.9,0.9-1.4,1.7c-0.5,0.7-0.4,1.3-0.4,1.4c0,0.1,0.2,0.6,0.2,0.6l-0.7-0.2
			c0,0-0.1-0.4,0.2-1.3c0.2-0.9,0.5-0.9,0.7-1.2c0.2-0.2,0.7-0.9,0.8-1.1c0.1-0.1,0.1-0.1,0.1-0.1L28.1,39.7z"/>
		<path class="st0" d="M23.4,42.6c0,0-0.6-1.6-0.7-2.6c0-1,0.4-1.9,0.4-2c0.1,0,0.7-0.5,0.7-0.5l-0.3-0.1c0,0-0.4,0.3-0.6,0.8
			c-0.3,0.5-0.6,1.1-0.5,1.6c0.1,0.5,0.2,0.3,0.2,1c0.1,0.7,0.3,1.7,0.3,1.7L23.4,42.6z"/>
		<path class="st0" d="M21.1,36.3c0,0-0.4,3.1-0.3,3.3c0,0.2,0.1,1.1-0.2,1.2c-0.3,0.1-0.7,1-0.7,1l-0.2-0.1c0,0,0.1-0.6,0.3-0.8
			c0.2-0.2,0.6,0,0.6-0.5c0-0.5,0.2-1.3,0-1.7c-0.1-0.4-0.2-1.1-0.2-1.4c0-0.3,0.2-0.9,0.2-1c0-0.1,0.1-0.3,0.1-0.3L21.1,36.3z"/>
		<path class="st0" d="M18.6,34.9c0,0,0.3,1.9,0.1,2.6c-0.2,0.6,0,0.8-0.4,1.3c-0.3,0.6-0.2,0.5-0.6,0.9c-0.4,0.4-0.9,0.9-0.9,0.9
			l-0.1,0.1l-0.3-0.1c0,0,0.8-0.9,1.3-1.4c0.5-0.5,0.7-0.9,0.7-1.2c0-0.3,0.3-0.6,0.2-1.2c-0.1-0.6-0.3-1.1-0.3-1.4
			c0-0.4,0-0.8-0.1-0.9c-0.1,0,0.5,0.4,0.5,0.4L18.6,34.9z"/>
		<path class="st0" d="M17,33.5c0,0,0.2,4.2-2.1,5.6c0,0,2.4-1.1,2.3-5.4L17,33.5z"/>
		<path class="st0" d="M11.7,38.2c0,0-7.8-6.3-2.8-10.4l-0.2-0.1c0,0-2.8,1.9-1.7,4.9C8.1,35.8,11.7,38.2,11.7,38.2z"/>
		<path class="st0" d="M7.2,27c0,0-3.4,1.3-1.4,5.5c0,0-1.6-2.7-0.3-4.5c0,0,0.8-0.8,1.5-1.1L7.2,27z"/>
		<path class="st0" d="M8.8,29.5c0,0-1.8,2.9,1.6,6.8C10.4,36.3,7.7,32.4,8.8,29.5z"/>
		<path class="st0" d="M9.7,31.5c0,0-0.2-1.3,0.2-1.3c0.4,0,1.7,3.6,1.3,4.7c0,0-0.4-3-1.1-4C10.1,30.9,9.8,30.5,9.7,31.5z"/>
		<path class="st0" d="M9.6,33.3c0,0,0.4,2.3,0.9,2c0.5-0.3-0.2-1.8-0.2-1.8S10.9,36.8,9.6,33.3z"/>
		<path class="st13" d="M6.3,25.7c0,0.2,0,0.3,0,0.3c-1.3-0.9-2.6-1.9-2.9-2.6l0.3,1.3c0,0,1,0.8,2.5,1.7l0,0c0,0,0.4,0.5,0.5,0.8
			l0.2-0.4c0.3,0.2,0.7,0.4,1,0.6v0c0,0,0.4,0.5,0.5,0.8l0.2-0.4l0,0c0.4,0.2,0.9,0.4,1.4,0.6c0,0-0.6-0.4-1.5-0.9L8,26.8
			C8,27,8,27.1,8,27.1c-0.4-0.2-0.8-0.5-1.2-0.8L6.3,25.7z"/>
		<path class="st17" d="M3.6,24.3l8.7,5.5c2,2.8,13.9,5.7,13.9,5.7s0.6,0.2,1.2,0.5c0,0,0,0,0,0c2,1.2,6.5,3.3,7.5,4.8
			c1,1.5,0,4.8-0.9,5.2c0-0.1-0.1-0.1-0.1-0.2c-2-3.3-12.3-6-14.6-6.6c-2.3-0.6-6-3.9-6-3.9s-2.2,0-4-0.8c-1.7-0.8-6.7-9.6-6.7-9.6
			L3.6,24.3z"/>
		<path class="st4" d="M18,31.8c0.6,0.3,3.7,2.7,8.1,4c0,0,2.3,0.9,4.8,2.1c1.5,0.7,2.7,1.4,3.5,2.3c-1.5-0.6-4.9-1.8-6.9-2.6
			c-2.5-1-6.2-2.5-7-2.5c-0.2,0-0.5-0.1-0.7-0.2c-1.7-0.9-2.6-1.7-2.9-2.3C16.5,31.7,17.5,31.4,18,31.8z"/>
		<path class="st4" d="M34.1,45.8c0,0,2.3-2.7,3-3.6c0.7-0.9,5-6.3,6.1-7c1-0.8,3.5-3.9,3.5-3.9l0.2,0c0,0-0.1,0.3-0.5,1
			c-0.4,0.6-5.9,6.8-7.8,9.1C36.6,43.7,34.4,46.7,34.1,45.8z"/>
		<path class="st10" d="M10.6,14.2c0,0,3,0.3,4.8,1.3c0,0,2.9,0.4,3.9,1.5c0,0-2.4-1.5-3.3-1.9C15,14.7,11.6,14.2,10.6,14.2z"/>
		<path class="st10" d="M15.3,11.1c0.7,0.4,1.3,1,2.2,2c0.9,1,3.5,0.8,4.8,2.5c0,0-1.7-2-2.7-2.2c-1-0.3-1.4-1.1-2.1-1.9
			C16.8,10.6,15.3,11.1,15.3,11.1z"/>
		<path class="st10" d="M20.8,8.4c0.9,1.1,1.3,3.1,3.8,4.2c2.5,1.1,3.8,1.5,4.3,2.4c0.5,0.9-0.1-1.4-3.6-2.8
			c-3.4-1.4-3.9-4.2-3.9-4.2L20.8,8.4z"/>
		<path class="st18" d="M21.7,17.3c1.1,0.7,2.7,5.3,5,5.8c2.3,0.5,4.7,1.6,4.7,1.6s-3.3-0.6-4.8-2.6C25,20.1,21.7,17.3,21.7,17.3z"
			/>
		<path class="st10" d="M23.5,14c1.2,0.9,2.1,2.2,2.5,2.9c0,0-0.4-1.2-0.8-2.2c-0.4-1-2.6-1.6-3-2.2C22.1,12.6,23,13.7,23.5,14z"/>
		<path class="st10" d="M18.8,8.8c0,0,1.2,1.8,2,2.4c0,0-1.7-0.3-2-1.2C18.6,9.2,18.8,8.8,18.8,8.8z"/>
		<path class="st18" d="M27.5,8.4c0,0-0.5,2.3,2,3.4c2.4,1.1,4.2,5.5,6.3,6.5c0,0-2.1-2.2-3.1-5c-1.1-2.8-4.1-2.4-4.3-3.3
			C28.3,9.1,27.5,8.4,27.5,8.4z"/>
		<path class="st10" d="M29,6.2c0,0,1.2,0.6,2.6,2.2c0,0-2.3-2.3-2.6-2.7C28.7,5.2,29,6.2,29,6.2z"/>
		<path class="st10" d="M28.9,16.9c0,0,1.4,2.7,4.2,4.1C33.1,21,29.8,18,28.9,16.9z"/>
		<path class="st10" d="M31.4,16.2c0.2,0.5,0.7,1.1,0.7,1.1l-0.7-1.7V16.2z"/>
		<path class="st10" d="M35.4,12.9c-0.1-0.6,1.6,2.5,2.5,3.5C38,16.4,35.9,14.9,35.4,12.9z"/>
		<path class="st18" d="M35.2,20c0,0,5.9,4.1,7.1,6.4c0,0-0.7-1.9-2.7-3.6C37.7,21,35.2,20,35.2,20z"/>
		<path class="st18" d="M29.6,26.4c0,0,1.2,2.7,3.6,3.5c2.4,0.8,4.3,4.1,4.4,4.5c0,0-2.1-4-3.8-5C32.1,28.4,29.6,26.4,29.6,26.4z"/>
		<path class="st10" d="M35.2,24.9c0.5,0.5,0.6,1.8,2,1.9L35.2,24.9z"/>
		<path class="st10" d="M38,29.3c0.2,0.5,1.4,0.6,1.6,2.4c0.2,1.8,0,3.4,0,3.4s0.4-2.5,0.4-2.9c0-0.4-0.5-1.4-0.5-1.6
			C39.4,30.3,38,29.3,38,29.3z"/>
		<path class="st10" d="M43.6,29.1c0,0,0.8,1.7,0.8,1.8C44.4,31.1,44.8,29.6,43.6,29.1z"/>
		<path class="st10" d="M40.5,27.5c0,0,0.9,0.5,1,1.8c0.2,1.3,0.3,2.6,0.3,2.6S41.2,28.5,40.5,27.5z"/>
		<path class="st10" d="M43.6,20.6c0,0-4.5-2.4-4.6-3.1C39,17.5,42.3,18.8,43.6,20.6z"/>
		<path class="st10" d="M43.8,22.6c0,0,1.2,1.4,1.5,3.8l0.1,1.5C45.4,28,44.7,23.4,43.8,22.6z"/>
		<path class="st10" d="M33.9,5.8c-0.2-0.1,1.8-0.5,3.3,4C37.2,9.7,35.7,6.6,33.9,5.8z"/>
		<path class="st10" d="M32.7,9.4c0.3,0,2.2,0.3,3.1,1.6c0.9,1.3,3,3.9,2.9,4C38.7,15,38.7,15,38.7,15s-2.2-3.3-3.5-4
			C34,10.2,32.7,9.4,32.7,9.4z"/>
		<path class="st10" d="M39.6,11.2c0,0,1.5,3.4,1.9,4.4C41.5,15.6,40.1,13.4,39.6,11.2z"/>
		<path class="st19" d="M46.4,23.8C45.9,25,46.5,28,46,30.5c-0.4,1.7-1.4,3.2-3.8,3.8c-1.7,0.4-4.1,0.2-7.4-0.7
			c-0.6-0.1-1.1-0.3-1.7-0.5c-0.6-0.7-1.3-1.4-2-2c-1.6-0.6-4.8-1.9-6.1-3.8c-0.4-0.5-0.8-1.1-1.2-1.7c0-0.1-0.1-0.1-0.1-0.2
			c-1.7-1.2-3.1-2.3-4-3.4c-1.3-1.6-3.5-3-5.8-4.3c0,0,0,0-0.1,0c-0.1,0-0.2-0.1-0.3-0.1c-0.2-0.1-0.5-0.1-0.7-0.2
			c-2-0.5-3.4-1-4.4-1.3c-0.1,0-0.2-0.1-0.3-0.1c-1.2-0.3-1.8-0.4-2.5,0.1c-0.7,0.5-1.1,0.7-1.2,0.8c-0.1,0.1-0.1,0.1-0.1,0.1
			c0,0,0,0,0,0c0,0,0-0.1,0-0.1c0.2-0.4,0.9-1.7,2.3-2.5c1.2-1,2.6-2,4.1-3c8-2.5,18.5-5.2,21.2-3.7c4.5,2.4,6.9,9.3,8.9,10.5
			C42.6,19.5,47.4,21.3,46.4,23.8z"/>
		<path class="st20" d="M47.7,28.8L46,30.5L45.5,31c-0.1,0-0.2-0.1-0.2-0.1S41.4,10.9,28.4,4c1.9-0.2,3.7-0.1,5.3,0.3
			c0.7,0.2,1.4,0.5,2,0.9c0.7,0.4,1.2,1,1.8,1.6c1.6,1.9,2.7,4.4,3.8,6.5c0.7,1.5,1.5,2.7,2.4,3.4c1.2,1,2.1,3,2.8,5.2
			c0.7,2.4,1.1,4.9,1.2,6.1C47.7,28.5,47.7,28.8,47.7,28.8z"/>
		<path class="st21" d="M37.6,33.3c0,0-1.6-4.3-4.5-6.3C33.1,27,36.7,27.4,37.6,33.3z"/>
		<path class="st21" d="M40.2,31.9c0,0-1.1-4-2.7-6.9C37.5,25,40.1,29,40.2,31.9z"/>
		<path class="st21" d="M34.6,25.8c0,0-1.5-1.3-2.9-3c0,0-1.6-1.2-1.8-1.8c0,0,1.3,0.9,1.9,1.2c0.6,0.3,0.3,0.8,0.9,1.2
			C33.3,23.8,34.6,25.8,34.6,25.8z"/>
		<path class="st21" d="M39.6,25c0,0-4.3-2.3-5.2-4.4L32.7,18c0,0,0.9,1.2,2.3,2.5C36.3,21.9,39.6,25,39.6,25z"/>
		<path class="st21" d="M43.4,25.6c0,0-3.1-3.5-4.4-5.2C39,20.4,42,22.3,43.4,25.6z"/>
		<path class="st21" d="M42.1,30.1c0,0,0.3-2.8-1.4-4.2L42.1,30.1z"/>
		<path class="st21" d="M35.4,33.3c0.1,0.1-4.4-3.7-6.2-5.1C29.2,28.2,33.8,31.2,35.4,33.3z"/>
		<path class="st21" d="M28.3,26.4c0,0-2.9-2.3-3.7-3.5C23.8,21.7,24.8,25.9,28.3,26.4z"/>
		<path class="st21" d="M38.8,19.4c0,0-3.8-3-4.2-4.9L38.8,19.4z"/>
		<path class="st21" d="M30.9,23.6c0,0-2.9-1.9-3.4-3.2C27.5,20.4,29.2,23.3,30.9,23.6z"/>
		<path class="st21" d="M31.1,26.8c0-0.1-3.9-2.6-3.9-2.6s1.6,0.2,3,1.2c1.4,0.9,1.5,1.9,1.5,1.9L31.1,26.8z"/>
		<path class="st21" d="M27.8,19.5c0,0-4.4-2.8-4.7-3C23.1,16.4,25.5,18.9,27.8,19.5z"/>
		<path class="st21" d="M28,18.2c0,0.2-1.5-2.7-1.6-3.3C26.3,14.9,28.2,17,28,18.2z"/>
		<path class="st22" d="M20.2,20.9c0,0,5.7-2.2,7.7-3.2c2-1,5.9,0.5,7.8,0c1.9-0.5,5.2,0.3,6.1,2.4c0.9,2.1,4.6,2.9,4.7,4
			c0.1,1.1,0,3.9-3.4,5.1c-3.4,1.2-5.3,3.5-6.2,4.6c-0.9,1-1.2,1.4-1.2,1.4S20.4,22.2,20.2,20.9z"/>
	</g>
	<path class="st14" d="M4.1,17.4c-0.8,1.5-1.6,4.6,0,7.2c0,0-2,0.8-0.4,4.9c-0.1-0.2-0.5-0.1-1.1-2.6C1.8,24,2.5,19.1,4.1,17.4z"/>
</g>
</svg>
