<?xml version="1.0" encoding="utf-8"?>
<!-- Generator: Adobe Illustrator 19.2.1, SVG Export Plug-In . SVG Version: 6.00 Build 0)  -->
<svg version="1.1" id="Слой_1" xmlns="http://www.w3.org/2000/svg" xmlns:xlink="http://www.w3.org/1999/xlink" x="0px" y="0px"
	 viewBox="0 0 50 50" style="enable-background:new 0 0 50 50;" xml:space="preserve">
<style type="text/css">
	.st0{fill:#E9725D;}
	.st1{fill:#D6554C;}
	.st2{fill:#D96253;}
	.st3{fill:#BE5F62;}
	.st4{fill:#DA6A56;}
	.st5{fill:#FDE6D8;}
	.st6{fill:#EFC8B6;}
	.st7{fill:#9E9A98;}
	.st8{fill:#E99083;}
	.st9{opacity:0.71;fill:#FDE6D8;}
	.st10{fill:#EEBBA9;}
	.st11{opacity:0.3;fill:#FCF3A2;}
	.st12{fill:#6E8092;}
	.st13{fill:#7F8992;}
	.st14{fill:#C5B4A5;}
	.st15{fill:#C4ABA0;}
	.st16{opacity:0.29;fill:#5D4655;}
	.st17{fill:#C2453D;}
</style>
<g>
	<path class="st0" d="M46.6,18.1c-0.1,1.7-4.7,8.9-8.3,10.2c-1.5,0.5-4,1.7-6.8,3.3c-3.2,1.8-6.6,4-8.9,6.3
		c-0.7,0.6-1.3,1.3-1.7,1.9c-3.6,4.9-5.1,4-5.1,4s-0.1,0-0.3-0.1c-0.6-0.2-1.9-0.7-2.2-1.9c-0.3-1.7,0.5-4.2,1.3-6.3
		c0.9-2.2,1.9-4,1.9-4c-0.2,0-0.4,0.3-0.8,0.6c-0.1,0.1-0.1,0.1-0.2,0.2c0,0,0,0,0,0c-2.1,1.9-6.3,6.5-8.4,7.2
		c-2.2,0.7-5.7-1.8-5.9-2.9c0-0.2,0.1-0.4,0.3-0.5c0.5-0.2,1.1-0.8,1.7-1.6c1.2-1.7,2.4-4.2,2.4-4.2c3.6-7.5,6-11.3,6-11.3
		C20.3,8.5,27,6.5,32.9,6.1c0.5,0,1.1-0.1,1.6-0.1c0.2,0,0.5,0,0.7,0c1.4,0.1,2.7,0.4,3.9,0.8c1.8,0.6,3.4,1.5,4.7,2.4
		c0.2,0.2,0.5,0.3,0.7,0.5c0.6,0.5,1,0.9,1.4,1.3c0.3,0.3,0.5,0.5,0.5,0.5C49,15.1,46.8,16.4,46.6,18.1z"/>
	<path class="st1" d="M1.3,36.2c0,0.1,0.1,0.2,0.1,0.3C1.4,36.3,1.3,36.2,1.3,36.2z"/>
	<path class="st1" d="M24,22.7c-0.6,0.5-4.9,3.4-7.5,8.8c0,0-2.1,1.7-4.4,4.3c-0.8,0.9-1.6,1.7-2.3,2.2c-0.6,0.4-1.1,0.8-1.7,1
		c-0.9,0.4-1.8,0.4-2.8,0.1c-1.6-0.3-3.1-0.7-3.9-2.5c0,0,0-0.1-0.1-0.1c0,0,0,0.1,0.1,0.1c0.3,0.4,0.8,0.8,2.2,0.5
		C4,37.1,4.2,37,4.6,36.9c3-1.2,8.8-6.3,12.2-10.1c1.1-1.3,2.1-2.3,3-3.2c1.7-1.7,2.9-2.5,3.7-2.6C24.6,20.9,24.6,22.1,24,22.7z"/>
	<path class="st2" d="M33.4,29.3c0,0-0.7,0.9-1.8,2.2c-3.2,1.8-6.6,4-8.9,6.3c-0.7,0.6-1.3,1.3-1.7,1.9c-2.1,2.9-3.5,3.8-4.2,4
		c-0.5,0.2-0.8,0-0.8,0s-2.1-0.5-2.5-1.9c-0.1-0.5-0.1-1,0-1.6c0.2-1.5,0.7-3.2,1.3-4.7c1.4-2.7,3.2-5.9,3.2-5.9s5.1-0.1,8-1
		C28.8,27.8,33.4,29.3,33.4,29.3z"/>
	<path class="st3" d="M9.8,38c-0.6,0.4-1.1,0.8-1.7,1c-0.9,0.4-1.7,0.8-2.9,0.4c-1.6-0.3-4.2-2-3.7-2.8c0,0,0,0,0,0
		c0.1,0,0.4,0,0.7,0.1c0.3,0.1,0.3,0.1,0.8,0.5C4.8,38.8,7.6,38.8,9.8,38z"/>
	<path class="st4" d="M26.1,19.3c0,0,4.1-2.4,13.6,1.7l2.1-2.1c0,0-10,0.4-10.9-4.5c0,0-10.4,2-12.6-0.5l-1.4,0.7l0.1,0.4
		C16.9,15,26.8,16.8,26.1,19.3z"/>
	<path class="st3" d="M19.5,41c-0.1,0.1-1.7,1.6-2.9,2.8c-0.5,0.2-0.8,0-0.8,0s-2.1-0.5-2.5-1.9c-0.1-0.5-0.1-1,0-1.6
		c0.3,0.8,0.9,1.6,1.8,1.9C16.8,42.6,19.4,41.1,19.5,41z"/>
	<path class="st5" d="M26.1,19.1c0,0,0.3-1.3,0.4-2.6c0.1-1.3,2.3-2.3,3.4-1.7c1.1,0.6,1.8,2,1,2.6c-1.4,0.9-2.7,0.5-3.6,0.9
		C26.3,18.8,26.1,19.1,26.1,19.1z"/>
	<path class="st6" d="M32.9,6.1c-2.2,0.6-7.5,2.1-12.7,5.5c0,0-2.2,1-1.9,3.1c0,0-2.7-0.9-8.5,9.5c0,0-4.8,8.1-6.6,10.5
		c0,0,0,0,0-0.1c1.2-1.7,2.4-4.2,2.4-4.2c3.6-7.5,6-11.3,6-11.3C20.3,8.5,27,6.5,32.9,6.1z"/>
	<path class="st6" d="M46,11.2c-1.5-1.5-4.9-3.5-8.6-2.6c0,0-0.2-2.6-5.7-2.2c0.2,0,0.3-0.5,3.5-0.4C39,6.2,44.5,8.7,46,11.2z"/>
	<path class="st5" d="M46.6,18.1c-0.1,1.7-4.7,8.9-8.3,10.2c-3.1,1.1-15.3,7.8-19.2,13.2c-1.8,1.9-2.3,2-1.7,1.4
		c2.7-2.7,4.4-9.9,10.6-11.2c3.4-0.7,8.1-4.5,8.1-4.5c6.3-4.3,3.3-7,3.3-7s2.7-0.9,4.7-2.8c1.7-1.7,1.8-5.5,1.8-6.3
		c0.3,0.3,0.5,0.5,0.5,0.5C49,15.1,46.8,16.4,46.6,18.1z"/>
	<path class="st7" d="M48.7,17.8c-0.1,0.4-0.2,0.9-0.5,1.5c-0.3,0.9-0.8,1.9-1.4,3c-1.2,2.2-2.9,4.8-5.1,7.1c-2.2,2.3-5,4.3-8.2,5.4
		c-0.3,0.1-0.5,0.2-0.8,0.3c-8.3,2.8-6.6,0.8-11.3,5.5c-1.8,1.8-3.1,2.7-4,3.1c-1.6,0.7-2.1,0-2.1,0s2.5,0,4.3-3.5
		c0.2-0.4,0.4-0.8,0.6-1.2c1.5-2.8,3-5.4,6.5-6.6c1.9-0.6,4.6-1.5,7.3-2.9c3-1.5,6.1-3.7,8-6.9c0.2-0.4,0.5-0.8,0.7-1.1
		c1.4-2.2,2.4-3.6,3.1-4.7c0.1-0.1,0.2-0.2,0.2-0.3c0.8-1.3,1.1-2,0.8-3c-0.3-1-0.4-1.5-0.5-1.8c-0.1-0.2-0.1-0.2-0.1-0.2
		s0,0,0.1,0.1c0.4,0.4,1.7,1.7,2.2,3.6c0,0,0,0,0,0C48.8,15.9,48.9,16.8,48.7,17.8z"/>
	<path class="st8" d="M17.8,29.1c0,0,4.9-0.9,7.6,3.4l0.1,0.1l1.2-0.6c0,0-2.5-2.6-5.9-3.3c0,0-1.2-0.3-2.5-0.3L17.8,29.1z"/>
	<path class="st8" d="M20.9,25.3c0,0,7.3,4.4,12.9,3.4l1-0.7c0,0-7.8,1-13.5-3.1L20.9,25.3z"/>
	<path class="st8" d="M23.5,23.2c0,0,9.5,3.5,16,0.3l0.2-0.2c0,0-6,3.4-15.7-0.7l-0.6,0.5L23.5,23.2z"/>
	<path class="st9" d="M26.1,19.3c0,0-1.2,0.6-1.2,1.8c-0.1,1.1-0.3,2.3-1.8,3.2c-1.5,1-4,3.8-5.2,5.4c-1,1.3-4.4,9.6-4.4,9.6
		s-0.2-4.5,5.9-12.2c0,0,2.5-2.8,3.4-3.4c0.9-0.6,1.4-1.1,1.5-2.2c0,0-0.5-0.7-1.2-0.3c-0.8,0.4-3,1.4-7.6,7.1c0,0-7.1,7.4-10.3,8.5
		c0,0-2.2,1.1-3.3,0.4c0,0-0.3-0.2-0.4-0.3c-0.1-0.2,0,0.1,0.6,0.1c0.7-0.1,1.9,0.3,3.5-1c2.4-1.2,7.9-6.4,9.4-8.4
		c1.5-1.9,5.1-5.9,7.9-6.8C24.1,20.3,26.1,19.3,26.1,19.3z"/>
	<path class="st10" d="M29.2,15.6c0,0-1.5,0.2-1.8,1c-0.3,0.8,0.7,1,1.2,1c0.5-0.1,1.6-0.1,1.6-0.6c0-0.5,0.2-0.9-0.3-1.1
		C29.4,15.6,29.2,15.6,29.2,15.6z"/>
	<path class="st8" d="M24.9,21.5c0,0,6.7,3,11.1,0.2c0,0-2.7,1.4-6,0.9c-3-0.4-5.1-1.5-5.1-1.5L24.9,21.5z"/>
	<path class="st8" d="M26.9,20.5c0,0,2.2,1.7,5.7,0.9c3.4-0.8,0.8-1.9,0-2.1c-0.8-0.3-2.2-0.5-2.8-0.4c0,0,1.9,0.2,2.8,0.6
		c0.8,0.5,2.6,1,0.1,1.8C30.1,22,26.9,20.5,26.9,20.5z"/>
	<path class="st8" d="M29.2,20.7c0,0-2.3-0.3-2-1c0.3-0.7,1.5-0.8,2.8-0.6c1.4,0.2,2.1,0.4,3.1,1c0,0-1.7-1-3.4-0.9
		c-1.7,0.1-1.9,0.1-2.3,0.6C27.1,20.3,29.2,20.7,29.2,20.7z"/>
	<path class="st8" d="M29.7,20.4c0,0,1.4,0.4,2.1,0.1c0.8-0.3-1.1-0.6-1.1-0.6s1.2,0.3,1,0.5C31.5,20.5,29.7,20.4,29.7,20.4z"/>
	<g>
		<path class="st8" d="M17.5,16.7c0,0,1.3,1.9,4.4,2.5c3.1,0.6,1.2-1,0.7-1.5c-0.6-0.4-1.7-1.1-2.2-1.2c0,0,1.6,0.8,2.1,1.4
			c0.6,0.6,1.8,1.5-0.5,1.2C19.7,18.8,17.5,16.7,17.5,16.7z"/>
		<path class="st8" d="M19.4,16.8c0,0-1.8-1-1.3-1.4c0.5-0.4,1.5,0,2.5,0.5c1.1,0.6,1.6,1,2.2,1.8c0,0-1.1-1.2-2.5-1.8
			c-1.4-0.5-1.6-0.6-2.1-0.4C17.8,15.8,19.4,16.8,19.4,16.8z"/>
		<path class="st8" d="M20.1,17.1c0,0,1,0.7,1.7,0.8c0.7,0-0.7-0.8-0.7-0.8s0.9,0.6,0.6,0.7C21.5,17.8,20.1,17.1,20.1,17.1z"/>
	</g>
	<path class="st8" d="M16,33.6c0,0,3.6,0.4,4.8,1c1.1,0.5,1.3,1.2,1.3,1.2l-0.3,0.4c0,0-0.7-1.1-1.3-1.3c-0.6-0.2-4.7-1-4.7-1
		l0.1-0.3L16,33.6z"/>
	<path class="st8" d="M14.4,37.2c0,0,3.5-0.7,4.8,3.2l0,0.1l-0.5,0.7c0,0-0.6-2.4-2.3-3.1c-1.6-0.7-2.2-0.6-2.2-0.6L14.4,37.2z"/>
	<path class="st8" d="M35.9,10.1c0,0,3.2-1.7,8.3,0.1l0,0c0,0-3-1.5-5.5-1.1C36.1,9.6,35.9,10.1,35.9,10.1z"/>
	<path class="st8" d="M34.4,11.4c0,0,8.4-2.4,11.3,1.5l0.1-0.7c0,0-2-3.7-10.6-1.5L34.4,11.4z"/>
	<path class="st8" d="M32.5,12.9c0,0,11.5-1.6,12.6,2.7l0.3-1c0,0-2.5-4.4-12.4-2.2L32.5,12.9z"/>
	<path class="st8" d="M31.9,13.5c0,0,3.4,5.4,11,4.6l-0.2,0.4c0,0-8.3,1-11-4.8L31.9,13.5z"/>
	<path class="st8" d="M41.3,17.1c0,0,2.7,0.2,2.1-1.2c-0.6-1.4-5.6-2.5-8-2c0,0,6.5,0.2,7.5,2.1C42.9,15.9,43.4,16.8,41.3,17.1z"/>
	<path class="st8" d="M39.7,15.2c0,0-2.9-0.9-3.2,0c-0.2,0.8,1.9,1.7,3.3,1.6c0,0-3.3-1-2.7-1.4C37.8,14.8,39.7,15.2,39.7,15.2z"/>
	<path class="st8" d="M7.4,34.7c0,0,0.2-2.1-2.2-3.1L5.6,31c0,0,2,1.4,2.2,3.4L7.4,34.7z"/>
	<path class="st8" d="M10.9,31.8c0,0-0.8-1.4-1.5-2.2c-0.7-0.8-1.4-0.9-1.5-0.9c-0.1,0-0.8,0-0.8,0l0.5-0.8c0,0,0.5,0.1,1.5,0.7
		c1,0.6,1,0.9,1.2,1.3c0.2,0.4,0.8,1.2,1,1.4c0.1,0.2,0.1,0.2,0.1,0.2L10.9,31.8z"/>
	<path class="st8" d="M9.2,25.1c0,0,2.1-0.2,3.4,0.2c1.2,0.3,2.1,1.1,2.2,1.2c0,0.1,0.4,1,0.4,1l0.3-0.3c0,0-0.3-0.6-0.8-1.1
		c-0.5-0.5-1.1-1.2-1.7-1.2c-0.6,0-0.4,0.1-1.3-0.1c-0.9-0.2-2.1-0.3-2.1-0.3L9.2,25.1z"/>
	<path class="st8" d="M17.5,24.7c0,0-3.6-1.6-3.8-1.6c-0.2,0-1.3-0.3-1.3-0.7c0-0.4-0.9-1.1-0.9-1.1l0.2-0.3c0,0,0.6,0.4,0.8,0.7
		c0.2,0.3-0.2,0.7,0.4,0.9c0.6,0.2,1.5,0.6,2,0.6c0.5,0,1.4,0.1,1.7,0.3c0.3,0.1,1,0.6,1.1,0.6c0.1,0,0.3,0.2,0.3,0.2L17.5,24.7z"/>
	<path class="st8" d="M20.1,22.1c0,0-2.4-0.4-3.1-0.8c-0.7-0.4-0.9-0.3-1.5-0.9C15,19.8,15,20,14.7,19.4C14.4,18.8,14,18,14,18
		l0-0.2l0.3-0.3c0,0,0.7,1.3,1.2,2c0.5,0.7,0.8,1.1,1.2,1.3c0.4,0.1,0.6,0.6,1.4,0.7c0.8,0.1,1.4,0.1,1.8,0.2c0.4,0.1,1,0.3,1.1,0.2
		c0.1-0.1-0.6,0.4-0.6,0.4L20.1,22.1z"/>
	<path class="st8" d="M22.3,20.8c0,0-5.1-1.2-5.9-4.4c0,0,0.5,3.2,5.6,4.6L22.3,20.8z"/>
	<path class="st11" d="M42.6,8.9c0,3.1-3.1,6.4-7.3,9.3c0,0-0.9,6.8-7,9.9c-6.1,3.1-9,5.6-11.1,10.3c-1.2,2.7-1.6,4.4-1.9,5.4
		c-0.6-0.2-1.9-0.7-2.2-1.9c-0.3-1.7,0.5-4.2,1.3-6.3c0.9-2.2,1.9-4,1.9-4c-0.2,0.1-0.4,0.3-0.8,0.6c4.2-5.7,9.6-12.1,9.6-12.1
		S33.6,11.3,39,6.9C40.9,7.5,41.4,8,42.6,8.9z"/>
	<path class="st8" d="M18.6,12.8c0,0,10.3-7,13.3,0.4l0.2-0.2c0,0-1.2-3.9-5.2-3.7C22.8,9.5,18.6,12.8,18.6,12.8z"/>
	<path class="st8" d="M33.6,11.5c0,0-0.4-4.5-6-3.7c0,0,3.8-1,5.4,1.3c0,0,0.7,1.2,0.8,2.2L33.6,11.5z"/>
	<path class="st8" d="M35.7,9.6c0,0-0.8-3.2-4.2-3.1c0,0,2.3-0.6,4,1.8l0.5,1.1L35.7,9.6z"/>
	<path class="st8" d="M30,12.5c0,0-2.8-3.2-8.6-0.6C21.4,12,27,10.2,30,12.5z"/>
	<path class="st8" d="M27.3,12.8c0,0,1.6,0.2,1.4,0.7c-0.2,0.5-4.9,0.7-6.1-0.1c0,0,3.7,0.7,5.2,0.2C27.9,13.5,28.5,13.4,27.3,12.8z
		"/>
	<path class="st8" d="M25.2,12.1c0,0-2.9-0.3-2.7,0.3c0.2,0.7,2.2,0.4,2.2,0.4S20.6,12.4,25.2,12.1z"/>
	<path class="st5" d="M35.5,10.9c-0.2,0-0.4-0.1-0.4-0.1c1.6-1.3,3.3-2.4,4.1-2.5l-1.6-0.1c0,0-1.3,0.9-3,2.4l0,0
		c0,0-0.7,0.4-1.2,0.3l0.4,0.4c-0.3,0.3-0.7,0.7-1,1l0,0c0,0-0.7,0.4-1.2,0.3l0.4,0.4l0,0c-0.4,0.4-0.8,0.9-1.2,1.4
		c0,0,0.7-0.6,1.6-1.4l1-0.4c-0.3,0-0.4-0.1-0.4-0.1c0.4-0.4,0.9-0.8,1.4-1.1L35.5,10.9z"/>
	<path class="st12" d="M48.7,17.8c-0.1,0.4-0.2,0.9-0.5,1.5c-0.3,0.9-0.8,1.9-1.4,3c0-0.8-0.3-2-0.1-3c0.1-0.6,0-1.2-0.2-1.8
		c-0.1-0.4-0.3-0.8-0.4-1c0.8-1.3,1.1-2,0.8-3c-0.3-1-0.4-1.5-0.5-1.8l0-0.1C47,12.1,49.4,14.5,48.7,17.8z"/>
	<path class="st13" d="M48.3,19.3c-0.3,0.9-0.8,1.9-1.4,3c-1.2,2.2-2.9,4.8-5.1,7.1c0-0.2,0-0.3,0-0.3c-0.1-0.3,0.9-4,0.9-5.4
		c0-0.6,0.1-1.4,0.2-2.1c1.4-2.2,2.6-4,3.4-5.1l0.4,1C47.1,18,47.8,18.8,48.3,19.3z"/>
	<path class="st14" d="M34.1,29.5c-0.1,0.6-0.4,1.4-0.7,2.2c-0.4,1.1-0.6,2.4-0.6,3.3c-8.3,2.8-6.6,0.8-11.3,5.5
		c-1.8,1.8-1.4,0.5-1.4,0.3c0-0.1,0.1-0.9,0.2-1.9c0.7-1.4,1.4-2.7,2.4-3.8c1-1.2,2.3-2.2,4.1-2.8c1.7-0.6,4.2-1.4,6.8-2.6
		C33.7,29.7,33.9,29.6,34.1,29.5z"/>
	<path class="st15" d="M33.6,29.8c-1.2,1.1-4.2,3-6.3,3.2c-1.8,0.2-3.6,1.4-4.6,2.2c1-1.2,2.3-2.2,4.1-2.8
		C28.5,31.8,31,31,33.6,29.8z"/>
	<path class="st11" d="M38.1,8.2l-9.7,8.4C24.4,18,16.6,31,16.6,31s-0.5,0.6-1.1,1.3c0,0,0,0,0,0c-2.1,1.9-6.3,6.5-8.4,7.2
		c-2.2,0.7-5.7-1.8-5.9-2.9c0.1,0,0.2-0.1,0.3-0.1C6.1,35.4,13,24.1,14.5,21.6c1.5-2.5,6.8-5.7,6.8-5.7s0.8-2.6,2.4-4.4
		C25.3,9.7,37.6,7,37.6,7L38.1,8.2z"/>
	<path class="st16" d="M48.7,17.8c-0.1,0.4-0.2,0.9-0.5,1.5c-0.3,0.9-0.8,1.9-1.4,3c-1.2,2.2-2.9,4.8-5.1,7.1
		c-2.2,2.3-5,4.3-8.2,5.4c-0.3,0.1-0.5,0.2-0.8,0.3c-8.3,2.8-6.6,0.8-11.3,5.5c-1.8,1.8-3.1,2.7-4,3.1c-1.6,0.7-2.1,0-2.1,0
		c1.7,0.8,4.5-1.9,4.5-1.9c1.8-3,5.7-5.3,5.7-5.3c6.9-1.7,11.7-4.1,11.7-4.1c9.9-8.9,11.4-14.7,11.4-17.3
		C48.8,15.9,48.9,16.8,48.7,17.8z"/>
	<path class="st17" d="M24,22.7c-0.6,0.5-4.9,3.4-7.5,8.8c0,0-2.1,1.7-4.4,4.3c-1.4,1.5-2.7,2.7-4,3.3c1.2-1.6,3.9-5.2,5.6-7.2
		c2-2.6,5.2-6.5,5.5-7.4c0.1-0.2,0.3-0.5,0.5-0.8c1.7-1.7,2.9-2.5,3.7-2.6C24.6,20.9,24.6,22.1,24,22.7z"/>
	<path class="st6" d="M44.7,10.2c0,0,1,1,1.1,1.5l0.1-0.6C45.9,11,45.1,10.1,44.7,10.2z"/>
</g>
</svg>
