<?xml version="1.0" encoding="utf-8"?>
<!-- Generator: Adobe Illustrator 19.2.1, SVG Export Plug-In . SVG Version: 6.00 Build 0)  -->
<svg version="1.1" id="Слой_1" xmlns="http://www.w3.org/2000/svg" xmlns:xlink="http://www.w3.org/1999/xlink" x="0px" y="0px"
	 viewBox="0 0 50 50" style="enable-background:new 0 0 50 50;" xml:space="preserve">
<style type="text/css">
	.st0{fill-rule:evenodd;clip-rule:evenodd;fill:#A72321;}
	.st1{fill-rule:evenodd;clip-rule:evenodd;fill:#DA594F;}
	.st2{fill-rule:evenodd;clip-rule:evenodd;fill:#9F221F;}
	.st3{fill-rule:evenodd;clip-rule:evenodd;fill:#94201B;}
	.st4{fill-rule:evenodd;clip-rule:evenodd;fill:#8A1E18;}
	.st5{fill-rule:evenodd;clip-rule:evenodd;fill:#97201C;}
	.st6{fill-rule:evenodd;clip-rule:evenodd;fill:#8F1F1A;}
	.st7{fill-rule:evenodd;clip-rule:evenodd;fill:#FAC6AD;}
	.st8{fill-rule:evenodd;clip-rule:evenodd;fill:#F2B497;}
	.st9{fill-rule:evenodd;clip-rule:evenodd;fill:#F0A587;}
	.st10{fill-rule:evenodd;clip-rule:evenodd;fill:#C72829;}
	.st11{fill-rule:evenodd;clip-rule:evenodd;fill:#D03B33;}
	.st12{fill-rule:evenodd;clip-rule:evenodd;fill:#BF2727;}
	.st13{fill-rule:evenodd;clip-rule:evenodd;fill:#D5503F;}
	.st14{fill-rule:evenodd;clip-rule:evenodd;fill:#E1845D;}
	.st15{fill-rule:evenodd;clip-rule:evenodd;fill:#FDE8DA;}
	.st16{fill-rule:evenodd;clip-rule:evenodd;fill:#FEF2E9;}
	.st17{fill-rule:evenodd;clip-rule:evenodd;fill:#FCD7C2;}
	.st18{fill-rule:evenodd;clip-rule:evenodd;fill:#BA2626;}
	.st19{fill-rule:evenodd;clip-rule:evenodd;fill:#B62525;}
	.st20{fill-rule:evenodd;clip-rule:evenodd;fill:#B72625;}
	.st21{fill-rule:evenodd;clip-rule:evenodd;fill:#FBD1BC;}
	.st22{fill-rule:evenodd;clip-rule:evenodd;fill:#B92626;}
	.st23{fill-rule:evenodd;clip-rule:evenodd;fill:#FFF6F0;}
</style>
<g>
	<g>
		<path class="st0" d="M46.1,22.8c0,0,1.6,1.3,1.6,2.3c0,1-1,3.9-1.4,5.5c-0.4,1.6-1.1,3.5-2.3,5c-1.2,1.5-2,1.3-3.5,2.9
			c-1.5,1.5-3.2,3.2-6.1,3.3c-2.9,0.1-8.1-1.2-9.3-0.9c-1.1,0.3-4.4-2.2-6.3-3c-1.9-0.7-3.4-1.9-4.3-3c-0.9-1.1-3.8-2.7-5.2-3
			C8,31.6,5.7,30,5,29.2c-0.7-0.8-0.9-1.9-1.4-2.5c-0.5-0.6-1.5-2.5-1.4-3.4c0.1-1,0.7-3.5,0.8-4.7c0.1-1.2,0.6-3.4,1.8-4.8
			c1.1-1.3,3.8-3.1,5.2-3.8c0.9-0.4,14.7,5,25,8.9C41.2,21.3,46.1,22.8,46.1,22.8z"/>
		<path class="st1" d="M2.3,24.2c-0.1-0.3-0.1-0.6-0.1-0.9c0.1-1,0.7-3.5,0.8-4.7c0.1-1.2,0.6-3.4,1.8-4.8c0.8-1,2.5-2.2,3.9-3
			l0.1,0l-4.4,4.1c0,0.1-0.8,1.9-1,2.6c-0.1,0.7-0.4,2.8-0.6,3.8C2.7,22.1,2.3,23.3,2.3,24.2z"/>
		<path class="st2" d="M12.8,33.5c-1.2-0.7-2.6-1.4-3.4-1.6C8,31.6,5.7,30,5,29.2c-0.1-0.1-0.2-0.2-0.2-0.3c0-0.1,0-0.2,0-0.2
			c0-0.7-0.4-0.8-0.4-0.8s-0.1-1.1-0.2-1.2c-0.2-0.1-0.8-0.7-0.8-0.8c-0.1-0.1-0.4-0.7-0.5-0.9c-0.1-0.2-0.3-1-0.2-1.3
			c0.1-0.3,0.2-0.4,0.4-1.2c0.2-0.8,0.1-0.7,0.2-1c0.1-0.3,0.1-0.3,0.1-0.8c0-0.5-0.1-0.6,0-1c0.1-0.4,0.1-1.1,0.2-1.5
			c0.2-0.4,0.5-1.1,0.5-1.1s0.8,1.3,1,2.1c0.2,0.8,1.4,3.1,1.5,3.5c0.1,0.4,1.1,1.8,1.3,2.1c0.1,0.3,0.2,1.1,0.1,1.4
			c0,0.2,1.7-1,1.8-0.8c0.1,0.2,2.3,3.6,2.3,4.3s0,1.8,0.1,2.1c0.1,0.4,0.8,1,0.8,1.1C12.9,33,12.9,33.3,12.8,33.5z"/>
		<path class="st3" d="M12.8,33.5C12.8,33.5,12.8,33.5,12.8,33.5c-0.1-0.2-0.2-0.3-0.2-0.4c-0.1-0.4-0.4-0.2-0.6-0.3
			c-0.2-0.1-0.2-0.1-0.6-0.4c-0.4-0.2-0.3-0.2-0.6-0.3c-0.3-0.1-0.7-0.4-0.8-0.5c-0.1-0.1-0.4-0.3-0.5-0.4c-0.1-0.1-0.4-1.2-0.3-1.3
			c0-0.1,0.1,1.5,0,1.5c-0.1,0-0.2-0.6-0.2-1c-0.1-0.4-0.1-0.7-0.1-0.9c0-0.2-0.1-0.4-0.2-0.9c-0.1-0.5,0.1-0.8,0.1-1.1
			c0-0.4-0.4,0.2-0.6,0.3C8,28,8,28.6,7.9,28.8c0,0.2,0,1,0.1,1.4c0.1,0.4,0.2,0.7,0.2,0.7L8.2,31c0,0-0.4-0.3-1.1-0.4
			c-0.7-0.2-1.5-1-1.6-1.3c-0.1-0.3-0.8-1.4-0.8-1.6c0-0.2-0.1-0.4-0.1-0.8c0-0.4-0.6-0.9-0.6-0.9s-0.2-0.2-0.3-0.4
			c-0.1-0.2-0.2-0.5-0.3-0.9c-0.1-0.4-0.1-0.4,0-1c0-0.5,0.1-0.7,0.3-1.4c0.2-0.7,0.2-1.4,0.2-2c0-0.6,0.6-1.9,0.6-1.9s0.2,0,0.4,0
			c0.1,0.3,0.3,0.6,0.3,0.9c0.2,0.8,1.4,3.1,1.5,3.5c0.1,0.4,1.1,1.8,1.3,2.1c0.1,0.3,0.2,1.1,0.1,1.4c0,0.2,1.7-1,1.8-0.8
			c0.1,0.2,2.3,3.6,2.3,4.3s0,1.8,0.1,2.1c0.1,0.4,0.8,1,0.8,1.1C12.9,33,12.9,33.3,12.8,33.5z"/>
		<path class="st4" d="M12.9,33.5c0,0-0.1,0-0.1-0.1c0,0,0-0.1,0-0.1c0-0.4,0-0.4,0-0.4s-0.4-0.3-0.5-0.5c-0.1-0.2-0.6-0.3-0.8-0.4
			c-0.2-0.1-0.4-0.2-0.9-0.5c-0.5-0.3-0.2-0.4-0.3-0.6c-0.1-0.2-0.1-0.6,0-1c0.1-0.4,0-1.3,0-2.4c0-1.1-0.7-0.3-0.7-0.3
			s-0.1,0.4-0.3,1.4c-0.2,1-0.1,1.8-0.1,1.8S9,29.2,9,29.1C9,29,9,29,9,28.8c0-0.2,0-0.5,0.1-0.6c0-0.2,0-0.4,0-0.6
			c0-0.2-0.1-0.3-0.3-0.5c-0.1-0.2-0.4-0.1-0.5-0.1c-0.1,0-0.3,0.5-0.5,1c-0.2,0.5-1,1.7-1,1.7l-0.3-0.2l-1-0.6c0,0-0.3-0.4-0.4-0.6
			C5.1,28,5,27.8,5,27.4c0-0.4,0-0.7,0-0.8c0-0.2-0.3-0.5-0.7-1.2C3.8,24.6,4,24.6,4,24.1c0-0.5,0.2-2,0.3-2.6
			c0.1-0.6,0.1-1.8,0.2-2.1c0,0,1.7,1.4,1.9,1.5c0.2,0.1,2.5,2.4,3.9,3.5c1.4,1.1,2.4,3.4,3.1,5.1c0.7,1.6,0.1,2.3,0,2.7
			C13.3,32.5,13,33.2,12.9,33.5z"/>
		<path class="st0" d="M31.7,41.6c-2.7-0.3-5.6-0.9-6.5-0.7c-1,0.3-3.4-1.5-5.3-2.5c-0.1-0.4-0.2-0.7-0.3-1.1
			c-0.1-0.7,0.4-0.1,0.5,0.1c0.1,0.2,0.3,0.6,0.6,1c0.3,0.4,0.6,0.7,0.9,0.8c0.2,0.1,0.4,0.2,1,0.5c0.5,0.2,0.6,0.3,0.9,0.4
			c0.3,0.1,0.5,0.1,1,0.2c0.5,0,0.4,0,0.8-0.1c0.4-0.1,0.5-0.4,0.8-0.8c0.3-0.4,0.3-0.7,0.7-1.4c0.3-0.7,0.2-0.4,0.3-0.8
			c0.2-0.4,0.3-0.2,0.7-0.3c0.4-0.1,0.7-0.5,1.4-0.6c0.6,0,0.8,0.7,0.9,0.8c0.2,0.1,0.7,0.5,1,0.7c0.3,0.2,0.5,0.3,0.5,0.3
			s-0.1,0.5-0.1,1.2c-0.1,0.6-0.3,1-0.4,1.3c-0.1,0.3,0,0.2,0.3,0.5C31.4,41,31.6,41.3,31.7,41.6z"/>
		<path class="st2" d="M30.9,41.5c-2.4-0.3-4.9-0.8-5.7-0.6c-0.4,0.1-1.1-0.1-1.9-0.6c0.6,0.1,0.9,0.2,1.5,0.3
			c0.6,0.1,0.9-0.2,1.1-0.3c0.2-0.1,0.3-0.3,0.5-0.5c0.2-0.2,0.4-0.8,0.8-1.4c0.4-0.6,0.3-0.7,0.5-0.9c0.2-0.3,0.2-0.1,0.4-0.2
			c0.2-0.1,0.5-0.2,0.9-0.2c0.4-0.1,0.7,0.3,0.7,0.3s0.5,0.4,0.7,0.6c0.2,0.1,0.2,0.2,0.4,0.7c0.2,0.5-0.1,0.8-0.2,1.2
			c0,0.4-0.1,0.6-0.1,0.6s0.1,0.4,0.2,0.7C30.8,41.2,30.8,41.3,30.9,41.5z"/>
		<path class="st3" d="M30.3,41.4c-2.2-0.3-4.4-0.7-5.1-0.5c-0.2,0-0.3,0-0.6,0c1-0.1,1.7-0.4,1.9-0.5c0.2-0.2,0.2-0.3,0.3-0.4
			c0.1-0.2,0.2-0.4,0.4-0.7c0.2-0.3,0.5-0.7,0.8-1.1c0.3-0.5,0.1-0.2,0.4-0.4c0.3-0.2,0.5-0.2,0.6-0.2c0.1,0,0.2,0.2,0.6,0.4
			c0.4,0.3,0.2,0.6,0.3,0.8c0,0.3,0,0.8-0.1,1.1c-0.1,0.3,0.1,0.8,0.1,1C29.9,40.8,30.1,41.1,30.3,41.4z"/>
		<path class="st0" d="M38.9,34.2c0,0-0.6,0.5-1.4,0.3c-0.8-0.2-1.7-0.2-1.7-0.2s-0.7,0.3-0.8,0.4S34,35.4,34,35.5
			c-0.1,0.2-0.2,0.4-0.2,0.4s0,0.9-0.2,1.2c-0.1,0.3-0.4,1-0.4,1.1c0,0.1-0.6,0.9-0.6,1.3c0,0.4,0,0.8,0.1,1.1
			c0.1,0.3,0.2,0.9,0.6,1c0.3,0,2.2-0.7,2.9-0.8c0.7-0.1,1.3,0,1.7-0.4c0.4-0.4,0.6-1.1,0.9-1.6c0.3-0.4,0.8-0.9,0.5-1.4
			c-0.2-0.5-0.4-0.7-0.3-1.4C39.1,35.4,38.9,34.2,38.9,34.2z"/>
		<path class="st2" d="M33.7,36.5c0,0.3-0.1,0.6-0.1,0.7c-0.1,0.3-0.4,1-0.4,1.1c0,0.1-0.6,0.9-0.6,1.3c0,0.4,0,0.8,0.1,1.1
			c0.1,0.3,0.2,0.9,0.6,1c0.3,0,2.2-0.7,2.9-0.8c0.3-0.1,0.7-0.1,1-0.1c0.4-0.5,0.5-0.9,0.6-1.2c0.1-0.4,0.4-0.6,0.6-1
			c0.2-0.4,0.2-0.6,0.1-0.9c-0.2-0.3-0.3-1-0.2-1.5c0-0.5-0.2-0.8-0.5-0.8c-0.3,0-1.3-0.3-2.1-0.3c-0.8-0.1-0.7,0.4-1.1,0.9
			C34.3,36.1,33.9,36.3,33.7,36.5z"/>
		<path class="st3" d="M32.7,40.6C32.7,40.6,32.7,40.7,32.7,40.6c0.1,0.4,0.3,1,0.6,1.1c0.3,0,2.2-0.7,2.9-0.8
			c0.2,0,0.4-0.1,0.5-0.1c0-0.1,0.1-0.2,0.1-0.2c0.2-0.3,0.3-0.6,0.4-0.9c0.1-0.3,0.4-0.7,0.6-1.3c0.2-0.6,0-0.4-0.2-0.7
			c-0.2-0.4,0-0.6,0-1.3c0-0.5-0.4-1-0.6-1.3c-0.2,0-0.4-0.1-0.6-0.1c-0.4,0.2-0.9,0.5-1,0.5c-0.1,0.1-0.2,0.5-0.3,0.7
			c-0.1,0.1-0.7,0.6-0.9,0.9c-0.2,0.3-0.6,1.6-0.7,1.9c-0.1,0.3-0.3,0.6-0.5,1C32.8,40.1,32.7,40.3,32.7,40.6z"/>
		<path class="st0" d="M42.9,36.7c-0.7,0.5-1.4,0.8-2.3,1.7c-0.5,0.5-1.1,1.1-1.7,1.6c-0.1-0.1-0.1-0.3,0-0.4c0.3-0.5,1.1-1.8,1-2.6
			c0-0.9-0.2-2.3-0.3-3c-0.1-0.6,1.4-1.5,2-2.1c0.6-0.6,0.7-0.6,1.3-1c0.6-0.4,1.3-0.9,1.7-1.4c0.4-0.5,1.9-2,1.9-2l-0.5,1.2
			c0,0-0.6,1.2-0.9,1.9c-0.3,0.7-0.5,2.6-0.9,3.2C44.1,34.3,43.4,35.7,42.9,36.7z"/>
		<path class="st2" d="M42.5,36.9c-0.6,0.3-1.1,0.7-1.9,1.5c-0.3,0.4-0.7,0.7-1.1,1.1c0.3-0.5,0.6-1.2,0.8-1.6
			c0.3-0.6,0.5-0.9,0.3-1.2c-0.2-0.3-0.4-1.4-0.5-1.8c0-0.4,0-1.1,0.2-1.3c0.2-0.2,0.7-1.1,1.3-1.3c0.6-0.2,1.3-1,1.8-1.3
			c0.3-0.2,0.8-0.8,1.2-1.4l0,0c0.1-0.1,0.3-0.4,0.6-0.7c-0.2,0.6-0.6,1.8-0.8,2.2c-0.3,0.6-0.7,2-0.7,2.4c0,0.4-0.2,1.2-0.4,1.5
			C43.1,35.3,42.6,36.5,42.5,36.9z"/>
		<path class="st5" d="M41.9,37.3c-0.4,0.3-0.8,0.6-1.3,1.1c-0.3,0.3-0.5,0.5-0.8,0.8c0.2-0.5,0.6-1.4,0.8-1.7
			c0.3-0.5,0.3-0.5,0.2-0.9c-0.1-0.3-0.4-1.4-0.4-1.8c0-0.3,0.1-1,0.1-1.3c0.2-0.3,0.7-1.1,1.2-1.3c0.6-0.2,1.3-1,1.8-1.3
			c0.2-0.1,0.4-0.4,0.7-0.7c-0.3,1.1-0.7,2.7-0.9,3.3c-0.3,1-1.2,2.7-1.3,3.2C41.9,36.9,41.9,37.1,41.9,37.3z"/>
		<path class="st6" d="M41.6,37.5c-0.3,0.2-0.6,0.5-1,0.9c-0.2,0.2-0.3,0.3-0.5,0.5c0.3-0.7,0.8-1.8,0.9-2c0.1-0.4-0.1-0.6-0.2-1
			c-0.1-0.4-0.3-1.6-0.3-2c0-0.1,0.1-0.5,0.3-0.8c0.2-0.3,0.6-0.7,0.9-0.9c0.6-0.2,1.3-1,1.8-1.3c0,0,0,0,0,0
			c-0.3,0.8-0.8,2.2-0.9,2.6c-0.2,0.5-0.4,1.4-0.7,1.8c-0.3,0.4-0.2,1.2-0.2,1.5C41.6,36.9,41.6,37.2,41.6,37.5z"/>
		<path class="st1" d="M47.2,23.9c0.3,0.4,0.5,0.8,0.6,1.2c0,1-1,3.9-1.4,5.5c-0.4,1.6-1.1,3.5-2.3,5c-0.1,0.1-0.2,0.3-0.3,0.4
			c1.2-1.7,1.9-4,2.1-4.9c0.2-1.1,1.5-4.5,1.7-5C47.7,25.6,47.4,24.4,47.2,23.9z"/>
		<path class="st7" d="M36.6,41.3L36.6,41.3C36.6,41.3,36.6,41.3,36.6,41.3L36.6,41.3z M36.1,41.5c-0.5,0.1-1,0.2-1.6,0.3
			c-0.7,0-1.5,0-2.3-0.1c-0.1-0.1-0.2-0.3-0.3-0.5c-0.4-1-0.6-0.4-0.2-1.8c0.4-1.4,0.4-1.5,0.4-1.5s0.4-0.3-0.1-0.6
			c-0.5-0.2-1.4-0.8-1.4-0.8S30.6,36.2,30,36c-0.6-0.2,0.7-0.8-1.1-0.4c-1.8,0.5-1.9,0.3-2.2,0.8c-0.4,0.5-0.6,0.6-0.8,1.3
			c-0.2,0.7-0.5,1.5-0.5,1.5s0,0.2-0.3,0.3c-0.3,0.1-0.7,0.3-1.3,0.1c-0.6-0.2-1.4-0.5-1.4-0.5L21,38.4c0,0,0.4,0.2-0.6-1
			c-0.9-1.2-0.9-2-1.1-1.4c-0.2,0.6-0.1,1-0.1,1l0.4,0.9c0,0,0,0.1,0.1,0.4c-0.3-0.1-0.6-0.3-0.8-0.4c-1.9-0.7-3.4-1.9-4.3-3
			c-0.3-0.4-0.8-0.8-1.4-1.2c-0.3-0.6-0.5-1.2-1.2-1.8c-1.1-0.9-2.5-0.9-2.6-1.8c-0.1-0.9-0.1-0.3-0.1-1c0-0.8,0.1-2.3,0.1-2.3
			s-1.1,0.8-1,2C8.4,29.9,8.9,31,8.9,31s-2-0.6-2.6-1.3c-0.6-0.7-0.9-0.8-1.1-2c-0.2-1.2-0.5-1.3-0.4-2c0.1-0.7,0.3-2,0.1-3.5
			C4.7,20.8,4,19.9,4,19.9s-0.2-3.8,0-4.5c0.1-0.5,1.2-2,2.3-2.9c0.1-0.1,0.2-0.2,0.4-0.3c0.1-0.1,0.2-0.2,0.3-0.2
			c1.3-0.7,1.7,2.5,1.7,2.5l21.8,10.7l5.3,8.7c0,0-1.5,0.6-1.7,1.3c-0.2,0.6-0.8,0.1-0.8,1.8c0,1.7-0.5,1.5-0.7,2.4
			c-0.2,0.9,0.5,1.6,1.3,2C34.3,41.6,35.3,41.6,36.1,41.5z"/>
		<path class="st8" d="M32.5,41.7C32.5,41.6,32.5,41.6,32.5,41.7c-0.1-0.3-0.2-0.5-0.3-0.6c-0.1-0.1-0.2-0.5-0.2-0.6
			c-0.1-0.1-0.1-0.1-0.1-0.3c0-0.2,0-0.6,0.1-0.8c0.1-0.2,0.1-0.4,0.1-0.6c0-0.1,0-0.1,0.1-0.6c0.1-0.4,0.2-0.6,0.3-0.8
			c0-0.2,0.4-0.1,0-0.3c-0.4-0.2-0.6-0.3-0.8-0.4c-0.2-0.2-0.6-0.6-0.7-0.6c-0.1-0.1-0.3-0.2-0.1-0.1c0.2,0.1,0.1,0.1,0.6,0.3
			c0.4,0.3,0.4,0.3,0.6,0.3c0.1,0,0.2,0.2,0.3,0.1c0.1-0.2,0.2-0.4,0.2-0.5c0.1-0.1,0.2-0.7,0.2-0.2c0,0.6-0.1,0.7,0,0.9
			c0.1,0.2,0.2,0.2,0.2,0.4c0,0.2,0,0.2-0.1,0.4c-0.1,0.2-0.2,0.4-0.2,0.6c-0.1,0.1-0.1,0.4-0.2,0.5c-0.1,0.2-0.3,1.2-0.2,1.4
			c0.1,0.2,0.4,0.8,0.7,1c0.2,0.1,0.6,0.4,1,0.6C33.5,41.7,33,41.7,32.5,41.7z"/>
		<path class="st8" d="M13.3,33.8c0-0.3-0.1-0.7-0.2-1c-0.3-0.6-0.6-1.1-1.1-1.3c-0.4-0.2-1.3-0.7-1.4-0.8C10.4,30.6,9.9,30,9.9,30
			s-0.2-0.4-0.2-0.7c0-0.3-0.1-0.6-0.1-0.9c0-0.3,0-1.5,0-1.5S9.6,28,9.9,28.7c0.3,0.6,1.6,2,2.2,2.4c0.5,0.4,1.4,0.6,1.4,1
			c0,0.3,0.2,1.5,0.3,2C13.6,34,13.5,33.9,13.3,33.8L13.3,33.8z M14.2,34.5c0.1-0.3,0.2-0.6,0.3-0.8c0.1-0.3,0.4-1.4,0.4-1.1
			c0,0.3-0.2,1.3-0.1,1.8c0,0.2,0.1,0.6,0.2,0.9c-0.1-0.1-0.3-0.3-0.4-0.4C14.5,34.8,14.4,34.6,14.2,34.5z"/>
		<path class="st8" d="M4.6,17.8c0,0,0,1.1,0.2,1.7c0.1,0.6,1,2.4,0.8,3c-0.1,0.5-0.1,1.4,0,2.1c-0.1,0.7-0.1,1.6-0.2,1.8
			c0,0.4,0.1,1,0.2,1.3c0.1,0.3,0.3,1,0.4,1.1C6,29,6,29.3,6.2,29.4c0.2,0.1,1.1,0.7,1.1,0.7s0,0.1,0-1.1c-0.1-1.2-0.1-1.1,0-1.4
			c0.1-0.3,0.3-0.9,0.3-1.2c0.1-0.2,0.1-0.3,0-0.6C7.5,25.4,7,23.3,7,23.3s0.4,1.2,0.9,1.7c0.5,0.5,0.8,0.6,0.8,0.6
			s-0.2,0.7-0.3,0.8c-0.1,0.1-0.1,0.2-0.2,0.3c-0.1,0.2-0.3,0.5-0.5,1c-0.2,0.5-0.4,0.3-0.2,1.2c0.2,0.9,0.3,1.6,0.3,1.6
			s0.2-1.3,0.3-1.8c0.1-0.5,0.1-0.8,0.3-1.3c0.2-0.5,0.5-1.1,0.9-1.1c0.4-0.1,2.1-0.4,2.1-0.4l-4.9-7.9L4.6,17.8z"/>
		<path class="st9" d="M7.9,29.8c0.1-0.4,0.1-0.8,0.2-1.1c0.1-0.5,0.1-0.8,0.3-1.3c0.2-0.5,0.5-1.1,0.9-1.1c0.2,0,0.7-0.2,1.2-0.3
			c-0.1-0.4-0.8-2.3-1.3-3.7l-1.1-1.7c-1-0.6-3.1-2-3.1-2s0.2,1.5,0.4,1.9c0.2,0.5,0.8,1.9,0.8,2.4c0,0.4-0.2,1.4-0.2,1.9
			c0,0.6-0.2,1.3-0.1,2.2c0.1,0.9,0.1,1.6,0.3,1.8c0.1,0.2,0.6,0.8,0.6,0.7c0-0.1,0-1.1,0-1.6c0-0.5,0.1-0.4,0.1-1.3
			c-0.1-0.9,0-1.2,0-1.6c0-0.4,0.1-0.7,0-1c-0.1-0.2,0-1,0-1.1c0-0.1,0.6,0.8,0.7,1C7.7,24,8,24.5,8.2,24.7c0.2,0.2,0.7,0.7,0.7,0.7
			s0.2,0.4,0,0.8c-0.2,0.3-0.4,0.7-0.6,0.9c-0.1,0.3-0.4,1-0.5,1.3c0,0.3,0.1,0.4,0.1,0.8C7.9,29.4,7.9,29.6,7.9,29.8z"/>
		<path class="st8" d="M10.6,25.9c-0.1,0.2-0.6,1.4-0.3,2c0.3,0.7,1.2,2,1.5,2.1c0,0,0.1,0,0.1,0.1c0.2,0.6,0.5,1.4,0.5,1.4l1,2.4
			c0.5,0.3,0.9,0.7,1.1,1c0-0.4,0.1-1,0.1-1.3c0.1-0.5,0.1-0.6,0.1-1c0-0.4-0.1-1,0.1-1.6c0.1-0.3,0.3-0.7,0.4-1c0.1,0,0.1,0,0.2,0
			c0.1,0,0.2,0,0.4,0c0.2,0-0.2,1.2-0.3,1.5c-0.1,0.3-0.2,0.8-0.3,1.1C15.1,32.9,15,33,15,33.5c0,0.5,0.1,0.8,0.2,1
			c0,0.2,0.3,1.1,0.3,1.1s-0.2,0.3,0-0.7c0.2-1-0.1-0.8,0.3-1.4c0.4-0.6,0.3-0.6,0.6-1c0.3-0.4,0.3-0.6,0.6-0.7c0.3,0,0.3-0.1,0.5,0
			c0.2,0.1,0.4,0.4,0.4,0.4s-0.4,0.1,0.4,0.1c0,0.5,0,1.2,0,1.4c0,0.3,0.1,0.4-0.2,0.7c-0.3,0.3-0.2,0-0.5,0.5
			c-0.3,0.4-0.5,0.8-0.5,0.8l-0.1,0.5c0,0-0.2-0.6-0.1-0.8c0.1-0.3,0.1-0.5,0.3-0.7c0.2-0.2,0.2-0.2,0.3-0.5
			c0.1-0.2,0.4-0.6,0.4-0.8c0-0.2,0.1-0.7,0.1-0.7l-0.2,0.2c0,0,0,0.6-0.3,1c-0.2,0.4-0.6,0.7-0.8,1.1c-0.2,0.4-0.4,0.6-0.6,1.2
			c0.8,0.6,1.8,1.2,2.9,1.6c0.1,0,0.2,0.1,0.3,0.1c-0.1-0.2-0.2-0.5-0.3-0.7c-0.1-0.7-0.2-1.4-0.1-1.7c0.1-0.3,0.3-0.7,0.3-1.1
			c0-0.3,0-0.4,0.1-0.9c0.1-0.3,0.5-0.6,0.8-0.8c0,0,0.1,0.1,0.1,0.1c0.2,0.1,0.3,0.2,0.8,0.3c0.5,0.2-0.6,1.5-0.4,2
			c0.2,0.4,0.3,0.5,0.4,0.9c0.1,0.4,0.2,0.5,0.3,0.9c0.1,0.4,0.4,0.8,0.5,1c0.2,0.2,0.7,0.5,0.9,0.7c0.2,0.2,0.4,0.7,0.4,0.3
			c0-0.4,0.2-0.4-0.1-1.4c-0.3-0.9-0.5-0.8-0.3-1.5c0.2-0.8,0.5-1.3,0.5-1.3l1.6-0.4c0,0,0.9,0.2,1.1,0.4c0.2,0.2,0.6,0.5,0.1,1
			c-0.4,0.5-1.5,1.3-0.8,1c0.7-0.3,2.2-1.3,2.2-1.3s0.7-0.3,1-0.3c0.3,0.1,1.4,0.3,1.4,0.3s1.3-0.3,1.6,0.1c0.3,0.4,0.1,0.7,0.4,0.5
			c0.3-0.1,0.6-0.8,0.8-1c0.2-0.2,1.6-1.5,2.2-2.1c0,0,0.1-0.1,0.2-0.1l-1.6-2.6c-6.4-2.3-14-5.6-16.5-6.4
			C14.3,23,10.6,25.9,10.6,25.9z"/>
		<path class="st9" d="M22.7,33c0,0-0.7,0.2-1,0.7c-0.3,0.5-0.4,0.8-0.4,1.2c0,0.4-0.1,0.4,0.1,0.8c0.2,0.4,0.4,0.4,0.5,0.9
			c0.1,0.5,0.3,0.8,0.4,0.9c0,0.1,0.6,0.9,0.6,1c0,0.1-0.1,0.2-0.2-0.6c-0.1-0.8-0.1-0.5-0.3-1.5c-0.2-0.9-0.3-0.9-0.2-1.2
			c0.1-0.3-0.1-0.4,0.3-0.5c0.4-0.1,0.3-0.3,0.8-0.3c0.5-0.1,0.5-0.1,0.9-0.1c0.4,0,0.4-0.1,0.8,0.1c0.4,0.1,1.2,0.3,1.4,0.3
			c0.2,0,0.5,0.1,0.5,0.2c0.1,0.1,0.2,0,0.1,0.2c-0.1,0.2-0.3,0.6-0.4,0.7c-0.1,0.1-0.3,0.5,0.3,0c0.6-0.5,0.5-0.6,0.9-0.8
			c0.4-0.1,0.6-0.1,0.6-0.1s1.1,0,1.2,0.1c0.1,0.1,0.3,0.1,0.3,0.1l0.2-0.5l0.3-0.2L30,35.2c0,0,0.3-0.2,0.7-0.1
			c0.4,0,0.3-0.1,0.5,0.1c0.2,0.1,0.6,0.2,0.6,0.3c0.1,0.1,0-0.1,0.2-0.4c0.2-0.3,0.1-0.3,0.3-0.4c0.2-0.2,0.1-0.2,0.4-0.3
			c0.3-0.1,0.7-0.3,0.7-0.3c0,0.1-0.5,0.4-0.8,0.9c-0.3,0.4-0.5,0.6-0.3,0.5c0.2-0.1,0.7-0.5,0.7-0.5l1.4-1.3c0,0-3-1.3-3.4-1.3
			C30.7,32,22.7,33,22.7,33z"/>
		<path class="st9" d="M12.5,31.6l0.3,0.8c0.2,0.2,0.4,0.3,0.5,0.4c0.1,0.1,0.2,0.8,0.2,1.2c0.4,0.3,0.7,0.5,1,0.8
			c0-0.5,0-1.8-0.1-2.1c0-0.2-0.1-0.6-0.1-1c0-0.4,0.2-0.7,0.3-1.1c0.1-0.4,0.1-0.5,0.3-0.7c0.2-0.2,0.4-0.4,0.4-0.4l0.4-0.1
			c0,0,0.3,0,0.4,0.2c0.1,0.1,0.3,0.1,0.3,0.3c0,0.2,0,0.3,0,0.6c-0.1,0.2-0.1,0.5-0.2,0.7c-0.1,0.2,0,0.3-0.2,0.6
			c-0.2,0.3-0.3,0.5-0.3,0.6c-0.1,0.1-0.2,1.5-0.2,1.5s0.3-0.6,0.5-1.1c0.2-0.5,0.3-0.7,0.5-1.1c0.2-0.3,0-0.3,0.3-0.4
			c0.3-0.1,0.4-0.3,0.6-0.2c0.2,0.1,0.5-0.1,0.7,0.3c0.2,0.3,0.5,0.6,0.5,0.6s0.3,0.1,0.4,0.3c0.1,0.3,0.1,0.1,0,0.5
			c-0.1,0.4,0,0.7-0.1,1c-0.1,0.3-0.1,0.5-0.2,0.6c-0.1,0.2,0,0.2-0.4,0.6c-0.4,0.4-0.3-0.2-0.6,0.6c-0.4,0.8-0.5,0.9-0.4,1
			c0,0.1,0,0.2,0,0.3c0.5,0.3,0.9,0.5,1.5,0.7c-0.1-0.2-0.1-0.4-0.1-0.7c0-0.5,0-1.2,0-1.2s0.1-0.8,0.2-1.1c0.1-0.2,0.5-1.7,0.7-1.9
			c0.2-0.2,0.4-0.4,0.4-0.4s0-0.1,0.3,0.1c0.3,0.1,1,0.3,1.1,0.3c0.1,0,0.4,0.1,0.4,0.1s0.1,0.1,0.4,0c0.4-0.1,1.2-0.3,1.2-0.3
			s2.8,1.4-1.4-1.6c-4.2-3-4.9-4-6.1-4.4c-1.2-0.4-2.6-0.1-2.6-0.1s-0.2,0.7-0.2,1c0,0.3,0,0.2,0.2,0.5c0.2,0.4,0.3,0.6,0.4,0.8
			c0,0.2,0.1,0.4,0.1,0.7c0,0.3,0,1,0,1s-0.1-0.9-0.2-1.2c0-0.3-0.3-0.8-0.5-1c-0.2-0.2-0.2-0.3-0.3-0.4c-0.1-0.1-0.2-0.1-0.3-0.6
			c-0.1-0.5-0.1-0.6-0.1-0.7c0-0.1,0-0.6,0-0.6l-1.3-0.1c0,0,0,0.5,0,0.8c0,0.3,0.1,0.9,0.3,1.1c0.2,0.2,1.1,1.5,1.1,1.5
			s0.2,0,0.3,0.5c0.1,0.5,0.2,0.7,0.3,1c0,0.3,0.1,0.5,0.1,0.7c0,0.2,0,0.3,0,0.3S12.7,31.8,12.5,31.6L12.5,31.6z M16.2,36.4
			c0.1-0.7,0.6-1.4,0.6-1.4s-0.2,0.6-0.3,1.1c-0.1,0.2-0.1,0.4-0.1,0.5C16.4,36.6,16.3,36.5,16.2,36.4z"/>
		<path class="st10" d="M8.5,24.8c0,0-1.5-2.3-2.8-4.9c-0.6-1.2-1.5-2.1-1.5-3.4c0-1.9,1.3-3.6,3.8-5.4c7.8-5.7,13.7-1.6,17.5,1.4
			c3.8,2.9,7.8,6.4,15,7.7c4.1,0.7,6.5,2.7,6.7,4.7c0.1,1.5-1.4,3-2.8,4.5c-0.6,0.6-1.7,1-2.7,1.9c-0.8,0.7-1.4,1.9-2.7,2.3
			c-1.6,0.6-3.4,0.1-5.7,0.2c-1.3,0-3,0.7-4.4,0.6c-2.6-0.2-5.6-0.8-8.7-2c-2.1-0.9-3.7-3-6.1-4.4C12.5,26.9,10.3,26.4,8.5,24.8z"/>
		<path class="st11" d="M13.6,8.5c1.4-0.3,2.8-0.3,4-0.1c0,0.1-0.1,0.3-0.1,0.3s-0.9-0.1-1.3-0.1c-0.4,0-1-0.2-1.2-0.2
			c-0.2,0-1.3,0.3-1.3,0.3S13.6,8.7,13.6,8.5z"/>
		<path class="st11" d="M6,13.8c0,0,0,0.4-0.1,0.6c-0.1,0.2,0,0.2-0.2,0.5c-0.2,0.3-0.2,0.3-0.2,0.5c0,0.3,0.3,1.1,0.4,1.3
			C6,16.9,6,17.1,6.1,17.3c0.1,0.2,0-0.1,0.1,0.3c0.1,0.4,0.3,0.2,0.3,0.7c0,0.4,0,0.5,0,0.9c0,0.4,0.2,0.7,0.2,0.9
			c0,0.2,0.2,0.4,0.2,0.4s0.3,0.1,0.6,0.3C8,21,8.6,21.4,8.6,21.4s0.4,0.1,0.5,0.1c0.1,0,0.1-0.1,0.6-0.1c0.5,0,0.1,0,0.7,0
			c0.6,0,1,0,1.2,0c0.2,0,0.6,0.1,0.6,0.1S11.7,22,10.9,22c-0.8-0.1-2.7,0.1-2.8,0c-0.2-0.1,0.1,0.5-0.6-0.3c-0.7-0.8-1.5-2-1.8-2.5
			c-0.4-0.6-0.7-1.3-0.8-2c-0.1-0.6-0.1-1.1,0-1.4C5,15.5,5,15,5.4,14.5C5.7,14,6,13.8,6,13.8z"/>
		<path class="st11" d="M17.4,21.4c-0.2,0.1-0.4,0.1-0.6,0.2c-0.2,0.1-0.7,0.2-0.7,0.2s0.1-0.1-0.3,0c-0.4,0.1-0.5,0.1-0.8,0.2
			c-0.2,0.1,0,0.1-0.4,0.1c-0.4,0-0.4,0.1-1,0c-0.6-0.1-0.4-0.2-0.8-0.1c-0.3,0.1-0.2,0.2-0.8,0.3c-0.6,0.2-0.5,0.2-0.8,0.2
			c-0.3,0.1-0.7,0-0.8,0.1c-0.2,0.2-0.6,0.3-0.6,0.3S9.5,22,9.6,23c0.1,1,0.1,1,0.2,1.1c0.1,0.1,0.1,0.2,0.3,0.3
			c0.2,0.1,0.6,0.3,0.6,0.3s0.3,0.1,0.6,0.2c0.4,0.1,0.4,0.1,0.6,0.2c0.2,0.1,0.1,0,0.6,0.3c0.5,0.3,0.9,0.5,1,0.6
			c0.2,0.1,0.4,0.2,0.8,0.3c0.4,0.1,0.7,0.2,1,0.3c0.4,0,0.5-0.2,1.1-0.1c0.6,0.1,0.9,0.3,0.7,0.5C17,27,15,27.2,14.7,27.2
			c-0.3-0.1-1.5-0.4-1.9-0.5c-0.4-0.1-0.9-0.4-1.6-0.7c-0.7-0.4-1.2-0.6-1.4-0.8c-0.2-0.1-0.3-0.1-0.6-0.5c-0.4-0.4-0.9-1.1-0.9-1.3
			C8.2,23.1,8,23,8.3,22.7c0.3-0.3,0.7-0.4,1-0.5c0.2-0.1,0.7-0.3,0.8-0.4c0.2-0.1,3.6-0.4,3.6-0.4l2.6,0L17.4,21.4z"/>
		<path class="st12" d="M39.8,32c-0.1,0.1-0.1,0.3-0.4,0.5c-0.3,0.2-0.3,0.2-0.6,0.4c-0.3,0.1-0.3,0.2-0.8,0.2
			c-0.5,0-0.6,0.1-0.8,0.1c-0.3,0-0.7-0.1-0.9-0.1c-0.1,0-0.7-0.1-0.7-0.1s-0.2-0.1-0.5-0.2c-0.4-0.1-0.4-0.2-0.6-0.2
			c-0.3,0-1.3,0-1.9-0.2c-0.6-0.2-0.6-0.2-1.1-0.5c-0.5-0.3-0.9-0.8-1.2-1c-0.3-0.2-0.6-0.5-0.7-0.8S29,29.1,29,29.1
			s0.3,0.1,0.9,0.5c0.6,0.4,0.9,0.6,1.2,0.7c0.3,0.1,0.5,0.2,1.1,0.4c0.6,0.2,1,0.5,1.5,0.2c0.5-0.3,0.1-0.4,0.9-0.4
			c0.7,0,0.7-0.3,1.3-0.1c0.6,0.2,0.8,0,0.9,0.4c0.2,0.4,0.3,0.5,0.3,0.7c0,0.1,0,0.1,0.1,0.3c0.1,0.2,0.2,0.3,0.3,0.3
			C37.6,32.1,39.8,32,39.8,32z"/>
		<path class="st13" d="M47,24c0,0.1,0.1,0.2,0.1,0.2C47,24.1,47,24.1,47,24L47,24L47,24z M47.2,24.8C47.2,24.8,47.2,24.9,47.2,24.8
			c0.1,1.6-1.4,3-2.8,4.5c-0.6,0.6-1.7,1-2.7,1.9c-0.8,0.7-1.4,1.9-2.7,2.3c-1.6,0.6-3.4,0.1-5.7,0.2c-0.5,0-1.1,0.1-1.7,0.2
			c-0.2,0-0.3-0.1-0.5-0.1c-1.9-0.4-1.2-0.7-1.2-0.7s0.3-0.1,0.8-0.2c0.5-0.1,0.8,0,1.6,0c0.8,0,0.6,0.2,0.8,0.2
			c0.1,0,0.3,0.1,0.7,0c0.3-0.1,0.3,0,0.7,0c0.4,0,0.2,0.1,0.3,0.1c0.1,0,0.4,0,0.5,0c0.1,0,0.2,0.4,0.5,0.3c0.3,0,0.3-0.2,0.5-0.2
			c0.1,0,0.6,0.1,0.9,0.1c0.3,0,0.5-0.1,0.7-0.1c0.2,0,0.4,0,0.5,0c0.1,0,0.4-0.3,0.7-0.4c0.2-0.1,0.4-0.2,0.7-0.4
			c0.3-0.2,0.3-0.2,0.5-0.3c0.2-0.1,0.2-0.2,0.4-0.3c0.2-0.1,0.1-0.1,0.2-0.2c0-0.1,0.7-1,0.9-1.2c0.2-0.2,0.3-0.2,0.6-0.4
			c0.3-0.2,0.1-0.2,0.2-0.4c0.1-0.1,0.2-0.1,0.4-0.2c0.2,0,0.1,0,0.5-0.1c0.3-0.1,0.2-0.1,0.4-0.2c0.2-0.1,0.3-0.2,0.4-0.4
			c0.1-0.1,0.2-0.1,0.4-0.4c0.2-0.3,0.7-0.6,1-0.9c0.3-0.3,0.7-0.9,0.7-1c0-0.1,0.2-0.2,0.2-0.2s0.1-0.2,0.2-0.4
			c0.1-0.2,0.1-0.3,0.1-0.4c0-0.1,0.1-0.2,0.1-0.4c0-0.1,0.2-0.3,0.3-0.5C47.2,24.9,47.2,24.9,47.2,24.8z"/>
		<path class="st14" d="M35,33.6c0,0,0.4,0.2,0.5,0.2c0.1,0,0.1,0,0.2,0c0.1,0,0.1,0,0.2,0c0.2,0,0.1,0,0.3,0c0.2,0,0.1,0,0.3,0
			c0.1,0,0.1,0,0.3,0c0.2,0,0.2,0,0.2,0s0.1,0,0.2,0c0.1,0,0.1,0,0.2,0c0.2,0,0.1,0,0.3,0c0.2,0,0.1,0,0.2,0c0.1,0,0.1,0,0.2-0.1
			c0.2,0,0.2-0.1,0.3-0.1c0.2,0,0.4-0.1,0.5-0.1c0.1-0.1,0,0,0.1-0.1c0.2-0.1,0.1-0.1,0.2-0.2c0.1-0.1,0.2-0.1,0.2-0.1
			s0.8-0.6,1-0.9c0.1-0.2,0.4-0.3,0.5-0.5c-0.6,0.7-1.2,1.5-2.3,1.9c-1.5,0.6-3.2,0.2-5.3,0.2L35,33.6L35,33.6z M41.5,31.5
			c0.1-0.2,0.4-0.5,0.4-0.6c0.1-0.1,0.1-0.1,0.4-0.3c0.3-0.2,0.3-0.2,0.4-0.2c0.1-0.1,1-0.6,1.2-0.7c0.2-0.1,0.5-0.4,0.5-0.5
			c0,0,0,0,0.2-0.2c0.2-0.2,0.2-0.2,0.3-0.3c0.1-0.1,0.7-0.7,0.9-0.9c0.2-0.2,0.6-0.7,0.6-0.8c0,0,0.1-0.1,0.2-0.2
			c0.1-0.1,0.4-0.8,0.4-1c0.1-0.2,0.1-0.3,0.1-0.3c0-0.1,0-0.2,0-0.2c0,0,0.1-0.1,0.1-0.1c-0.1,1.4-1.5,2.8-2.8,4.1
			c-0.6,0.6-1.7,1-2.7,1.9C41.6,31.3,41.5,31.4,41.5,31.5z"/>
		<path class="st15" d="M8.5,24.8c0,0-1.5-2.3-2.8-4.9c-0.6-1.2-1.5-2.1-1.5-3.4c0-1.9,1.3-3.6,3.8-5.4c2.3-1.7,4.4-2.5,6.3-2.8
			c-0.4,0.4-0.7,1-0.9,1.1c-0.2,0.2-1.8,0.9-2.8,0.8c-0.9-0.1-1.5,1.1-2.8,1.7c-1.3,0.6-1.8,2.1-2.3,2.7c-0.5,0.6-0.3,1.9,0.3,3
			s0.5,2.8,2.1,3.8c1.6,1,8.6-1,11.8-1.4c3.2-0.4,7,1.6,10,1.8c2.9,0.3,3.8-2.8,3.8-2.8s-0.1-0.4-0.3-0.7c-0.1-0.3-0.2-0.5-0.1-0.6
			c2.1,1.1,4.5,1.9,7.4,2.4c2.2,0.4,3.9,1.1,5.1,2.1c-0.6-0.1-1.7-0.3-2.3-0.6c-0.8-0.4-2.2-0.8-3-0.6c-0.8,0.2-1.5,0.6-2.4,0.6
			c-0.9,0-1.2,0.6-2.6,0.3c-1.3-0.3-2.2-0.1-3,0.4c-0.8,0.5-2.3,0.7-3.3,0.4c-1-0.3-2-0.9-3.6-1.2c-1.6-0.4-4.1-1.2-5.5-1
			c-1.4,0.2-2.1,1.1-2.7,1c-0.6,0-1.5,0.1-1.5,0.1l-0.6,0.2c0,0-1.1-0.1-1.7,0c-0.6,0.2-1.7-0.1-2.3,0.4C10.5,22.6,9,22.6,9,22.6
			s-0.1,0.5,0,1c0.2,0.4,0.5,1.1,0.7,1.2c0.2,0.1,1.2,0.4,1.6,0.6c0.4,0.3,1,0.5,1.4,0.6c0.3,0.1,1.1,0.6,1.6,0.6
			c0.5,0,1.5-0.4,2.2-0.2c0.6,0.2,0.7-0.1,1,0.5c0.3,0.6,0.5,0.9,0.7,1.3c0.2,0.4,0.4,1.1,0.4,1.1s0.4,0.3,0.8,0.9
			c0.4,0.6,1.4,1.6,2,1.8c0.6,0.2,4.3,1.5,5.1,1.4c0.8-0.1,1-0.1,2-0.5c1-0.3,1.2-0.4,2.1-0.2c0.9,0.3,2.8,0.4,3.5,0.5
			c0.7,0.1,0.6-0.4,1.6,0.4c-0.7,0-1.4-0.1-2.2-0.1c-1.3,0-3,0.7-4.4,0.6c-2.6-0.2-5.6-0.8-8.7-2c-2.1-0.9-3.7-3-6.1-4.4
			C12.5,26.9,10.3,26.4,8.5,24.8L8.5,24.8z M16.5,8.3c0.4,0.1,0.7,0.3,0.9,0.6c0.4,0.7,0.7,1.6,1.7,1.9c1,0.4,2,0.6,2.8,0.6
			c0.8,0.1,2.1,0.2,2.6,0.8c0.5,0.6,1.4,1.2,2.1,2c0.7,0.8,1,1.5,1.6,2c0.6,0.5,1.7,1,2.4,1.3c0.4,0.1,1.2,0.1,1.9-0.2
			c-2.7-1.5-4.8-3.2-6.8-4.8C23.2,10.7,20.2,8.5,16.5,8.3z"/>
		<path class="st16" d="M32,17.1c-0.2,0-0.5,0-0.6-0.1c-0.2-0.2-1.4-1-1.6-1.1c-0.1-0.1-2.6-1.9-3.1-2.3c-0.6-0.5-1.9-1.4-1.9-1.4
			s-0.8-0.5-1-0.7c-0.2-0.2-0.5-0.6-0.6-0.6c-0.1-0.1-0.2-0.2-0.4-0.3c-0.2-0.1-0.4-0.2-0.6-0.4c-0.2-0.1-0.5-0.3-0.6-0.3
			c-0.2-0.1-0.7-0.4-0.9-0.5c-0.2-0.1-0.3-0.1-0.5-0.2c-0.3-0.1-0.5-0.2-0.9-0.3s-0.7-0.3-1-0.3c-0.3,0-0.3-0.1-0.6-0.1
			c-0.3-0.1-0.6-0.1-1-0.2c0,0-0.1,0-0.1,0c3.7,0.3,6.8,2.4,9,4.2C27.4,14,29.5,15.7,32,17.1z"/>
		<path class="st16" d="M8.5,24.8c0,0-1.5-2.3-2.8-4.9c-0.6-1.2-1.5-2.1-1.5-3.4c0-1.6,1-3.1,2.7-4.6c-0.3,0.3-1.2,1.6-1.5,1.9
			c-0.3,0.3-1.1,1.8-1.1,2.3c0,0.5,0.4,1.3,0.8,2c0.4,0.7,1,1.8,1.2,2.5c0.2,0.6,1.8,3.1,2.1,3.6c0.3,0.5,1.8,1.6,2.2,1.9
			c0.4,0.2,0.9,0.2,1.3,0.4c0.4,0.2,1.2,0.3,1.8,0.7c0.6,0.3,1.4,1,1.9,1.4c0.5,0.4,1,1,1.3,1.3c0.3,0.3,1,1,1.6,1.4
			c0.7,0.4,1.5,1,2.2,1.2c0.7,0.2,2.4,0.8,2.9,0.9c0.5,0.1,3.4,0.6,4.4,0.7c1,0.1,1.7-0.1,2.2-0.1c0.5-0.1,2.4-0.2,3.4-0.2
			c0.9,0,1.4,0.1,1.8,0.1c0,0,0,0,0.1,0.1c-0.7,0-1.4-0.1-2.2-0.1c-1.3,0-3,0.7-4.4,0.6c-2.6-0.2-5.6-0.8-8.7-2
			c-2.1-0.9-3.7-3-6.1-4.4C12.5,26.9,10.3,26.4,8.5,24.8z"/>
		<path class="st17" d="M34.3,18.5c1.8,0.8,3.8,1.5,6.2,1.9c0.2,0,0.4,0.1,0.6,0.1l-1.4,0.1c0,0-0.2-0.1-1.5,0
			c-1.3,0.1-0.5-0.1-2-0.1c-1.5-0.1-1-0.4-1.5-0.8C34.1,19.2,34.5,19.2,34.3,18.5L34.3,18.5L34.3,18.5z M33.8,18.3L33.8,18.3
			L33.8,18.3z"/>
		<path class="st17" d="M33.7,20.4c-0.3,0.1-1,1-1.7,1.3c-0.7,0.3-0.9,0.1-2.2,0.2c-1.3,0-1.4,0.1-2.1-0.1c-0.7-0.2-0.6-0.2-1.3-0.4
			c-0.7-0.2-2.2-0.8-2.2-0.8s2.6,1.5,4.9,1.7c2.3,0.2,2.2-0.1,2.6,0c0.4,0,0.6,0.1,1.1-0.1c0.5-0.2,0.6-0.7,1.2-1
			c0.7-0.2,2.2-0.5,2.2-0.5L33.7,20.4z"/>
		<path class="st10" d="M18.1,9.1c0,0,0.2,0.3,0.4,0.6c0.3,0.4,0.5,0.6,0.6,0.6c0.1,0,0.3,0.3,0.7,0.3c0.3,0,0.4,0.1,0.7,0
			c0.3,0,0-0.1,0.4,0c0.4,0,0.5,0,0.6,0.1c0.1,0,0.5,0.2,0.5,0.1c0-0.1-1-0.7-1.4-0.9c-0.4-0.3-0.3-0.3-0.6-0.4
			c-0.2-0.1-0.3-0.1-0.4-0.1c-0.2,0-0.4-0.1-0.5-0.1c-0.1,0-0.3-0.1-0.3-0.1L18.1,9.1z"/>
		<path class="st10" d="M31.2,17.2c0,0-0.4-0.1-0.7-0.1c-0.3,0-0.2,0-0.4-0.1c-0.2,0-0.2,0-0.4-0.1c-0.1-0.1-0.1,0-0.4-0.2
			c-0.3-0.2-0.2-0.2-0.5-0.3c-0.3-0.1-0.4-0.2-0.4-0.2s-0.4-0.5-0.5-0.5c-0.1,0-0.1-0.2-0.3-0.4c-0.1-0.2-0.4-0.6-0.4-0.6l-0.3-0.4
			c0,0-0.2-0.2-0.3-0.3c-0.1-0.1,0.2,0.1,0.6,0.4c0.4,0.3,0.7,0.4,0.9,0.6c0.2,0.1,0.3,0.2,0.5,0.4c0.2,0.1,0.4,0.2,0.6,0.4
			c0.2,0.2,0.3,0.3,0.6,0.5C30.2,16.5,31.2,17.2,31.2,17.2z"/>
		<path class="st8" d="M25.9,36.9c0,0-0.3,0.5-0.4,1.1c-0.1,0.5-0.1,0.9-0.3,1.1c-0.2,0.2-0.3,0.3-0.4,0.3c-0.1,0,0,0.1-0.4,0
			s-0.8-0.2-0.8-0.2s0.1-0.1,0.3-0.2c0.1-0.1,0.4,0,0.7-0.2c0.3-0.2,0.2,0.1,0.5-0.5c0.3-0.6,0.4-0.9,0.5-1
			C25.7,37.2,25.9,36.9,25.9,36.9z"/>
		<path class="st15" d="M17.3,27c0,0,0.1-0.8-0.2-1c-0.2-0.3,0.5-1.5,0.5-1.5l0.4-0.3c0,0,0.1-0.1,0.1-0.3c0.1-0.1,0.1-0.4,0.1-0.4
			s0.1-0.2-0.1-0.4c-0.2-0.2-0.3-0.3-0.3-0.3l-0.4-0.6l0.1-0.1l0-0.2l-0.1-0.5l0.4-0.3L18,21.6l-0.1,0.2l0,0.3l0.1,0.2l0.1,0.3
			l0,0.2c0,0,0.4,0.6,0.4,0.7c0,0.1,0,0.2,0,0.3c0,0.1,0,0.2-0.1,0.3c0,0.1,0,0-0.1,0.2c-0.1,0.1-0.1,0.1-0.2,0.2s-0.1-0.1,0,0.2
			c0.1,0.2,0.1,0.2,0.1,0.4c0,0.1,0.1,0.1-0.2,0.2c-0.3,0.1-0.2-0.1-0.3,0.1c-0.2,0.2-0.2,0.1-0.2,0.3c-0.1,0.1-0.1,0.1-0.1,0.3
			c0,0.1,0,0.1,0,0.2c0,0.2-0.1-0.1,0,0.3c0.1,0.4,0.1,0.6,0,0.8c0,0.3-0.1,0.5-0.1,0.5L17.3,27z"/>
		<path class="st15" d="M30.3,22.7c0,0-1.1,0.6-1.2,0.9c-0.1,0.3-0.2,0.2-0.3,0.6c-0.1,0.4-0.4,0.8-0.4,0.8s-0.1,0.2,0.1,0.5
			c0.2,0.3,0.9,1.2,0.9,1.2l1.2-0.1c0,0,1.2-0.1,1.5,0.4c0.3,0.4,0.6,0.6,0.6,0.6s0,0,0.2,0c0.2,0.1,0.3,0.1,0.3,0.1l0.3-0.1
			c0,0,0,0,0.4,0.2c0.4,0.2,0.9,0.5,1.1,0.6c0.3,0.1,0.5,0.1,0.8,0c0.4,0,0.1,0.2,0.7-0.1c0.6-0.3,0.5-0.4,0.8-0.3
			c0.3,0-0.2-0.1,0.5,0.1c0.6,0.2,0.3-0.1,0.9,0.3c0.6,0.4,0.3,0.4,0.8,0.5c0.5,0.2,0.1,0.6,0.9,0.2c0.8-0.3,0.7-0.3,1-0.4
			c0.4-0.1-0.1,0.1,0.7-0.2c0.7-0.3,0.4-0.3,0.8-0.3c0.5,0,0.2-0.1,0.7-0.1c0.4,0,0.7,0,0.7,0s-0.6,0.2-0.8,0.1
			c-0.3,0-0.1-0.1-0.3,0c-0.2,0.1-0.3,0.1-0.3,0.1s-0.1,0-0.2,0c-0.1,0-0.1,0-0.3,0c-0.2,0-0.3,0.1-0.3,0.1L42,28.7
			c0,0-0.1,0-0.2,0.1c-0.2,0.1-0.2,0.2-0.3,0.2c-0.1,0-0.3,0-0.3,0s-0.3,0-0.4,0.1c-0.1,0.1,0,0.1-0.2,0.2c-0.2,0.1-0.2,0-0.3,0.1
			c-0.1,0.1-0.1,0-0.2,0.1c-0.1,0.1,0.1-0.4-0.1,0.2c-0.3,0.6-0.2,0.5-0.3,0.7c-0.1,0.2,0,0.2,0,0.5c0,0.2,0.1,0.2,0,0.4
			c-0.1,0.2-0.7,1.2-0.6,1c0.2-0.2,0.1-0.1,0.2-0.3c0.1-0.2,0.1-0.2,0.1-0.3c0-0.1,0.1-0.3,0.1-0.3s0-0.1,0-0.2c0-0.1,0.1,0,0-0.3
			c-0.1-0.3-0.2-0.4-0.2-0.5c0-0.1,0-0.1,0.1-0.3c0.1-0.2,0.1-0.3,0.1-0.3s0.2-0.2,0.1-0.3c-0.1-0.1-0.3-0.3-0.4-0.4
			c-0.1-0.1-0.5-0.4-0.5-0.4s-0.1-0.1-0.3-0.1c-0.2-0.1,0.1,0-0.3-0.1c-0.4-0.1-0.9-0.3-0.9-0.3s0.1-0.2-0.1,0.1
			c-0.2,0.3-0.3,0.3-0.4,0.3c-0.1,0-0.2,0.1-0.3,0.1c-0.1,0-0.6-0.1-0.6-0.1s0-0.1-0.4-0.1c-0.4,0-0.9-0.1-0.9-0.1s0.1,0.1-0.2-0.1
			c-0.3-0.3-0.8-0.4-0.8-0.4S33,28,32.9,27.9c-0.1,0,0,0-0.4-0.3c-0.4-0.3-0.6-0.4-0.6-0.4s0,0-0.1-0.1c-0.2-0.1-0.2-0.3-0.5-0.3
			c-0.3,0-0.1,0-0.5,0c-0.4,0-0.4-0.1-0.6,0c-0.2,0-0.4,0-0.5,0c-0.2,0,0.1,0.1-0.2,0c-0.4-0.1-0.4-0.1-0.5-0.3
			c-0.1-0.2-0.2-0.4-0.2-0.4l-0.2-0.3c0,0-0.1-0.1-0.2-0.2c-0.1-0.1-0.2-0.1-0.2-0.3c0-0.2-0.1-0.2,0-0.5c0.1-0.4,0.1-0.5,0.1-0.6
			c0.1-0.1,0.2-0.2,0.2-0.3c0-0.1,0.2-0.2,0.2-0.2s0.3-0.2,0.3-0.2c0.1-0.1,0.2-0.4,0.2-0.4s0.1-0.2,0.2-0.4
			c0.1-0.1,0.2-0.2,0.3-0.2C29.9,22.6,30.3,22.7,30.3,22.7z"/>
		<path class="st15" d="M30,32.9l-0.4-0.2c0,0-0.1-0.1-0.1-0.2c0-0.1,0-0.5,0-0.5l0-0.3c0,0-0.2-0.3-0.4-0.4c-0.2-0.1,0,0.1-0.2-0.1
			c-0.2-0.2-0.5-0.6-0.5-0.6l-0.6-0.5c0,0,0-0.2,0.1-0.4c0.1-0.2,0.1-0.6,0.1-0.6s-0.4-0.2-0.4-0.5c0-0.2,0-0.6,0-0.6l0.1-0.3
			c0,0-0.2-0.1,0.2-0.2c0.4-0.1,0.4-0.1,0.6-0.1c0.2,0-0.1,0,0.2,0c0.2-0.1,0.2,0.2,0.3-0.1c0.1-0.3,0.5-0.5,0.1-0.3
			c-0.4,0.1-0.2,0.3-0.2,0.3s-0.4,0-0.5,0c-0.2,0-0.4,0.1-0.4,0.1l-0.3,0.2c0,0,0,0-0.1,0.1c-0.1,0.1-0.1,0.3-0.1,0.3
			c0,0.1,0.1,0.1,0.1,0.3c0,0.2,0,0.1,0,0.2c0,0.1,0,0.2,0,0.2c0,0.1,0,0.2,0,0.2s0.1,0,0.1,0.2c0,0.1,0.1,0.2,0.1,0.2s0,0.2,0,0.3
			c0,0.1-0.1,0.1-0.1,0.2c0,0.1,0,0.1,0,0.2c0,0.1,0,0.2,0.1,0.2c0.1,0,0.3,0,0.3,0.2c0.1,0.2,0.2,0.3,0.3,0.4
			c0.1,0.1,0.3,0.3,0.3,0.3l0.5,0.5l0.1,0.3l0,0.2c0,0,0,0.2,0,0.2c0,0.1,0,0.1,0,0.2c0,0.1,0.1,0.2,0.1,0.2s0.3,0.2,0.4,0.2
			c0.1,0,0.4,0.2,0.5,0.3C30.3,33.2,30,32.9,30,32.9z"/>
		<path class="st15" d="M23.9,20.5l-0.3-0.1l-0.3,0l-0.5-0.4l-0.4-0.4l-0.7-0.4l-0.6-0.2L21,18.8c0,0,0-0.2,0-0.5
			c0-0.4-0.1-0.6-0.1-0.6s-0.2-0.2-0.4-0.3c-0.2-0.2-0.9-0.1-0.9-0.1L19.3,17L19,16.4c0,0-0.1-0.4-0.5-0.5c-0.4-0.1-0.7-0.4-1.1-0.5
			c-0.4-0.1-1-0.3-1-0.3l-3.9-0.1c-0.9-0.3-1.3-0.7-1.3-0.7l0-0.3l-0.8-0.2c0,0-0.4,0.1-0.3-0.2c0.1-0.3,0-0.5,0-0.5
			s0.3-0.9,0.4-1.1c0.1-0.3-0.3-0.1,0.1-0.3c0.4-0.2,0.5-0.3,0.5-0.3l0.3-0.4c0,0-0.2-0.4,0.1-0.4c0.3,0,0.5-0.2,0.5-0.2l0.2-0.3
			l0.3-0.6c0,0-0.3,0.2-0.5,0.4c-0.3,0.2-0.1,0.2-0.3,0.5c-0.3,0.3-0.2,0.3-0.6,0.6c-0.3,0.3-0.3,0.3-0.3,0.3l-0.5,0.6
			c-0.2,0.2-0.3,0.2-0.3,0.5s0,0.6,0,0.6s0,0.1,0,0.3c0,0.1,0,0.1,0,0.3c-0.1,0.2-0.1,0.1,0,0.3c0.1,0.2,0.2,0.3,0.2,0.3l0.4,0.1
			c0.2,0.1,0.4,0.3,0.4,0.3l0.6,0.2c0,0,0,0,0.3,0.2c0.3,0.2,0.5,0.3,0.6,0.3c0.2,0.1,0.8,0,0.8,0s0.3-0.1,0.4,0
			c0.1,0.1,0.4,0.1,0.6,0c0.2,0,0.4-0.1,0.4-0.1s0.2,0,0.3,0c0.1,0,0.3,0,0.6,0c0.4,0,0.1,0,0.4,0c0.3,0.1,0.4,0,0.6,0.1
			c0.2,0.1,0.3,0.1,0.5,0.2c0.1,0.1,0.3,0.2,0.3,0.2s0.6,0.2,0.7,0.3c0.1,0.1,0.4,0.1,0.4,0.3C18.7,16.4,19,17,19,17l0,0.3
			c0,0-0.1,0.2,0.1,0.2c0.1,0,0.3,0,0.4,0c0.1,0,0.3,0.1,0.3,0.1l0.8,0.3c0,0,0.1-0.2,0.1,0.2c0,0.4,0.1,0.7,0.1,0.7l0,0.2
			c0,0,0.1,0.1,0.2,0.1c0.2,0,0.8,0.2,0.8,0.2l0.3,0.4l0.3,0.2l0.2,0.2c0,0,0,0,0.1,0.2c0.1,0.1,0.7,0.4,0.7,0.4l0.6,0.2L23.9,20.5z
			"/>
		<path class="st15" d="M12.7,15.2c0,0-0.1,0.1-0.3,0.3c-0.2,0.2-0.7,0.2-0.7,0.2l-1-0.1l-0.2,0.2L10,16l-0.2,0.2l-0.2,0.4l-0.4,0.1
			l-0.5-0.1c0,0-0.2,0-0.2,0.3c0,0.3,0.1,0.2,0,0.5c-0.1,0.3,0,0.7,0,0.7s0,0.3,0.3,0.5c0.2,0.2,0.6,0.3,0.6,0.5
			c0,0.2-0.2,0.5-0.2,0.5l-0.3,0.1c0,0-0.1,0,0.2,0.2c0.3,0.2,0.1,0.1,0.4,0.2c0.3,0.1,0.8,0.1,0.8,0.1l0.2,0
			c0.3,0.2-0.1,0.2,0.6,0.4c0.7,0.2,0.7,0.3,1.2,0.2c0.4,0,0.3-0.2,0.8-0.1c0.5,0.2,0.4,0.2,1.2,0.4c0.7,0.2-0.1,0.2-0.1,0.2
			s-0.3,0-0.5-0.1c-0.2-0.1-0.4-0.1-0.4-0.1s-0.1,0-0.3,0c-0.2,0-0.6-0.1-0.6-0.1s-0.2,0.1-0.4,0.1c-0.2,0-0.6-0.1-0.6-0.1
			s0-0.1-0.2-0.1c-0.2-0.1-0.5-0.3-0.5-0.3s0.1,0-0.3-0.1c-0.4-0.1-1.1-0.3-1.1-0.3s0.1,0.1-0.3-0.1c-0.3-0.2-0.3-0.2-0.3-0.2
			s0.1-0.2,0.2-0.4c0.1-0.2,0.1-0.3,0.1-0.3l-0.5-0.4c0,0-0.2,0-0.2-0.3c0-0.2,0-0.5,0-0.5l0.1-0.3l-0.1-0.4l0.1-0.5l0.2-0.2
			l0.2-0.1L9,16.3l0.3-0.1L9.5,16l0.2-0.1l0.4-0.2l0.5-0.1c0,0,0.3-0.2,0.6-0.1c0.3,0.1,0.4,0.1,0.4,0.1l0.6,0L12.7,15.2z"/>
		<path class="st15" d="M8.4,16.7l-0.9-0.3l-0.1-0.3l-0.1-0.3l-0.1-0.3c0,0,0.1-0.1-0.1-0.1c-0.1,0-0.2-0.1-0.2-0.1l-0.2-0.1L6.7,15
			l-0.2-0.4c0,0-0.1-0.1-0.2-0.2c-0.1-0.1,0,0-0.1-0.2c-0.1-0.3-0.1-0.6-0.1-0.6L5.9,14c0.1,0.1,0.2,0.2,0.2,0.2l0.1,0.3l0.1,0.2
			c0,0,0.1-0.1,0.2,0.1C6.7,15,6.6,14.9,6.7,15c0.1,0.2,0.2,0.2,0.2,0.2L7,15.3l0.1,0.2l0,0.2c0,0,0.2,0.1,0.3,0.3
			c0.1,0.2,0.2,0.2,0.1,0.4c0,0.1,0,0.2,0,0.2s0,0,0.2,0.1c0.2,0.1,0.4,0.2,0.4,0.2S8.4,16.6,8.4,16.7z"/>
		<path class="st10" d="M18.4,20.5c-0.3,0.2-0.4,0.1-0.7,0.2c-0.3,0.1-0.4,0.1-0.8,0.1c-0.3,0.1-1.3-0.1-1,0.1
			c0.4,0.1,0.4,0.1,0.6,0.1c0.2,0,0.3,0.1,0.6,0c0.2,0,0.3,0,0.4-0.1C17.7,21,18.4,20.5,18.4,20.5z"/>
		<path class="st15" d="M23.2,11.5c0,0,0.1,0.2-0.1,0.3c-0.2,0.1-0.1,0-0.4,0c-0.3,0-0.2-0.1-0.6,0c-0.5,0-0.6-0.1-1,0
			c-0.5,0.1-0.6,0.1-0.6,0.1s0-0.1,0.2,0c0.2,0,0.3,0.1,0.3,0.1s0,0,0.3-0.1c0.3,0,0.4,0,0.4,0s0,0,0.2,0.1c0.2,0.1,0.4,0.1,0.5,0.2
			c0.1,0,0.8,0,0.8,0l0.2,0c0,0-0.1,0.1,0.3,0.2c0.4,0.1,0.6,0.2,0.6,0.2s0.3,0.2,0.2,0c-0.2-0.1-0.5-0.6-0.5-0.6L23.2,11.5z"/>
		<path class="st15" d="M19.9,11.7c0,0-0.3-0.1-0.5-0.1c-0.2,0-0.6-0.1-0.6-0.1l-0.4-0.2c0,0,0-0.2-0.4-0.1c-0.4,0-0.4,0-0.5,0
			c-0.2,0-0.4,0-0.4,0s-0.2,0-0.4,0c-0.1,0-0.2,0-0.4-0.1c-0.2-0.1-0.1-0.2-0.5-0.5c-0.5-0.3-0.4-0.4-0.7-0.3c-0.3,0-0.3,0-0.5,0
			c-0.2,0-0.3,0-0.6,0c-0.3,0-0.3-0.1-0.4,0.1c-0.1,0.2-0.4,0.4-0.5,0.5c-0.1,0.1-0.4,0.3-0.4,0.3l-0.4,0c0,0,0.2,0.1-0.2,0
			C11.8,11,11.3,11,11.3,11l1.1,0.3l0.4,0.1l0.4-0.2l0.2-0.1l0.1-0.2l0.1-0.2c0,0,0.1-0.1,0.2-0.1c0.1,0,0.1-0.1,0.3-0.1
			c0.1,0,0.3,0,0.5,0c0.2,0,0.2,0,0.3,0c0.1,0,0.3,0,0.3,0s0.1,0,0.2,0.1c0.2,0.1,0.3,0.3,0.3,0.3l0.3,0.3c0,0,0.4,0.2,0.6,0.2
			c0.1,0,0.7,0.2,0.7,0.2s0.1-0.1,0.3-0.1c0.2,0,0.6-0.1,0.6-0.1l0.2,0l0.2,0.1c0,0,0.1,0,0.2,0.1c0.2,0.1,0.2,0.1,0.4,0.1
			c0.2,0,0.3,0.1,0.3,0.1L19.9,11.7z"/>
		<path class="st15" d="M36,22c0,0,0,0,0.3,0.3c0.3,0.3,0.4,0.2,0.5,0.3c0.1,0.1,0.3,0.2,0.5,0.3c0.2,0.1,0.2,0.1,0.4,0.3
			c0.2,0.1,0.5-0.2,0.5,0.3c0,0.6-0.1,0.7-0.1,0.9c0,0.2,0.1,0.3,0.1,0.3s0,0,0.1,0.2c0.1,0.2,0.5,0.5,0.5,0.5s0.2,0,0.3,0.2
			c0.1,0.2,0.3,0.4,0.3,0.4s0,0.2,0.5,0.3c0.5,0.2,1.6,0.2,1.7,0.3c0.1,0.2,0.5,0.3,0.7,0.5c0.2,0.2,0.2,0.1,0.4,0.3
			c0.3,0.2,0.1-0.1,0.7,0.3c0.5,0.5,0.7,0.4,0.7,0.4l0.2,0.1c0,0-0.1,0,0.3-0.3c0.5-0.3,0.4-0.3,0.5-0.4c0.1-0.1,0,0,0.1-0.1
			c0.1-0.1,0.2,0.1,0.5-0.2c0.2-0.3,0.4-0.4,0.4-0.4S46,27,46,27.1c0,0.1,0.1,0-0.2,0.2c-0.3,0.2-0.2,0.3-0.4,0.4
			c-0.2,0.1-0.1,0.1-0.3,0.1c-0.3,0.1-0.4,0.1-0.4,0.1s-0.1,0-0.3,0c-0.2-0.1-0.2-0.3-0.4-0.3c-0.2,0-0.1,0-0.2,0.1
			c-0.2,0.1-0.5-0.3-0.6-0.4c-0.1-0.1-0.4-0.4-0.4-0.4l-0.3-0.2c0,0,0.1-0.1-0.4-0.2c-0.5-0.1-0.5-0.1-0.9-0.3
			c-0.5-0.2-1.1-0.4-1.1-0.4s-0.5-0.2-0.6-0.3c-0.1-0.1-0.2-0.3-0.3-0.4c-0.2-0.1-0.2-0.2-0.4-0.3c-0.2-0.1-0.2,0-0.2-0.3
			c-0.1-0.3-0.1-0.5-0.1-0.6c0-0.1-0.1-0.2,0-0.4c0-0.2,0-0.3,0.1-0.4c0.1-0.1,0.2-0.1,0.4-0.1c0.1,0,0.3-0.2,0.4-0.2
			c0.1,0,0.1-0.3,0.4-0.4c0.3-0.1,0.6-0.1,0.6-0.1s0.3-0.1,0.6,0c0.3,0.1,0.2,0.1,0.5,0.2c0.2,0.1,0.4,0.2,0.6,0.1
			c0.1,0,0.4-0.6,0.4-0.6l0.2-0.1c0,0,0-0.3,0.4-0.3c0.4,0,0.3,0,0.5,0c0.1,0,0.5-0.1,0.5-0.1l-0.5-0.1c0,0-0.2-0.2-0.3,0
			c-0.1,0.1-0.1,0.1-0.3,0.2c-0.2,0.1-0.2,0-0.4,0.1c-0.1,0.1-0.2,0-0.2,0.2c-0.1,0.2,0,0.2-0.1,0.3c-0.2,0.1,0,0.2-0.2,0.2
			c-0.2,0-0.7-0.2-0.7-0.2s-0.3-0.1-0.5-0.1c-0.2,0-0.1-0.1-0.4,0c-0.3,0.1-0.2,0-0.5,0.1c-0.2,0.1-0.9,0.4-1,0.5
			c-0.1,0.1,0.1,0-0.1,0.1C38.2,23,38.2,23,38.1,23c-0.1,0-0.2,0-0.3-0.1c-0.1-0.1-0.1-0.2-0.4-0.3c-0.2-0.1-0.3-0.1-0.3-0.1
			s0,0-0.3-0.2c-0.3-0.2-0.3-0.3-0.3-0.3l-0.3-0.5L36,22z"/>
		<path class="st12" d="M33.5,22.6c-0.1,0.3-0.1,0.5-0.7,0.7c-0.6,0.2-1.1,0.3-1.5,0.4c-0.4,0.1-0.4-0.1-0.9,0.2
			c-0.5,0.3-0.4,0.2-0.7,0.6c-0.3,0.4-0.4,0.1-0.3,0.5c0.1,0.3,0.3,0.5,0.5,0.6c0.2,0.1,0.6,0.3,1.1,0.2c0.2-0.1,0.6-0.1,0.9-0.1
			c0.2,0.2,0.5,0.3,0.6,0.3c0.1,0,0.2,0.2,0.7,0.2c0.5,0.1,0.6,0.1,1.1,0.1c0.6,0,0.8,0,1.1,0c0.3,0,0.2-0.1,0.7,0
			c0.4,0.1,0.2,0,1,0.2c0.8,0.2,1,0.4,1,0.5c0,0.1,0,0.3,0.1,0.4c0.1,0.1,0.4,0.3,0.5,0.4c0.1,0,0,0,0.3,0.1
			c0.4,0.1,0.9,0.3,1.1,0.3c0.2,0,0.2,0.1,0.5-0.1c0.3-0.1,0.3-0.2,0.9-0.3c0.6-0.1,1.3-0.1,0.9-0.3c-0.4-0.2-0.5-0.2-1.1-0.3
			c-0.6-0.2-1.1-0.3-1.4-0.5c-0.4-0.2-0.5-0.3-0.8-0.4c-0.2-0.2-0.2-0.1-0.7-0.6c-0.3-0.3-0.5-0.7-0.7-0.9c0-0.3,0-0.6-0.2-0.7
			c-0.3-0.2,0-0.2-0.4-0.3c-0.4-0.1-0.7-0.4-1.1-0.5C35.7,23.3,33.5,22.6,33.5,22.6z"/>
		<path class="st11" d="M32.3,26.4c0,0,0.4,0.3,0.5,0.4c0.2,0.2,1,0.3,1.2,0.4c0.2,0.1,0.3,0,0.6,0.2c0.2,0.2,0.5,0.3,0.6,0.3
			c0.1,0,0.1,0,0.4,0.1c0.2,0.1,0.3,0.1,0.5,0c0.2-0.1,0.6-0.1,0.8-0.2c0.2-0.1,1-0.3,0.6-0.4c-0.3-0.1-0.4-0.1-0.9-0.1
			c-0.5,0-0.6,0-1.1,0c-0.5,0-0.5,0-0.8,0c-0.3,0,0-0.1-0.6-0.3C33.7,26.7,32.3,26.4,32.3,26.4z"/>
		<path class="st11" d="M43.3,22.3c0,0,0.8,0.2,1.2,0.3c0.5,0.2,0.9,0.2,1.2,0.5c0.4,0.4,0.6,0.4,0.8,0.8c0.1,0.4,0.3,0.9,0.1,1.1
			c-0.1,0.2-0.2,0.9-0.4,0.9c-0.2,0-0.5-0.3-0.5-0.5c0-0.2,0.1-0.2,0-0.7c-0.1-0.5-0.1-0.5-0.2-0.7c-0.1-0.1-0.3-0.4-0.6-0.5
			c-0.3-0.1-1.1-0.5-1.3-0.6C43.5,22.9,43.3,22.3,43.3,22.3z"/>
		<path class="st12" d="M27.8,23.5c0,0-0.1-0.1-0.4-0.2c-0.3-0.1-1.3-0.4-1.7-0.5c-0.4-0.1-0.2-0.2-0.9-0.2c-0.7,0-0.7,0-1.4-0.2
			c-0.6-0.2-1.2-0.5-1.7-0.6c-0.4-0.1-0.8-0.4-1.3-0.2c-0.6,0.3-1.3,0.5-1.1,1c0.1,0.4,0.4,0,0.3,1.1c-0.1,1.1,0.1,1-0.3,1.6
			c-0.3,0.6-0.3,0.6-0.4,1.1c-0.1,0.5-0.3,0.4,0,0.7c0.3,0.3,0.5,0.2,0.8,0.6c0.2,0.4,0.6,0.6,0.7,1c0.1,0.4,0.7,1.3,0.7,1.3
			s0,0.3,0.3,0.4c0.2,0.2,0.5,0.2,0.8,0.4c0.3,0.2,0.6,0.3,0.6,0.3s0.9,0.5,1,0.3c0.1-0.2,0-0.3,0-0.8c0-0.5-0.3-0.9,0.3-0.9
			c0.6,0,0.6-0.3,0.8,0c0.2,0.3-0.5-0.5,0.6,0.8c1.1,1.3,1.6,1.8,2,1.6c0.3-0.2,0.6-0.4,0.6-0.4s0-0.1-0.8-1.2c-0.8-1.1-1-1-1.1-1.7
			s-0.3-0.7,0.1-1.4c0.3-0.6,0.2-0.8,0.7-0.9c0.4-0.1,0.6-0.2,0.6-0.2s0.1,0.1,0-0.8c0-0.9,0.1-1.4,0.1-1.4L27.8,23.5z"/>
		<path class="st11" d="M24.1,30.6c0.1,0.2,0.2,0.7,0.1,1c-0.1,0.2-0.3,0.5-0.7,0.4c-0.4-0.1-1.2-0.4-1.2-0.4s-0.5-0.3-0.1,0.1
			c0.4,0.3,0.3,0.3,0.7,0.5c0.4,0.2,0.8,0.4,1.1,0.4c0.3,0,0.3-0.1,0.8,0c0.6,0.1,1.3,0.1,1.3,0.1s0.1-0.2-0.2-0.4
			c-0.3-0.1-0.6-0.2-0.8-0.4C24.9,31.6,24.1,30.6,24.1,30.6z"/>
		<path class="st12" d="M16.9,22.3c-0.2,0.1-0.7,0.1-1.2,0.2c-0.5,0.1-0.7,0.1-0.9,0.1c-0.2,0-1.2-0.2-1.5-0.1
			c-0.3,0.1-0.3,0.1-0.8,0.3c-0.4,0.2-0.8,0-1.1,0.1c-0.4,0.1-0.7,0-0.8,0.4c0,0.4,0,0.6,0.5,0.8c0.5,0.2,0.5,0,1.9,0.4
			c1.4,0.4,1.7,0.5,1.8,0.6c0.1,0.1-0.2,0,0.4,0.2c0.6,0.2,0.9,0.3,0.9,0.3s0.2,0.2,0.3-0.2c0.1-0.4,0.2-0.7,0.3-1
			c0.1-0.3,0-0.1,0.3-0.4c0.2-0.3,0.4-0.3,0.4-0.4c0-0.1,0.1-0.2,0-0.5C17.3,23,16.9,22.3,16.9,22.3z"/>
		<path class="st18" d="M16.6,22.8c0,0-0.9,0.1-1.3,0.1c-0.4,0-0.7,0.1-0.9,0.1c-0.2,0-0.7-0.3-1-0.1c-0.4,0.1-0.7,0.2-1,0.3
			c-0.2,0.1-0.5,0-0.7,0.1c-0.1,0.1-0.3,0.1-0.2,0.3c0.1,0.1,0.1,0.1,0.4,0.2c0.3,0.1,1.1,0.4,1.4,0.4c0.3,0,0.7,0,1,0.1
			c0.3,0.1,0.4,0.2,0.5,0.2c0.1,0,0.1,0,0.3,0c0.2,0,0.3,0,0.4,0c0.1,0,0,0.1,0.2,0c0.2-0.1,0.5,0,0.5-0.2c0.1-0.2,0.1-0.3,0.2-0.5
			c0.1-0.2,0.4-0.4,0.4-0.4C16.9,23.3,16.6,22.8,16.6,22.8z"/>
		<path class="st19" d="M16.3,23.2c0,0-0.8,0.1-1.2,0.2c-0.4,0.1-0.4,0.1-0.8,0.2c-0.4,0-0.5,0-0.9,0.1c-0.3,0.1-0.4,0.1-0.4,0.1
			s-0.1,0.2,0.4,0.3c0.5,0.1,0.5,0,0.8,0.1c0.4,0.1,0.6,0.1,0.8,0.1c0.2,0,0.5,0.1,0.5-0.1c0.1-0.2,0-0.2,0.1-0.3
			c0.2-0.1,0.1,0,0.2-0.1c0.2-0.1-0.1,0.7,0.2,0.4C16.3,23.7,16.7,23.2,16.3,23.2z"/>
		<path class="st12" d="M37.8,31.8c0,0-0.3-0.8-0.4-1c-0.1-0.1-0.4-0.6-0.6-0.7c-0.2-0.1-0.1-0.3-0.8-0.3c-0.7,0-0.6,0.1-1.3,0.1
			c-0.7,0-0.8-0.1-1.1,0.1c-0.3,0.2-0.3,0.3-0.5,0.3c-0.2,0.1-0.7-0.1-1.3-0.3c-0.6-0.2-1-0.3-1.5-0.5c-0.5-0.2-0.8-0.3-0.9-0.4
			c-0.2-0.1-0.8-0.1-0.5-0.6c0.3-0.5,0.5-0.8,0.8-0.9c0.3-0.1,0.1-0.2,0.5-0.1c0.4,0.2,0.5,0.2,0.9,0.3c0.4,0.1,1,0.4,1.3,0.5
			c0.3,0.1,1,0.4,1.3,0.4c0.3,0,0.3,0.1,0.9,0.1c0.6,0.1,1,0.2,1.4,0.1c0.4,0,0.4,0,0.5-0.1c0.1,0,0.2,0,0.5-0.1
			c0.3-0.1-0.2-0.3,0.5-0.1c0.6,0.2,0.8,0.2,1,0.3c0.2,0.1,0.4,0.4,0.4,0.6c0.1,0.2,0.2,0.3,0.2,0.7c0,0.3-0.1,0.7-0.2,0.8
			c0,0.1,0.1,0.3-0.1,0.4C38.7,31.6,37.8,31.8,37.8,31.8z"/>
		<path class="st11" d="M33.1,18.9c0,0-0.1-0.9-0.3-1c-0.3-0.1-0.4-0.1-0.8,0C31.5,17.9,31.3,18,31,18c-0.3,0-0.4,0-0.8-0.1
			c-0.3-0.1-0.8-0.3-1-0.4c-0.3-0.1-0.6-0.4-1-0.6c-0.4-0.2-0.8-0.8-1-0.6c-0.1,0.2,0.2,0.7,0.8,1.1c0.6,0.4,0.7,0.4,1,0.5
			c0.3,0.1,0.5,0.1,1,0.3s1.1,0,1.3,0.2c0.2,0.2,0.8,0.7,0.8,0.9c0,0.2,0.1,0.4,0,0.6c-0.1,0.2-0.4,0.7,0,0.4
			C32.5,19.9,33.1,18.9,33.1,18.9z"/>
		<path class="st11" d="M17.6,10.1c0,0-0.8-1.1-1-1.2c-0.2-0.1-0.4-0.2-0.8-0.3c-0.5,0-0.4-0.1-0.8,0c-0.4,0.1-0.3-0.1-0.6,0.2
			C14,9.2,14,9.2,13.8,9.4c-0.2,0.3-0.7,0.4-0.3,0.3c0.4-0.1,0.9-0.3,1.1-0.4c0.3,0,0.2-0.1,0.6-0.1c0.4,0.1,0-0.1,0.6,0.1
			c0.6,0.2,1,0.3,1.1,0.4c0.1,0.2,0.4,0.3,0.6,0.5C17.7,10.5,18.1,10.7,17.6,10.1z"/>
		<path class="st11" d="M10.8,10.7c0,0-0.2,0-0.5,0.1C10,10.9,9.9,10.7,9.7,11c-0.2,0.2-0.1,0.2-0.4,0.5c-0.3,0.4-0.4,0.4-0.6,0.6
			c-0.2,0.2-0.2,0.2-0.5,0.4c-0.3,0.2-0.7,0.5-0.7,0.5s0.2,0.2,0.6-0.1c0.4-0.3,0.2-0.2,0.6-0.4C9,12.2,9,12.3,9.2,12.1
			c0.3-0.2,0.6-0.4,0.8-0.6c0.1-0.1,0.1-0.2,0.3-0.3C10.5,11.2,10.8,10.7,10.8,10.7z"/>
		<path class="st12" d="M42.7,22.6c0,0.1,0,0.3-0.3,0.4c-0.3,0.1-0.4,0.2-0.7,0.2c-0.3,0-0.3,0-0.7,0c-0.4,0-0.4-0.1-0.8,0
			c-0.4,0.1-0.2-0.4-0.7,0.2c-0.6,0.6-0.6,0.8-0.6,0.8s0.1,0.2,0.1,0.3c0.1,0.1,0.3,0.3,0.3,0.3c0.1,0.1,1,0.8,1.3,0.9
			c0.2,0.1,1,0.4,1.2,0.4c0.2,0,0.9,0.1,1.1,0.2c0.2,0.1,0.6,0.4,0.7,0.5c0.1,0.1,0.5,0.2,0.7,0.3c0.2,0,0.5,0,0.7,0.1
			c0.2,0,0.1,0.1,0.3,0c0.2-0.1,0.5-0.1,0.6-0.4c0.1-0.2,0.3-0.4,0.2-0.6c-0.1-0.2-0.2-0.4-0.3-0.6c-0.1-0.2-0.1-0.4-0.2-0.5
			c-0.1-0.1-0.1-0.2-0.2-0.3c-0.1-0.1,0.1-0.2-0.5-0.4c-0.6-0.2-1.2-0.5-1.3-0.5c-0.1,0-0.2,0-0.3-0.4c-0.2-0.4-0.2-0.5-0.2-0.5
			L42.7,22.6z"/>
		<path class="st11" d="M41.9,21.5c0,0-0.4-0.2-0.6-0.2c-0.2,0-0.5-0.2-0.8-0.1c-0.3,0.1-0.4,0.2-0.4,0.2s0.6,0.1,0.7,0.2
			c0.1,0,0.3,0,0.4,0.1c0.1,0.1,0.1,0.3,0.1,0.3s0,0.1,0.1,0c0.1-0.1,0.2-0.1,0.2-0.2S41.9,21.5,41.9,21.5z"/>
		<path class="st20" d="M39.4,33.8c0,0-0.4,0-0.3,0.3c0.1,0.3,0.1,0.7,0.1,1c0,0.3,0.1,0.3,0,0.6c-0.1,0.3-0.1,0.3-0.1,0.7
			c0,0.3,0.1,0.6,0.2,0.8c0.1,0.2,0.1,0.3,0.1,0.6c0,0.3-0.1,0.7-0.2,0.8c-0.1,0.1-0.8,1.2-0.8,1.2s0.8-0.7,1.1-1.6
			c0.3-0.9,0.3-0.8,0.2-1.3c-0.1-0.5-0.1-0.7-0.1-0.9c0-0.1,0-0.1,0-0.6c0-0.5,0-0.6,0-0.8C39.6,34.5,39.4,33.8,39.4,33.8z"/>
		<path class="st11" d="M26.3,15.3c0,0-0.2-0.4-0.5-0.8c-0.3-0.4-0.5-0.6-0.8-0.9c-0.3-0.3-0.4-0.6-0.6-0.7
			c-0.2-0.1-0.1-0.1-0.3-0.2c-0.3-0.1-0.7-0.3-1.1-0.3c-0.4,0-0.3,0.1-0.7,0c-0.4-0.1-0.5-0.3-0.7-0.1c-0.2,0.1-0.3,0.2,0.2,0.4
			c0.5,0.2,1,0.2,1.6,0.4c0.6,0.2,0.4,0,0.7,0.2c0.3,0.2,0.4,0.1,0.7,0.5c0.3,0.4,0.5,0.8,0.6,0.9C25.5,14.9,26.6,15.9,26.3,15.3z"
			/>
		<path class="st18" d="M20.7,10.1c0,0-0.4-0.3-0.8-0.4c-0.3-0.1-0.5-0.2-0.7-0.2c-0.2,0-0.3-0.1-0.3,0c0,0.1,0.2,0.4,0.4,0.6
			c0.2,0.1,0.4,0.2,0.5,0.2c0.1,0,0.2,0.1,0.5,0.1c0.2,0,0.7-0.1,0.7-0.1S20.7,10.1,20.7,10.1z"/>
		<path class="st21" d="M24.7,34.8c-0.3,0.1-0.6,0.2-0.8,0.3c-0.2,0.1-0.1-0.1-0.3,0.1c-0.2,0.3-0.3,0.5-0.4,0.7
			c-0.1,0.2-0.2,0.2-0.2,0.4c0.1,0.2,0.2,0.6,0.2,0.9c0.1,0.3,0.2,0.7,0.2,0.7s0-0.2,0-0.8c0-0.6,0-0.7,0-0.9c0-0.2-0.2-0.3,0.2-0.7
			C24.2,35.2,24.7,34.8,24.7,34.8z"/>
		<path class="st8" d="M17.2,32.5c0,0.1,0.2,0.6,0,1.2c-0.2,0.5-0.5,0.9-0.7,1.1c-0.1,0.2-0.3,0.2-0.3,0.5c-0.1,0.3-0.1,0.4-0.1,0.3
			c0-0.1,0.1-0.6,0.2-1c0.1-0.5-0.1-0.3,0.3-0.9C16.8,32.9,17.2,32.5,17.2,32.5z"/>
		<path class="st12" d="M31.2,18.9c0.1,0.1,0.5,0.9,0.5,0.9s0,0.6-0.1,0.8c0,0.2,0.1,0.2-0.2,0.3c-0.3,0.1-0.4,0.1-0.6,0.1
			c-0.2,0-0.4,0-0.7,0c-0.4,0-0.4,0-0.7,0c-0.3,0.1-0.5,0.1-0.8,0c-0.3,0-1.3-0.2-1.5-0.3c-0.2,0-1.2-0.3-1.2-0.3s-0.8-0.3-1-0.3
			c-0.2,0-1.3-0.4-1.3-0.4s-0.5-1-0.8-1.1c-0.2-0.1-0.5-0.2-0.6-0.2c-0.1,0-0.2,0.3-0.3-0.2c-0.1-0.5,0-1.2-0.2-1.3
			c-0.2-0.1-0.6-0.4-0.7-0.5c-0.2-0.1-0.6-0.2-0.6-0.2s0.2,0.1-0.1,0c-0.4-0.2,0.3-0.2-1-0.8c-1.3-0.5-1.6-0.6-1.6-0.6
			s-0.3-0.1-0.8-0.2c-0.5-0.1-0.8-0.2-1.3-0.2c-0.6,0-0.9,0-0.9,0s0.1,0.1-0.1-0.5c-0.2-0.6-0.2-0.4-0.2-0.8c0-0.4,0.2-0.6-0.1-0.8
			c-0.3-0.3-0.4-0.4-0.4-0.4s-0.2-0.3,0.1-0.5c0.3-0.1,0-0.3,0.4-0.2c0.4,0.1,0.5,0,0.8,0.2c0.4,0.2,0.3,0.2,0.9,0.4
			c0.6,0.2,0.8,0.4,1.2,0.4c0.4,0,0.3-0.1,0.7-0.1c0.4,0,0.5,0,0.9,0.1c0.3,0.1,0.2,0,0.8,0.2c0.6,0.2,1.2,0.6,1.6,0.7
			c0.3,0.1,0.9,0.3,1.5,0.5c0.6,0.2,1,0.2,1.1,0.3c0.1,0.1,0,0.1,0.4,0.4c0.4,0.3,0.5,0.4,0.9,0.8c0.4,0.4,0.9,0.5,1,0.8
			c0.2,0.3,0.4,0.6,0.5,0.8c0.1,0.1,0.6,0.4,0.9,0.6c0.3,0.2,1.1,0.6,1.9,0.8c0.8,0.3,1.5,0.5,1.5,0.5L31.2,18.9z"/>
		<path class="st12" d="M13.4,11.7l0.3,0.8c0,0,0.2-0.2,0.2,0.3c-0.1,0.5-0.1,0.5-0.1,0.7c0.1,0.2,0.2,0.2,0.2,0.4
			c0,0.2,0.3,0.3,0,0.4c-0.3,0.1-0.5,0-0.8,0s-0.3,0.1-0.6,0.1c-0.3,0-0.3,0-0.5-0.1c-0.2-0.1-0.2-0.4-0.4-0.5
			c-0.1-0.2-0.4-0.3-0.4-0.3s-0.2,0-0.5-0.1c-0.3,0-0.3,0.2-0.3,0c0-0.2,0-0.4,0.1-0.7c0.1-0.3,0-0.3,0.2-0.5
			c0.2-0.2,0.2-0.2,0.5-0.4c0.2-0.2,0.2-0.3,0.4-0.2c0.2,0.1,0.3,0.1,0.4,0.1c0.2,0.1,0.2,0,0.5,0.1c0.2,0.1,0.4,0,0.4,0
			S13.5,11.8,13.4,11.7z"/>
		<path class="st22" d="M25.7,16.4c0.1,0.1,0.1,0.2,0.4,0.5c0.3,0.4-0.1,0.1,0.7,0.5c0.8,0.4,1.1,0.5,1.1,0.5l0.7,0.4
			c0,0,0.1,0,0.2,0.1c0.1,0.1,0.1,0,0.3,0.1c0.2,0.1,0.2,0.1,0.5,0.3c0.3,0.1,0.6,0.2,0.9,0.3c0.3,0.1,0.3-0.5,0.5,0.2
			c0.1,0.6,0.1,1.1,0.1,1.1s0.1,0.1-0.1,0.2c-0.2,0-0.1,0-0.5,0c-0.3,0-0.3-0.1-0.7,0c-0.4,0.1-0.7,0.1-0.9,0.2c-0.2,0-0.2,0-0.6,0
			c-0.4-0.1-1-0.2-1.4-0.3c-0.4-0.1-1-0.3-1.2-0.4c-0.2-0.1-1.3-0.5-1.5-0.5c-0.2-0.1-0.3,0-0.5-0.2c-0.1-0.2-0.1-0.2-0.3-0.4
			c-0.1-0.2-0.1-0.3-0.5-0.6c-0.4-0.3-0.5-0.4-0.6-0.5c0-0.1,0.3,0.1,0-0.6c-0.4-0.7,0.1-0.3-0.4-0.8c-0.6-0.5-1.3-0.5-1.4-0.6
			c-0.1-0.1-0.3-0.3-0.3-0.3s0.1-0.2,0.2-0.4c0.1-0.1,0-0.2,0.3-0.2c0.3,0,0.2,0,0.5-0.1c0.2-0.1,0.1-0.1,0.5-0.2
			c0.4-0.1,0.6-0.1,0.8,0c0.2,0.1,0.1,0,0.4,0.1c0.3,0.2,0.5,0.3,0.6,0.3c0.1,0,0-0.2,0.5,0.2c0.5,0.3,0.6,0.3,0.8,0.5
			c0.2,0.2,0.7,0.5,0.7,0.5L25.7,16.4z"/>
		<path class="st22" d="M22.3,14c-0.4,0-0.5,0-1,0.1c-0.5,0.1-0.5,0.1-0.9,0.1c-0.4,0-0.5,0-0.6,0.2c-0.1,0.2,0,0.2-0.2,0.4
			c-0.2,0.2,0.3,0.3-0.3,0.2c-0.7-0.1-1.6-0.4-1.8-0.5c-0.2-0.1-0.2-0.1-0.7-0.2c-0.5-0.1-1-0.3-1.1-0.3c-0.1,0-0.1,0.1-0.2-0.1
			c-0.1-0.1-0.2-0.1-0.2-0.4c0-0.3,0.3-0.3,0.1-0.6c-0.2-0.3-0.3-0.5-0.4-0.6c-0.1-0.2-0.2-0.4-0.2-0.4s0.5,0,0.7,0.2
			c0.3,0.2,0,0.1,0.6,0.4c0.6,0.2,0.7,0.4,1,0.4c0.3,0,0.2-0.2,0.7-0.2c0.6,0,0.3-0.1,0.9,0c0.6,0.2,0.2,0,0.7,0.2
			c0.5,0.2,0.3,0.1,0.8,0.2C21,13.4,22.3,14,22.3,14z"/>
		<path class="st22" d="M13.2,12.1c0,0.2,0.1,0.2,0.1,0.6c0.1,0.4,0,0.4,0.1,0.5c0.1,0.1,0.1,0.2,0.1,0.3c0,0.1,0.2,0.1,0,0.2
			c-0.2,0.1-0.3,0.1-0.5,0.1c-0.2,0-0.3,0-0.4,0c-0.1,0-0.1,0-0.2-0.1c-0.1-0.1-0.3-0.4-0.4-0.5c-0.1-0.1,0-0.1-0.4-0.2
			c-0.3-0.1-0.5-0.2-0.5-0.2s0,0,0.1-0.4c0.1-0.4,0-0.4,0.1-0.4s0.4-0.2,0.6-0.1c0.2,0.1,0.2,0.1,0.4,0.1c0.2,0,0.3,0,0.4,0
			C12.8,12.1,13.1,12.1,13.2,12.1z"/>
		<path class="st22" d="M37.6,24.8c0,0-0.1-0.2-0.2-0.3c-0.1-0.1,0.6-0.2-0.2-0.3c-0.8-0.1-1-0.2-1.2-0.3s-0.4-0.1-0.5-0.2
			c-0.2-0.1-0.4-0.2-0.5-0.2c-0.1,0-0.2-0.2-0.4-0.2c-0.2-0.1-0.1-0.2-0.4-0.1c-0.2,0.1-0.2,0.1-0.3,0.2c-0.1,0.2,0,0-0.2,0.3
			C33.3,23.9,33.2,24,33,24c-0.2,0.1-1.2,0.3-1.4,0.3c-0.2,0-0.4-0.1-0.6,0c-0.3,0.1-0.4,0.1-0.6,0.3c-0.2,0.2-0.3,0.2-0.3,0.3
			c0.1,0.1-0.3,0.2,0.2,0.2c0.6,0-0.5-0.1,0.9-0.1c1.3,0,1.3,0,1.5,0.1c0.2,0.1,0.5,0.2,0.7,0.4c0.2,0.2,0.7,0.4,0.8,0.4
			c0.1-0.1-0.2-0.1,0.6-0.1c0.7,0,0.4-0.1,1.1,0c0.6,0.1,0.8,0.1,1.3,0.3c0.5,0.2,0.5-0.1,0.7,0.3c0.2,0.3,0.6,0.7,0.6,0.7
			s0.4,0.1,0.5,0.3c0.1,0.2,0.3,0.4,0.5,0.4c0.3,0,0.3-0.1,0.5,0c0.2,0.1,0.1,0.1,0.3,0.1c0.3,0,0.7,0,0.6-0.1
			c0-0.1-0.2-0.2-0.8-0.3c-0.5-0.1-1.1-0.3-1.2-0.5c-0.2-0.1-0.5-0.3-0.5-0.4c-0.1-0.1-0.3-0.2-0.6-0.6c-0.3-0.4-0.4-0.6-0.4-0.6
			C37.6,25.2,37.6,24.8,37.6,24.8z"/>
		<path class="st22" d="M44.9,25.5C44.9,25.5,45.2,25.7,44.9,25.5c-0.1-0.4-0.1-0.6-0.5-0.8c-0.4-0.2-0.1-0.1-0.5-0.2
			c-0.4-0.1-1-0.8-1-0.8s0.1-0.2-0.1-0.2c-0.2,0-0.5,0.1-0.7,0.1c-0.3,0-0.4,0-0.7,0c-0.4,0-0.4-0.1-0.9,0c-0.5,0.1-0.5-0.1-0.7,0.1
			c-0.2,0.2-0.2,0.1-0.2,0.3c0,0.2,0.1,0.2,0.3,0.4c0.2,0.2,0.7,0.6,0.8,0.6c0.1,0,0.1,0,0.5,0.2c0.4,0.1,0.4,0.3,1,0.3
			c0.6,0,0.7,0,1,0.1c0.3,0.1,0.4,0.2,0.5,0.3c0.2,0.1,0.4,0.2,0.6,0.3c0.2,0.1,0.6,0.2,0.7,0.1c0.1-0.1,0.2-0.1,0.2-0.2
			c0-0.1,0.2,0,0.1-0.2C45.2,25.8,44.9,25.8,44.9,25.5z"/>
		<path class="st12" d="M43.7,28.7c-0.3,0.2-1.2,0.2-1.5,0.4c-0.3,0.1-0.1,0-0.5,0.2c-0.4,0.2-0.3,0.1-0.6,0.2
			c-0.3,0.2-0.4,0.1-0.6,0.2c-0.2,0.1-0.3,0.1-0.3,0.2c0,0.1-0.1,0.3-0.1,0.4c0,0.1,0.2,0.5,0.1,0.7c-0.1,0.2-0.2,0.5-0.2,0.6
			C40,31.7,39.7,32,40,31.8c0.3-0.2,0.2,0,0.6-0.4c0.4-0.4,0.3-0.4,0.6-0.7c0.3-0.4,0.3-0.5,0.5-0.7c0.1-0.1,0-0.1,0.3-0.3
			c0.3-0.2,0.4-0.2,0.6-0.3c0.3-0.1,0.4-0.1,0.7-0.2c0.3-0.1,0.4-0.2,0.4-0.2L43.7,28.7z"/>
		<path class="st11" d="M14.6,25.8c0,0-1-0.2-1.1-0.3c-0.2-0.1-0.3-0.1-0.5-0.2c-0.3-0.2-2.3-0.9-1.1-0.7c1.2,0.3,1.6,0.4,1.7,0.4
			c0.1,0,0.6,0.2,0.7,0.2c0.1,0,1.1,0.4,1.3,0.5c0.2,0.1,0.4,0,0.3,0.2C15.7,26.1,14.6,25.8,14.6,25.8z"/>
		<path class="st11" d="M21.4,31.6c-0.1,0-0.6-0.3-0.8-0.5c-0.2-0.2-0.6-0.7-0.7-0.7c-0.1-0.1-0.3-0.3-0.4-0.5
			c-0.1-0.2-0.1-0.4-0.3-0.6c-0.1-0.2-0.3-0.5-0.5-0.7c-0.2-0.2-0.9-1.1-0.5-0.9c0.4,0.2,0.4,0.3,0.5,0.4c0.1,0.1,0.1,0.1,0.3,0.3
			c0.1,0.2,0.2,0.1,0.4,0.4c0.2,0.3,0.3,0.4,0.4,0.7c0.1,0.3,0.2,0.4,0.3,0.6c0.1,0.2,0.6,0.8,0.6,0.9
			C20.9,31.1,21.4,31.6,21.4,31.6z"/>
		<path class="st11" d="M6.7,15.7c0,0-0.3-0.4-0.4-0.5c-0.1-0.1-0.1-0.5-0.3-0.2c-0.2,0.3-0.1,0.3-0.2,0.6c0,0.3-0.1,0.2,0,0.5
			c0.1,0.3,0.2,0.5,0.3,0.8c0.1,0.3,0.2,0.4,0.2,0.3c0-0.1,0.1-0.6,0-0.8c0-0.2,0-0.5,0-0.5s-0.2-0.4-0.1-0.3
			C6.5,15.8,6.7,15.7,6.7,15.7z"/>
		<path class="st12" d="M21.3,19.7c-0.1,0-0.7,0-1.3,0c-0.6,0-1.1-0.2-1.4,0c-0.3,0.2-0.2,0.2-0.6,0.3c-0.4,0.1-1,0-1.2,0.1
			c-0.2,0.1-0.3,0-0.7,0.1c-0.3,0.1-0.4,0-0.6,0.2c-0.3,0.1-0.6,0.1-0.8,0.2c-0.2,0-0.5,0-0.7,0c-0.3,0-0.8-0.3-1.3-0.3
			c-0.5,0-0.9,0-1.2,0c-0.3,0-0.8-0.2-1.2-0.3c-0.4-0.1-0.6-0.2-0.6-0.2s0.3-0.3,0.3-0.6c-0.1-0.3,0.1-0.3-0.1-0.5
			c-0.3-0.3-0.5-0.4-0.6-0.6c-0.1-0.1-0.4-0.1-0.1-0.4c0.3-0.3,0.2-0.3,0.5-0.4c0.4-0.1,0.4-0.1,0.6-0.2c0.2-0.1,0.1-0.3,0.6-0.3
			c0.5,0,0.8,0,1-0.1c0.2,0,0.3,0,0.7-0.3c0.4-0.3,0.4-0.3,0.7-0.3c0.3,0,0.6-0.1,1.3-0.1c0.7,0,0.8-0.1,1.2,0
			c0.4,0.1,0.5,0.1,0.8,0.2c0.3,0.1,0.2-0.1,0.7,0.2c0.5,0.3,0.7,0.3,0.9,0.5c0.2,0.3,0.3,0.1,0.2,0.4c0,0.3-0.4,0.3,0.1,0.5
			c0.4,0.1,0.5,0.2,0.9,0.3c0.3,0.1,0.5-0.3,0.7,0.2c0.2,0.5,0.3,0.7,0.3,0.7L21.3,19.7z"/>
		<path class="st22" d="M17.6,16.7c0,0-0.2,0.1-0.9,0c-0.7-0.1-1.1-0.2-1.5-0.2c-0.4,0-0.8-0.1-1-0.1c-0.2,0-0.4-0.1-0.7,0.1
			c-0.4,0.1-0.7,0.3-0.9,0.4c-0.2,0.2,0.2,0.3-0.6,0.4c-0.7,0.1-0.8-0.1-1.3,0c-0.5,0.1-0.7,0.1-0.8,0.2c0,0.1,0.5,0.5,0.7,0.8
			C10.8,18.6,11,19,11,19s-0.3,0,0,0.1c0.3,0.1,0.7,0.3,1,0.4c0.3,0,0.9,0.1,1.3,0.1c0.4,0,0.5,0.1,1.1,0c0.5-0.1,0.3,0,1-0.1
			c0.7-0.1,0.6-0.1,1.4-0.2c0.8-0.1,0.9,0,1.2-0.1c0.3,0,0.4-0.1,0.8-0.1c0.4,0,0.6,0,0.9,0c0.3,0,0.7,0.1,0.5-0.1
			c-0.2-0.2,0.3,0-0.6-0.3c-0.9-0.3-1.2-0.4-1.4-0.5c-0.2-0.1-0.4-0.3-0.4-0.3s0.1-0.4,0-0.5C17.7,17.3,17.6,16.7,17.6,16.7z"/>
		<path class="st19" d="M17.2,17.2c-0.3,0.1-0.1,0.1-1.1,0c-1-0.2-0.9-0.3-1.5-0.2c-0.6,0.1-0.8,0-1.1,0.2c-0.3,0.3-0.3,0.1-0.5,0.3
			c-0.2,0.2,0,0.3-0.5,0.3c-0.5,0-0.6,0-0.9,0c-0.3,0-0.6-0.2-0.5,0c0.1,0.2,0.5,0.3,0.6,0.5c0.2,0.2,0.2,0.3,0.4,0.4
			c0.1,0.1,0.5,0.3,1.1,0.2c0.6-0.1,0.2-0.2,0.9-0.2c0.7,0,1.2,0,1.7-0.1c0.5-0.1,0.8-0.2,1.1-0.1s1.8,0.5,1.3,0.2
			c-0.5-0.3-0.8-0.4-0.9-0.6c-0.1-0.2-0.1-0.2-0.1-0.4C17.2,17.6,17.2,17.2,17.2,17.2z"/>
		<path class="st11" d="M27.8,22.5c-0.3-0.1-0.2-0.1-1-0.3c-0.7-0.2-0.9-0.3-1.3-0.4c-0.4-0.1-0.7-0.2-1.4-0.3
			c-0.7-0.1-1-0.2-1.7-0.4c-0.7-0.1-0.4-0.2-1.2-0.2c-0.7,0-1.1,0-1.1,0s-0.5,0,0.2,0.1c0.7,0.1,0.9,0.1,1.2,0.2
			c0.3,0.1,0.2,0.1,0.6,0.2c0.5,0.1,0.5,0.2,1.1,0.3c0.7,0.1,0.9,0.2,1.6,0.3c0.8,0.1,1.7,0.4,1.9,0.4c0.2,0,0.2-0.1,0.6,0.1
			c0.4,0.1,0.4,0.2,0.6,0.2c0.1,0,0.5,0.2,0.5,0.2L27.8,22.5z"/>
		<path class="st11" d="M37.2,23.1c0,0-0.5,0-0.7-0.2c-0.2-0.1-0.7-0.6-1-0.7c-0.4-0.1-0.1-0.3-0.8-0.2c-0.7,0.1-0.6-0.1-1.1,0.2
			c-0.5,0.3-0.3,0.2-0.7,0.5c-0.4,0.3-1,0.4-1.1,0.5c-0.1,0.1,0,0,0.3-0.2c0.3-0.2,0.1,0.3,0.4,0c0.3-0.2,0.3-0.3,0.4-0.4
			c0.2-0.1,0.5-0.3,0.6-0.2c0.1,0,0.5,0,0.5,0s0.8,0,1.2,0.1c0.4,0.1,0.5-0.1,0.6,0.1c0.2,0.3,0.1,0.3,0.5,0.4
			C36.5,23.2,37.2,23.1,37.2,23.1z"/>
		<path class="st11" d="M18.3,16.7c-0.2-0.1-0.4-0.1-0.8-0.3c-0.3-0.2-0.4-0.3-0.8-0.4c-0.3-0.1-0.3-0.1-0.7-0.1s-0.8-0.1-1.1,0
			c-0.3,0-0.4,0-0.7,0.1c-0.3,0-0.5,0-0.8,0.1c-0.3,0-0.3-0.1-0.6,0.1c-0.3,0.1-0.3,0.2-0.7,0.3c-0.4,0.2-1,0.2-1.4,0.3
			c-0.5,0.1-0.5,0.1-0.5,0.1s0.3-0.2,0.6-0.3c0.2-0.1,0.3,0,0.5-0.1c0.2-0.1,0,0,0.4-0.1c0.4-0.1,0,0.1,0.8-0.2
			c0.7-0.3,1-0.3,1.1-0.3c0.1,0,0.1,0,0.4,0c0.3,0,1.1-0.1,1.4,0c0.3,0.1,0.5,0.1,0.7,0.1c0.2,0,0.4,0,0.6,0.1
			c0.2,0.1,1,0.4,1.1,0.5C17.8,16.3,18.3,16.7,18.3,16.7z"/>
		<path class="st12" d="M11.2,15.2c0,0-0.5-0.3-1-0.2c-0.5,0.1-0.6,0.1-1,0.3c-0.4,0.2-0.5,0.3-0.8,0.4c-0.3,0.1-0.2,0.2-0.3,0.1
			C8,15.6,8.1,15.4,8,15.2c-0.1-0.1-0.3-0.4-0.4-0.5c-0.1-0.1-0.3-0.3-0.3-0.3s-0.3-0.1,0-0.4c0.3-0.3,0.4-0.2,0.7-0.4
			c0.2-0.1,0.1-0.1,0.5-0.4c0.4-0.4,0.6-1,0.7-0.6c0.2,0.4,0.2,0.2,0.2,0.6c-0.1,0.4-0.1,0.4,0,0.6c0.1,0.2,0,0.2,0.3,0.4
			C10,14.6,11.2,15.2,11.2,15.2z"/>
		<path class="st19" d="M9,13.2c0,0.1-0.3,0.5-0.5,0.7c-0.2,0.2-0.4,0.4-0.5,0.5c-0.1,0.1-0.1,0.1-0.1,0.2c0,0.1-0.2-0.2,0.1,0.3
			c0.4,0.5,0.5,0.6,0.5,0.6s0.3-0.1,0.4-0.3c0.2-0.1,0.5-0.2,0.5-0.2l0.4-0.1c0,0,0.3,0,0.1-0.1c-0.2-0.1-0.6-0.4-0.6-0.4
			s0,0-0.1-0.3c-0.1-0.3,0-0.2,0-0.3C9.1,13.7,9,13.2,9,13.2z"/>
		<path class="st11" d="M7.1,13.5c-0.1,0.1-0.3,0.2-0.3,0.5c-0.1,0.3-0.2,0.3,0,0.4c0.1,0.1,0.4,0.4,0.4,0.4s0.1,0.2,0-0.1
			C7,14.4,7,14.5,7,14.2C7,14,7.1,13.5,7.1,13.5z"/>
		<path class="st12" d="M6.9,16.4c0,0.4,0,0.6,0,0.8c0,0.2-0.1,0.5-0.1,0.6c0,0.1,0,0.1,0.1,0.3C6.9,18.2,7,18.4,7,18.5
			c0,0.1,0,0.5,0,0.5s0,0.2,0,0.5c0,0.3,0,0.5,0.1,0.6c0.1,0.1,0.1,0.1,0.5,0.3c0.3,0.3,0.7,0.4,0.7,0.4s-0.1,0,0.2,0.1
			c0.3,0.1,2,0.3,1.8,0.2c-0.2-0.1-0.6-0.3-1-0.5c-0.5-0.2-0.5,0-0.8-0.3c-0.3-0.3-0.4-0.2-0.4-0.5c0-0.2,0.1-0.3,0-0.6
			C8,19,8.2,19.2,8,18.8c-0.2-0.4-0.3-0.3-0.3-0.6c0-0.3,0-0.5,0-0.5s-0.1-0.1-0.2-0.3C7.3,17.2,6.9,16.4,6.9,16.4z"/>
		<path class="st19" d="M7,17.1c0.1,0.2,0.2,0.4,0.2,0.6c0,0.3,0.1,0.4,0.1,0.5c0,0.1,0,0.3,0.1,0.6c0.1,0.2,0.2,0.6,0.3,0.8
			c0,0.2-0.1,0.1,0.1,0.3c0.2,0.2,0.4,0.5,0.6,0.6c0.2,0.1,0.5,0.2,0.6,0.2c0.1,0,0.7,0.3,0.5,0.2c-0.2-0.1-0.7-0.5-0.9-0.7
			c-0.2-0.2-0.2-0.1-0.3-0.4C8,19.7,8,19.6,7.9,19.4c-0.1-0.2,0-0.3-0.1-0.6c-0.1-0.3-0.2-0.4-0.3-0.6C7.3,18,7,17.1,7,17.1z"/>
		<path class="st16" d="M19.4,31.4c-0.1,0-0.3-0.2-0.6-0.4c-0.3-0.2-0.4-0.3-0.6-0.5c-0.2-0.2-0.4-0.4-0.7-0.7c-0.3-0.3-1-0.8-1-0.8
			s0.6,0.1,0.9,0.4c0.3,0.2,0.4,0.2,0.7,0.5C18.3,30.2,19.4,31.4,19.4,31.4z"/>
		<path class="st16" d="M33.1,17.9C33.1,17.8,33.1,17.8,33.1,17.9c2.1,1,4.5,1.8,7.4,2.3c2.2,0.4,3.9,1.1,5.1,2.1l-0.1,0
			c-0.4-0.2-0.8-0.5-1.2-0.6c-0.8-0.4-2.7-0.8-3.8-1.1c-1-0.2-2.7-0.6-3.8-0.9c-1.1-0.4-2.5-0.8-3-1.2C33.6,18.3,33.3,18,33.1,17.9z
			"/>
		<path class="st23" d="M34.2,18.3c1.8,0.8,3.9,1.5,6.3,1.9c1,0.2,1.9,0.4,2.7,0.7c-0.1,0-0.2,0-0.4-0.1c-0.6-0.1-1-0.1-1.1-0.1
			c-0.1,0-0.2-0.1-0.6-0.2c-0.4-0.1-0.4-0.2-1-0.3c-0.5-0.1-1.5-0.2-2.7-0.6c-1.2-0.4-2.1-0.7-2.3-0.8c-0.3-0.1-0.5-0.1-0.8-0.5
			C34.2,18.3,34.2,18.3,34.2,18.3z"/>
	</g>
</g>
</svg>
