<?xml version="1.0" encoding="utf-8"?>
<!-- Generator: Adobe Illustrator 19.2.1, SVG Export Plug-In . SVG Version: 6.00 Build 0)  -->
<svg version="1.1" id="Слой_1" xmlns="http://www.w3.org/2000/svg" xmlns:xlink="http://www.w3.org/1999/xlink" x="0px" y="0px"
	 viewBox="0 0 50 50" style="enable-background:new 0 0 50 50;" xml:space="preserve">
<style type="text/css">
	.st0{opacity:0.22;fill:#8D6A58;}
	.st1{fill:#EB7948;}
	.st2{fill:#909BA2;}
	.st3{fill:#6F787E;}
	.st4{fill:#F58849;}
	.st5{fill:#D55637;}
	.st6{fill:#D4633F;}
	.st7{fill:#F5916F;}
	.st8{fill:#F7A78D;}
	.st9{fill:#FABDA1;}
	.st10{fill:#F58C73;}
	.st11{fill:#FFDEB3;}
	.st12{fill:#D14E27;}
	.st13{opacity:0.37;fill:#FFF68E;}
	.st14{fill:#EC8563;}
	.st15{fill:#F69B80;}
</style>
<g>
	<path class="st0" d="M24.1,32.5c-0.5-0.4-1.4-0.7-2.6-0.6c-3.8,0.5-11.4,11.9-11.4,11.9s8.5,0.6,13.2-6.8c3.1,0,8.8-0.5,12.1-2.9
		c0,0,3.2-1.9,4-4c0,0,2.2-0.6,3-3.4L24.1,32.5z"/>
	<g>
		<path class="st1" d="M49,14.8L46.9,14l-0.4-1.9l1.7-1.8c0,0,0.5,0,0.8,0.3c0.4,0.2,0.7,0.7,0.3,1.6c0,0,0,0,0,0S50.2,13.7,49,14.8
			z"/>
		<path class="st2" d="M46.9,14l-0.7,0.5l-0.3,0.3L45.7,15c0,0,0-0.1,0-0.4c0-0.2,0-0.5-0.1-0.9c-0.1-0.6-0.2-1.3-0.4-1.7l0.6,0.2
			l0.7-0.1c0,0,0.2,0,0.5,1.1C47,13.3,47,13.6,46.9,14z"/>
		<path class="st3" d="M46.9,14l-0.7,0.5l-0.3,0.3c0-0.1-0.1-0.1-0.2-0.2c-0.2-0.2-0.3-0.6-0.1-0.9c0.1-0.1,0.2-0.2,0.3-0.2
			c0,0,0.5,0,1-0.2C47,13.3,47,13.6,46.9,14z"/>
		<path class="st1" d="M45.4,22.9C45.3,22.9,45.3,22.9,45.4,22.9c0,0.1-0.1,0.2-0.1,0.2c0,0,0,0,0,0.1c-0.8,1.6-1.9,2.9-3.5,4.3
			c-0.5,0.5-1.4,0.9-2,1.3c-0.7,0.3-1.2,0.5-1.2,0.5c-4.2,6.3-15.1,6.2-15.1,6.2c0.2-0.4,0.3-0.8,0.4-1.2
			c4.7-14.2-5.2-25.1-5.2-25.1c7-3.8,12.5-2.3,12.7-2.5c0.5-0.3,1.3-0.4,1.3-0.4c4.6-0.7,7.7,0.6,9.2,1.5c0,0,0,0,0,0
			c0.7,0.4,1,0.7,1,0.7l0,0c1.6,1.1,3,3.3,3.3,6.1C46.5,18.3,46.3,20.8,45.4,22.9z"/>
		<path class="st4" d="M46,13.5c-0.8,0.9-2.6,2.3-6.1,2.7c-0.2,0-0.3,0.3-0.4,0.5c-4,4.1-11.3,3.2-11.3,3.2
			c-6.3-0.4-5.9-10.1-5.9-10.1c3.8-3,10.9-1.9,10.9-1.9c2.6-1.7,8.5,0,8.7,0c0,0,0,0,0,0c0.7,0.4,1,0.7,1,0.7l0,0
			C44.4,9.7,45.3,10.8,46,13.5z"/>
		<path class="st5" d="M45.2,23.2c-0.8,1.6-1.9,2.9-3.5,4.3c-0.5,0.5-1.4,0.9-2,1.3c-0.7,0.3-1.2,0.5-1.2,0.5
			c-4.2,6.3-15.1,6.2-15.1,6.2c0.2-0.4,0.3-0.8,0.4-1.2c1.5-0.6,2,0,2,0s8.9-0.7,13.1-5.9C38.8,28.4,43.7,26.2,45.2,23.2z"/>
		<path class="st6" d="M22.6,35.6c-3.9,0-7.7-5.2-8.8-12.1c-0.6-3.5-0.4-6.9,0.6-9.6c1-2.8,2.6-4.5,4.6-4.8c0.2,0,0.5-0.1,0.7-0.1
			c3.9,0,7.7,5.2,8.8,12.1c0.6,3.5,0.4,6.9-0.6,9.6c-1,2.8-2.6,4.5-4.6,4.8C23.1,35.6,22.9,35.6,22.6,35.6z"/>
		<ellipse transform="matrix(0.9871 -0.16 0.16 0.9871 -3.295 3.6758)" class="st7" cx="21.2" cy="22.3" rx="7.1" ry="13"/>
		<ellipse transform="matrix(0.9871 -0.1599 0.1599 0.9871 -3.1555 3.6245)" class="st8" cx="20.9" cy="21.4" rx="7" ry="12.1"/>
		
			<ellipse transform="matrix(0.9981 -6.082790e-002 6.082790e-002 0.9981 -1.1707 1.2637)" class="st9" cx="20.2" cy="19.9" rx="6" ry="9.5"/>
		<ellipse transform="matrix(0.9948 -0.1023 0.1023 0.9948 -2.0889 2.0941)" class="st10" cx="19.4" cy="21.4" rx="0.6" ry="0.9"/>
		<ellipse transform="matrix(0.9947 -0.1026 0.1026 0.9947 -1.9107 2.5123)" class="st11" cx="23.5" cy="19.8" rx="1" ry="1.3"/>
		<ellipse transform="matrix(0.9948 -0.1023 0.1023 0.9948 -1.7409 2.2159)" class="st11" cx="20.7" cy="18.1" rx="0.3" ry="0.4"/>
		
			<ellipse transform="matrix(2.876853e-002 -0.9996 0.9996 2.876853e-002 2.3721 31.2838)" class="st11" cx="17.3" cy="14.4" rx="0.9" ry="0.7"/>
		<ellipse transform="matrix(0.9735 -0.2287 0.2287 0.9735 -5.2131 4.5322)" class="st11" cx="16.9" cy="24.8" rx="0.8" ry="0.9"/>
		<ellipse transform="matrix(0.9736 -0.2284 0.2284 0.9736 -6.6095 5.5647)" class="st11" cx="20.7" cy="31.3" rx="0.4" ry="0.5"/>
		<path class="st10" d="M22.6,15.6c0-0.2-0.2-0.3-0.3-0.4c0,0,0-0.1,0-0.1c-0.1-0.5-0.4-0.9-0.8-0.9c-0.4,0-0.6,0.5-0.6,1
			c0.1,0.5,0.4,0.9,0.8,0.9c0,0,0.1,0,0.1,0c0.1,0.1,0.2,0.1,0.3,0.1C22.5,16.2,22.7,15.9,22.6,15.6z"/>
		<ellipse class="st10" cx="24.7" cy="24.3" rx="0.6" ry="0.8"/>
		<ellipse class="st10" cx="20.7" cy="26" rx="0.4" ry="0.4"/>
		<ellipse class="st10" cx="15.9" cy="18.1" rx="0.3" ry="0.5"/>
		<ellipse class="st10" cx="24.5" cy="30.8" rx="0.6" ry="0.6"/>
		<g>
			<g>
				<g>
					<path class="st12" d="M38.2,29.7c0,0,0,0,0-0.1c0-0.1,0.1-0.2,0.1-0.3c2.3-3.4,3.4-9.2,0.5-14.7c-3.5-6.7-7.7-7.7-7.7-7.7
						c-0.1,0-0.3,0-0.2-0.1c0-0.1,0.5-0.2,0.6-0.2c0.2,0,4.1,0.9,7.7,7.8c2.9,5.6,2,11.4-0.4,14.8C38.8,29.2,38.3,29.7,38.2,29.7z"
						/>
				</g>
				<g>
					<path class="st12" d="M28.7,27.7c-0.1,0-0.2-0.1-0.2-0.2c0-0.1,0.1-0.2,0.2-0.2c0.1,0,7.2-0.7,11.9-6c0,0,0.1-0.1,0.1-0.1
						c0,0,4.3-0.5,5.4-2.7c0-0.1,0.1-0.4,0.2-0.4c0,0,0,0.4,0,0.6c-0.7,2.5-4.9,2.8-5.5,2.8C36,26.9,28.8,27.7,28.7,27.7
						C28.7,27.7,28.7,27.7,28.7,27.7z"/>
				</g>
				<g>
					<path class="st12" d="M24.7,12.4c-0.1,0-0.1,0-0.2-0.1c-0.1-0.1,0-0.2,0.1-0.3c0,0,4.6-2.9,11.7-1.9c0.5-0.2,3.1-1.8,7-1.3
						c0.2,0,0.5,0.3,0.5,0.5c0,0-0.3-0.1-0.4-0.1c-4-0.4-7,1.3-7,1.4c0,0-0.1,0-0.1,0c-7-1-11.4,1.8-11.5,1.8
						C24.8,12.4,24.8,12.4,24.7,12.4z"/>
				</g>
			</g>
		</g>
		<path class="st13" d="M24.6,8.5c-0.9,0.3-2,0.7-1.4,1c0.6,0.3,1.5,0.2,1.8,0.1c1.4-0.4,2.3-1.1,5.2-1.4c0.3,0,1.9,0,2.2-0.1
			c0.3-0.1-1.6-0.5-2.4-0.6C28.4,7.6,26.1,7.9,24.6,8.5z"/>
		<path class="st13" d="M34.4,7.5c0,0,0.6,0.6,0.9,0.7c0.4,0.1,1.6-0.5,3.3-0.7c0,0,0.5-0.1,0.5-0.2c0-0.2-2.5-0.4-3.4-0.3
			C34.9,7.1,34.3,7.2,34.4,7.5z"/>
		<path class="st5" d="M49.3,12.2C49.3,12.2,49.3,12.2,49.3,12.2l-1.7,1l-0.3,0.1c0,0,1.3-1.6,2-2.1C49.5,11.3,49.5,11.8,49.3,12.2z
			"/>
	</g>
	<path class="st6" d="M0.4,37.7c0,0-0.1,0.3,0.1,1c0.3,1.9,1.7,3.4,3.7,4.3c1.5,0.6,3.9,1.1,6.5,0.9c0,0,6.2-0.3,9.7-5.5
		c3.4-5,3.7-10.1,0.2-12.7C20.5,25.8,6.5,39.2,0.4,37.7z"/>
	<path class="st14" d="M10,43.5c-0.1,0-0.3,0-0.4,0c-0.1,0-0.3,0-0.4,0c-1.6,0-3.2-0.3-4.6-0.8c-1-0.3-1.9-0.8-2.6-1.5l0,0
		c-1-1-1.6-2.2-1.6-3.5c0-1.9,1.3-3.7,3.4-4.7c4.2-2.5,4.4-2.6,7.4-6.1c1.3-1.6,3.3-2.6,5.3-2.6c1,0,1.9,0.2,2.7,0.6
		c2.1,1,3.5,3,3.6,5.3l0,0l0,0.3c0,1-0.2,2-0.6,3c-0.6,1.9-1.6,3.5-2.3,4.4c-0.1,0.2-0.3,0.4-0.5,0.6l-0.1,0.1
		c-0.1,0.2-0.2,0.3-0.2,0.3c-0.8,0.9-1.7,1.7-2.8,2.4c-1.3,0.9-2.8,1.5-4.1,1.9l0,0l-0.1,0C11.4,43.4,10.6,43.5,10,43.5L10,43.5z"/>
	<path class="st15" d="M22.5,30.6C22.5,30.6,22.5,30.6,22.5,30.6c0,1-0.2,1.9-0.6,2.9c-0.6,1.9-1.6,3.4-2.3,4.3
		c-0.1,0.2-0.3,0.4-0.4,0.6c0,0,0,0,0,0c0,0,0,0.1-0.1,0.1c-0.1,0.2-0.2,0.2-0.2,0.2c-0.2,0.2-0.4,0.4-0.6,0.6
		c-0.6,0.6-1.3,1.2-2.2,1.7c-1.4,0.9-2.8,1.5-4.1,1.8l0,0c0,0,0,0,0,0c-0.1,0-0.1,0-0.2,0c0,0,0,0,0,0c-0.8,0.2-1.6,0.3-2.3,0.2
		c-2,0.1-3.7-0.3-4.9-0.8c-1-0.3-1.8-0.8-2.5-1.4c0,0,0,0,0,0c-0.9-0.9-1.5-2-1.5-3.2c0-1.6,1-3,2.5-3.9c0,0,0,0,0,0
		c0.1,0,0.1-0.1,0.2-0.1c0.2-0.1,0.3-0.2,0.5-0.3c2.1-1.3,3.3-1.9,4.3-2.7c1-0.8,1.8-1.7,3.3-3.5c1.8-2.3,4.9-3.1,7.6-1.9
		C21.2,26.3,22.4,28.4,22.5,30.6L22.5,30.6z"/>
	<path class="st8" d="M22.5,30.4C22.5,30.4,22.5,30.4,22.5,30.4c0,0.9-0.2,1.9-0.6,2.8c-0.6,1.8-1.5,3.3-2.1,4.2
		c-0.1,0.2-0.3,0.4-0.4,0.5c0,0,0,0,0,0c0,0,0,0.1-0.1,0.1c-0.1,0.2-0.2,0.2-0.2,0.2c-0.2,0.2-0.4,0.4-0.6,0.6
		c-0.6,0.6-1.3,1.1-2,1.6c-1.3,0.9-2.6,1.4-3.9,1.7l0,0c0,0,0,0,0,0c-0.1,0-0.1,0-0.2,0c0,0,0,0,0,0c-0.8,0.2-1.5,0.2-2.1,0.2
		c-1.9,0.1-3.4-0.3-4.6-0.8c-0.9-0.3-1.7-0.8-2.3-1.4c0,0,0,0,0,0c-0.9-0.8-1.4-1.9-1.4-3c0-1.5,0.9-2.9,2.3-3.8c0,0,0,0,0,0
		c0.1,0,0.1-0.1,0.2-0.1c0.2-0.1,0.3-0.2,0.5-0.2c2-1.2,3.1-1.8,4-2.6c0.9-0.8,1.7-1.6,3.1-3.3c1.7-2.2,4.6-3,7.1-1.8
		C21.3,26.3,22.5,28.2,22.5,30.4L22.5,30.4z"/>
	<path class="st9" d="M10,29.7c0,0,1.4-1.5,2.4-2.7c1-1.2,3.1-1.8,5-1.3c1.8,0.5,3.9,2.4,3.6,4.4c-0.2,2-1.9,4.6-3.4,5.8
		c-1.9,1.4-4.6,3.1-8.2,2.1c-3.5-1.1-3.8-2.9-3.7-3.8c0.1-0.9,0.7-2,2-2.8C9,30.7,10,29.7,10,29.7z"/>
	<g>
		<ellipse transform="matrix(0.637 -0.7709 0.7709 0.637 -21.9274 21.6328)" class="st10" cx="12" cy="34.1" rx="0.9" ry="0.6"/>
		<ellipse transform="matrix(0.6372 -0.7707 0.7707 0.6372 -21.8655 25.3599)" class="st11" cx="16" cy="35.9" rx="1.3" ry="1"/>
		
			<ellipse transform="matrix(0.6367 -0.7711 0.7711 0.6367 -19.6678 23.7182)" class="st11" cx="15.3" cy="32.7" rx="0.4" ry="0.3"/>
		
			<ellipse transform="matrix(0.7325 -0.6807 0.6807 0.7325 -14.7071 17.9783)" class="st11" cx="15.5" cy="27.7" rx="0.9" ry="0.7"/>
		<ellipse transform="matrix(0.5335 -0.8458 0.8458 0.5335 -26.035 22.1966)" class="st11" cx="7.1" cy="34.7" rx="0.9" ry="0.8"/>
		<ellipse transform="matrix(0.5335 -0.8458 0.8458 0.5335 -30.0804 19.6888)" class="st11" cx="2.8" cy="37.1" rx="0.5" ry="0.4"/>
		<path class="st10" d="M18.4,32.4c0.1-0.2,0.1-0.4,0.1-0.5c0,0,0-0.1,0.1-0.1c0.3-0.4,0.4-0.9,0.1-1.2c-0.3-0.2-0.8-0.1-1.1,0.3
			c-0.3,0.4-0.4,0.9-0.1,1.2c0,0,0.1,0.1,0.1,0.1c0,0.1,0.1,0.2,0.2,0.3C17.9,32.6,18.2,32.6,18.4,32.4z"/>
		
			<ellipse transform="matrix(0.7126 -0.7016 0.7016 0.7126 -24.8356 20.2801)" class="st10" cx="12.3" cy="40.5" rx="0.8" ry="0.6"/>
		<ellipse transform="matrix(0.7127 -0.7015 0.7015 0.7127 -24.0304 17.1467)" class="st10" cx="8.9" cy="37.9" rx="0.4" ry="0.4"/>
		<ellipse transform="matrix(0.7127 -0.7015 0.7015 0.7127 -17.106 16.7831)" class="st10" cx="11.9" cy="29.3" rx="0.5" ry="0.3"/>
		<ellipse transform="matrix(0.7128 -0.7013 0.7013 0.7128 -27.1582 15.716)" class="st10" cx="5.6" cy="41" rx="0.6" ry="0.6"/>
	</g>
</g>
</svg>
