<?xml version="1.0" encoding="utf-8"?>
<!-- Generator: Adobe Illustrator 19.2.1, SVG Export Plug-In . SVG Version: 6.00 Build 0)  -->
<svg version="1.1" id="Слой_1" xmlns="http://www.w3.org/2000/svg" xmlns:xlink="http://www.w3.org/1999/xlink" x="0px" y="0px"
	 viewBox="0 0 50 50" style="enable-background:new 0 0 50 50;" xml:space="preserve">
<style type="text/css">
	.st0{fill:#9CB98C;}
	.st1{fill:#DFE2B0;}
	.st2{fill:#CAD076;}
	.st3{fill:#69B232;}
	.st4{fill:#367705;}
	.st5{fill:#FFFFFF;}
	.st6{fill:#CE7F3F;}
	.st7{fill:#F0A96A;}
	.st8{fill:#DC8E49;}
	.st9{fill:#994C32;}
	.st10{fill:#B06735;}
	.st11{fill:#660000;}
</style>
<g>
	<g transform="matrix( 2.3602294921875, 0, 0, 2.3602294921875, -1655.5,664.1) ">
		<g>
			<g id="Layer3_0_MEMBER_0_FILL">
				<path class="st0" d="M719.1-265.8c-0.1,0.1-0.2,0.2-0.4,0.2c-0.4,0.1-0.7,0.3-1.1,0.4c-0.1,0.1-0.3,0.1-0.4,0.1
					c-0.1,0-0.2,0-0.3,0.1c-0.5,0.1-1,0.3-1.5,0.4c0,0,0,0-0.1-0.1c-0.1,0-0.1,0-0.2,0c0,0.1-0.2,0.1-0.4,0.2
					c-0.8,0.1-1.6,0.2-2.4,0.3c-0.5,0-0.9,0-1.4,0c-0.4,0-0.8,0-1.2,0c-0.1,0-0.3,0-0.4,0c0,0,0,0,0,0c0,0-0.1,0-0.1,0
					c0,0-0.1,0-0.1,0c-0.1,0-0.1,0-0.2,0c-0.1,0-0.1,0-0.2,0c-0.1,0-0.2,0-0.2,0c-0.1,0-0.2,0-0.4-0.1c-0.6-0.1-1.2-0.2-1.8-0.3
					c-0.3-0.1-0.5-0.2-0.7-0.3c-0.1,0-0.2,0-0.3-0.1c-0.4-0.1-0.9-0.3-1.3-0.5c-0.1,0-0.2-0.1-0.2-0.1c0,0-0.1,0-0.1,0
					c-0.1,0-0.3-0.1-0.3-0.3c0,0-0.1,0-0.1-0.1c-0.3,0-0.4-0.1-0.5-0.3c-0.1-0.1-0.3-0.2-0.4-0.3c-0.2-0.2-0.4-0.4-0.6-0.7
					c0,0,0,0.1,0,0.1c0.5,1.1,1.3,1.8,2.4,2c0.1,0.2,0.2,0.3,0.4,0.3c0.1,0,0.3,0.1,0.4,0.1c0.2,0.1,0.4,0.2,0.7,0.3
					c0.1,0,0.1,0,0.2,0.1c0.1,0,0.2,0,0.2,0.1c0,0,0.1,0,0.1,0c0,0,0,0,0,0c0.6,0.1,1.1,0.3,1.7,0.4c0.2,0.1,0.4,0,0.5,0
					c0.1,0.1,0.3,0.1,0.5,0.1c1.7,0.2,3.3,0.1,5-0.2c0.1,0,0.2,0,0.3-0.1c0.1,0,0.2,0,0.4,0c0.1,0,0.2-0.1,0.3-0.1
					c0.6,0,1.3-0.2,1.9-0.4c0.6-0.2,1.3-0.5,1.9-0.7c0.1,0,0.1-0.1,0.2-0.1c0.1,0,0.3,0,0.4-0.1c0.2-0.1,0.3-0.2,0.3-0.3
					c0,0,0,0,0.1,0c0.4-0.2,0.8-0.4,1.1-0.7c0.2-0.2,0.4-0.4,0.6-0.6c0.1,0,0.1-0.1,0.2-0.2c0.2-0.2,0.3-0.4,0.3-0.6
					c0,0,0-0.1,0-0.1c0.1-0.3,0.1-0.6,0-0.8c0,0.1-0.1,0.2-0.1,0.3c-0.1,0.2-0.2,0.3-0.3,0.5c0,0,0,0,0,0c0,0.1-0.1,0.2-0.1,0.3
					c0,0-0.1,0.1-0.1,0.1c-0.2,0.3-0.5,0.6-0.8,0.9c-0.2,0.2-0.4,0.3-0.5,0.2c-0.3,0.2-0.5,0.4-0.8,0.5
					C719.3-265.8,719.2-265.8,719.1-265.8z"/>
				<path class="st1" d="M718.9-270.9c0,0,0.1,0,0.1,0c0.1,0,0.1,0,0.1,0c0.6,0,0.9,0.2,1,0.7c0,0.1,0,0.2-0.1,0.3
					c0,0.1,0.1,0.2,0.2,0.2c0.2,0.1,0.1,0.3,0,0.4c0.2,0.1,0.5,0.3,0.7,0.4c0.1,0.1,0.2,0.2,0.2,0.3c0,0.5-0.2,0.8-0.7,0.9
					c-0.1,0-0.2,0.1-0.3,0.1c0,0.2-0.1,0.3-0.4,0.5c-0.1,0.1-0.3,0.2-0.4,0.2c-0.1,0-0.1,0.1-0.2,0.1c-0.6,0.2-1.3,0.3-2,0.1
					c0,0-0.1,0-0.1,0c0.3,0.3,0.3,0.7,0.1,1.1c0,0.1-0.1,0.1-0.1,0.1c-0.2,0.3-0.5,0.4-1.1,0.3c-0.4-0.1-0.7,0-1.1,0.2
					c-0.2,0.1-0.5,0.2-0.7,0.2c-0.3,0-0.6,0-0.8,0c-0.4,0.1-0.8,0-1.1-0.3c-0.2-0.2-0.3-0.3-0.3-0.4c-0.2,0-0.4-0.1-0.6-0.2
					c-0.3,0.6-0.8,0.9-1.4,0.9c-0.1,0-0.1,0-0.2,0c-0.3,0-0.5,0-0.7-0.2c0,0-0.1-0.1-0.1-0.1c-0.5,0-0.8-0.1-1.1-0.5
					c-0.1-0.1-0.1-0.2-0.1-0.4c0-0.1,0-0.3,0.1-0.4c-0.2,0-0.3,0-0.5,0c-0.2,0.1-0.5,0.2-0.7,0.3c-0.6,0.2-1,0.1-1.1-0.4
					c-0.2,0-0.4,0-0.5,0c0,0-0.1,0-0.1,0c0,0,0,0,0,0c-0.5,0.2-0.8,0.2-0.9-0.1c-0.1-0.1-0.1-0.2-0.1-0.3c0,0,0-0.1,0.1,0
					c0,0,0,0,0,0c0-0.1,0-0.3,0.1-0.4c0,0,0-0.1,0.1-0.1c0,0,0-0.1,0-0.2c0-0.1,0-0.2,0-0.2c0-0.1,0-0.2,0-0.3
					c0.1-0.2,0.3-0.4,0.5-0.6c-0.3,0-0.4-0.2-0.4-0.5c0-0.3,0.1-0.6,0.3-0.8c0.1-0.1,0.2-0.2,0.4-0.3c0.3-0.5,0.7-0.9,1.3-1.1
					c0.7-0.1,1,0.2,1,0.8c0,0,0,0-0.1,0c-0.2-0.1-0.4-0.3-0.6-0.4c-0.1-0.1-0.2-0.1-0.3,0c-0.1,0.1-0.3,0.2-0.4,0.3
					c0.3,0.2,0.2,0.3-0.2,0.5c-0.1,0-0.2,0.1-0.4,0.2c0,0,0,0,0,0.1c-0.1,0.2-0.2,0.4-0.4,0.6c0,0.1-0.1,0.1-0.1,0c0,0,0-0.1,0-0.1
					c0,0,0,0.1-0.1,0.1c0.1,0.1,0.3,0.2,0.4,0.3c0.2,0,0.3-0.1,0.5-0.1c0,0,0.1-0.1,0.2-0.1c0,0,0,0,0,0c0.1,0,0.1-0.1,0.2-0.1
					c0.2-0.1,0.2-0.1,0.2,0.1c0,0.1-0.1,0.2-0.3,0.3c0,0,0,0,0,0c0,0.1,0,0.1,0,0.2c0,0,0,0.1,0,0.1c0,0.1,0,0.1,0,0.2
					c-0.1,0.2-0.1,0.2-0.2,0c0,0,0-0.1-0.1-0.1c-0.3,0-0.6,0.2-0.9,0.4c0.2,0.1,0.2,0.2,0.2,0.3c0.1,0,0.1,0.1,0.2,0.2
					c0.1,0.1,0.1,0.2-0.1,0.2c-0.1,0-0.2,0.1-0.3,0.1c0.1,0,0.2,0.1,0.2,0.3c0,0.1,0,0.1-0.1,0.1c-0.2,0.1-0.3,0.1-0.5,0
					c0,0,0,0,0,0c-0.1,0.1-0.1,0.2-0.1,0.3c0.1,0,0.3,0,0.4,0c0.1-0.1,0.3-0.1,0.5-0.1c0.2-0.1,0.4-0.1,0.6-0.3c0,0,0,0,0.1,0
					c0-0.1,0.1-0.1,0.2-0.1c0.2,0.2,0.2,0.3-0.1,0.3c0,0,0,0.1,0,0.1c0.1,0,0.3,0,0.4,0c0.3,0.1,0.3,0.2,0,0.3c-0.1,0-0.2,0-0.3,0
					c0,0,0,0,0,0.1c0.4,0.1,0.7,0,1.1-0.1c0-0.2,0.2-0.4,0.4-0.5c0.1,0,0.2-0.1,0.3-0.1c0.4,0,0.6,0.1,0.7,0.4
					c0.3,0,0.5,0.1,0.6,0.3c0.1,0.1,0,0.1,0,0.1c-0.2,0.1-0.5,0.1-0.7,0.1c0,0.1,0,0.2-0.1,0.4c0,0.1,0,0.2,0,0.3
					c0.3,0.1,0.7,0.2,1,0.3c0.1,0,0.1,0.1,0.1,0.1c0.4,0.1,0.8,0.1,1.1,0c0.1,0,0.2-0.1,0.3-0.2c0.1-0.1,0.2-0.2,0.2-0.3
					c-0.1,0-0.1-0.1,0-0.2c0.1-0.2,0.2-0.3,0.4-0.3c0.3,0,0.5,0,0.7,0.1c0.1,0,0.2-0.1,0.3-0.1c0.2,0.2,0.2,0.3,0,0.3
					c0.1,0.1,0.3,0.2,0.4,0.3c0,0,0,0.1,0,0.1c0,0,0,0,0,0c0,0,0,0,0,0c0,0,0,0-0.1,0c0.3,0.4,0.8,0.5,1.3,0.3
					c0.2-0.1,0.3-0.1,0.5-0.1c0.2,0,0.4-0.1,0.5-0.1c0.2-0.1,0.4-0.1,0.6,0c0.6,0.1,1,0,1.3-0.3c0.1-0.1,0.1-0.2,0-0.2
					c-0.4-0.2-0.7-0.4-0.8-0.7c-0.1-0.1,0-0.2,0.1-0.3c0.4-0.2,0.8-0.3,1.3-0.4c0.1,0,0.1,0,0.2,0c0,0,0,0,0.1,0
					c0.1,0,0.1,0.1,0.1,0.1c0.6,0.4,1.2,0.4,1.8-0.2c0.1-0.1,0.2-0.2,0.3-0.3c0.4-0.2,0.7-0.5,0.9-0.8c0,0,0-0.1,0-0.2
					c0,0,0,0,0-0.1c-0.4,0-0.7-0.2-0.8-0.5c-0.1-0.1-0.1-0.2,0-0.4c-0.1-0.1-0.1-0.2-0.1-0.3c-0.1-0.2,0-0.3,0.1-0.5
					c-0.2-0.1-0.4-0.2-0.6-0.2c0,0,0,0,0,0c0.3,0.4,0.3,0.7,0.2,1.1c-0.7,0.4-1.5,0.8-2.3,1.1c-0.3,0.1-0.6,0.3-1,0.4
					c-0.3,0.1-0.5,0.3-0.8,0.4c-0.1,0.1-0.2,0.1-0.4,0.2c-0.1-0.2-0.2-0.1-0.5,0.1c-0.1,0.1-0.2,0.1-0.3,0.2
					c-0.6,0.1-1.2,0.2-1.8,0.2c-1,0-1.9-0.1-2.8-0.3c-0.4-0.1-0.7-0.3-0.9-0.5c-0.3-0.4-0.6-0.8-0.7-1.2c-0.2-0.7-0.2-1.4,0-2.2
					c0.1-0.3,0.1-0.6-0.1-0.8c0.1-0.1,0.1-0.1-0.1-0.2c0,0-0.1-0.1-0.1-0.1c0,0-0.1,0-0.1,0c-0.1,0-0.1-0.1-0.2-0.1c0,0,0,0-0.1,0
					c-0.1,0-0.1,0.1-0.1,0.1c-1.5,0.2-2.8,0.8-4.1,1.5c-0.7,0.4-1.2,1-1.5,1.8c-0.1,0.3-0.1,0.6,0,0.9c0.1,0.2,0.1,0.4,0.3,0.6
					c0.1,0.2,0.3,0.5,0.6,0.7c0.1,0.1,0.2,0.2,0.4,0.3c0.1,0.2,0.2,0.3,0.5,0.3c0,0,0,0,0.1,0c0,0,0,0,0,0.1
					c0.1,0.1,0.2,0.2,0.3,0.3c0,0,0.1,0,0.1,0c0.1,0,0.1,0.1,0.2,0.1c0.4,0.2,0.8,0.3,1.3,0.5c0.1,0,0.2,0.1,0.3,0.1
					c0.2,0.1,0.4,0.2,0.7,0.3c0.6,0.1,1.2,0.2,1.8,0.3c0.2,0,0.5,0,0.7,0.1c0.1,0,0.2,0,0.3,0.1c0,0,0.1,0,0.1,0c0.2,0,0.3,0,0.5,0
					c0.3,0,0.5,0,0.8,0c0.1,0,0.3,0.1,0.5,0.1c0.4,0.1,0.9,0.1,1.4,0c0.8-0.1,1.6-0.2,2.4-0.3c0.2,0,0.4-0.1,0.4-0.2c0,0,0,0,0-0.1
					c0.2,0,0.4,0,0.5-0.1c0.4,0,0.8-0.1,1.2-0.2c0.1,0,0.2,0,0.3-0.1c0.1,0,0.2,0,0.4-0.1c0.4-0.1,0.7-0.3,1.1-0.4
					c0.2-0.1,0.3-0.1,0.4-0.2c0.1,0,0.2,0,0.4-0.2c0.3-0.2,0.5-0.3,0.8-0.5c0.1,0.1,0.3,0,0.5-0.2c0.3-0.3,0.5-0.6,0.8-0.9
					c0,0,0,0,0-0.1c0.1-0.1,0.2-0.2,0.2-0.4c0.1-0.2,0.2-0.3,0.3-0.5c0-0.1,0.1-0.2,0.1-0.3c0,0,0,0,0-0.1c0.1,0,0.1-0.1,0.1-0.2
					c-0.1-0.2-0.2-0.5-0.3-0.7c-0.7-0.8-1.6-1.2-2.6-1.4C719.1-271.2,719-271.1,718.9-270.9C718.9-271,718.9-271,718.9-270.9
					 M706.5-270.9c0.3,0.2,0.2,0.3-0.1,0.3c-0.1,0-0.1,0,0-0.1C706.4-270.8,706.5-270.9,706.5-270.9 M716.2-266.8
					c0.2,0.1,0.3,0.2,0.5,0.3C716.6-266.6,716.4-266.7,716.2-266.8C716.3-266.8,716.3-266.8,716.2-266.8
					C716.2-266.8,716.2-266.8,716.2-266.8z"/>
				<path class="st2" d="M706.4-270.6c0.4,0,0.4,0,0.1-0.3c-0.1,0-0.2,0.1-0.2,0.1C706.3-270.7,706.3-270.6,706.4-270.6
					 M718.4-270.4c0.3-0.1,0.5-0.2,0.8-0.2c0.2,0,0.4,0.1,0.6,0.2c-0.1,0.1-0.2,0.3-0.1,0.5c0,0.1,0.1,0.2,0.1,0.3
					c-0.1,0.1-0.1,0.2,0,0.4c0.2,0.3,0.4,0.5,0.8,0.5c0,0,0,0,0,0.1c0,0.1,0,0.1,0,0.2c-0.2,0.3-0.5,0.5-0.9,0.8
					c-0.1,0.1-0.2,0.2-0.3,0.3c-0.6,0.6-1.1,0.6-1.8,0.2c0,0-0.1-0.1-0.1-0.1c0,0,0,0-0.1,0c-0.1,0-0.1,0-0.2,0
					c-0.5,0.1-0.9,0.2-1.3,0.4c-0.1,0.1-0.2,0.2-0.1,0.3c0.2,0.3,0.4,0.6,0.8,0.7c0.1,0,0.1,0.1,0,0.2c-0.3,0.4-0.7,0.5-1.3,0.3
					c-0.2-0.1-0.4,0-0.6,0c-0.2,0.1-0.4,0.1-0.5,0.1c-0.2,0-0.4,0.1-0.5,0.1c-0.6,0.2-1,0.1-1.3-0.3c0,0,0,0,0.1,0c0,0,0.1,0,0,0
					c0,0,0,0,0,0c0.1,0,0.1,0,0-0.1c-0.1-0.1-0.2-0.2-0.4-0.3c0.2,0,0.2-0.1,0-0.3c-0.1,0-0.2,0-0.3,0.1c-0.2-0.1-0.4-0.1-0.7-0.1
					c-0.2,0-0.3,0.1-0.4,0.3c-0.1,0.1-0.1,0.2,0,0.2c-0.1,0.1-0.2,0.2-0.2,0.3c-0.1,0.1-0.2,0.1-0.3,0.2c-0.4,0.1-0.7,0.1-1.1,0
					c0-0.1-0.1-0.1-0.1-0.1c-0.3-0.1-0.7-0.2-1-0.3c0-0.1,0-0.2,0-0.3c0.1-0.1,0.1-0.3,0.1-0.4c0.2,0,0.4,0,0.7-0.1
					c0.1,0,0.1-0.1,0-0.1c-0.2-0.1-0.4-0.2-0.6-0.3c-0.1-0.3-0.3-0.4-0.7-0.4c-0.1,0-0.2,0.1-0.3,0.1c-0.3,0.1-0.4,0.3-0.4,0.5
					c-0.4,0.1-0.7,0.1-1.1,0.1c0,0,0,0,0-0.1c0.1,0,0.2,0,0.3,0c0.4-0.1,0.4-0.2,0-0.3c-0.1,0-0.3,0-0.4,0c0,0,0-0.1,0-0.1
					c0.3,0,0.3-0.1,0.1-0.3c-0.1,0-0.1,0-0.2,0.1c0,0,0,0-0.1,0c-0.2,0.1-0.4,0.2-0.6,0.3c-0.2,0-0.4,0-0.5,0.1c-0.2,0-0.3,0-0.4,0
					c0-0.1,0.1-0.2,0.1-0.3c0,0,0,0,0,0c0.1,0,0.3,0,0.5,0c0.1,0,0.1-0.1,0.1-0.1c0-0.1-0.1-0.2-0.2-0.3c0.1,0,0.2,0,0.3-0.1
					c0.1,0,0.2-0.1,0.1-0.2c-0.1-0.1-0.1-0.1-0.2-0.2c0-0.1-0.1-0.2-0.2-0.3c0.2-0.2,0.5-0.4,0.9-0.4c0,0,0,0.1,0.1,0.1
					c0.1,0.2,0.2,0.2,0.2,0c0-0.1,0-0.1,0-0.2c0,0,0-0.1,0-0.1c0-0.1,0-0.1,0-0.2c0,0,0,0,0,0c0.1-0.1,0.2-0.2,0.3-0.3
					c0-0.2,0-0.2-0.2-0.1c-0.1,0-0.1,0.1-0.2,0.1c0,0,0,0,0,0c-0.1,0-0.1,0.1-0.2,0.1c-0.2,0.1-0.3,0.1-0.5,0.1
					c-0.2-0.1-0.3-0.2-0.4-0.3c0,0,0-0.1,0.1-0.1c0,0,0,0.1,0,0.1c0,0.1,0.1,0.1,0.1,0c0.1-0.2,0.2-0.4,0.4-0.6c0,0,0,0,0-0.1
					c0.1-0.1,0.2-0.1,0.4-0.2c0.4-0.1,0.4-0.3,0.2-0.5c0.1-0.1,0.3-0.2,0.4-0.3c0.1-0.1,0.2-0.1,0.3,0c0.2,0.1,0.4,0.3,0.6,0.4
					c0,0,0,0,0.1,0c0-0.6-0.3-0.9-1-0.8c-0.5,0.3-1,0.6-1.3,1.1c-0.1,0.1-0.2,0.2-0.4,0.3c-0.2,0.2-0.3,0.5-0.3,0.8
					c0,0.3,0.1,0.5,0.4,0.5c-0.2,0.1-0.4,0.3-0.5,0.6c-0.1,0.1-0.1,0.2,0,0.3c0,0.1,0,0.1,0,0.2c0,0.1,0,0.1,0,0.2
					c0,0,0,0.1-0.1,0.1c-0.1,0.1-0.1,0.3-0.1,0.4c0,0,0,0,0,0c0,0-0.1,0-0.1,0c0,0.1,0.1,0.3,0.1,0.3c0.1,0.3,0.5,0.4,0.9,0.1
					c0,0,0,0,0,0c0,0,0.1,0,0.1,0c0.2,0,0.4,0,0.5,0c0.1,0.5,0.5,0.7,1.1,0.4c0.3-0.1,0.5-0.2,0.7-0.3c0.1,0,0.3,0,0.5,0
					c0,0.1-0.1,0.3-0.1,0.4c0,0.1,0,0.3,0.1,0.4c0.2,0.3,0.6,0.5,1.1,0.5c0,0.1,0.1,0.1,0.1,0.1c0.2,0.2,0.5,0.2,0.7,0.2
					c0.1,0,0.1,0,0.2,0c0.7,0.1,1.2-0.2,1.4-0.9c0.2,0.1,0.4,0.1,0.6,0.2c0,0.1,0.1,0.2,0.3,0.4c0.3,0.3,0.7,0.4,1.1,0.3
					c0.3-0.1,0.6-0.1,0.8,0c0.3,0,0.5,0,0.7-0.2c0.3-0.2,0.7-0.3,1.1-0.2c0.5,0.1,0.9,0,1.1-0.3c0,0,0.1-0.1,0.1-0.1
					c0.2-0.4,0.2-0.8-0.1-1.1c0,0,0.1,0,0.1,0c0.7,0.2,1.4,0.1,2-0.1c0.1,0,0.1,0,0.2-0.1c0.1-0.1,0.3-0.1,0.4-0.2
					c0.3-0.2,0.4-0.3,0.4-0.5c0.1-0.1,0.2-0.1,0.3-0.1c0.5-0.2,0.7-0.5,0.7-0.9c0-0.1-0.1-0.2-0.2-0.3c-0.3-0.1-0.5-0.3-0.7-0.4
					c0.2-0.1,0.2-0.3,0-0.4c-0.1-0.1-0.1-0.2-0.2-0.2c0.1-0.1,0.1-0.2,0.1-0.3c0-0.5-0.4-0.7-1-0.7c0,0-0.1,0-0.1,0c0,0-0.1,0-0.1,0
					C718.6-270.9,718.5-270.7,718.4-270.4C718.4-270.4,718.4-270.4,718.4-270.4 M716.6-266.5c-0.1-0.1-0.3-0.2-0.5-0.3
					c0,0,0,0,0.1,0c0,0,0,0,0,0C716.4-266.7,716.6-266.6,716.6-266.5z"/>
			</g>
		</g>
	</g>
	<g transform="matrix( 2.3602294921875, 0, 0, 2.3602294921875, -1655.5,664.1) ">
		<g>
			<g id="Layer3_0_MEMBER_1_FILL">
				<path class="st3" d="M706.1-268.7C706.1-268.7,706.1-268.7,706.1-268.7c-0.1,0-0.1,0-0.2,0.1c-0.2,0.1-0.4,0.1-0.6,0.1
					c-0.1-0.2-0.3-0.2-0.6-0.2c-0.1,0-0.2,0-0.4,0c-0.2,0-0.4,0.1-0.5,0.3c0,0.1,0,0.1,0,0.1c0,0,0,0,0.1,0c0,0.1,0,0.1,0,0.2
					c-0.1,0-0.2,0.1-0.3,0.2c-0.1,0.2-0.1,0.3,0.1,0.3c0.1,0,0.2,0,0.3,0.1c-0.2,0.1-0.3,0.2-0.4,0.4c-0.2,0.3-0.1,0.4,0.3,0.4
					c0.4,0,0.8-0.1,1.2-0.2c0,0,0.1,0,0.1,0c0,0,0,0.1,0,0.1c0,0.1,0,0.2,0.1,0.3c0.4,0.1,0.8,0.1,1.2-0.2c0.4-0.3,0.5-0.5,0.2-0.8
					c0,0,0,0,0,0c0-0.1-0.1-0.2-0.1-0.3c-0.1-0.2-0.3-0.4-0.4-0.6C706.3-268.5,706.2-268.6,706.1-268.7
					C706.1-268.7,706.1-268.7,706.1-268.7 M704.9-268.5C704.9-268.6,704.9-268.6,704.9-268.5c0.1,0,0.2,0.1,0.3,0.2
					c0.3,0.1,0.7,0.2,0.9,0.5c0,0,0,0,0,0c0,0,0.1,0,0.1,0.1c0,0,0,0,0,0c0,0,0.1,0,0.1,0c0,0,0,0-0.1,0.1c0,0,0,0,0,0
					c0,0,0,0-0.1,0c0,0,0,0,0,0c0,0,0.1,0.1,0.1,0.1c0,0-0.1-0.1-0.1-0.1c0,0.1-0.1,0.1-0.1,0.2c0,0,0,0,0,0c0,0.1,0,0.2,0.1,0.3
					c0,0,0,0,0,0.1c-0.1,0-0.2-0.1-0.2-0.3c-0.1,0.1-0.2,0.3-0.2,0.5c0,0.1-0.1,0.1-0.1,0.2c0-0.3,0.2-0.6,0.4-0.9c0,0,0,0,0.1-0.1
					c0,0,0,0,0,0c-0.2,0-0.5,0-0.7,0c0,0-0.1,0.1-0.1,0.2c-0.1,0.1-0.2,0.2-0.2,0.4c-0.1-0.1,0-0.3,0.1-0.5
					c-0.2,0.1-0.4,0.2-0.7,0.3c-0.2,0.1-0.3,0.2-0.4,0.2c0.3-0.3,0.6-0.5,1-0.6c0.1,0,0.1,0,0.2,0c0,0,0,0,0,0
					c-0.1,0-0.2-0.1-0.3-0.2c0,0,0,0,0,0c0.1,0.1,0.2,0.1,0.3,0.2c0,0,0,0,0,0c0,0,0.1,0,0.1,0c0,0,0,0,0,0c0.1,0,0.2,0,0.4,0
					c0.1,0,0.1,0,0.2,0c-0.2-0.1-0.4-0.2-0.6-0.3c-0.1,0-0.1,0-0.2,0c-0.2,0-0.3,0.1-0.5,0.2c-0.1,0.1-0.2,0.1-0.3,0.1
					c0,0,0-0.1,0.1-0.1c0.1-0.1,0.2-0.1,0.3-0.1c0.1,0,0.1,0,0.2-0.1c0,0,0,0,0,0c-0.2-0.1-0.5-0.1-0.7-0.1l0,0c0.2,0,0.4,0,0.6,0
					C705-268.4,704.9-268.5,704.9-268.5 M705.5-267.4c0.1-0.1,0.2-0.1,0.3-0.1c0,0,0.1,0,0.1,0c0.1,0.1,0,0.1-0.3,0.2
					C705.6-267.3,705.6-267.3,705.5-267.4 M704.5-270.5c-0.3,0.1-0.3,0.3-0.1,0.5c-0.2,0.1-0.3,0.3-0.4,0.5c-0.1,0.1,0,0.2,0,0.3
					c0,0,0,0,0.1,0c0.3,0.2,0.7,0.2,1.1,0c0.4-0.1,0.5-0.3,0.5-0.5c0.1,0,0.2,0,0.2-0.1c0.3-0.1,0.4-0.3,0.4-0.4c0,0,0,0,0,0
					c0.2-0.2,0.2-0.4,0.1-0.6c0-0.4-0.3-0.5-0.9-0.5c-0.3,0.1-0.5,0.3-0.5,0.6c-0.1,0-0.1,0-0.2,0
					C704.7-270.5,704.6-270.5,704.5-270.5 M705.6-270.7C705.6-270.8,705.6-270.8,705.6-270.7c0.1,0.1,0.1,0.2,0.3,0.3
					C705.8-270.6,705.7-270.7,705.6-270.7c0.1-0.1,0.1-0.2,0.1-0.2c0.1,0.2,0.2,0.4,0.4,0.7c0,0,0.1,0.1,0.1,0.1
					c-0.1-0.1-0.2-0.2-0.2-0.3C705.7-270.4,705.6-270.5,705.6-270.7 M705.2-270.2c0,0,0-0.1,0-0.2c0,0,0,0,0,0
					C705.3-270.3,705.3-270.2,705.2-270.2c0.2,0.1,0.4,0.1,0.6,0.2c0.1,0,0.1,0.1,0.2,0.1C705.8-270,705.5-270,705.2-270.2
					c0.1,0.1,0.1,0.1,0.1,0.1C705.3-270.1,705.3-270.1,705.2-270.2c-0.1,0-0.3,0-0.4,0c-0.1,0-0.1,0,0-0.1
					C704.9-270.2,705.1-270.2,705.2-270.2 M704.8-270c0.1,0,0.1,0,0.2,0c0.1,0,0.2,0,0.3,0.1c0,0,0,0,0.1,0c0,0.1,0,0.2,0,0.3
					c0,0,0,0,0.1,0c0.1,0,0.1,0,0.2,0.1c-0.3,0-0.6,0-0.9-0.1c0,0-0.1,0-0.1,0c-0.1,0-0.1,0-0.2,0.1c0.1,0,0.1-0.1,0.2-0.1
					c0,0,0,0,0,0c-0.1,0-0.1-0.1-0.1-0.1c0.3,0,0.5,0,0.8,0.1c0-0.1,0-0.2,0-0.3C705.1-269.9,705-269.9,704.8-270
					C704.8-270,704.8-270,704.8-270 M705.4-270.5c0.1,0.1,0.2,0.1,0.3,0.1c0,0,0.1,0,0.1,0.1C705.7-270.3,705.5-270.3,705.4-270.5
					C705.4-270.5,705.4-270.5,705.4-270.5 M706.1-270.5c-0.1-0.1-0.1-0.2,0-0.4c0,0,0,0,0.1,0C706.2-270.8,706.2-270.7,706.1-270.5
					C706.1-270.6,706.1-270.6,706.1-270.5 M705-269.5C705.1-269.5,705.1-269.5,705-269.5c0,0.1-0.2,0.2-0.4,0.2
					c-0.1,0-0.2,0-0.3-0.1C704.6-269.3,704.8-269.4,705-269.5 M712.7-266.4c-0.2,0-0.4,0.1-0.6,0.2c0,0-0.1-0.1-0.1-0.1
					c-0.2,0.2-0.2,0.4-0.1,0.7c0.3,0.5,0.8,0.7,1.5,0.4c0,0,0.1,0,0.1-0.1c0.1,0.1,0.3,0.1,0.6,0c0.2,0,0.3-0.1,0.3-0.2
					c0,0,0.1,0,0.1-0.1c0.7,0.3,1.3,0.2,1.8-0.3c0.3-0.3,0.3-0.5-0.1-0.6c-0.1,0-0.1,0-0.1,0.1c-0.3-0.2-0.6-0.5-0.9-0.7
					c-0.1,0-0.1,0.1-0.1,0.1c0,0,0,0,0,0c-0.1,0-0.2,0.1-0.3,0.1C714.1-266.6,713.4-266.5,712.7-266.4 M713.2-265.9
					c-0.1,0.1-0.1,0.2-0.1,0.3c0,0,0,0.1-0.1,0.1c-0.1-0.2,0-0.4,0.2-0.6c0,0,0,0,0,0c0,0,0-0.1,0-0.1c0,0,0,0,0,0c0,0,0,0,0.1,0
					c0,0,0,0,0,0c0.2,0.2,0.4,0.4,0.6,0.5c0.1,0,0.1,0.1,0.2,0.1C713.7-265.5,713.5-265.7,713.2-265.9c0.1,0.2,0.2,0.4,0.3,0.5
					c0,0,0.1,0.1,0.1,0.1C713.4-265.4,713.2-265.6,713.2-265.9C713.2-265.9,713.2-265.9,713.2-265.9 M713.6-265.8
					c-0.2,0-0.2-0.1-0.1-0.2c0.3,0.1,0.5,0.2,0.8,0.1c0.1,0,0.1,0,0.2,0C714.3-265.7,714-265.7,713.6-265.8 M712.7-265.6
					c0,0-0.1,0-0.1,0c0.1-0.1,0.1-0.2,0.3-0.4c0,0,0.1,0,0.1,0C712.9-265.8,712.8-265.7,712.7-265.6 M715.8-266.1
					c0.1,0,0.2,0,0.2,0.1c-0.2,0-0.5,0-0.7-0.1c0,0.1,0.1,0.2,0.2,0.3c0,0,0,0,0,0.1c-0.1,0-0.2-0.1-0.2-0.3c0,0,0,0,0,0
					c-0.1,0-0.2-0.1-0.2-0.2c0,0.2,0,0.3,0.1,0.5c0,0,0,0.1,0.1,0.1c-0.2-0.1-0.3-0.3-0.3-0.5c-0.1,0.1-0.2,0.2-0.2,0.3
					c0,0-0.1,0.1-0.1,0.1c0.1-0.2,0.2-0.3,0.3-0.5c0,0,0,0,0,0c0,0,0,0,0,0c0,0,0,0,0,0c0,0,0,0,0,0c-0.1,0-0.1-0.1,0-0.1
					c0,0,0,0,0.1,0.1c0,0,0,0,0.1,0c0,0,0,0,0,0.1c0,0,0,0,0,0c0,0,0.1,0,0.1,0c0,0,0,0-0.1,0.1
					C715.3-266.3,715.5-266.2,715.8-266.1 M708.4-265.6C708.4-265.6,708.4-265.6,708.4-265.6c0.3,0.5,0.5,0.6,0.9,0.2
					c0,0,0.1,0.1,0.1,0.1c0.3,0.2,0.5,0.2,0.8,0c0.3-0.2,0.4-0.4,0.3-0.6l0,0c0,0,0-0.1,0-0.1c0,0,0,0-0.1,0c0-0.1-0.1-0.1-0.2-0.2
					c-0.1,0-0.1,0-0.1,0.1c0,0,0,0,0,0.1c-0.7-0.2-1.3-0.4-2-0.7c0,0,0,0-0.1,0c0,0,0,0,0,0c0,0-0.1-0.1-0.1-0.1
					c-0.2,0.2-0.4,0.5-0.4,0.8c0,0.1,0,0.2,0.1,0.3C708-265.5,708.2-265.4,708.4-265.6 M708.7-266.3c0,0.2,0.1,0.4,0.1,0.7
					c0,0.1,0,0.1,0,0.2c-0.2-0.2-0.3-0.4-0.2-0.7C708.6-266.2,708.7-266.2,708.7-266.3 M708.6-266.4c-0.2,0.2-0.3,0.4-0.3,0.6
					c0,0.1,0,0.1-0.1,0.2c-0.1-0.3,0-0.5,0.1-0.7C708.5-266.3,708.5-266.4,708.6-266.4 M709.5-266c0.1,0.1,0.3,0.3,0.4,0.4
					c0,0,0.1,0.1,0.1,0.1c-0.2-0.1-0.4-0.2-0.5-0.4C709.5-265.9,709.5-265.9,709.5-266 M718.6-270.7c-0.4,0-0.7,0.2-0.9,0.5
					c0,0.1,0,0.1,0,0.1c0,0,0,0,0.1,0c-0.1,0.2-0.3,0.4-0.4,0.7c-0.2,0.5-0.4,1-0.5,1.5c0,0,0,0,0,0c-0.2,0.1-0.1,0.3,0.2,0.5
					c0.7,0.5,1.4,0.5,2.1,0c0.3-0.2,0.4-0.4,0.3-0.5c0.3,0,0.5-0.1,0.8-0.3c0.1-0.1,0.1-0.2,0-0.3c-0.2-0.3-0.4-0.6-0.8-0.7
					c0.1-0.1,0.1-0.2,0-0.3c0,0,0,0,0,0c0,0,0-0.1-0.1-0.1c0,0,0,0,0,0c0,0,0,0,0,0c-0.1-0.1-0.1-0.1-0.3-0.1c0-0.1,0-0.1,0.1-0.2
					c0.2-0.2,0.2-0.4,0.2-0.6c0.1-0.1,0.1-0.1-0.1-0.2c0,0,0,0,0-0.1c0,0,0,0-0.1,0c0,0,0,0,0,0
					C719.1-270.7,718.8-270.7,718.6-270.7 M718.2-270.2c0-0.1,0.1-0.1,0.1-0.1c-0.1,0.2-0.2,0.5-0.2,0.8c0,0,0,0,0,0
					c0.1,0,0.1-0.1,0.2-0.1c0-0.2,0.1-0.3,0.2-0.5c0.1-0.1,0.2-0.2,0.3-0.3c0.1,0,0,0.1-0.1,0.3c-0.1,0.1-0.2,0.2-0.3,0.4
					c0,0,0,0,0,0c0.2-0.1,0.4-0.2,0.7-0.3c0.1,0,0.1,0,0.2,0c0,0,0,0,0,0c-0.3,0.1-0.6,0.2-0.9,0.3c0.1,0.1,0.2,0.1,0.3,0.1
					c0.2,0,0.4,0,0.5,0.1c-0.3,0.1-0.6,0.1-0.9-0.1c0,0,0,0,0,0c0,0,0,0-0.1,0c0,0.1,0,0.1-0.1,0.2c0-0.1,0-0.1,0-0.2
					c-0.1,0-0.1,0.1-0.2,0.2c0.1,0.2,0.3,0.2,0.5,0.2c0.2,0,0.3,0,0.5,0c-0.4,0.1-0.7,0.1-1-0.2c0,0,0,0,0,0
					c-0.1,0.1-0.2,0.2-0.4,0.4c-0.1,0.2-0.2,0.3-0.2,0.5c0.1,0,0.2-0.1,0.3-0.1c0.1-0.1,0.3-0.3,0.5-0.4c0.1-0.1,0.3-0.1,0.4-0.1
					c0,0,0.1,0,0.1,0c0,0,0,0,0,0c-0.3,0-0.6,0.1-0.8,0.4c0,0,0,0,0,0c0.1,0,0.2,0,0.3-0.1c0.1,0,0.1,0,0.2,0c0,0,0,0,0,0
					c0,0,0,0,0,0c0.1,0,0.1,0,0.2,0c0.2,0,0.4,0,0.5,0c0.1-0.1,0.2-0.2,0.3-0.2c0.1,0,0.1,0,0.2-0.1c0.2,0,0.3,0.1,0.4,0.2
					c0,0,0,0.1,0,0.1c-0.3-0.3-0.6-0.3-0.9,0c0.1,0,0.2,0.1,0.3,0.2c0.1,0,0.1,0.1,0.2,0.1c-0.2-0.1-0.5-0.2-0.7-0.3
					c0.1,0.1,0.2,0.2,0.3,0.2c0,0,0.1,0.1,0.1,0.1c-0.2,0-0.3-0.1-0.5-0.3c0,0,0,0,0,0c-0.2,0-0.3,0-0.5,0c0,0.1,0,0.1,0.1,0.2
					c0,0,0,0,0.1,0c0,0,0,0.1,0,0.1c0.1,0.2,0.3,0.3,0.5,0.4c0.1,0,0.1,0.1,0.2,0.1c-0.3-0.1-0.5-0.2-0.7-0.5c0,0.1-0.1,0.3,0,0.5
					c0,0,0,0.1,0,0.1c-0.2-0.2-0.2-0.4,0-0.7c0,0,0,0,0,0c0-0.1-0.1-0.1-0.1-0.2c0,0,0,0,0,0c-0.3,0-0.6,0.1-0.8,0.2
					c-0.1,0.1-0.3,0.1-0.4,0c0.1,0,0.2-0.1,0.3-0.1c0-0.4,0.2-0.7,0.6-1c0,0,0,0,0,0C718-269.7,718-270,718.2-270.2 M718-268.5
					C718.1-268.5,718.1-268.5,718-268.5c0.1,0,0,0.1,0,0.2c0,0,0,0,0,0c0,0,0,0,0,0c0,0.1,0,0.2,0,0.3c0,0,0,0.1,0,0.1
					c-0.1-0.1-0.1-0.2-0.1-0.3c-0.1,0-0.2,0.1-0.3,0.1c-0.1,0-0.1,0-0.1,0c0,0.1,0,0.1,0,0.2c0.2,0.2,0.5,0.4,0.9,0.4
					c0.2,0,0.4,0,0.6,0.1c-0.3,0.1-0.5,0.1-0.8,0.1c0.1,0.1,0.2,0.1,0.3,0.2c0,0,0.1,0,0.1,0.1c-0.2,0-0.4-0.1-0.5-0.2
					c-0.2-0.1-0.4-0.2-0.6-0.3c0,0.2,0.1,0.4,0.3,0.6c0.1,0.1,0.1,0.1,0.2,0.2c-0.4-0.1-0.6-0.4-0.6-0.8c0,0,0,0,0,0
					c-0.1-0.1-0.1-0.2,0-0.2c0,0,0.1,0.1,0.1,0.1c0,0,0,0,0,0c0-0.1,0-0.1,0.1-0.1c0,0,0,0,0,0c0.1,0,0.3-0.1,0.4-0.1
					C718-268.3,718-268.4,718-268.5z"/>
				<path class="st4" d="M705.8-267.5c-0.1,0-0.2,0.1-0.3,0.1c0,0,0.1,0,0.1,0C705.9-267.4,706-267.5,705.8-267.5
					C705.9-267.5,705.9-267.5,705.8-267.5 M704.9-268.6C704.9-268.6,704.9-268.6,704.9-268.6c0,0.1,0,0.2,0.1,0.3
					c-0.2,0-0.4,0-0.6,0l0,0c0.2,0,0.5,0,0.7,0.1c0,0,0,0,0,0c-0.1,0-0.1,0-0.2,0.1c-0.1,0-0.2,0.1-0.3,0.1c0,0-0.1,0.1-0.1,0.1
					c0.1,0,0.2,0,0.3-0.1c0.1-0.1,0.3-0.1,0.5-0.2c0.1,0,0.1,0,0.2,0c0.2,0.1,0.4,0.2,0.6,0.3c-0.1,0-0.1,0-0.2,0
					c-0.1,0-0.2,0-0.4,0c0,0,0,0,0,0c0,0-0.1,0-0.1,0c0,0,0,0,0,0c-0.1-0.1-0.2-0.1-0.3-0.2c0,0-0.1,0,0,0c0.1,0.1,0.2,0.2,0.3,0.2
					c0,0,0,0,0,0c-0.1,0-0.1,0-0.2,0c-0.4,0.1-0.8,0.3-1,0.6c0.1-0.1,0.2-0.2,0.4-0.2c0.2-0.1,0.4-0.2,0.7-0.3
					c-0.1,0.2-0.2,0.3-0.1,0.5c0-0.1,0.1-0.3,0.2-0.4c0.1-0.1,0.1-0.1,0.1-0.2c0.2,0,0.5-0.1,0.7,0c0,0,0,0,0,0c0,0,0,0-0.1,0.1
					c-0.2,0.3-0.4,0.6-0.4,0.9c0.1,0,0.1-0.1,0.1-0.2c0.1-0.2,0.1-0.3,0.2-0.5c0,0.2,0.1,0.3,0.2,0.3c0,0,0,0,0-0.1
					c-0.1-0.1-0.1-0.2-0.1-0.3c0,0,0,0,0,0c0-0.1,0.1-0.1,0.1-0.2c0,0,0.1,0.1,0.1,0.1c0,0,0-0.1-0.1-0.1c0,0,0,0,0,0c0,0,0,0,0.1,0
					c0,0,0,0,0,0c0,0,0,0,0.1-0.1c0,0-0.1,0-0.1,0c0,0,0,0,0,0c0,0-0.1,0-0.1-0.1c0,0,0,0,0,0c-0.3-0.2-0.6-0.4-0.9-0.5
					C705.1-268.4,705-268.5,704.9-268.6 M705.1-269.5C705.1-269.5,705.1-269.5,705.1-269.5c-0.3,0.1-0.5,0.2-0.7,0.2
					c0.1,0.1,0.2,0.1,0.3,0.1C704.9-269.3,705-269.4,705.1-269.5 M706.1-270.9c0,0.1,0,0.3,0,0.4c0,0,0,0,0-0.1
					C706.2-270.7,706.2-270.8,706.1-270.9C706.1-270.9,706.1-270.9,706.1-270.9 M705.7-270.4c-0.1,0-0.2-0.1-0.3-0.1c0,0-0.1,0,0,0
					C705.5-270.3,705.7-270.3,705.7-270.4C705.8-270.3,705.8-270.4,705.7-270.4 M705-270c-0.1,0-0.1,0-0.2,0c-0.1,0-0.1,0,0,0
					c0.2,0.1,0.3,0.1,0.5,0.1c0,0.1,0,0.2,0,0.3c-0.3,0-0.5-0.1-0.8-0.1c0,0.1,0,0.1,0.1,0.1c0,0,0,0,0,0c0,0,0.1,0,0.1,0
					c0.3,0,0.6,0,0.9,0.1c0,0-0.1-0.1-0.2-0.1c0,0,0,0-0.1,0c0-0.1,0.1-0.2,0-0.3c0,0,0,0-0.1,0C705.3-270,705.2-270,705-270
					 M705.2-270.3c0,0.1,0,0.1,0,0.2c-0.2,0-0.3-0.1-0.5-0.1c-0.1,0-0.1,0.1,0,0.1c0.2,0,0.3,0,0.4,0.1c0,0,0,0,0,0.1c0,0,0,0,0,0
					c0.2,0.1,0.4,0.1,0.6,0.2c0-0.1-0.1-0.1-0.2-0.1c-0.2-0.1-0.3-0.1-0.5-0.1C705.3-270.2,705.3-270.3,705.2-270.3
					C705.2-270.4,705.2-270.4,705.2-270.3 M705.6-270.8C705.6-270.8,705.6-270.8,705.6-270.8c0,0.2,0.1,0.4,0.3,0.4
					c0.1,0.1,0.2,0.2,0.2,0.3c0-0.1-0.1-0.1-0.1-0.1c-0.1-0.2-0.3-0.4-0.4-0.7C705.7-270.9,705.6-270.9,705.6-270.8
					c0.1,0.1,0.2,0.2,0.2,0.3C705.7-270.5,705.7-270.7,705.6-270.8 M716-266.1c-0.1,0-0.1-0.1-0.2-0.1c-0.3,0-0.5-0.1-0.7-0.3
					c0,0,0,0,0.1-0.1c0,0-0.1,0-0.1,0c0,0,0,0,0,0c0,0,0,0,0-0.1c0,0,0,0-0.1,0c0,0,0,0-0.1-0.1c-0.1,0-0.1,0.1,0,0.1c0,0,0,0,0,0
					c0,0,0,0,0,0c0,0,0,0,0,0c0,0,0,0,0,0c-0.2,0.1-0.3,0.3-0.3,0.5c0,0,0.1,0,0.1-0.1c0.1-0.1,0.2-0.2,0.2-0.3
					c0,0.2,0.1,0.4,0.3,0.5c0,0,0-0.1-0.1-0.1c-0.1-0.2-0.1-0.3-0.1-0.5c0.1,0.1,0.2,0.1,0.2,0.2c0,0,0,0,0,0c0,0.2,0.1,0.3,0.2,0.3
					c0,0,0,0,0-0.1c-0.1-0.1-0.1-0.2-0.2-0.3C715.6-266.1,715.8-266.1,716-266.1 M712.6-265.5c0,0,0.1,0,0.1,0
					c0.1-0.1,0.2-0.2,0.3-0.3c0,0-0.1,0-0.1,0C712.7-265.8,712.6-265.7,712.6-265.5 M713.5-266c-0.1,0.1,0,0.1,0.1,0.2
					c0.3,0.1,0.6,0.1,0.9-0.1c-0.1,0-0.1,0-0.2,0C714-265.8,713.8-265.9,713.5-266 M713-265.6c0-0.1,0.1-0.2,0.1-0.3c0,0,0,0,0,0
					c0,0.3,0.2,0.5,0.4,0.6c0,0,0-0.1-0.1-0.1c-0.1-0.2-0.2-0.3-0.3-0.5c0.2,0.3,0.5,0.4,0.8,0.5c0,0-0.1-0.1-0.2-0.1
					c-0.2-0.1-0.4-0.3-0.6-0.5c0,0,0,0,0,0c0,0,0,0-0.1,0c0,0,0,0,0,0c0,0-0.1,0,0,0.1c0,0,0,0,0,0c-0.2,0.2-0.3,0.4-0.2,0.6
					C713-265.5,713-265.5,713-265.6 M709.9-265.5c-0.1-0.2-0.3-0.3-0.4-0.4c-0.1,0-0.1,0.1,0,0.1c0.2,0.2,0.3,0.3,0.5,0.4
					C710-265.5,710-265.5,709.9-265.5 M708.3-265.8c0-0.3,0.1-0.5,0.3-0.6c-0.1,0-0.1,0-0.2,0.1c-0.2,0.2-0.2,0.4-0.1,0.7
					C708.3-265.6,708.3-265.7,708.3-265.8 M708.8-265.6c-0.1-0.3-0.1-0.5-0.1-0.7c0,0-0.1,0.1-0.1,0.1c0,0.3,0,0.6,0.2,0.7
					C708.9-265.4,708.8-265.5,708.8-265.6 M718.1-268.6C718.1-268.5,718.1-268.5,718.1-268.6c-0.1,0.1-0.1,0.2-0.2,0.3
					c-0.1,0-0.3,0.1-0.4,0.1c0,0,0,0,0,0c-0.1,0-0.1,0.1-0.1,0.1c0,0,0,0,0,0c0,0-0.1-0.1-0.1-0.1c-0.1,0,0,0.1,0,0.2c0,0,0,0,0,0
					c0,0.4,0.2,0.7,0.6,0.8c-0.1,0-0.1-0.1-0.2-0.2c-0.2-0.2-0.3-0.4-0.3-0.6c0.2,0.2,0.4,0.3,0.6,0.3c0.1,0.2,0.3,0.3,0.5,0.2
					c0,0,0-0.1-0.1-0.1c-0.1,0-0.2-0.1-0.3-0.2c0.2,0,0.5,0,0.8-0.1c-0.2,0-0.4-0.1-0.6-0.1c-0.3,0-0.6-0.1-0.9-0.4c0,0,0-0.1,0-0.2
					c0,0,0.1,0,0.1,0c0.1,0,0.2-0.1,0.3-0.1c0,0.1,0,0.2,0.1,0.3c0,0,0-0.1,0-0.1c0-0.1,0-0.2,0-0.3c0,0,0,0,0,0c0,0,0,0,0,0
					C718.1-268.4,718.1-268.5,718.1-268.6 M718.3-270.3c-0.1,0-0.1,0.1-0.1,0.1c-0.1,0.2-0.2,0.5-0.1,0.7c0,0,0,0,0,0
					c-0.4,0.3-0.6,0.6-0.6,1c-0.1,0-0.2,0.1-0.3,0.1c0.1,0,0.2,0,0.4,0c0.3-0.1,0.6-0.2,0.8-0.2c0,0,0,0,0,0c0,0.1,0.1,0.1,0.1,0.2
					c0,0,0,0,0,0c-0.1,0.3-0.1,0.5,0,0.7c0,0,0-0.1,0-0.1c0-0.2,0-0.3,0-0.5c0.2,0.2,0.4,0.4,0.7,0.5c0-0.1-0.1-0.1-0.2-0.1
					c-0.2-0.1-0.4-0.2-0.5-0.4c0,0,0-0.1,0-0.1c0,0-0.1,0-0.1,0c0,0-0.1-0.1-0.1-0.2c0.2,0,0.3,0,0.5,0c0,0,0,0,0,0
					c0.1,0.2,0.3,0.3,0.5,0.3c0,0,0-0.1-0.1-0.1c-0.1-0.1-0.2-0.1-0.3-0.2c0.2,0,0.5,0.1,0.7,0.3c-0.1,0-0.1-0.1-0.2-0.1
					c-0.1-0.1-0.2-0.1-0.3-0.2c0.3-0.3,0.6-0.3,0.9,0c0,0,0-0.1,0-0.1c-0.1-0.1-0.3-0.2-0.4-0.2c-0.1,0-0.1,0-0.2,0.1
					c-0.1,0-0.2,0.1-0.3,0.2c-0.2,0-0.3-0.1-0.5,0c-0.1,0-0.1,0-0.2,0c0,0,0,0,0,0c0,0,0,0,0,0c-0.1,0-0.1,0-0.2,0
					c-0.1,0-0.2,0-0.3,0.1c0,0,0,0,0,0c0.2-0.2,0.5-0.3,0.8-0.4c0,0,0,0,0,0c0,0-0.1,0-0.1,0c-0.1,0-0.3,0-0.4,0.1
					c-0.2,0.1-0.3,0.2-0.5,0.4c-0.1,0-0.2,0.1-0.3,0.1c0-0.2,0.1-0.4,0.2-0.5c0.1-0.1,0.2-0.3,0.4-0.4c0,0,0,0,0,0
					c0.3,0.3,0.6,0.3,1,0.2c-0.1-0.1-0.3-0.1-0.5,0c-0.2,0-0.4,0-0.5-0.2c0.1-0.1,0.1-0.1,0.2-0.2c0,0.1,0,0.1,0,0.2
					c0-0.1,0-0.2,0.1-0.2c0,0,0,0,0.1,0c0,0,0,0,0,0c0.3,0.2,0.6,0.3,0.9,0.1c-0.1-0.1-0.3-0.1-0.5-0.1c-0.1,0-0.2,0-0.3-0.1
					c0.3-0.1,0.5-0.2,0.9-0.3c0,0,0,0,0,0c-0.1,0-0.1,0-0.2,0c-0.2,0.1-0.5,0.2-0.7,0.3c0,0,0,0,0,0c0.1-0.1,0.1-0.3,0.3-0.4
					c0.2-0.2,0.2-0.3,0.1-0.3c-0.1,0.1-0.2,0.2-0.3,0.3c-0.1,0.2-0.2,0.4-0.2,0.5c-0.1,0-0.1,0.1-0.2,0.1c0,0,0,0,0,0
					C718.1-269.9,718.2-270.1,718.3-270.3z"/>
			</g>
		</g>
	</g>
	<g transform="matrix( 2.3602294921875, 0, 0, 2.3602294921875, -1655.5,664.1) ">
		<g>
			<g id="Layer3_0_MEMBER_2_FILL">
				<path class="st5" d="M707.3-264.7c-0.2-0.2-0.5-0.2-0.9-0.3c-1.5-0.1-2.7-0.7-3.7-1.8c-0.1,0.1-0.1,0.2,0.1,0.3
					C704.1-265.2,705.6-264.6,707.3-264.7 M705-268.4c-0.1,0-0.2,0.1-0.3,0.3c-0.2,0.6-0.2,1.1,0.1,1.5c0-0.1,0-0.2,0-0.3
					C704.6-267.5,704.7-268,705-268.4 M705.3-270.3c0.2-0.4,0.6-0.7,1-0.8c0,0,0,0-0.1,0c-0.1,0-0.1,0-0.2,0
					c-0.3,0.1-0.5,0.3-0.7,0.5c-0.2,0.2-0.3,0.5-0.3,0.7C705.2-270,705.2-270.2,705.3-270.3 M704.2-269.9c0-0.2,0.1-0.4,0.3-0.6
					c0.9-0.8,1.9-1.3,2.9-1.5c-0.6,0.1-1.1,0.2-1.6,0.4C704.7-271.3,704.2-270.7,704.2-269.9 M703.5-270.1c0.3-0.3,0.4-0.5,0.2-0.5
					c-0.4,0.3-0.7,0.6-0.8,1.1c-0.5,1.6,0,2.7,1.5,3.1c-1.2-0.4-1.7-1.2-1.5-2.4C702.9-269.3,703.1-269.8,703.5-270.1 M712.8-265.9
					c-0.1,0-0.1,0.1,0,0.1c0.4,0.3,0.7,0.5,1.2,0.4c-0.1-0.1-0.2-0.2-0.4-0.2C713.3-265.6,713-265.7,712.8-265.9 M709.8-264.9
					c-0.3-0.1-0.7-0.2-1.1-0.2c-1.3,0-2.4-0.4-3.4-1.2c-0.1,0.1,0,0.2,0.2,0.4C706.9-265.2,708.3-264.8,709.8-264.9 M708.4-266.4
					c-0.1,0-0.1,0.1-0.1,0.2c0.1,0.5,0.4,0.8,0.8,0.8c0-0.1-0.1-0.2-0.2-0.2C708.6-265.8,708.4-266.1,708.4-266.4 M717.9-267.7
					c-0.1,0.1-0.1,0.2,0,0.3c0.5,0.3,1,0.3,1.4,0c-0.1,0-0.2,0-0.3,0C718.6-267.3,718.2-267.4,717.9-267.7 M720.7-270.3
					c0.1-0.1,0.2,0,0.3,0.1c0.6,1.7,0,2.8-1.9,3.3c0.3,0.1,0.6,0,0.9-0.2c1.6-0.9,1.9-2.1,0.9-3.5c0,0-0.1,0-0.1,0.1
					C720.6-270.4,720.6-270.4,720.7-270.3 M718.6-270C718.6-270,718.6-269.9,718.6-270c0,0.1,0.1,0.1,0.2,0.1
					c0.3-0.1,0.5-0.1,0.7,0.1c0,0,0-0.1,0-0.1c-0.1-0.2-0.3-0.2-0.5-0.2C718.8-270.1,718.7-270,718.6-270 M705.8-269.3
					C705.8-269.3,705.8-269.3,705.8-269.3c-0.1,0-0.2,0-0.2,0.1c0,0.1,0,0.2,0,0.2c0,0.1,0,0.1,0,0.1c0,0.1,0.1,0.1,0.3,0.1
					c0,0,0,0,0,0c0,0,0,0,0,0c-0.1,0-0.1-0.1-0.1-0.1c0,0-0.1-0.1-0.1-0.1c0,0,0,0,0,0c0,0,0,0,0,0
					C705.8-269.1,705.8-269.2,705.8-269.3 M709.3-273.2c0.1-0.1,0.2-0.2,0.3-0.3c-0.4,0.3-0.7,0.6-1,0.9c-0.2,0.2-0.3,0.4-0.4,0.7
					c0,0.1-0.1,0.1-0.1,0.2c-0.5,0.9-0.5,1.7-0.2,2.4c-0.1-0.2-0.1-0.5-0.1-0.7c0-0.2,0.1-0.3,0.1-0.5c0,0,0,0,0,0
					c0.1-0.3,0.2-0.7,0.3-1C708.5-272.1,708.8-272.7,709.3-273.2 M709.9-275C709.9-275,709.9-275,709.9-275c-0.1,0-0.1,0-0.2,0.1
					c-0.1,0-0.2,0.1-0.4,0.2c-0.1,0-0.1,0.1-0.1,0.1c0,0,0,0,0,0.1c0,0,0.1,0,0.1,0c0,0,0,0,0,0c-0.2,0.2-0.4,0.3-0.5,0.5
					c0,0-0.1,0.1-0.1,0.1c0,0,0,0,0,0c0.1,0,0.3-0.1,0.4-0.2c0,0,0,0,0,0c0.3-0.3,0.7-0.6,1.1-0.7c0,0,0,0,0,0c0,0,0,0,0.1,0
					c0,0,0,0,0,0c0,0,0,0,0,0C710.1-275,710-275,709.9-275 M714-273.2c-0.1,0.1-0.2,0.2-0.3,0.3c-0.3,0.8-0.3,1.5-0.1,2.2
					c0,0,0,0,0,0c0-0.1,0-0.3,0-0.5c0-0.1,0-0.1,0-0.2C713.7-272,713.8-272.7,714-273.2C714.1-273.3,714.1-273.2,714-273.2
					 M717.8-270.1c-0.1,0-0.1,0.1-0.1,0.3c0,0.8-0.3,1.5-0.9,2c0.1,0,0.3,0,0.4-0.2C717.7-268.6,717.9-269.3,717.8-270.1
					 M718.5-271.4C718.5-271.4,718.4-271.4,718.5-271.4c0,0.2,0.1,0.4,0.2,0.4c0,0,0-0.1,0-0.1C718.7-271.2,718.6-271.3,718.5-271.4
					 M707.8-267.6c0,0,0-0.1-0.1-0.1c-0.1-0.2-0.2-0.3-0.2-0.4c0,0,0,0,0,0c-0.1,0-0.1,0-0.1,0.1c0,0.2,0.1,0.3,0.1,0.4
					C707.6-267.6,707.7-267.6,707.8-267.6 M710.4-267.3c0,0,0-0.1-0.1-0.1c0,0-0.1,0-0.1,0c-0.2,0-0.4,0.1-0.6,0.1
					c-0.3,0.1-0.5,0.3-0.6,0.5c0.1-0.1,0.3-0.1,0.4-0.2c0.1,0,0.2-0.1,0.3-0.1C710.2-267.2,710.4-267.3,710.4-267.3 M716.6-276.5
					C716.6-276.5,716.6-276.5,716.6-276.5C716.6-276.6,716.6-276.6,716.6-276.5c0-0.1-0.1-0.1-0.2-0.1c0,0,0,0,0,0
					c-0.2,0.1-0.3,0.2-0.3,0.3c0,0.1,0,0.1,0.1,0.2c0.1,0,0.1,0,0.1-0.1c0,0,0-0.1,0-0.1c0,0,0-0.1,0-0.1
					C716.4-276.4,716.5-276.5,716.6-276.5 M715.1-277.2C715.1-277.2,715.1-277.2,715.1-277.2L715.1-277.2
					C715.1-277.2,715-277.2,715.1-277.2c-0.1,0-0.1,0.1-0.2,0.1c0,0,0,0,0,0c-0.1,0.2-0.1,0.5,0,0.7c0,0,0,0,0,0c0,0,0,0,0,0
					c0.1,0,0.1-0.1,0.1-0.1C715-276.8,715-277,715.1-277.2C715.1-277.2,715.1-277.2,715.1-277.2
					C715.1-277.2,715.1-277.2,715.1-277.2z"/>
				<path class="st6" d="M705.6-268.8c0,0.1,0,0.1,0.1,0.2c0,0,0,0,0,0c0.1,0.2,0.2,0.2,0.3,0.1c0,0,0,0,0-0.1c0,0,0-0.1,0-0.1
					c0,0,0,0,0,0c0,0-0.1,0-0.1,0C705.8-268.6,705.7-268.7,705.6-268.8 M705.7-269C705.7-269,705.7-269,705.7-269c0,0.1,0,0.1,0,0.2
					C705.7-268.9,705.7-268.9,705.7-269 M705.8-269.3C705.8-269.3,705.8-269.3,705.8-269.3c0.2,0,0.3,0.2,0.3,0.5c0,0,0,0,0,0
					c0.1-0.3,0-0.6-0.1-0.9c-0.3,0.2-0.4,0.4-0.4,0.7c0-0.1,0-0.1,0-0.2C705.6-269.2,705.7-269.3,705.8-269.3 M708.2-271.5
					C708.2-271.5,708.2-271.5,708.2-271.5c-0.2,0.3-0.3,0.6-0.4,0.9C708-270.9,708.1-271.2,708.2-271.5 M711.1-275.3
					c-0.3,0.1-0.6,0.2-0.9,0.3c-0.1,0.3-0.5,0.5-1,0.7c0,0-0.1,0-0.1,0c0,0,0,0,0,0c-0.1,0.1-0.2,0.2-0.4,0.2
					c-0.2,0.2-0.4,0.4-0.6,0.6c-0.1,0.2-0.1,0.3,0.1,0.3c0.2,0.1,0.4,0,0.6-0.3c0.4-0.5,0.9-0.8,1.5-1.1
					C711.1-274.5,711.4-274.9,711.1-275.3 M714.9-274.8c-0.1,0.1-0.2,0.2-0.2,0.3c-0.3,0.1-0.6,0.3-0.8,0.6l0.3,0
					c-0.5,0.4-1,0.8-1.4,1.2c-0.4,0.9-1.1,1.7-2.1,2.3c-0.2,0.1-0.5,0.2-0.7,0.2c0.9-0.6,1.6-1.4,2.4-2.2c-1.8,1.3-3.1,1.6-3.9,1
					c-0.2,0.3-0.4,0.5-0.5,0.8c0,0.2-0.1,0.3-0.1,0.5c-0.1,0.3,0,0.5,0.1,0.7c-0.3-0.8-0.2-1.6,0.2-2.4c0-0.1-0.1-0.1-0.1-0.2
					l-0.3,0.2c-0.2,0.2-0.5,0.4-0.7,0.7c-0.2,0.2-0.3,0.4-0.4,0.7c1.5,2.5,4.1,1.5,7.6-3c0,0.1-0.1,0.2-0.1,0.2c0,0,0,0,0,0
					c-0.3,0.6-0.4,1.3-0.4,2c0-0.3,0.1-0.5,0.2-0.8c-0.1,0.7,0,1.3,0.1,2.1c0.1-1.4,0.4-2.8,1-4.2c0.1,0,0.1,0,0.2-0.1
					C715.5-274.6,715.4-274.7,714.9-274.8 M706.6-268.5c0.1,0.3,0.2,0.2,0.3,0c0.1-0.6,0-1-0.1-1.4
					C706.3-269.6,706.3-269.1,706.6-268.5 M710.7-267.9c0.7-0.3,1-0.7,0.7-1.1c-1.1,0.9-2.3,1.1-3.5,0.6c-0.1,0-0.1,0-0.1,0
					C708.5-267.5,709.5-267.3,710.7-267.9 M710.3-267.5c0.1,0,0.1,0.1,0.1,0.1c0,0,0,0,0,0c0.3,0,0.6,0,0.9,0c0.1,0,0.1,0,0.1,0.1
					c-0.4,0-0.9,0.1-1.3,0.3c-0.3,0.1-0.5,0.2-0.7,0.3c0,0,0,0.1,0,0.1c0,0.1,0,0.1,0.1,0.1c0.9-0.7,1.9-0.8,3-0.1
					c0.1,0,0.1,0,0.1,0c-0.2-0.6-0.7-0.9-1.6-1c-0.2,0-0.3,0.1-0.5,0.1c-0.1,0-0.2,0-0.3,0.1C710.2-267.4,710.3-267.4,710.3-267.5
					 M716-276c0,0.1,0.1,0.2,0.1,0.1c0.6-0.2,0.7-0.5,0.3-0.9C716.2-276.6,716-276.4,716-276 M716.6-276.5
					C716.6-276.5,716.6-276.5,716.6-276.5c-0.2,0.1-0.2,0.1-0.3,0.1c0,0,0,0.1,0,0.1c0,0,0,0.1,0,0.1c0,0-0.1,0.1-0.1,0.1
					c-0.1,0-0.1-0.1-0.1-0.2c0-0.2,0.2-0.3,0.3-0.3c0,0,0,0,0,0C716.5-276.6,716.5-276.6,716.6-276.5
					C716.6-276.6,716.6-276.6,716.6-276.5 M715.1-277.2C715.1-277.2,715.1-277.2,715.1-277.2L715.1-277.2
					C715.1-277.2,715.1-277.2,715.1-277.2C715.1-277.2,715.1-277.2,715.1-277.2c0,0.2,0,0.4,0,0.7c0,0.1,0,0.1-0.1,0.2c0,0,0,0,0,0
					c0,0,0,0,0,0c0,0,0,0,0,0l0,0c0.1,0.4,0.2,0.4,0.5,0.2c0.1-0.1,0.1-0.2,0.2-0.3c0.2-0.5,0.1-0.8-0.2-1
					C715.2-277.4,715.1-277.3,715.1-277.2C715-277.2,715.1-277.2,715.1-277.2L715.1-277.2z"/>
				<path class="st7" d="M705.8-269.3C705.8-269.3,705.8-269.3,705.8-269.3c0.1,0.1,0,0.2,0,0.3c0,0,0,0,0,0c0,0.1,0,0.1,0,0.2
					c0,0,0.1,0.1,0.1,0.1c0,0,0,0,0,0c0,0,0,0,0,0c0,0,0.1,0,0.1,0c0,0,0,0,0,0c0,0,0-0.1,0-0.1c0,0,0,0,0,0
					C706.1-269,706-269.2,705.8-269.3C705.8-269.3,705.8-269.3,705.8-269.3 M709.2-274.7c-0.2,0.1-0.4,0.2-0.5,0.3
					c-0.2,0.1-0.3,0.3-0.4,0.5c0.1-0.1,0.3-0.1,0.4-0.2C708.9-274.3,709.1-274.4,709.2-274.7C709.3-274.6,709.3-274.6,709.2-274.7
					C709.3-274.6,709.2-274.6,709.2-274.7C709.2-274.6,709.2-274.7,709.2-274.7 M710.2-273.1c0.4-0.3,0.7-0.6,0.7-0.8
					c-0.4,0.2-0.8,0.4-1.2,0.7c-0.6,0.5-1.1,1.1-1.5,1.7c-0.2,0.3-0.3,0.6-0.4,0.9c0,0,0,0,0,0c0.2-0.3,0.3-0.6,0.5-0.8
					C708.9-272,709.5-272.6,710.2-273.1 M710.2-275C710.2-275,710.2-275,710.2-275C710.2-275,710.2-274.9,710.2-275
					C710.2-274.9,710.2-274.9,710.2-275c-0.4,0.2-0.8,0.4-1.1,0.8c0,0,0.1,0,0.1,0C709.8-274.4,710.1-274.7,710.2-275
					C710.2-275,710.2-275,710.2-275C710.2-275,710.2-275,710.2-275 M712.4-272.5c0,0.1-0.1,0.1-0.1,0.2c-0.7,0.8-1.5,1.6-2.4,2.2
					c0.2,0,0.4,0,0.7-0.2c1-0.6,1.7-1.4,2.1-2.3c0-0.1,0-0.1,0.1-0.2C712.6-272.8,712.5-272.7,712.4-272.5 M713.9-272
					c-0.1,0.2-0.2,0.5-0.2,0.8c0,0.1,0,0.1,0,0.2c0,0.2,0,0.3,0,0.5c0,0,0,0,0,0c0,0.2,0,0.4,0.1,0.6c0.1,0.4,0.2,0.7,0.3,0.9
					c0,0,0,0,0,0c0.1,0.1,0.2,0.3,0.3,0.4c0-0.2-0.1-0.4-0.1-0.6c-0.1-0.2-0.1-0.4-0.2-0.6C713.9-270.7,713.9-271.4,713.9-272
					 M707.7-267.7c0,0,0,0.1,0.1,0.1c-0.1,0-0.2,0-0.2-0.1c0.1,0.2,0.2,0.3,0.4,0.4c0-0.1,0-0.2,0-0.3c-0.1-0.4-0.2-0.7-0.2-1
					c-0.1,0-0.1,0.1-0.2,0.2c0,0.1,0,0.2,0,0.2C707.6-268,707.6-267.8,707.7-267.7 M710.4-267.3
					C710.4-267.3,710.4-267.3,710.4-267.3c0,0.1-0.2,0.2-0.6,0.3c-0.1,0-0.2,0.1-0.3,0.1c0,0,0,0,0,0c-0.1,0.1-0.2,0.2-0.2,0.3
					c0.1,0,0.1,0,0.2-0.1c0.2-0.1,0.4-0.2,0.7-0.3c0.4-0.2,0.9-0.3,1.3-0.3c0-0.1,0-0.1-0.1-0.1C711-267.3,710.7-267.3,710.4-267.3
					 M714.9-276.3c0,0,0.1-0.1,0.1-0.2c0-0.3,0.1-0.5,0.1-0.7c-0.1,0.2-0.1,0.4-0.1,0.7C715-276.4,715-276.4,714.9-276.3
					C714.9-276.3,714.9-276.3,714.9-276.3 M714.9-276.4L714.9-276.4c-0.1-0.2-0.1-0.4,0-0.7C714.7-276.8,714.7-276.6,714.9-276.4
					 M715.1-277.2C715.1-277.2,715.1-277.2,715.1-277.2C715.1-277.2,715.1-277.2,715.1-277.2L715.1-277.2z"/>
				<path class="st8" d="M708.1-271.9c0.1-0.2,0.3-0.5,0.4-0.7c-0.2,0.2-0.4,0.4-0.6,0.7c0,0.1,0.1,0.1,0.1,0.2
					C708.1-271.8,708.1-271.9,708.1-271.9 M714.1-273.8l-0.3,0c0.1-0.5-0.6-0.6-2.2-0.4c-0.8,0.1-1.7,0.4-2.4,1.1
					c-0.5,0.5-0.8,1.1-1.1,1.7c0,0,0,0,0,0c0.4-0.7,0.9-1.2,1.5-1.7c0.4-0.3,0.8-0.5,1.2-0.7c-0.1,0.2-0.3,0.5-0.7,0.8
					c-0.7,0.5-1.3,1.1-1.8,1.7c0.8,0.6,2,0.3,3.9-1c0-0.1,0.1-0.1,0.1-0.2c0.1-0.1,0.2-0.2,0.3-0.3c0,0.1,0,0.1-0.1,0.2
					C713.1-273,713.6-273.4,714.1-273.8z"/>
				<path class="st9" d="M718-271.8c0-0.1,0-0.2-0.1-0.3c-0.1-0.4-0.3-0.8-0.5-1.1c-0.1-0.4-0.3-0.7-0.5-1c0.6,3.6-0.6,5.7-3.6,6.2
					c0.8,0.8,1.7,1.3,2.7,1.3c0.1,0,0.1-0.1,0.2-0.1c0.2-0.1,0.3-0.3,0.3-0.4c0.2,0.1,0.4,0,0.7-0.2c0.3-0.2,0.5-0.5,0.7-0.8
					c0.1-0.2,0.2-0.4,0.1-0.6c0.3-0.4,0.4-0.9,0.3-1.4c0,0,0,0,0,0c0,0,0.1,0,0.1-0.1c0.1,0,0.3,0,0.4-0.1c0.5,0,0.6-0.2,0.3-0.4
					C719-271.4,718.6-271.7,718-271.8C718-271.8,718-271.8,718-271.8 M718.5-271.4C718.4-271.4,718.5-271.4,718.5-271.4
					c0.2,0.1,0.2,0.2,0.3,0.3c0,0,0,0.1,0,0.1C718.6-271,718.5-271.2,718.5-271.4 M717.6-269.9c0-0.2,0-0.2,0.1-0.3
					c0.2,0.8-0.1,1.5-0.6,2.1c-0.1,0.1-0.3,0.2-0.4,0.2C717.4-268.4,717.7-269,717.6-269.9 M718.6-270.8
					C718.6-270.8,718.6-270.8,718.6-270.8C718.6-270.8,718.6-270.8,718.6-270.8C718.6-270.8,718.6-270.8,718.6-270.8z"/>
				<path class="st10" d="M717-275.8c0-0.1,0-0.2-0.1-0.4c0-0.1,0-0.1,0-0.2c0-0.2-0.1-0.4-0.4-0.5c0,0-0.1,0-0.1,0
					c-0.2,0.1-0.4,0.2-0.5,0.4c0-0.1,0.1-0.2,0.1-0.3c0.1-0.2,0.1-0.4,0.1-0.5c0-0.1,0-0.1,0-0.2c0-0.1,0-0.2-0.1-0.4c0,0,0,0,0,0
					c0,0,0,0-0.1,0c0,0-0.1,0-0.1,0c0,0,0,0-0.1,0c-0.1,0-0.2,0.1-0.3,0.1c-0.8,0.3-1,0.8-0.7,1.6c-0.3,0.3-0.6,0.5-1,0.7
					c-0.2-0.1-0.5-0.2-0.7-0.2c-0.1,0-0.1,0-0.2,0c-0.9,0-1.8,0.1-2.6,0.4c-0.1,0-0.1,0-0.2,0.1c0.1,0,0.2,0,0.3,0c0,0,0,0,0,0
					c0,0,0,0,0.1,0c0,0,0,0,0,0.1c0.3-0.1,0.6-0.2,0.9-0.3c0.3,0.4,0,0.7-0.8,1c-0.6,0.2-1.1,0.6-1.5,1.1c-0.2,0.2-0.4,0.3-0.6,0.3
					c-0.2,0-0.2-0.2-0.1-0.3c0.2-0.2,0.4-0.5,0.6-0.6c0,0,0,0,0,0c0,0,0.1-0.1,0.1-0.1c-0.1,0.1-0.3,0.1-0.4,0.2
					c0.1-0.2,0.2-0.3,0.4-0.5c-0.7,0.5-1.1,1.2-1.1,2.2c0,0.2,0,0.3,0.1,0.4c0,0,0,0,0,0l0.3-0.2c0.2-0.2,0.4-0.5,0.6-0.7
					c0.3-0.4,0.6-0.7,1-0.9c-0.1,0.1-0.2,0.2-0.3,0.3c0.8-0.6,1.6-1,2.4-1.1c1.5-0.2,2.2-0.1,2.2,0.4c0.3-0.3,0.5-0.5,0.8-0.6
					c0.1-0.1,0.2-0.2,0.2-0.3c0.4,0,0.5,0.2,0.3,0.5c0,0.1-0.1,0.1-0.2,0.1c-0.6,1.4-0.9,2.8-1,4.2c0,0.2,0.1,0.4,0.2,0.6
					c0.1,0.2,0.1,0.4,0.1,0.6c-0.1-0.1-0.2-0.2-0.3-0.4c0,0,0,0,0,0c-0.1-0.2-0.3-0.6-0.3-0.9c0-0.2-0.1-0.4-0.1-0.6
					c-0.2-0.7-0.2-1.4,0.1-2.2c0.1-0.2,0.1-0.3,0.3-0.3c0-0.1,0.1-0.2,0.1-0.2c-3.5,4.5-6.1,5.5-7.6,3c-0.1,0.2-0.2,0.4-0.2,0.6
					c0,0,0,0-0.1,0c-0.3,0.1-0.5,0.3-0.6,0.5c-0.1,0.2-0.1,0.3,0,0.5c0,0,0,0.1,0,0.2c0,0.1,0,0.2,0.1,0.2c0,0,0,0,0,0c0,0,0,0,0,0
					c0-0.1-0.1-0.1-0.1-0.2c0,0,0-0.1,0-0.1c0-0.3,0.1-0.5,0.4-0.7c0.2,0.2,0.2,0.5,0.1,0.9c0,0,0,0.1,0,0.1c0,0,0,0.1,0,0.1
					c0,0,0,0,0,0.1c0.1,0,0.2,0,0.4-0.1c0,0,0,0,0,0c0.1,0.6,0.4,1.1,1,1.4c0.3,0.2,0.6,0.3,0.9,0.3c0,0.1,0.1,0.2,0.2,0.3
					c0.2,0.2,0.4,0.3,0.7,0.3c0,0.1,0.2,0.2,0.4,0.3c0.4,0.2,0.9,0.2,1.4,0.1c0.2,0,0.4-0.1,0.5-0.3c0.9,0.3,1.9,0.3,2.8-0.1
					c0.1,0,0.1-0.1,0.2-0.1c0.2,0.1,0.5,0.1,0.8,0c0.3-0.1,0.6-0.3,0.8-0.4c-1,0-1.9-0.4-2.7-1.3c3.1-0.5,4.3-2.5,3.6-6.2
					c-0.1-0.1-0.1-0.2-0.2-0.3c-0.1-0.1-0.2-0.3-0.4-0.4c0-0.1,0-0.2,0-0.3c0.1,0,0.2,0,0.3,0c0.2,0,0.3-0.1,0.4-0.2
					C717.1-275.5,717.1-275.7,717-275.8 M714.9-277.1C714.9-277.1,714.9-277.1,714.9-277.1c0-0.1,0.1-0.1,0.1-0.1
					c0.1-0.1,0.2-0.2,0.3-0.3c0.3,0.2,0.4,0.5,0.2,1c-0.1,0.1-0.1,0.2-0.2,0.3c-0.3,0.2-0.4,0.2-0.5-0.2
					C714.7-276.6,714.7-276.8,714.9-277.1 M716.2-275.8c-0.1,0-0.1,0-0.1-0.1c0-0.4,0.1-0.6,0.4-0.8
					C716.9-276.4,716.8-276.1,716.2-275.8 M710.4-267.5c0.2,0,0.4-0.1,0.5-0.1c0.9,0,1.5,0.4,1.6,1c0,0,0,0-0.1,0
					c-1.1-0.6-2.1-0.6-3,0.1c-0.1,0.1-0.1,0-0.1-0.1c0,0,0-0.1,0-0.1c-0.1,0-0.1,0-0.2,0.1c0-0.1,0.1-0.2,0.2-0.3c0,0,0,0,0,0
					c-0.2,0.1-0.3,0.1-0.4,0.2c0.1-0.3,0.3-0.4,0.6-0.5c0.2-0.1,0.4-0.1,0.6-0.1C710.3-267.5,710.4-267.5,710.4-267.5 M711.4-269
					c0.3,0.4,0.1,0.8-0.7,1.1c-1.2,0.6-2.2,0.4-2.9-0.5c0-0.1,0-0.1,0.1,0C709.1-267.9,710.3-268.1,711.4-269 M707.9-267.5
					c0,0.1,0,0.2,0,0.3c-0.2-0.1-0.3-0.2-0.4-0.4c-0.1-0.1-0.1-0.2-0.1-0.4c0-0.1,0-0.1,0.1-0.1c0,0,0,0,0,0c0-0.1,0-0.2,0-0.2
					c0-0.1,0.1-0.2,0.2-0.2C707.7-268.2,707.8-267.8,707.9-267.5 M706.9-268.5c0,0.3-0.1,0.3-0.3,0c-0.4-0.6-0.3-1.1,0.2-1.4
					C706.9-269.6,707-269.1,706.9-268.5z"/>
			</g>
		</g>
	</g>
	<g transform="matrix( 2.3602294921875, 0, 0, 2.3602294921875, -1655.5,664.1) ">
		<g>
			<g id="Layer3_0_MEMBER_3_MEMBER_0_FILL">
				<path class="st11" d="M704.6-269.1c0.4,0.1,0.7,0,1.1-0.3C705.4-269.2,705-269.1,704.6-269.1 M704-267c0.1-0.2,0.3-0.4,0.5-0.6
					c-0.1-0.1-0.2-0.1-0.3-0.1c0,0-0.1,0-0.1,0c0,0.1,0.2,0.2,0.4,0.2c-0.4,0.1-0.6,0.4-0.5,0.7c0,0.1,0.1,0.1,0.2,0.1
					c0.2,0,0.3,0,0.5,0c-0.2,0-0.4,0-0.5,0C704-266.8,704-266.9,704-267 M705.8-267.1c0.1,0,0.1-0.1,0.2-0.1
					C706-267.2,706-267.2,705.8-267.1C705.9-267.2,705.9-267.2,705.8-267.1C705.9-267.2,705.9-267.2,705.8-267.1
					c-0.2,0-0.4,0.1-0.6,0.2c-0.1,0.1-0.2,0.1-0.4,0.2C705.2-266.8,705.5-266.9,705.8-267.1c-0.2,0.2-0.2,0.3-0.2,0.5
					c0,0.1,0,0.1,0.1,0.1c0.1,0,0.1,0,0.2,0C705.7-266.6,705.7-266.8,705.8-267.1 M705.6-268.7C705.6-268.7,705.5-268.7,705.6-268.7
					c-0.2-0.1-0.3-0.1-0.4-0.1c0,0-0.1,0-0.1,0c-0.2,0.1-0.5,0.1-0.7,0.3c-0.1,0-0.1,0.1-0.1,0.2c0.1,0.1,0.2,0.1,0.3,0.1
					c0,0,0,0,0,0c0,0-0.1,0.1-0.2,0.1c-0.2,0-0.3,0.1-0.2,0.3c0,0,0,0,0,0c0,0,0,0,0,0c0-0.1,0.1-0.1,0.2-0.2c0.1,0,0.3-0.1,0.3-0.2
					c-0.1,0-0.2-0.1-0.3-0.2c0,0,0,0,0,0c0.1-0.1,0.2-0.2,0.3-0.2C705-268.7,705.3-268.7,705.6-268.7 M707.4-268.5c0,0,0,0.1,0,0.1
					c-0.1,0.4-0.1,0.8,0.2,1C707.3-267.8,707.3-268.1,707.4-268.5 M707.4-268.7c0-0.1,0.1-0.1,0.1-0.2c0.2-0.4,0.3-0.7,0.4-1
					C707.8-269.5,707.6-269.1,707.4-268.7 M704.8-270c-0.1,0-0.1,0-0.1,0c0,0,0,0.1,0,0.1c-0.2,0.1-0.4,0.3-0.5,0.5c0,0,0,0.1,0,0.1
					c0.1,0,0.1,0.1,0.2,0.1C704.3-269.5,704.4-269.7,704.8-270c0,0.1,0.2,0.1,0.5,0.1c0-0.1-0.1-0.1-0.2-0.1c0,0,0,0,0.1,0
					c0,0,0,0,0,0c0,0-0.1,0-0.1,0C704.9-270,704.9-270,704.8-270 M704.7-270.2c0-0.1,0.1-0.1,0.2-0.2c0.2-0.1,0.4-0.2,0.6-0.1
					c0,0,0,0,0.1,0c0,0,0,0,0,0c0,0,0,0,0.1,0c0,0,0-0.1,0-0.1c0,0,0,0-0.1,0c0-0.1,0-0.1,0.1-0.2c0.4-0.5,0.9-0.6,1.3-0.1
					c0,0-0.1-0.1-0.1-0.1c-0.2-0.2-0.4-0.3-0.7-0.3c-0.2,0-0.3,0.1-0.5,0.3c-0.2,0.2-0.2,0.3-0.2,0.4c-0.1,0-0.2,0-0.3,0
					c-0.1,0.1-0.2,0.1-0.3,0.2C704.8-270.4,704.7-270.3,704.7-270.2 M716.3-266.4c0.2,0.1,0.4,0.2,0.6,0.2
					C716.8-266.4,716.7-266.5,716.3-266.4 M716.3-266.5C716.3-266.5,716.3-266.5,716.3-266.5C716.2-266.5,716.2-266.5,716.3-266.5
					C716.3-266.5,716.3-266.5,716.3-266.5C716.3-266.5,716.3-266.5,716.3-266.5 M712.9-265.1c0.2,0.1,0.3,0.1,0.4,0
					c0.2-0.1,0.4-0.1,0.6-0.1c0.5,0.2,0.7,0.1,0.9-0.3c0.4,0.1,0.9,0.2,1.4,0.1c0.4,0,0.6-0.2,0.7-0.6c0-0.1,0-0.2,0-0.2
					c0,0,0,0,0,0c0,0.1,0,0.2-0.1,0.2c-0.6,0.4-1.3,0.6-2.1,0.4c0,0.1,0,0.1,0,0.1c0,0.1-0.1,0.1-0.1,0.1c-0.4,0-0.7,0-1.1,0
					c-0.1,0-0.1,0-0.1,0c-0.6,0.1-1-0.2-1.2-0.8C712.2-265.6,712.4-265.3,712.9-265.1 M716.3-267.2c0,0-0.1,0.1-0.1,0.1
					c-0.5,0.5-1.1,0.7-1.8,0.8c0.1,0,0.3,0,0.4,0C715.5-266.4,716-266.7,716.3-267.2 M715.1-267.4c-0.1,0-0.1,0-0.2,0
					c-0.4,0.1-0.7,0.1-1.1,0.1C714.3-267.3,714.7-267.3,715.1-267.4c-0.1,0.4-0.2,0.6-0.4,0.8c-0.1,0.1-0.3,0.2-0.4,0.2
					c-0.9,0.3-1.8,0.4-2.8,0.4c0.5,0,1,0.1,1.5,0.1C714.1-266,714.8-266.5,715.1-267.4C715.1-267.4,715.1-267.4,715.1-267.4
					 M710.6-266.1C710.6-266.1,710.6-266.1,710.6-266.1L710.6-266.1C710.6-266.1,710.6-266.1,710.6-266.1 M708.8-265.7
					C708.8-265.6,708.8-265.6,708.8-265.7c0,0.1-0.1,0.1-0.1,0.1c-0.1,0.1-0.2,0.1-0.4,0c-0.3-0.2-0.4-0.5-0.1-0.8
					c0.1-0.1,0.1-0.2,0.1-0.2c0.2,0.2,0.4,0.3,0.7,0.4c0-0.1-0.1-0.1-0.1-0.1c-0.3-0.1-0.5-0.2-0.6-0.5c-0.1,0-0.1,0.1,0,0.1
					c0,0-0.1,0.1-0.1,0.2c-0.1,0.2-0.1,0.4-0.1,0.6c0.1,0.5,0.4,0.6,0.8,0.4c0,0.2,0.2,0.3,0.4,0.3c0.3,0,0.4,0,0.5-0.1
					c0.4,0.3,0.7,0.3,1.1-0.1c0.3-0.3,0.3-0.5,0.1-0.6c0.2,0,0.3-0.1,0.5-0.2c-0.1,0-0.3,0-0.5,0.1c-0.9,0.2-1.6,0.1-2.2-0.5
					c0,0.1,0,0.1,0.2,0.2c0.6,0.4,1.2,0.6,1.9,0.4c0,0,0,0.1,0.1,0.1c0.1,0.3-0.1,0.6-0.4,0.7c-0.3,0.1-0.6,0-0.7-0.1
					c0-0.1,0-0.2-0.2-0.3c0,0.1,0.1,0.1,0.1,0.2c0,0,0,0.1,0,0.1c0,0-0.1-0.1-0.1-0.2c0,0.1,0,0.1,0.1,0.2
					C709.2-265.1,709-265.2,708.8-265.7c0.1,0.1,0.1,0.1,0.1,0.1C708.9-265.6,708.9-265.6,708.8-265.7
					C708.8-265.6,708.8-265.7,708.8-265.7C708.8-265.7,708.8-265.7,708.8-265.7 M711.4-267.8c-0.1,0-0.3,0-0.4,0.1
					c-0.5,0.1-0.9,0.2-1.3,0.4c-0.3,0.2-0.6,0.4-0.7,0.6c0.2-0.2,0.5-0.4,0.7-0.5c0.5-0.3,1.1-0.4,1.7-0.4c0.7,0,1.4,0.1,2.1,0.1
					c-0.2,0-0.3-0.1-0.5-0.1C712.4-267.7,711.9-267.7,711.4-267.8 M708.4-270.6c0.1-0.2,0.3-0.4,0.5-0.6c1.2-1.2,2.5-2.2,4-2.9
					c-0.5,0.2-1,0.5-1.5,0.7C710.2-272.7,709.2-271.8,708.4-270.6 M714.8-277.2c0.2-0.2,0.5-0.4,0.7-0.5c0,0-0.1,0-0.1,0
					c-0.2,0.1-0.3,0.1-0.4,0.2c-0.5,0.3-0.5,0.7-0.2,1.1c0-0.1-0.1-0.1-0.1-0.2C714.6-276.8,714.6-277,714.8-277.2 M716.1-277.7
					c0,0-0.1-0.1-0.2-0.1c-0.1,0-0.1,0.1-0.2,0.1c-0.1,0-0.2,0.1-0.2,0.1C715.7-277.6,715.8-277.7,716.1-277.7 M716.1-277.7
					c0.1,0.2,0,0.4,0,0.5c-0.3,0.7-0.3,1.4,0.1,1.9c-0.3-0.6-0.3-1.2-0.1-1.8C716.2-277.3,716.2-277.5,716.1-277.7 M718-265.1
					c0.7-0.2,1.4-0.4,2-0.7c0.9-0.4,1.6-1,2.1-1.8c-0.1,0.1-0.2,0.1-0.2,0.2C720.8-266.3,719.5-265.5,718-265.1 M718.2-268.1
					c0,0,0.1,0,0.1,0c-0.1-0.1-0.2-0.1-0.3-0.2C718.1-268.2,718.2-268.1,718.2-268.1 M720-269.2c0.2-0.2,0.2-0.4-0.1-0.4
					c-0.1,0-0.1,0-0.2-0.1c0.1,0.1,0.2,0.2,0.4,0.2c-0.2,0.2-0.2,0.4,0.1,0.5c0.2,0.1,0.4,0.2,0.5,0.3
					C720.6-268.9,720.3-269.1,720-269.2 M720.9-268.4C720.9-268.4,720.9-268.4,720.9-268.4c0,0-0.1,0.1-0.1,0.1
					c-0.2,0.2-0.5,0.3-0.8,0.4c0,0,0,0,0-0.1c0,0,0,0,0,0.1c-0.1,0-0.2,0.1-0.3,0.1c0,0,0,0,0,0c0.1,0,0.2,0,0.4,0
					c-0.1,0.5-0.5,0.8-1.1,0.9c-0.6,0.1-1.1,0-1.5-0.4c0.3,0.5,0.8,0.7,1.5,0.5c0.7-0.1,1-0.5,1-1c0.3,0,0.6-0.1,0.8-0.3
					C720.9-268.2,720.9-268.3,720.9-268.4 M719.6-271.2c0.1,0,0.2,0,0.2,0.1c0.9,0.4,1.6,1,2.2,1.7c0.1,0.1,0.1,0.2,0.1,0.3
					c-0.1,0.8-0.4,1.4-1,1.9c-0.1,0.1-0.2,0.1-0.2,0.2c-1.1,1-2.4,1.6-3.9,1.9c-0.9,0.2-1.9,0.3-2.8,0.5c-1.7,0.3-3.4,0.3-5.1,0.1
					c-0.5-0.1-1-0.1-1.4-0.2c-1.7-0.2-3.3-0.8-4.7-1.8c-0.4-0.3-0.7-0.6-0.9-0.9c-0.6-0.9-0.5-1.7,0.4-2.4c1.3-1.1,2.8-1.9,4.5-2.2
					c0.3-0.1,0.5-0.1,0.7-0.2c0,0.1,0,0.2,0.1,0.3c-0.3,0.3-0.6,0.7-0.9,1.1c-0.2,0.3-0.4,0.6-0.5,0.9c0,0,0,0,0,0c0,0-0.1,0-0.1,0
					c-0.2,0.1-0.4,0.4-0.6,0.6c-0.1,0.2-0.1,0.4,0,0.6c0.1,0.4,0.4,0.4,0.8,0.2c0,0,0,0,0,0.1c0.2,0.6,0.5,1,1,1.3
					c-0.3,0.4-0.7,0.6-1.2,0.8c0.5-0.1,0.9-0.3,1.2-0.8c0.2,0.1,0.5,0.2,0.7,0.3c-0.3-0.1-0.5-0.2-0.7-0.3c0,0,0,0,0,0c0,0,0,0,0,0
					c-0.2-0.1-0.4-0.3-0.5-0.5c-0.7-1-0.7-2,0.1-3c0.9-1.2,2-2.2,3.3-3c0.4-0.3,0.8-0.5,1.2-0.7c1-0.5,2-0.5,2.9,0
					c-0.1,0.4-0.3,0.8-0.6,1.2c-0.7,1.1-1,2.2-0.9,3.5c0.1,1,0.6,1.8,1.6,2.2c-0.5-0.3-0.9-0.7-1.2-1.1c-0.1-0.1-0.1-0.3-0.2-0.4
					c-0.3-1.7,0-3.3,1-4.8c0.7-1,0.8-1.9,0.3-2.9c0,0,0,0,0,0c0.2,0.4,0.3,0.8,0.2,1.3c-0.1,0.3-0.1,0.7-0.2,1
					c0-0.1-0.1-0.1-0.2-0.2c-0.4-0.2-0.9-0.3-1.3-0.3c-0.6,0.1-1.1,0.3-1.7,0.5c-0.3,0.1-0.6,0.3-0.8,0.4c-1,0.6-1.9,1.3-2.7,2.1
					c0-0.1,0-0.2,0-0.4l0,0h0c0-0.2,0-0.3,0-0.5c0-0.3,0.1-0.6,0.4-0.9c0.6-0.6,1.2-1.1,2-1.5c0.3-0.1,0.6-0.2,0.9-0.2
					c0.7-0.1,1.4-0.1,2.1,0c0.5,0,1-0.1,1.3-0.4c-0.3,0.1-0.6,0.2-0.9,0.2c-0.9,0-1.7,0.1-2.5,0.2c-0.3,0-0.5,0.1-0.8,0.2
					c-0.3,0.1-0.5,0.3-0.8,0.4c-0.8,0.3-1.4,0.9-1.6,1.7c-0.1,0.3-0.1,0.6-0.1,0.8c-1.6,0.3-3.1,0.9-4.5,1.8
					c-0.7,0.5-1.2,1.1-1.5,1.9c-0.1,0.2,0,0.4,0,0.5c0,0,0,0.1,0,0.1c0.2,0.6,0.5,1.1,0.9,1.6c0,0,0-0.1,0-0.1
					c0.2,0.3,0.6,0.5,1,0.7c0.7,0.4,1.4,0.7,2.2,1c0.5,0.2,1,0.3,1.5,0.4c3.3,0.6,6.4,0.4,9.5-0.5c-0.5,0.1-1.1,0.2-1.6,0.3
					c-1.7,0.4-3.4,0.5-5.1,0.4c-1-0.1-2-0.2-3.1-0.4c-1.7-0.4-3.2-1-4.5-2.1c0-0.1-0.1-0.1-0.1-0.2c-0.3-0.4-0.5-0.7-0.6-1.1
					c0.7,1.1,1.7,1.9,3,2.3c1.1,0.4,2.3,0.7,3.4,0.9c1.9,0.3,3.8,0.3,5.7,0.1c1.8-0.2,3.5-0.7,5.2-1.3c0.8-0.3,1.4-0.7,1.9-1.2
					c0.5-0.5,0.9-1.1,1.2-1.7c0,0,0,0,0,0c0,0.4-0.1,0.7-0.1,1.1c0-0.1,0.1-0.1,0.1-0.2c0.1-0.4,0.1-0.8,0.1-1.1c0,0,0,0,0,0
					c0-0.1,0-0.2-0.1-0.3c-0.3-0.4-0.5-0.8-0.9-1.1C720.9-270.8,720.3-271.1,719.6-271.2C719.6-271.2,719.6-271.2,719.6-271.2
					 M705.8-268.5C705.8-268.5,705.7-268.5,705.8-268.5c-0.3-0.7-0.1-1.1,0.6-1.3c-0.1,0.4-0.1,0.9,0.1,1.3
					C706.2-268.5,706-268.5,705.8-268.5 M718.1-271.8L718.1-271.8c0.2,0,0.4,0.1,0.5,0.3c0.2,0.2,0.4,0.5,0.5,0.7
					c-0.2,0-0.4,0.1-0.6,0.2c-0.1,0-0.2,0.1-0.2,0.2c0,0,0,0,0,0c0.3-0.1,0.5-0.2,0.8-0.3c0,0.1,0,0.1,0,0.2c0-0.1,0-0.1,0-0.2
					c0.3,0,0.6,0,0.8,0.1c0,0.1-0.1,0.1-0.2,0.2c-0.1,0.1-0.2,0.3-0.2,0.4c0,0,0,0,0,0.1c0,0,0,0,0,0c0.1-0.2,0.2-0.4,0.4-0.5
					c0.1,0,0.1-0.1,0-0.2c0,0-0.1-0.1-0.1-0.1c-0.3-0.1-0.5-0.1-0.8-0.1c0,0,0,0,0,0c0,0,0,0,0-0.1
					C719-271.4,718.7-271.7,718.1-271.8 M718-271.8c0,0.2,0.1,0.3,0.1,0.5c0.2,1.1,0.1,2.1-0.4,3c-0.4,0.8-1,1-1.8,0.8
					c0,0,0,0.1,0.1,0.1c0.4,0.2,0.8,0.1,1.1-0.1c0.4-0.3,0.7-0.8,0.9-1.3c0.2-0.6,0.3-1.2,0.2-1.8c-0.1-1.7-0.8-3.2-1.9-4.5
					c0,0,0,0,0,0C717.1-274.1,717.7-273,718-271.8 M717-276.2c0,0.1,0,0.2,0,0.3c0.1,0.4-0.1,0.6-0.6,0.6c0.1,0.1,0.2,0.1,0.3,0.1
					C717.2-275.4,717.3-275.7,717-276.2c0,0,0-0.1,0-0.1c0-0.4-0.2-0.6-0.5-0.6c-0.1,0-0.1,0.1-0.2,0.1c-0.1,0.1-0.3,0.2-0.3,0.3
					c0.1,0,0.2-0.1,0.2-0.2c0.1-0.1,0.2-0.2,0.3-0.1C716.9-276.7,717-276.5,717-276.2z"/>
			</g>
		</g>
	</g>
</g>
</svg>
