<?xml version="1.0" encoding="utf-8"?>
<!-- Generator: Adobe Illustrator 19.2.1, SVG Export Plug-In . SVG Version: 6.00 Build 0)  -->
<svg version="1.1" id="Слой_1" xmlns="http://www.w3.org/2000/svg" xmlns:xlink="http://www.w3.org/1999/xlink" x="0px" y="0px"
	 viewBox="0 0 50 50" style="enable-background:new 0 0 50 50;" xml:space="preserve">
<style type="text/css">
	.st0{fill:#E30118;}
	.st1{fill:#FA8E7D;}
	.st2{fill:#BD0000;}
	.st3{fill:#DC0117;}
	.st4{fill:#C40000;}
	.st5{fill:#D93636;}
	.st6{fill:#FA837D;}
	.st7{fill:#78A73D;}
	.st8{fill:#4A8200;}
	.st9{fill:#FFE8EA;}
	.st10{fill:#C2D879;}
	.st11{fill:#8A001D;}
	.st12{fill:#22703E;}
	.st13{fill:#EAF5BF;}
	.st14{fill:#C20000;}
</style>
<g>
	<g>
		<path class="st0" d="M36.1,17.7c0.6,0.9,0.8,1.8,0.4,2.9c-0.4,1.1-1.5,2.3-2.4,3.1c-3.2,2.7-2.9,3.9-5.9,6.8
			c-3.7,3.5-8.2,5.8-13.3,5.2C9.7,35.1,5.7,30.9,1.1,32c0,0,0,0,0,0c4-3.4,11.6-0.7,16.7-3.5c6.2-3.5,7.8-7.2,9-9.5
			c0.9-1.7,2.2-3.8,4.2-4.1c0.6-0.1,1.3,0,2,0.4c0.1,0.1,0.3,0.1,0.4,0.2L36.1,17.7z"/>
		<path class="st1" d="M2.5,31.2c0,0,1.9-1.1,3.7-0.4C6.2,30.9,4.1,31,2.5,31.2z"/>
		<path class="st2" d="M30.8,17.6c0.4,0.8,1.1,2,1.9,2.6s1.5,0.4,2.4,0.3c0.5,0,0.9-0.2,1.2-0.6c0.2-0.4,0.1-0.9-0.1-1.4
			c-0.3-0.6-0.6-1.1-1-1.5c-0.4-0.6-0.9-1.1-1.4-1.5c-0.6-0.4-1.2-0.4-1.9-0.4c-0.5,0-0.9,0.2-1.1,0.7
			C30.5,16.4,30.5,17.1,30.8,17.6z"/>
		<path class="st3" d="M33.5,15.5c1,0.6,2,1.3,2.6,2.3L33.5,15.5z"/>
		<path class="st4" d="M36.5,20.6c-0.4,1.1-1.5,2.3-2.4,3.1c-3.2,2.7-2.7,4.2-5.7,7.1c-3.7,3.5-8.4,5.5-13.6,4.9
			C9.7,35.1,5.7,30.9,1.1,32c0,0,0,0,0,0c0.9-0.4,3.5-0.8,6.1,0.1c2.8,1,7.6,3.2,12.2,2c5.3-1.4,7.4-5.9,9.8-9.1
			c2.4-3.2,4.2-4.1,4.9-4.5c0.7-0.4,1.2-1.2,0.5-2.7c-0.5-1.3-1.1-2.3-3.7-2.9c0.6-0.1,1.3,0,2,0.4C35.2,16.3,37.3,18.4,36.5,20.6z"
			/>
		<path class="st5" d="M36.5,20.6c-0.4,1.1-1.5,2.3-2.4,3.1c-3.2,2.7-2.7,4.2-5.7,7.1c-3.7,3.5-8.4,5.5-13.6,4.9
			C9.7,35.1,5.7,30.9,1.1,32c0,0,0,0,0,0c0.9-0.4,3-0.6,5.9,0.5c2.8,1,7.6,3.7,12.7,2.4c7-1.8,7.6-6.1,10.6-8.7
			c3-2.6,3.2-5.2,3.9-5.6c0.7-0.4,1.2-1.2,0.5-2.7c-0.5-1.3-1.1-2.3-3.7-2.9c0.6-0.1,1.3,0,2,0.4C35.2,16.3,37.3,18.4,36.5,20.6z"/>
		<path class="st2" d="M35.9,20c-0.5,0-0.9-0.1-1.4-0.2c-0.3,0-0.3,0.1-0.6,0c-1.3,0-2.8,0.8-3.4,2.1c-0.6,1.5-1.1,3.6-1.5,5.1
			c-0.5,1.8-1.3,3.8-2.6,5.3c2.7-1.1,6.8-4.2,8.6-6.5c1.1-1.4,2-3.1,2.3-4.8c0-0.2-0.1-0.3-0.1-0.5c0-0.1-0.1-0.4-0.1-0.4
			c-0.1-0.2-0.1-0.3-0.2-0.5C36.7,19.9,36.3,20,35.9,20z"/>
		<path class="st6" d="M21.4,34.8c-5.5,1.9-9.8-0.6-12-1.5c-2.2-1-5.1-2.2-7.9-1.4c2.7-0.1,6.6,1.3,8,2.1
			C10.9,34.7,16.4,37,21.4,34.8z"/>
		<path class="st7" d="M42.4,1.7C42.4,1.7,42.4,1.7,42.4,1.7C42.4,1.7,42.4,1.7,42.4,1.7c-2.6,2-4.7,3.6-5.1,7.9
			c-0.3,2.7-0.6,4.5-1.1,6.7c-0.3,1.4,0.1,2.3,0.1,3.3c0,0.4-0.3,0.7-0.8,0.7c-0.5,0.1-1.3-0.2-2-0.7c-1.3-0.9-2.1-2-2.4-3.3
			c-0.1-0.6,0.3-1.1,1.2-0.9c2.1,0.3,2.6,0.3,3.3-3.5c0.2-1.2,0.3-2.8,0.7-4C37.2,5,39.5,2.6,42.4,1.7z"/>
		<path class="st8" d="M40.1,3.5c-0.6,0.3-1,0.8-1.4,1.3c-1.4,1.6-1.7,3.4-1.9,5c-0.2,1.6-0.4,3.1-0.8,5c-0.4,2-0.7,2.8-1,3.5
			c-0.3,0.7-1.1,1.3-1.1,1.3c0.5,0.3,1.1,0.5,1.7,0.6c0.4,0,0.6-0.4,0.6-0.8c0-1-0.5-1.6-0.2-3.3c0.4-2.2,0.8-4.3,1.1-6.8
			C37.4,5.4,40,3.5,40.1,3.5z"/>
		<path class="st1" d="M7,31c0,0,4.6,0.3,8,0.1c3.3-0.2,7.6-2.1,10.1-6.4c1.9-3.3,2.4-6.1,4-6.2c0.7,0,1.3,0.9,0.6,1.7
			c-1.2,1.4-1.8,3.3-3.4,5.9c-2,3.3-6,6.2-11.6,6C11,31.9,7,31,7,31z"/>
		<path class="st9" d="M9.5,31.3c0,0,1.9,0,2.4,0c0.5,0,0.5,0.4-0.1,0.4C11.2,31.7,9.5,31.3,9.5,31.3z"/>
		<path class="st9" d="M13.1,31.8c-0.4,0-0.4-0.4,0-0.4c0.4,0,2.6,0.2,3.9-0.1C17,31.3,15.4,32,13.1,31.8z"/>
		<path class="st9" d="M29.8,17c-0.2-0.2-0.3-0.5-0.2-0.7c0-0.3,0.1-0.5,0.3-0.7c0,0,0.1-0.1,0.1-0.1c0.1,0,0.2,0.1,0.3,0.2
			c0.1,0.3,0.1,0.6,0.1,0.9c0,0.1,0,0.2-0.1,0.3s-0.2,0.2-0.3,0.1C30,17.2,29.9,17.1,29.8,17z"/>
		<path class="st9" d="M30.6,17.9c-0.1,0.1-0.1,0.4,0,0.6c0.4,0.7,1.1,1.3,1.9,1.6c-0.5-0.5-0.9-1.1-1.2-1.7
			c-0.1-0.2-0.1-0.3-0.3-0.4C31,17.8,30.8,17.8,30.6,17.9z"/>
		<ellipse transform="matrix(0.642 -0.7667 0.7667 0.642 -4.1617 28.5421)" class="st9" cx="28.5" cy="18.7" rx="0.8" ry="0.5"/>
		<ellipse transform="matrix(0.5275 -0.8496 0.8496 0.5275 -3.9491 32.9621)" class="st9" cx="27.7" cy="20" rx="0.5" ry="0.3"/>
		<path class="st10" d="M31.4,16.4c0,0,0.6-0.2,1.6-0.2c1,0,1.9-0.3,2.3-1.5c0.4-1.2,0.8-3.7,0.8-3.7s-0.3,2.8-0.6,4.3
			c-0.2,1.1-1,2.1-2,2.4c-0.9,0.3-1.3,0.5-1.3,0.5S31.6,17.5,31.4,16.4z"/>
		<path class="st10" d="M37.3,6.3c0,0,0.8-2.3,3.6-3.7C40.9,2.6,38.7,4.2,37.3,6.3z"/>
		<path class="st11" d="M36.2,17.7c0,0,0.1,0.1,0.1,0.1c0,0,0.1,0.1,0.1,0.2c0.1,0.1,0.1,0.2,0.2,0.3c0.1,0.2,0.2,0.5,0.2,0.7
			c0.1,0.5,0.1,1-0.1,1.5l0,0.1l0,0l0,0l0,0l0,0l-0.1,0.2c-0.1,0.1-0.1,0.2-0.2,0.3c-0.1,0.1-0.1,0.2-0.2,0.3
			c-0.1,0.1-0.1,0.2-0.2,0.3c-0.3,0.4-0.6,0.8-0.9,1.1c-0.2,0.2-0.3,0.4-0.5,0.5c-0.1,0.1-0.2,0.2-0.3,0.2L34.1,24l-0.3,0.2
			l-0.1,0.1c0,0-0.1,0.1-0.1,0.1l-0.2,0.2l-0.1,0.1l-0.1,0.1l-0.2,0.3c-0.1,0.1-0.2,0.2-0.2,0.3c-0.1,0.1-0.2,0.2-0.2,0.3L32.2,26
			c-0.3,0.4-0.5,0.8-0.8,1.2c-0.3,0.4-0.5,0.8-0.8,1.2c-0.1,0.2-0.3,0.4-0.4,0.6c-0.1,0.1-0.1,0.2-0.2,0.3c-0.1,0.1-0.1,0.2-0.2,0.3
			c-0.3,0.4-0.6,0.7-1,1.1l-0.3,0.3L28.5,31l-0.1,0.1l-0.5,0.5c-0.7,0.6-1.5,1.2-2.3,1.8c-0.8,0.5-1.7,1-2.5,1.4
			c-0.9,0.4-1.8,0.7-2.7,0.9l-0.7,0.2c-0.2,0-0.5,0.1-0.7,0.1c-0.2,0-0.5,0.1-0.7,0.1c-0.2,0-0.5,0-0.7,0.1c-0.2,0-0.5,0-0.7,0
			l-0.7,0c-0.2,0-0.5,0-0.7-0.1l-0.4,0l-0.1,0l0,0l0,0l0,0l-0.2,0c-0.2,0-0.5-0.1-0.7-0.1c-0.2-0.1-0.5-0.1-0.7-0.2
			c-0.2-0.1-0.5-0.1-0.7-0.2c-0.2-0.1-0.5-0.1-0.7-0.2c-0.4-0.2-0.9-0.3-1.3-0.5c-0.4-0.2-0.9-0.4-1.3-0.6c-0.9-0.4-1.7-0.8-2.6-1.2
			c-0.4-0.2-0.9-0.3-1.3-0.5c-0.4-0.1-0.9-0.3-1.4-0.3c-0.9-0.2-1.8-0.2-2.8,0l0,0c0,0-0.1,0-0.1,0c0,0,0,0,0-0.1h0
			c0.1-0.1,0.1-0.1,0.2-0.2l0.1-0.1l0.1-0.1l0.1,0c0.2-0.1,0.3-0.3,0.5-0.4C2.2,31.1,2.2,31,2.3,31l0.3-0.1l0.1-0.1l0.1-0.1l0.3-0.1
			C4,30.3,4.8,30.1,5.6,30c0.8-0.1,1.6-0.2,2.5-0.3c0.8-0.1,1.6-0.1,2.5-0.1c0.8,0,1.6-0.1,2.5-0.2c0.8-0.1,1.6-0.2,2.4-0.4
			c0.8-0.2,1.6-0.4,2.3-0.8l0,0l0,0c0,0,0,0,0,0l0,0l0.1,0l0.1-0.1l0.3-0.1c0.2-0.1,0.4-0.2,0.5-0.3l0.5-0.3l0.3-0.2l0.1-0.1
			l0.1-0.1l0.5-0.3c0.1-0.1,0.2-0.1,0.2-0.2l0.2-0.2l0.5-0.4c0.2-0.1,0.3-0.3,0.5-0.4c0.3-0.3,0.6-0.6,0.9-0.8
			c0.1-0.1,0.1-0.1,0.2-0.2l0.2-0.2l0.2-0.2c0.1-0.1,0.1-0.2,0.2-0.2l0.4-0.5l0.4-0.5c0.1-0.2,0.2-0.3,0.4-0.5l0.2-0.3
			c0.1-0.1,0.1-0.2,0.2-0.3c0.4-0.7,0.8-1.4,1.2-2.1c0.2-0.4,0.4-0.7,0.6-1.1c0.2-0.4,0.4-0.7,0.6-1.1c0.4-0.7,1-1.4,1.6-1.9
			c0.3-0.3,0.7-0.5,1.1-0.7c0.4-0.2,0.8-0.3,1.3-0.3c0,0,0.1,0,0.2,0l0.2,0c0.1,0,0.2,0,0.3,0c0.2,0,0.4,0.1,0.6,0.1
			c0.1,0,0.2,0.1,0.3,0.1L33,15c0,0,0.1,0,0.1,0.1c0,0,0.1,0.1,0.1,0.1c0,0,0.1,0.1,0.1,0.1c0.1,0.1,0.2,0.1,0.3,0.2
			c0,0,0,0.1,0,0.1c0,0-0.1,0-0.1,0l0,0c-0.1,0-0.2-0.1-0.3-0.1c-0.1,0-0.2-0.1-0.3-0.1c-0.1,0-0.2-0.1-0.3-0.1c0,0-0.1,0-0.1,0
			c0,0-0.1,0-0.1,0c-0.2-0.1-0.4-0.1-0.6-0.1c-0.1,0-0.2,0-0.3,0l-0.1,0c0,0-0.1,0-0.1,0c-0.4,0-0.8,0.1-1.1,0.3
			c-0.4,0.2-0.7,0.4-1,0.6c-0.6,0.5-1.1,1.2-1.5,1.9c-0.2,0.3-0.4,0.7-0.6,1.1c-0.2,0.4-0.4,0.7-0.6,1.1c-0.4,0.7-0.8,1.5-1.2,2.2
			c-0.1,0.1-0.1,0.2-0.2,0.3l-0.2,0.3c-0.1,0.2-0.2,0.3-0.4,0.5l-0.4,0.5l-0.4,0.5c-0.1,0.1-0.1,0.2-0.2,0.2l-0.2,0.2l-0.2,0.2
			c-0.1,0.1-0.1,0.2-0.2,0.2c-0.3,0.3-0.6,0.6-0.9,0.9c-0.2,0.1-0.3,0.3-0.5,0.4l-0.5,0.4l-0.2,0.2c-0.1,0.1-0.2,0.1-0.3,0.2
			L20,27.4l-0.1,0.1l-0.1,0.1l-0.3,0.2L19,28.1c-0.2,0.1-0.4,0.2-0.5,0.3l-0.3,0.1L18,28.6l-0.1,0l0,0l0,0l0,0
			c-0.8,0.4-1.6,0.6-2.4,0.8c-0.8,0.2-1.6,0.3-2.5,0.4c-0.8,0.1-1.6,0.1-2.5,0.2c-0.8,0-1.6,0.1-2.5,0.1c-0.8,0-1.6,0.1-2.4,0.2
			c-0.8,0.1-1.6,0.3-2.4,0.6L3,31l-0.1,0.1l-0.1,0.1l-0.3,0.1c-0.1,0-0.2,0.1-0.3,0.1c-0.2,0.1-0.3,0.2-0.5,0.3l-0.1,0l-0.1,0
			l-0.1,0.1L1.2,32l0,0l-0.1-0.1C2,31.6,3,31.6,4,31.8c0.5,0.1,0.9,0.2,1.4,0.3c0.5,0.1,0.9,0.3,1.4,0.5c0.9,0.4,1.7,0.8,2.6,1.1
			c0.4,0.2,0.9,0.4,1.3,0.6c0.4,0.2,0.9,0.4,1.3,0.5c0.2,0.1,0.4,0.1,0.7,0.2c0.2,0.1,0.4,0.1,0.7,0.2c0.2,0.1,0.5,0.1,0.7,0.2
			c0.2,0,0.4,0.1,0.7,0.1l0.2,0l0,0l0,0c0,0,0,0,0,0l0,0l0.1,0l0.3,0c0.2,0,0.5,0,0.7,0l0.7,0c0.2,0,0.5,0,0.7,0
			c0.2,0,0.5,0,0.7-0.1c0.2,0,0.5,0,0.7-0.1c0.2,0,0.5-0.1,0.7-0.1l0.7-0.2c0.9-0.2,1.8-0.5,2.6-0.9c0.8-0.4,1.6-0.9,2.4-1.4
			c0.8-0.5,1.5-1.1,2.2-1.7l0.5-0.5l0.1-0.1l0.1-0.1l0.2-0.2c0.3-0.3,0.6-0.7,0.9-1c0.6-0.7,1.1-1.5,1.6-2.3
			c0.3-0.4,0.5-0.8,0.8-1.2l0.2-0.3c0.1-0.1,0.2-0.2,0.2-0.3c0.1-0.1,0.2-0.2,0.2-0.3l0.3-0.3l0.1-0.1l0.1-0.1l0.3-0.2
			c0,0,0.1-0.1,0.1-0.1l0.1-0.1l0.3-0.2l0.3-0.2c0.1-0.1,0.2-0.2,0.3-0.2c0.2-0.2,0.3-0.3,0.5-0.5c0.3-0.3,0.6-0.7,0.9-1.1
			c0.1-0.1,0.1-0.2,0.2-0.3c0.1-0.1,0.1-0.2,0.2-0.3c0.1-0.1,0.1-0.2,0.2-0.3l0.1-0.2l0,0c0,0,0,0,0,0l0,0l0,0l0-0.1
			c0.1-0.4,0.2-0.9,0.1-1.3c0-0.2-0.1-0.4-0.2-0.6c0-0.1,0-0.1-0.1-0.2l-0.1-0.2c0-0.1,0-0.1-0.1-0.2c0-0.1,0-0.1-0.1-0.2
			c0-0.1,0-0.1,0.1-0.1C36.1,17.7,36.2,17.7,36.2,17.7z"/>
		<path class="st12" d="M31.1,16.3C31.1,16.3,31.1,16.3,31.1,16.3c0-0.1,0-0.1,0-0.1c0-0.1,0-0.2,0-0.4c0-0.1,0.1-0.2,0.2-0.3
			c0.1-0.1,0.2-0.2,0.3-0.2c0.2-0.1,0.5-0.1,0.9-0.1c0.3,0,0.6,0.1,1,0.1c0.2,0,0.4,0,0.5,0c0.2,0,0.3-0.1,0.5-0.2
			c0.3-0.2,0.5-0.6,0.6-1.1c0.1-0.4,0.3-0.9,0.4-1.4c0.1-0.3,0.1-0.5,0.1-0.8c0-0.1,0-0.3,0.1-0.4c0-0.1,0-0.3,0.1-0.4
			c0.1-0.5,0.1-1.1,0.2-1.7c0-0.3,0.1-0.6,0.2-0.9c0-0.2,0.1-0.3,0.1-0.5c0-0.1,0-0.1,0.1-0.2c0-0.1,0-0.1,0.1-0.2
			c0-0.1,0.1-0.3,0.2-0.4c0.1-0.2,0.1-0.3,0.2-0.4c0.1-0.1,0.1-0.3,0.2-0.4c0.1-0.1,0.1-0.3,0.2-0.4c0.3-0.6,0.7-1.1,1.1-1.6
			c0.4-0.5,0.9-1,1.5-1.4c0.1-0.1,0.3-0.2,0.4-0.3c0.1-0.1,0.3-0.2,0.4-0.3c0.3-0.2,0.6-0.3,0.9-0.5c0.2-0.1,0.3-0.1,0.5-0.2
			c0,0,0.1,0,0.2,0c0.1,0,0.1,0,0.2,0c0.1,0,0.2,0.1,0.2,0.2c0,0.1,0,0.1,0,0.1c0,0,0,0,0,0.1c0,0,0,0,0,0c-0.1,0.1-0.1,0.2-0.2,0.2
			c-0.1,0.1-0.1,0.1-0.2,0.2c-0.1,0.1-0.3,0.2-0.4,0.3c-0.1,0-0.1,0.1-0.2,0.1c-0.1,0-0.1,0.1-0.2,0.2c-0.1,0.1-0.3,0.2-0.4,0.3
			l-0.2,0.2l-0.2,0.2c-0.1,0.1-0.1,0.1-0.2,0.2l-0.2,0.2c-0.5,0.5-0.9,1-1.3,1.5c-0.4,0.6-0.6,1.2-0.8,1.8c-0.2,0.6-0.3,1.3-0.4,1.9
			c0,0.2,0,0.3-0.1,0.5c0,0.2,0,0.3-0.1,0.5c0,0.3-0.1,0.6-0.1,0.9c0,0.2,0,0.3-0.1,0.5c0,0.2,0,0.3-0.1,0.5c0,0.3-0.1,0.6-0.1,0.9
			c0,0.1,0,0.3-0.1,0.4c0,0.1-0.1,0.3-0.1,0.4c-0.1,0.3-0.1,0.6-0.2,0.8c0,0.3-0.1,0.5-0.2,0.8c-0.1,0.3-0.1,0.5-0.2,0.8
			c0,0.1,0,0.1,0,0.2l0,0.1l0,0.1c0,0.1,0,0.1,0,0.2c0,0.1,0,0.1,0,0.2c0,0.2,0,0.5,0,0.7c0,0.5,0.1,0.9,0.1,1.3c0,0.2,0,0.4,0,0.6
			c0,0.1,0,0.2,0,0.3c0,0.1-0.1,0.2-0.1,0.3c-0.1,0.1-0.1,0.2-0.2,0.2c-0.1,0.1-0.2,0.1-0.3,0.1c0,0-0.1,0-0.1,0l-0.1,0l0,0l0,0
			c0,0,0,0,0,0l0,0c0,0-0.1,0-0.1,0l-0.1,0l-0.1,0c0,0-0.1,0-0.1,0c0,0-0.1,0-0.1,0c-0.1,0-0.1,0-0.2,0c-0.1,0-0.3-0.1-0.4-0.1
			c-0.1,0-0.1,0-0.2-0.1c0,0-0.1-0.1-0.1-0.1c0,0-0.1,0-0.1-0.1c0,0-0.1,0-0.1-0.1c-0.1,0-0.1-0.1-0.2-0.1c0,0-0.1-0.1-0.1-0.1
			c-0.1-0.1-0.1-0.1-0.1-0.1c0,0,0,0,0,0c0,0,0,0,0,0l0,0c0,0,0,0,0.1,0.1c0.1,0,0.2,0.1,0.3,0.2c0,0,0.1,0,0.1,0.1
			c0,0,0.1,0,0.1,0.1c0,0,0.1,0,0.1,0.1c0,0,0.1,0,0.2,0c0.1,0,0.2,0.1,0.3,0.1c0.1,0,0.1,0,0.2,0c0,0,0.1,0,0.1,0c0,0,0.1,0,0.1,0
			l0.1,0l0.1,0c0,0,0.1,0,0.1,0l0,0c0,0,0,0,0,0l0,0l0,0l0.1,0c0,0,0.1,0,0.1,0c0.1,0,0.3-0.1,0.4-0.2c0-0.1,0.1-0.1,0.1-0.2
			c0-0.1,0-0.2,0-0.3c0-0.2,0-0.4,0-0.6C36.1,18.4,36,18,36,17.5c0-0.2,0-0.5,0-0.7c0-0.1,0-0.1,0-0.2c0-0.1,0-0.1,0-0.2l0-0.1
			l0-0.1c0-0.1,0-0.1,0-0.2c0.1-0.3,0.1-0.5,0.2-0.8c0.1-0.3,0.1-0.5,0.2-0.8c0-0.3,0.1-0.5,0.2-0.8c0-0.1,0.1-0.3,0.1-0.4
			c0-0.1,0-0.3,0.1-0.4c0-0.3,0.1-0.6,0.1-0.9c0-0.1,0-0.3,0.1-0.5c0-0.2,0-0.3,0.1-0.5c0-0.3,0.1-0.6,0.1-0.9c0-0.2,0-0.3,0.1-0.5
			c0-0.2,0-0.3,0.1-0.5c0.1-0.6,0.2-1.3,0.4-1.9c0.2-0.6,0.5-1.3,0.9-1.9c0.4-0.6,0.8-1.1,1.3-1.6L40,3.5c0.1-0.1,0.1-0.1,0.2-0.2
			l0.2-0.2L40.6,3c0.1-0.1,0.3-0.2,0.4-0.3c0.1-0.1,0.1-0.1,0.2-0.2c0.1-0.1,0.1-0.1,0.2-0.2c0.1-0.1,0.3-0.2,0.4-0.3
			C41.9,2,42,2,42.1,1.9c0.1,0,0.1-0.1,0.1-0.1c0,0,0,0,0,0c0,0,0,0,0,0c0,0,0,0,0,0c0,0,0,0,0,0c0,0,0,0-0.1,0c0,0-0.1,0-0.1,0
			c-0.1,0-0.3,0.1-0.5,0.2c-0.3,0.1-0.6,0.3-0.9,0.5c-0.1,0.1-0.3,0.2-0.4,0.3c-0.1,0.1-0.3,0.2-0.4,0.3c-0.5,0.4-1,0.8-1.4,1.3
			c-0.4,0.5-0.8,1-1.1,1.6c-0.1,0.1-0.2,0.3-0.2,0.4C37.1,6.5,37,6.6,37,6.8c-0.1,0.1-0.1,0.3-0.2,0.4c-0.1,0.1-0.1,0.3-0.2,0.4
			c-0.2,0.6-0.3,1.2-0.4,1.7c-0.1,0.6-0.2,1.1-0.2,1.7c0,0.1,0,0.3-0.1,0.4c0,0.1,0,0.3-0.1,0.4c0,0.3-0.1,0.5-0.2,0.8
			c-0.1,0.5-0.2,1-0.4,1.4c-0.1,0.2-0.2,0.4-0.3,0.7c-0.1,0.2-0.3,0.4-0.4,0.5c-0.2,0.1-0.4,0.2-0.6,0.3c-0.2,0-0.4,0-0.6,0
			c-0.4,0-0.7-0.1-1-0.1c-0.1,0-0.1,0-0.2,0c-0.1,0-0.1,0-0.2,0c-0.1,0-0.2,0-0.3,0.1c-0.1,0-0.2,0.1-0.2,0.1
			c-0.1,0.1-0.1,0.1-0.1,0.2c-0.1,0.1-0.1,0.2-0.1,0.3C31.2,16.2,31.2,16.3,31.1,16.3C31.2,16.3,31.2,16.3,31.1,16.3
			C31.2,16.3,31.2,16.3,31.1,16.3C31.2,16.3,31.1,16.3,31.1,16.3z"/>
		<path class="st13" d="M31.8,15.9c0,0-0.4,0.5,0.1,1.1C31.9,17,32.1,16.5,31.8,15.9z"/>
		<path class="st13" d="M32.3,17.6c0,0,0.1,0.8,0.9,1C33.1,18.7,32.9,18,32.3,17.6z"/>
		<path class="st13" d="M33.9,16.4c0,0,0.8-0.3,1.2-1C35.1,15.4,34.9,17,33.9,16.4z"/>
	</g>
	<g>
		<path class="st7" d="M48.3,5.5c-0.9,0.5-5.8,3.3-8.1,9c-0.9,2.4-0.9,3.8-0.5,4.8c0.4,0.9,1,1.9,1.2,3.1c0,0.1,0,0.2,0,0.3
			l-4.9,0.9L32.5,20c0.6-0.6,2.2-1.3,3.4-1.8c1.2-0.5,1.8-0.2,3-3.5c1.2-3.3,5.3-8.5,9.2-9.6C48.4,5,48.6,5,48.7,5
			C48.9,5.1,48.8,5.3,48.3,5.5z"/>
		<path class="st8" d="M47.6,5.7c-1.3,0.7-5.3,3.1-7.6,8.8c-0.9,2.4-1,3.9-0.4,5.1c0.4,0.9,0.8,1.4,0.8,2.6l-2.2-0.9
			c0,0,0.4-0.6,0.3-1.7c-0.1-2.1,0.6-4.1,1.3-5.7c0.9-2.1,2.5-4.4,4.7-6.2c1.9-1.6,3.3-2.2,3.9-2.5C48.5,5.2,47.9,5.5,47.6,5.7z"/>
		<path class="st0" d="M39.4,27.9c-1.4,3-2.8,7.1-6.1,10.5c-2.1,2.1-5.5,4.4-9.3,5.2c-4.2,0.8-8.4,0.4-10.1,1.1
			c-2,0.9-3,3.6-3.1,3.7c0,0,0-0.1,0-0.1c0-0.1,0-0.2,0-0.3c0-1,0.3-3.5,2.2-5.6c3.3-3.6,10.3-5.9,13.7-9.2c0.3-0.3,0.6-0.6,0.8-0.9
			c2.9-3.8,3.4-8.8,4.1-11.1c0.4-1.3,1.2-2.1,2.2-2.3c0.6-0.1,1.3,0.1,2.1,0.6c1.6,1,2.5,1,3.3,1.3c0.1,0,0.1,0.1,0.2,0.1
			c0.1,0,0.2,0.1,0.3,0.2C42.5,22.7,40.8,24.8,39.4,27.9z"/>
		<path class="st6" d="M33.9,18.9c-0.2,0.1-0.5,0.3-0.6,0.5c-0.4,0.4-0.7,0.9-0.9,1.5c-0.9,2.1-1.1,4-1.9,6.3
			c-0.7,2.1-2.4,5.1-3.7,6c0.3-0.3,0.6-0.6,0.8-0.9c2.8-4,3.3-8.7,4-11C32,19.9,32.9,19,33.9,18.9z"/>
		<path class="st1" d="M13.9,42.8c0,0,1-1.6,4.2-3.2c3.9-1.9,8.7-3.3,11.2-7.8c2.9-5.1,2.6-8.6,3.8-10.2c1.2-1.7,2-0.5,1.3,1
			c-0.7,1.5-1,6.2-4.2,10.9c-2,2.9-5,4.8-10.4,6.3C16.2,40.8,13.9,42.8,13.9,42.8z"/>
		<path class="st9" d="M15.5,41.4c0,0,1.2-1,1.7-1.2c0.5-0.2,0.6,0.2,0.2,0.4S16,41.1,15.5,41.4z"/>
		<path class="st9" d="M18.4,39.7c-0.5,0.2-0.3,0.6,0.2,0.4c0.3-0.1,0.9-0.5,2-0.9c1-0.4,1.9-0.8,1.9-0.8s-1.2,0.2-2,0.4
			C19.6,39.1,19.1,39.3,18.4,39.7z"/>
		<path class="st9" d="M36,20c-0.5-0.3-1-0.7-1.5-0.8c-0.6-0.1-1.2,0.4-1.2,0.9c0.7-0.3,1.6,0,2.3,0.3c0.7,0.3,1.4,0.7,2.2,0.7
			C37.1,20.8,36.6,20.5,36,20z"/>
		<path class="st14" d="M39.4,27.9c-1.4,3-2.7,7-6.1,10.4c-2.1,2.1-6.2,4.6-9.9,5.3c-4.2,0.8-7.8,0.4-9.4,1.1c-2,0.9-3,3.6-3.1,3.7
			c0,0,0-0.2,0-0.5c0.9-2.8,2.2-3.8,4.5-4.5c2.5-0.7,6.1-0.7,8.6-1.4c3.2-0.9,6.7-3.8,8.7-7c1.8-2.9,3.2-8,5-11.2
			c0.5-0.9,1.1-2.2,0.5-3.4c0.1,0,0.6,0.1,1,0.3c0.3,0.1,0.7,0.3,0.7,0.3C42.5,22.7,40.8,24.8,39.4,27.9z"/>
		<path class="st1" d="M11.4,46.9c0,0,0.1-1.9,1.6-3.1C13,43.8,12,45.5,11.4,46.9z"/>
		<path class="st5" d="M39.4,27.9c-1.4,3-2.9,7.3-6.2,10.7c-2.1,2.1-5.6,4.3-9.3,5.1c-4.2,0.8-8.2,0.3-9.9,1.1c-2,0.9-3,3.6-3.1,3.7
			c0,0,0-0.1,0-0.1c1-2.5,2.1-3.6,3.7-4.1c2.2-0.7,4.6-0.1,9-1.1c3.7-0.8,7.7-3.1,10.7-6.9c2.1-2.8,3.7-7.7,5.6-11
			c0.5-0.9,1.5-2.5-0.3-4.3c0.1,0.1,0.2,0.1,0.3,0.2C42.5,22.7,40.8,24.8,39.4,27.9z"/>
		<path class="st6" d="M41,24.9c0.4-0.7,0.7-1.6,0.6-2.4c-0.2-0.7-0.7-1.3-1.4-1.6s-1.4-0.4-2.1-0.5c1,0.4,1.9,1.1,2.2,2
			c0.6,1.5-0.1,2.6-0.9,4.7c-0.7,1.7-1.2,3-1.8,4.6C38.7,29.5,39.8,27.2,41,24.9z"/>
		<path class="st6" d="M11.1,47.7c0,0,0.7-1.9,2.3-3c1.3-1,2.5-1,4.4-0.9c1.8,0.1,6.2-0.2,8.2-0.9c0,0-1.8,1-4.9,1.2
			c-3.1,0.2-5.8,0.1-7.2,0.8C12.5,45.5,11.1,47.7,11.1,47.7z"/>
		<ellipse transform="matrix(0.532 -0.8468 0.8468 0.532 -2.9784 38.2051)" class="st9" cx="33.1" cy="21.8" rx="0.8" ry="0.5"/>
		<ellipse transform="matrix(0.3899 -0.9208 0.9208 0.3899 -1.5455 43.9914)" class="st9" cx="32.4" cy="23.2" rx="0.4" ry="0.3"/>
		<path class="st10" d="M37.7,18.6c0.5-0.6,0.6-1,0.7-1.6c0.2-0.8,0.8-2.5,0.8-2.5c-0.3,0.6-0.8,2.1-1.2,2.8
			c-0.5,0.9-1.2,1.1-1.8,1.2c-0.6,0.2-1.2,0.5-1.2,0.5c0.5,0.1,1,0.5,1.4,0.7C36.5,19.6,37.2,19.2,37.7,18.6z"/>
		<path class="st13" d="M37.1,18.3c0.4-0.2,0.8-0.6,1-1c-0.1,0.3-0.1,0.6-0.3,0.8C37.7,18.3,37.4,18.4,37.1,18.3z"/>
		<path class="st10" d="M42.3,9.6c0.7-1,2-2.4,3.4-3C44.5,7.4,43.5,8.4,42.3,9.6z"/>
		<path class="st12" d="M34.2,18.7c0,0,0,0,0.1-0.1c0,0,0.1,0,0.1-0.1c0.1,0,0.1-0.1,0.2-0.1c0.3-0.2,0.7-0.3,1.2-0.5
			c0.1-0.1,0.3-0.1,0.4-0.2c0.1-0.1,0.3-0.1,0.4-0.2c0.1-0.1,0.3-0.1,0.4-0.3c0.1-0.1,0.3-0.2,0.4-0.4c0.2-0.3,0.4-0.7,0.6-1
			c0.2-0.4,0.4-0.8,0.5-1.3c0.3-0.9,0.8-1.9,1.4-2.8c0.6-1,1.3-1.9,2.1-2.8C43.1,8,44,7.2,45.1,6.4c0.5-0.4,1.1-0.7,1.7-1
			C47,5.3,47.3,5.1,47.6,5C47.7,5,47.8,5,47.9,5c0,0,0.1,0,0.1,0l0.1,0l0.1,0c0.1,0,0.2,0,0.3,0c0.1,0,0.2,0,0.3,0
			c0,0,0.1,0,0.1,0.1c0,0,0.1,0,0.1,0.1c0,0,0,0,0.1,0.1c0,0,0,0.1,0,0.1c0,0,0,0.1,0,0.1c0,0.1-0.1,0.1-0.1,0.1
			c-0.1,0.1-0.3,0.2-0.4,0.3c-0.3,0.1-0.6,0.3-0.8,0.5c-0.3,0.2-0.5,0.4-0.8,0.5C46.5,6.9,46.2,7,46,7.2c-0.5,0.4-1,0.8-1.4,1.2
			c-0.4,0.4-0.9,0.9-1.3,1.3c-0.4,0.5-0.8,0.9-1.1,1.4c-0.3,0.5-0.6,1-0.9,1.5c-0.1,0.1-0.1,0.2-0.2,0.4c-0.1,0.1-0.1,0.2-0.2,0.4
			c-0.1,0.1-0.1,0.2-0.2,0.4c0,0.1-0.1,0.1-0.1,0.2c0,0.1-0.1,0.1-0.1,0.2c-0.1,0.1-0.1,0.2-0.1,0.4c0,0.1-0.1,0.2-0.1,0.4
			c-0.1,0.2-0.2,0.5-0.2,0.7c-0.3,0.9-0.4,1.8-0.4,2.6c0,0.4,0.1,0.7,0.3,1c0.1,0.3,0.3,0.6,0.4,0.8c0.2,0.5,0.4,0.9,0.5,1.2
			c0.1,0.1,0.1,0.3,0.1,0.3c0,0.1,0,0.1,0,0.1l-0.3,0.1c0,0,0,0,0-0.1c0-0.1-0.1-0.2-0.1-0.3c-0.1-0.3-0.3-0.7-0.5-1.2
			c-0.1-0.3-0.3-0.5-0.4-0.9c-0.1-0.3-0.2-0.7-0.3-1.1c-0.1-0.8,0.1-1.7,0.4-2.7c0.1-0.2,0.2-0.5,0.2-0.7c0-0.1,0.1-0.2,0.1-0.4
			c0.1-0.1,0.1-0.2,0.2-0.4c0.2-0.5,0.4-1,0.7-1.5c0.3-0.5,0.6-1,0.9-1.5c0.3-0.5,0.7-1,1.1-1.4c0.8-0.9,1.7-1.8,2.8-2.6
			c0.5-0.4,1.1-0.7,1.6-1.1c0.1-0.1,0.3-0.2,0.4-0.2c0.1-0.1,0.3-0.1,0.4-0.2c0.1-0.1,0.3-0.1,0.4-0.2c0,0,0,0,0.1-0.1c0,0,0,0,0,0
			c0,0,0,0,0,0c0,0,0,0,0,0c0,0-0.1,0-0.1,0c-0.1,0-0.3,0-0.4,0l-0.1,0l-0.1,0l-0.1,0c-0.1,0-0.2,0.1-0.2,0.1
			c-0.3,0.1-0.6,0.2-0.9,0.4c-0.6,0.3-1.1,0.6-1.6,1c-1,0.7-1.9,1.6-2.8,2.5c-0.8,0.9-1.5,1.8-2.1,2.8c-0.6,0.9-1.1,1.9-1.4,2.8
			c-0.2,0.5-0.4,0.9-0.6,1.3c-0.2,0.4-0.4,0.8-0.7,1.1c-0.1,0.2-0.3,0.3-0.4,0.4c-0.2,0.1-0.3,0.2-0.5,0.3c-0.2,0.1-0.3,0.1-0.5,0.2
			c-0.1,0.1-0.3,0.1-0.4,0.2c-0.5,0.2-0.9,0.4-1.2,0.5c-0.1,0-0.1,0.1-0.2,0.1c0,0-0.1,0.1-0.1,0.1c-0.1,0-0.1,0.1-0.1,0.1
			L34.2,18.7z"/>
		<g>
			<path class="st11" d="M39.8,28.1c-0.3,0.7-0.7,1.4-1,2.2c-0.3,0.7-0.7,1.4-1,2.2c-0.4,0.7-0.7,1.4-1.1,2.1
				c-0.2,0.3-0.4,0.7-0.6,1c-0.2,0.3-0.5,0.7-0.7,1c-0.5,0.6-1,1.3-1.6,1.8l-0.2,0.2l-0.2,0.2c-0.1,0.1-0.3,0.3-0.4,0.4
				c-0.3,0.3-0.6,0.5-0.9,0.8c-0.6,0.5-1.3,1-2,1.4c-0.7,0.4-1.4,0.8-2.1,1.2c-0.7,0.3-1.5,0.6-2.2,0.9c-0.4,0.1-0.8,0.2-1.2,0.3
				c-0.4,0.1-0.8,0.2-1.2,0.3c-0.8,0.1-1.6,0.3-2.4,0.3c-0.8,0.1-1.6,0.1-2.4,0.1c-0.8,0-1.6,0-2.4,0.1c-0.4,0-0.8,0.1-1.2,0.1
				c-0.2,0-0.4,0.1-0.6,0.1c0,0-0.1,0-0.1,0c0,0-0.1,0-0.1,0.1l-0.1,0l0,0c0,0,0,0,0,0l0,0L14,45c-0.3,0.2-0.7,0.4-1,0.6
				c-0.3,0.2-0.6,0.5-0.8,0.8c-0.3,0.3-0.5,0.6-0.7,0.9c-0.1,0.2-0.2,0.3-0.3,0.5c0,0.1-0.1,0.2-0.1,0.3c0,0.1-0.1,0.2-0.1,0.3l0,0
				c0,0.1-0.1,0.1-0.2,0.1c0,0-0.1-0.1-0.1-0.1l0,0c0,0,0,0,0,0l0,0l0,0l0-0.1l0-0.1l0-0.2c0-0.1,0-0.3,0-0.4c0-0.3,0.1-0.6,0.1-0.8
				c0.1-0.6,0.2-1.1,0.4-1.7c0.2-0.5,0.4-1.1,0.6-1.6c0.1-0.3,0.3-0.5,0.4-0.7c0.1-0.1,0.2-0.2,0.3-0.4l0.1-0.2l0,0l0,0L13,42
				c0.8-0.8,1.7-1.5,2.6-2.2c0.9-0.6,1.9-1.2,2.9-1.8c1-0.6,2-1.1,2.9-1.7c1-0.6,1.9-1.1,2.9-1.8c0.5-0.3,0.9-0.6,1.3-1
				c0.4-0.4,0.8-0.7,1.2-1.1c0.1-0.1,0.2-0.2,0.3-0.3c0.1-0.1,0.2-0.2,0.3-0.3c0.2-0.2,0.4-0.4,0.6-0.6c0.1-0.1,0.2-0.2,0.3-0.3
				c0-0.1,0.1-0.1,0.1-0.2l0.1-0.2c0.1-0.2,0.3-0.5,0.4-0.7c0.3-0.5,0.5-1,0.7-1.5c0.2-0.5,0.4-1.1,0.6-1.6c0.3-1.1,0.6-2.2,0.9-3.3
				c0.1-0.5,0.3-1.1,0.4-1.6c0.1-0.3,0.2-0.5,0.2-0.8c0.1-0.3,0.2-0.5,0.4-0.8c0.1-0.3,0.3-0.5,0.5-0.7c0.2-0.2,0.5-0.4,0.7-0.5
				c0.3-0.1,0.6-0.2,0.9-0.2c0.3,0,0.6,0,0.9,0.1c0.3,0.1,0.5,0.2,0.8,0.3c0.3,0.1,0.5,0.3,0.7,0.5c0.5,0.3,1,0.5,1.5,0.7
				c0.3,0.1,0.5,0.1,0.8,0.2c0.1,0,0.3,0.1,0.4,0.1c0.1,0,0.1,0,0.2,0.1c0,0,0.1,0,0.1,0l0.1,0l0.4,0.1c0.1,0,0.1,0,0.2,0.1
				c0,0,0,0,0.1,0l0,0l0.1,0.1c0.3,0.2,0.5,0.3,0.7,0.6c0.2,0.2,0.4,0.5,0.5,0.8c0.1,0.3,0.2,0.6,0.2,0.9c0,0.3-0.1,0.6-0.2,0.9
				c-0.1,0.3-0.2,0.6-0.3,0.8c-0.2,0.5-0.5,1-0.8,1.5C40.3,27.1,40.1,27.6,39.8,28.1z M39.3,27.8L39.3,27.8c0.2-0.5,0.5-1,0.8-1.5
				c0.3-0.5,0.5-1,0.7-1.5c0.2-0.5,0.4-1,0.4-1.5c0-0.3,0-0.5-0.1-0.7c-0.1-0.2-0.2-0.4-0.4-0.6c-0.2-0.2-0.4-0.4-0.6-0.5l-0.1-0.1
				l0,0l0,0c0,0-0.1-0.1-0.2-0.1c-0.1-0.1-0.3-0.1-0.4-0.2c-0.5-0.3-1-0.4-1.6-0.5c-0.5-0.2-1.1-0.4-1.6-0.7
				c-0.2-0.1-0.5-0.3-0.7-0.4c-0.2-0.1-0.5-0.2-0.8-0.3c-0.5-0.2-1.1-0.2-1.6,0.1c-0.5,0.2-0.9,0.6-1.2,1.1
				c-0.1,0.2-0.2,0.5-0.3,0.7c-0.1,0.3-0.2,0.5-0.2,0.8c-0.1,0.5-0.3,1.1-0.4,1.6c-0.3,1.1-0.5,2.2-0.9,3.3
				c-0.2,0.5-0.4,1.1-0.6,1.6c-0.2,0.5-0.4,1.1-0.7,1.6c-0.2,0.5-0.5,1-0.8,1.5c-0.1,0.2-0.3,0.5-0.5,0.7c-0.2,0.2-0.4,0.5-0.5,0.7
				c-0.4,0.4-0.8,0.8-1.3,1.2c-0.4,0.4-0.9,0.7-1.4,1c-0.9,0.6-1.9,1.2-2.9,1.8c-1,0.6-2,1.1-2.9,1.7c-1,0.6-1.9,1.1-2.9,1.8
				c-0.9,0.6-1.8,1.3-2.6,2.1l-0.1,0.1l0,0l0,0L13,42.6c-0.1,0.1-0.2,0.2-0.2,0.3c-0.2,0.2-0.3,0.5-0.4,0.7c-0.3,0.5-0.5,1-0.6,1.5
				c-0.2,0.5-0.3,1.1-0.4,1.6c-0.1,0.3-0.1,0.5-0.1,0.8c0,0.1,0,0.3-0.1,0.4l0,0.2l0,0.1l0,0.1l0,0l0,0c0,0,0,0,0,0l0,0l-0.2,0
				c0.1-0.2,0.2-0.4,0.2-0.6c0.1-0.2,0.2-0.4,0.3-0.5c0.2-0.3,0.4-0.7,0.7-1c0.5-0.6,1.1-1.2,1.9-1.6l0.1-0.1l0,0l0,0l0,0l0.1,0
				c0,0,0.1,0,0.1-0.1c0,0,0.1,0,0.1-0.1c0.2-0.1,0.4-0.1,0.6-0.1c0.4-0.1,0.8-0.1,1.2-0.1c0.8-0.1,1.6-0.1,2.4-0.1
				c0.8,0,1.6-0.1,2.4-0.2c0.8-0.1,1.6-0.2,2.3-0.3c0.4-0.1,0.8-0.2,1.1-0.3c0.4-0.1,0.8-0.2,1.1-0.3c0.7-0.2,1.5-0.5,2.2-0.9
				c0.7-0.3,1.4-0.7,2.1-1.1c0.7-0.4,1.3-0.9,1.9-1.4c0.3-0.2,0.6-0.5,0.9-0.8c0.1-0.1,0.3-0.3,0.4-0.4l0.2-0.2l0.2-0.2
				c0.5-0.6,1-1.2,1.5-1.8c0.2-0.3,0.5-0.6,0.7-1c0.2-0.3,0.4-0.7,0.6-1c0.4-0.7,0.8-1.4,1.1-2.1c0.3-0.7,0.7-1.4,1-2.1
				C38.6,29.3,39,28.5,39.3,27.8L39.3,27.8z"/>
		</g>
	</g>
</g>
</svg>
